<svg xmlns="http://www.w3.org/2000/svg" xmlns:xlink="http://www.w3.org/1999/xlink" width="100%" viewBox="0.00 0.00 727.64 1054.66">
<g id="graph0" class="graph" transform="scale(1 1) rotate(0) translate(4 1050.6612)">
<title>Big Trouble (2018) -- ISBN 9781536202441 -- github.com/morbus/gamebook-choicemaps -- v20210203</title>
<polygon fill="#ffffff" stroke="transparent" points="-4,4 -4,-1050.6612 723.6425,-1050.6612 723.6425,4 -4,4"></polygon>
<text text-anchor="middle" x="359.8213" y="-1030.0612" font-family="Times,serif" font-size="14.00" fill="#000000">Big Trouble (2018) -- ISBN 9781536202441 -- github.com/morbus/gamebook-choicemaps -- v20210203</text>
<!-- Start -->
<g id="node1" class="node">
<title>Start</title>
<g id="a_node1"><a xlink:title="4">
<ellipse fill="#c8c8c8" stroke="#000000" stroke-width="2" cx="196.3213" cy="-978.9306" rx="38.8678" ry="38.8678"></ellipse>
<ellipse fill="none" stroke="#000000" stroke-width="2" cx="196.3213" cy="-978.9306" rx="42.8613" ry="42.8613"></ellipse>
<text text-anchor="middle" x="196.3213" y="-974.7306" font-family="Times,serif" font-size="14.00" fill="#000000">☐ Start</text>
</a>
</g>
</g>
<!-- 6 -->
<g id="node2" class="node">
<title>6</title>
<g id="a_node2"><a xlink:title="6">
<ellipse fill="none" stroke="#000000" cx="119.3213" cy="-882" rx="27" ry="18"></ellipse>
<text text-anchor="middle" x="119.3213" y="-877.8" font-family="Times,serif" font-size="14.00" fill="#000000">☐ 6</text>
</a>
</g>
</g>
<!-- Start&#45;&gt;6 -->
<g id="edge1" class="edge">
<title>Start-&gt;6</title>
<path fill="none" stroke="#000000" d="M169.6065,-945.301C159.3304,-932.365 147.8146,-917.8685 138.3988,-906.0155"></path>
<polygon fill="#000000" stroke="#000000" points="140.9221,-903.565 131.9615,-897.912 135.441,-907.9191 140.9221,-903.565"></polygon>
</g>
<!-- 8 -->
<g id="node3" class="node">
<title>8</title>
<g id="a_node3"><a xlink:title="7">
<polygon fill="#c8c8c8" stroke="#000000" stroke-width="2" points="199.0038,-864.0493 200.7799,-864.1479 202.5376,-864.2953 204.2697,-864.4913 205.9693,-864.7353 207.6295,-865.0266 209.2438,-865.3645 210.8059,-865.7479 212.3098,-866.1759 213.75,-866.6472 215.1213,-867.1606 216.4189,-867.7147 217.6385,-868.308 218.7762,-868.9388 219.8286,-869.6054 220.793,-870.3059 221.6668,-871.0385 222.4482,-871.8012 223.1358,-872.5918 223.7288,-873.4082 224.2268,-874.2481 224.6298,-875.1093 224.9384,-875.9894 225.1537,-876.886 225.277,-877.7965 225.3102,-878.7186 225.2554,-879.6497 225.1152,-880.5873 224.8923,-881.5287 224.5899,-882.4713 224.2113,-883.4127 223.7599,-884.3503 223.2394,-885.2814 222.6537,-886.2035 222.0065,-887.114 221.3019,-888.0106 220.5438,-888.8907 219.7361,-889.7519 218.8826,-890.5918 217.9872,-891.4082 217.0535,-892.1988 216.0852,-892.9615 215.0856,-893.6941 214.0581,-894.3946 213.0056,-895.0612 211.9312,-895.692 210.8373,-896.2853 209.7266,-896.8394 208.6014,-897.3528 207.4636,-897.8241 206.3152,-898.2521 205.1578,-898.6355 203.993,-898.9734 202.8221,-899.2647 201.6463,-899.5087 200.4667,-899.7047 199.2843,-899.8521 198.0998,-899.9507 196.9142,-900 195.7283,-900 194.5427,-899.9507 193.3582,-899.8521 192.1758,-899.7047 190.9962,-899.5087 189.8204,-899.2647 188.6495,-898.9734 187.4847,-898.6355 186.3274,-898.2521 185.1789,-897.8241 184.0412,-897.3528 182.9159,-896.8394 181.8052,-896.2853 180.7114,-895.692 179.6369,-895.0612 178.5844,-894.3946 177.5569,-893.6941 176.5573,-892.9615 175.589,-892.1988 174.6554,-891.4082 173.7599,-890.5918 172.9065,-889.7519 172.0987,-888.8907 171.3406,-888.0106 170.636,-887.114 169.9888,-886.2035 169.4031,-885.2814 168.8827,-884.3503 168.4313,-883.4127 168.0526,-882.4713 167.7502,-881.5287 167.5273,-880.5873 167.3871,-879.6497 167.3323,-878.7186 167.3655,-877.7965 167.4888,-876.886 167.7041,-875.9894 168.0127,-875.1093 168.4158,-874.2481 168.9137,-873.4082 169.5067,-872.5918 170.1943,-871.8012 170.9757,-871.0385 171.8495,-870.3059 172.8139,-869.6054 173.8663,-868.9388 175.004,-868.308 176.2236,-867.7147 177.5212,-867.1606 178.8925,-866.6472 180.3327,-866.1759 181.8366,-865.7479 183.3987,-865.3645 185.013,-865.0266 186.6732,-864.7353 188.3728,-864.4913 190.105,-864.2953 191.8627,-864.1479 193.6387,-864.0493 195.4258,-864 197.2167,-864 199.0038,-864.0493"></polygon>
<text text-anchor="middle" x="196.3213" y="-877.8" font-family="Times,serif" font-size="14.00" fill="#000000">☐ 8</text>
</a>
</g>
</g>
<!-- Start&#45;&gt;8 -->
<g id="edge2" class="edge">
<title>Start-&gt;8</title>
<path fill="none" stroke="#000000" d="M196.3213,-935.8509C196.3213,-927.2301 196.3213,-918.3791 196.3213,-910.4073"></path>
<polygon fill="#000000" stroke="#000000" points="199.8214,-910.1856 196.3213,-900.1857 192.8214,-910.1857 199.8214,-910.1856"></polygon>
</g>
<!-- 16 -->
<g id="node4" class="node">
<title>16</title>
<g id="a_node4"><a xlink:title="12">
<ellipse fill="none" stroke="#000000" cx="277.3213" cy="-882" rx="30.2015" ry="18"></ellipse>
<text text-anchor="middle" x="277.3213" y="-877.8" font-family="Times,serif" font-size="14.00" fill="#000000">☐ 16</text>
</a>
</g>
</g>
<!-- Start&#45;&gt;16 -->
<g id="edge3" class="edge">
<title>Start-&gt;16</title>
<path fill="none" stroke="#000000" d="M223.9703,-945.8437C234.8435,-932.832 247.0954,-918.1705 257.1136,-906.182"></path>
<polygon fill="#000000" stroke="#000000" points="259.9214,-908.2802 263.648,-898.3624 254.5499,-903.7916 259.9214,-908.2802"></polygon>
</g>
<!-- 12 -->
<g id="node6" class="node">
<title>12</title>
<g id="a_node6"><a xlink:title="8">
<ellipse fill="none" stroke="#000000" cx="40.3213" cy="-810" rx="30.2015" ry="18"></ellipse>
<text text-anchor="middle" x="40.3213" y="-805.8" font-family="Times,serif" font-size="14.00" fill="#000000">☐ 12</text>
</a>
</g>
</g>
<!-- 6&#45;&gt;12 -->
<g id="edge4" class="edge">
<title>6-&gt;12</title>
<path fill="none" stroke="#000000" d="M103.3344,-867.4297C92.208,-857.2892 77.1682,-843.5821 64.5724,-832.1023"></path>
<polygon fill="#000000" stroke="#000000" points="66.8509,-829.4434 57.1023,-825.2941 62.1356,-834.617 66.8509,-829.4434"></polygon>
</g>
<!-- 14 -->
<g id="node7" class="node">
<title>14</title>
<g id="a_node7"><a xlink:title="10">
<ellipse fill="none" stroke="#000000" cx="119.3213" cy="-810" rx="30.2015" ry="18"></ellipse>
<text text-anchor="middle" x="119.3213" y="-805.8" font-family="Times,serif" font-size="14.00" fill="#000000">☐ 14</text>
</a>
</g>
</g>
<!-- 6&#45;&gt;14 -->
<g id="edge5" class="edge">
<title>6-&gt;14</title>
<path fill="none" stroke="#000000" d="M119.3213,-863.8314C119.3213,-856.131 119.3213,-846.9743 119.3213,-838.4166"></path>
<polygon fill="#000000" stroke="#000000" points="122.8214,-838.4132 119.3213,-828.4133 115.8214,-838.4133 122.8214,-838.4132"></polygon>
</g>
<!-- 25 -->
<g id="node10" class="node">
<title>25</title>
<g id="a_node10"><a xlink:title="15">
<ellipse fill="none" stroke="#000000" cx="277.3213" cy="-810" rx="30.2015" ry="18"></ellipse>
<text text-anchor="middle" x="277.3213" y="-805.8" font-family="Times,serif" font-size="14.00" fill="#000000">☐ 25</text>
</a>
</g>
</g>
<!-- 16&#45;&gt;25 -->
<g id="edge9" class="edge">
<title>16-&gt;25</title>
<path fill="none" stroke="#000000" d="M277.3213,-863.8314C277.3213,-856.131 277.3213,-846.9743 277.3213,-838.4166"></path>
<polygon fill="#000000" stroke="#000000" points="280.8214,-838.4132 277.3213,-828.4133 273.8214,-838.4133 280.8214,-838.4132"></polygon>
</g>
<!-- 26 -->
<g id="node11" class="node">
<title>26</title>
<g id="a_node11"><a xlink:title="16">
<ellipse fill="none" stroke="#000000" cx="397.3213" cy="-810" rx="30.2015" ry="18"></ellipse>
<text text-anchor="middle" x="397.3213" y="-805.8" font-family="Times,serif" font-size="14.00" fill="#000000">☐ 26</text>
</a>
</g>
</g>
<!-- 16&#45;&gt;26 -->
<g id="edge10" class="edge">
<title>16-&gt;26</title>
<path fill="none" stroke="#000000" d="M298.7749,-869.1278C317.7689,-857.7314 345.7004,-840.9725 366.9811,-828.2041"></path>
<polygon fill="#000000" stroke="#000000" points="368.8746,-831.1497 375.6488,-823.0035 365.2731,-825.1472 368.8746,-831.1497"></polygon>
</g>
<!-- 4 -->
<g id="node5" class="node">
<title>4</title>
<g id="a_node5"><a xlink:title="5">
<polygon fill="#c8c8c8" stroke="#000000" stroke-width="2" points="120.0038,-720.0493 121.7799,-720.1479 123.5376,-720.2953 125.2697,-720.4913 126.9693,-720.7353 128.6295,-721.0266 130.2438,-721.3645 131.8059,-721.7479 133.3098,-722.1759 134.75,-722.6472 136.1213,-723.1606 137.4189,-723.7147 138.6385,-724.308 139.7762,-724.9388 140.8286,-725.6054 141.793,-726.3059 142.6668,-727.0385 143.4482,-727.8012 144.1358,-728.5918 144.7288,-729.4082 145.2268,-730.2481 145.6298,-731.1093 145.9384,-731.9894 146.1537,-732.886 146.277,-733.7965 146.3102,-734.7186 146.2554,-735.6497 146.1152,-736.5873 145.8923,-737.5287 145.5899,-738.4713 145.2113,-739.4127 144.7599,-740.3503 144.2394,-741.2814 143.6537,-742.2035 143.0065,-743.114 142.3019,-744.0106 141.5438,-744.8907 140.7361,-745.7519 139.8826,-746.5918 138.9872,-747.4082 138.0535,-748.1988 137.0852,-748.9615 136.0856,-749.6941 135.0581,-750.3946 134.0056,-751.0612 132.9312,-751.692 131.8373,-752.2853 130.7266,-752.8394 129.6014,-753.3528 128.4636,-753.8241 127.3152,-754.2521 126.1578,-754.6355 124.993,-754.9734 123.8221,-755.2647 122.6463,-755.5087 121.4667,-755.7047 120.2843,-755.8521 119.0998,-755.9507 117.9142,-756 116.7283,-756 115.5427,-755.9507 114.3582,-755.8521 113.1758,-755.7047 111.9962,-755.5087 110.8204,-755.2647 109.6495,-754.9734 108.4847,-754.6355 107.3274,-754.2521 106.1789,-753.8241 105.0412,-753.3528 103.9159,-752.8394 102.8052,-752.2853 101.7114,-751.692 100.6369,-751.0612 99.5844,-750.3946 98.5569,-749.6941 97.5573,-748.9615 96.589,-748.1988 95.6554,-747.4082 94.7599,-746.5918 93.9065,-745.7519 93.0987,-744.8907 92.3406,-744.0106 91.636,-743.114 90.9888,-742.2035 90.4031,-741.2814 89.8827,-740.3503 89.4313,-739.4127 89.0526,-738.4713 88.7502,-737.5287 88.5273,-736.5873 88.3871,-735.6497 88.3323,-734.7186 88.3655,-733.7965 88.4888,-732.886 88.7041,-731.9894 89.0127,-731.1093 89.4158,-730.2481 89.9137,-729.4082 90.5067,-728.5918 91.1943,-727.8012 91.9757,-727.0385 92.8495,-726.3059 93.8139,-725.6054 94.8663,-724.9388 96.004,-724.308 97.2236,-723.7147 98.5212,-723.1606 99.8925,-722.6472 101.3327,-722.1759 102.8366,-721.7479 104.3987,-721.3645 106.013,-721.0266 107.6732,-720.7353 109.3728,-720.4913 111.105,-720.2953 112.8627,-720.1479 114.6387,-720.0493 116.4258,-720 118.2167,-720 120.0038,-720.0493"></polygon>
<text text-anchor="middle" x="117.3213" y="-733.8" font-family="Times,serif" font-size="14.00" fill="#000000">☐ 4</text>
</a>
</g>
</g>
<!-- 15 -->
<g id="node8" class="node">
<title>15</title>
<g id="a_node8"><a xlink:title="11">
<polygon fill="#c8c8c8" stroke="#000000" stroke-width="2" points="41.2957,-720.0493 43.265,-720.1479 45.214,-720.2953 47.1346,-720.4913 49.0192,-720.7353 50.8601,-721.0266 52.65,-721.3645 54.3821,-721.7479 56.0497,-722.1759 57.6466,-722.6472 59.1671,-723.1606 60.6059,-723.7147 61.9582,-724.308 63.2197,-724.9388 64.3867,-725.6054 65.4559,-726.3059 66.4248,-727.0385 67.2913,-727.8012 68.0537,-728.5918 68.7112,-729.4082 69.2634,-730.2481 69.7103,-731.1093 70.0525,-731.9894 70.2912,-732.886 70.428,-733.7965 70.4648,-734.7186 70.404,-735.6497 70.2485,-736.5873 70.0014,-737.5287 69.6661,-738.4713 69.2462,-739.4127 68.7457,-740.3503 68.1686,-741.2814 67.5191,-742.2035 66.8016,-743.114 66.0203,-744.0106 65.1797,-744.8907 64.284,-745.7519 63.3377,-746.5918 62.3448,-747.4082 61.3096,-748.1988 60.2359,-748.9615 59.1276,-749.6941 57.9882,-750.3946 56.8212,-751.0612 55.6298,-751.692 54.4169,-752.2853 53.1854,-752.8394 51.9377,-753.3528 50.6761,-753.8241 49.4027,-754.2521 48.1194,-754.6355 46.8278,-754.9734 45.5295,-755.2647 44.2258,-755.5087 42.9178,-755.7047 41.6067,-755.8521 40.2934,-755.9507 38.9788,-756 37.6637,-756 36.3491,-755.9507 35.0358,-755.8521 33.7247,-755.7047 32.4167,-755.5087 31.113,-755.2647 29.8147,-754.9734 28.5231,-754.6355 27.2398,-754.2521 25.9664,-753.8241 24.7049,-753.3528 23.4571,-752.8394 22.2256,-752.2853 21.0127,-751.692 19.8213,-751.0612 18.6543,-750.3946 17.515,-749.6941 16.4066,-748.9615 15.333,-748.1988 14.2977,-747.4082 13.3049,-746.5918 12.3585,-745.7519 11.4629,-744.8907 10.6222,-744.0106 9.8409,-743.114 9.1234,-742.2035 8.4739,-741.2814 7.8968,-740.3503 7.3963,-739.4127 6.9764,-738.4713 6.6411,-737.5287 6.394,-736.5873 6.2385,-735.6497 6.1778,-734.7186 6.2146,-733.7965 6.3513,-732.886 6.59,-731.9894 6.9322,-731.1093 7.3791,-730.2481 7.9313,-729.4082 8.5888,-728.5918 9.3512,-727.8012 10.2177,-727.0385 11.1866,-726.3059 12.2558,-725.6054 13.4228,-724.9388 14.6843,-724.308 16.0366,-723.7147 17.4754,-723.1606 18.9959,-722.6472 20.5929,-722.1759 22.2604,-721.7479 23.9925,-721.3645 25.7825,-721.0266 27.6233,-720.7353 29.5079,-720.4913 31.4285,-720.2953 33.3775,-720.1479 35.3468,-720.0493 37.3284,-720 39.3141,-720 41.2957,-720.0493"></polygon>
<text text-anchor="middle" x="38.3213" y="-733.8" font-family="Times,serif" font-size="14.00" fill="#000000">☐ 15</text>
</a>
</g>
</g>
<!-- 12&#45;&gt;15 -->
<g id="edge6" class="edge">
<title>12-&gt;15</title>
<path fill="none" stroke="#000000" d="M39.8166,-791.8314C39.6027,-784.131 39.3483,-774.9743 39.1106,-766.4166"></path>
<polygon fill="#000000" stroke="#000000" points="42.6092,-766.3122 38.8327,-756.4133 35.6119,-766.5066 42.6092,-766.3122"></polygon>
</g>
<!-- 14&#45;&gt;4 -->
<g id="edge7" class="edge">
<title>14-&gt;4</title>
<path fill="none" stroke="#000000" d="M118.8166,-791.8314C118.6027,-784.131 118.3483,-774.9743 118.1106,-766.4166"></path>
<polygon fill="#000000" stroke="#000000" points="121.6092,-766.3122 117.8327,-756.4133 114.6119,-766.5066 121.6092,-766.3122"></polygon>
</g>
<!-- 13 -->
<g id="node9" class="node">
<title>13</title>
<g id="a_node9"><a xlink:title="9">
<polygon fill="#c8c8c8" stroke="#000000" stroke-width="2" points="199.2957,-720.0493 201.265,-720.1479 203.214,-720.2953 205.1346,-720.4913 207.0192,-720.7353 208.8601,-721.0266 210.65,-721.3645 212.3821,-721.7479 214.0497,-722.1759 215.6466,-722.6472 217.1671,-723.1606 218.6059,-723.7147 219.9582,-724.308 221.2197,-724.9388 222.3867,-725.6054 223.4559,-726.3059 224.4248,-727.0385 225.2913,-727.8012 226.0537,-728.5918 226.7112,-729.4082 227.2634,-730.2481 227.7103,-731.1093 228.0525,-731.9894 228.2912,-732.886 228.428,-733.7965 228.4648,-734.7186 228.404,-735.6497 228.2485,-736.5873 228.0014,-737.5287 227.6661,-738.4713 227.2462,-739.4127 226.7457,-740.3503 226.1686,-741.2814 225.5191,-742.2035 224.8016,-743.114 224.0203,-744.0106 223.1797,-744.8907 222.284,-745.7519 221.3377,-746.5918 220.3448,-747.4082 219.3096,-748.1988 218.2359,-748.9615 217.1276,-749.6941 215.9882,-750.3946 214.8212,-751.0612 213.6298,-751.692 212.4169,-752.2853 211.1854,-752.8394 209.9377,-753.3528 208.6761,-753.8241 207.4027,-754.2521 206.1194,-754.6355 204.8278,-754.9734 203.5295,-755.2647 202.2258,-755.5087 200.9178,-755.7047 199.6067,-755.8521 198.2934,-755.9507 196.9788,-756 195.6637,-756 194.3491,-755.9507 193.0358,-755.8521 191.7247,-755.7047 190.4167,-755.5087 189.113,-755.2647 187.8147,-754.9734 186.5231,-754.6355 185.2398,-754.2521 183.9664,-753.8241 182.7049,-753.3528 181.4571,-752.8394 180.2256,-752.2853 179.0127,-751.692 177.8213,-751.0612 176.6543,-750.3946 175.515,-749.6941 174.4066,-748.9615 173.333,-748.1988 172.2977,-747.4082 171.3049,-746.5918 170.3585,-745.7519 169.4629,-744.8907 168.6222,-744.0106 167.8409,-743.114 167.1234,-742.2035 166.4739,-741.2814 165.8968,-740.3503 165.3963,-739.4127 164.9764,-738.4713 164.6411,-737.5287 164.394,-736.5873 164.2385,-735.6497 164.1778,-734.7186 164.2146,-733.7965 164.3513,-732.886 164.59,-731.9894 164.9322,-731.1093 165.3791,-730.2481 165.9313,-729.4082 166.5888,-728.5918 167.3512,-727.8012 168.2177,-727.0385 169.1866,-726.3059 170.2558,-725.6054 171.4228,-724.9388 172.6843,-724.308 174.0366,-723.7147 175.4754,-723.1606 176.9959,-722.6472 178.5929,-722.1759 180.2604,-721.7479 181.9925,-721.3645 183.7825,-721.0266 185.6233,-720.7353 187.5079,-720.4913 189.4285,-720.2953 191.3775,-720.1479 193.3468,-720.0493 195.3284,-720 197.3141,-720 199.2957,-720.0493"></polygon>
<text text-anchor="middle" x="196.3213" y="-733.8" font-family="Times,serif" font-size="14.00" fill="#000000">☐ 13</text>
</a>
</g>
</g>
<!-- 14&#45;&gt;13 -->
<g id="edge8" class="edge">
<title>14-&gt;13</title>
<path fill="none" stroke="#000000" d="M135.651,-794.7307C146.515,-784.5721 160.9518,-771.0727 173.017,-759.791"></path>
<polygon fill="#000000" stroke="#000000" points="175.6279,-762.1414 180.5417,-752.7549 170.847,-757.0284 175.6279,-762.1414"></polygon>
</g>
<!-- 28 -->
<g id="node17" class="node">
<title>28</title>
<g id="a_node17"><a xlink:title="17">
<ellipse fill="none" stroke="#000000" cx="277.3213" cy="-738" rx="30.2015" ry="18"></ellipse>
<text text-anchor="middle" x="277.3213" y="-733.8" font-family="Times,serif" font-size="14.00" fill="#000000">☐ 28</text>
</a>
</g>
</g>
<!-- 25&#45;&gt;28 -->
<g id="edge14" class="edge">
<title>25-&gt;28</title>
<path fill="none" stroke="#000000" d="M277.3213,-791.8314C277.3213,-784.131 277.3213,-774.9743 277.3213,-766.4166"></path>
<polygon fill="#000000" stroke="#000000" points="280.8214,-766.4132 277.3213,-756.4133 273.8214,-766.4133 280.8214,-766.4132"></polygon>
</g>
<!-- 22 -->
<g id="node14" class="node">
<title>22</title>
<g id="a_node14"><a xlink:title="14">
<ellipse fill="none" stroke="#000000" cx="418.3213" cy="-738" rx="30.2015" ry="18"></ellipse>
<text text-anchor="middle" x="418.3213" y="-733.8" font-family="Times,serif" font-size="14.00" fill="#000000">☐ 22</text>
</a>
</g>
</g>
<!-- 26&#45;&gt;22 -->
<g id="edge15" class="edge">
<title>26-&gt;22</title>
<path fill="none" stroke="#000000" d="M402.5123,-792.2022C404.8597,-784.1541 407.6874,-774.4588 410.2985,-765.5067"></path>
<polygon fill="#000000" stroke="#000000" points="413.6771,-766.4226 413.1172,-755.8425 406.9571,-764.4625 413.6771,-766.4226"></polygon>
</g>
<!-- 21 -->
<g id="node12" class="node">
<title>21</title>
<g id="a_node12"><a xlink:title="13">
<ellipse fill="none" stroke="#000000" cx="441.3213" cy="-594" rx="30.2015" ry="18"></ellipse>
<text text-anchor="middle" x="441.3213" y="-589.8" font-family="Times,serif" font-size="14.00" fill="#000000">☐ 21</text>
</a>
</g>
</g>
<!-- 81 -->
<g id="node13" class="node">
<title>81</title>
<g id="a_node13"><a xlink:title="43">
<polygon fill="#c8c8c8" stroke="#000000" stroke-width="2" points="444.2957,-504.0493 446.265,-504.1479 448.214,-504.2953 450.1346,-504.4913 452.0192,-504.7353 453.8601,-505.0266 455.65,-505.3645 457.3821,-505.7479 459.0497,-506.1759 460.6466,-506.6472 462.1671,-507.1606 463.6059,-507.7147 464.9582,-508.308 466.2197,-508.9388 467.3867,-509.6054 468.4559,-510.3059 469.4248,-511.0385 470.2913,-511.8012 471.0537,-512.5918 471.7112,-513.4082 472.2634,-514.2481 472.7103,-515.1093 473.0525,-515.9894 473.2912,-516.886 473.428,-517.7965 473.4648,-518.7186 473.404,-519.6497 473.2485,-520.5873 473.0014,-521.5287 472.6661,-522.4713 472.2462,-523.4127 471.7457,-524.3503 471.1686,-525.2814 470.5191,-526.2035 469.8016,-527.114 469.0203,-528.0106 468.1797,-528.8907 467.284,-529.7519 466.3377,-530.5918 465.3448,-531.4082 464.3096,-532.1988 463.2359,-532.9615 462.1276,-533.6941 460.9882,-534.3946 459.8212,-535.0612 458.6298,-535.692 457.4169,-536.2853 456.1854,-536.8394 454.9377,-537.3528 453.6761,-537.8241 452.4027,-538.2521 451.1194,-538.6355 449.8278,-538.9734 448.5295,-539.2647 447.2258,-539.5087 445.9178,-539.7047 444.6067,-539.8521 443.2934,-539.9507 441.9788,-540 440.6637,-540 439.3491,-539.9507 438.0358,-539.8521 436.7247,-539.7047 435.4167,-539.5087 434.113,-539.2647 432.8147,-538.9734 431.5231,-538.6355 430.2398,-538.2521 428.9664,-537.8241 427.7049,-537.3528 426.4571,-536.8394 425.2256,-536.2853 424.0127,-535.692 422.8213,-535.0612 421.6543,-534.3946 420.515,-533.6941 419.4066,-532.9615 418.333,-532.1988 417.2977,-531.4082 416.3049,-530.5918 415.3585,-529.7519 414.4629,-528.8907 413.6222,-528.0106 412.8409,-527.114 412.1234,-526.2035 411.4739,-525.2814 410.8968,-524.3503 410.3963,-523.4127 409.9764,-522.4713 409.6411,-521.5287 409.394,-520.5873 409.2385,-519.6497 409.1778,-518.7186 409.2146,-517.7965 409.3513,-516.886 409.59,-515.9894 409.9322,-515.1093 410.3791,-514.2481 410.9313,-513.4082 411.5888,-512.5918 412.3512,-511.8012 413.2177,-511.0385 414.1866,-510.3059 415.2558,-509.6054 416.4228,-508.9388 417.6843,-508.308 419.0366,-507.7147 420.4754,-507.1606 421.9959,-506.6472 423.5929,-506.1759 425.2604,-505.7479 426.9925,-505.3645 428.7825,-505.0266 430.6233,-504.7353 432.5079,-504.4913 434.4285,-504.2953 436.3775,-504.1479 438.3468,-504.0493 440.3284,-504 442.3141,-504 444.2957,-504.0493"></polygon>
<text text-anchor="middle" x="441.3213" y="-517.8" font-family="Times,serif" font-size="14.00" fill="#000000">☐ 81</text>
</a>
</g>
</g>
<!-- 21&#45;&gt;81 -->
<g id="edge11" class="edge">
<title>21-&gt;81</title>
<path fill="none" stroke="#000000" d="M441.3213,-575.8314C441.3213,-568.131 441.3213,-558.9743 441.3213,-550.4166"></path>
<polygon fill="#000000" stroke="#000000" points="444.8214,-550.4132 441.3213,-540.4133 437.8214,-550.4133 444.8214,-550.4132"></polygon>
</g>
<!-- 31 -->
<g id="node15" class="node">
<title>31</title>
<g id="a_node15"><a xlink:title="19">
<polygon fill="#c8c8c8" stroke="#000000" stroke-width="2" points="421.2957,-648.0493 423.265,-648.1479 425.214,-648.2953 427.1346,-648.4913 429.0192,-648.7353 430.8601,-649.0266 432.65,-649.3645 434.3821,-649.7479 436.0497,-650.1759 437.6466,-650.6472 439.1671,-651.1606 440.6059,-651.7147 441.9582,-652.308 443.2197,-652.9388 444.3867,-653.6054 445.4559,-654.3059 446.4248,-655.0385 447.2913,-655.8012 448.0537,-656.5918 448.7112,-657.4082 449.2634,-658.2481 449.7103,-659.1093 450.0525,-659.9894 450.2912,-660.886 450.428,-661.7965 450.4648,-662.7186 450.404,-663.6497 450.2485,-664.5873 450.0014,-665.5287 449.6661,-666.4713 449.2462,-667.4127 448.7457,-668.3503 448.1686,-669.2814 447.5191,-670.2035 446.8016,-671.114 446.0203,-672.0106 445.1797,-672.8907 444.284,-673.7519 443.3377,-674.5918 442.3448,-675.4082 441.3096,-676.1988 440.2359,-676.9615 439.1276,-677.6941 437.9882,-678.3946 436.8212,-679.0612 435.6298,-679.692 434.4169,-680.2853 433.1854,-680.8394 431.9377,-681.3528 430.6761,-681.8241 429.4027,-682.2521 428.1194,-682.6355 426.8278,-682.9734 425.5295,-683.2647 424.2258,-683.5087 422.9178,-683.7047 421.6067,-683.8521 420.2934,-683.9507 418.9788,-684 417.6637,-684 416.3491,-683.9507 415.0358,-683.8521 413.7247,-683.7047 412.4167,-683.5087 411.113,-683.2647 409.8147,-682.9734 408.5231,-682.6355 407.2398,-682.2521 405.9664,-681.8241 404.7049,-681.3528 403.4571,-680.8394 402.2256,-680.2853 401.0127,-679.692 399.8213,-679.0612 398.6543,-678.3946 397.515,-677.6941 396.4066,-676.9615 395.333,-676.1988 394.2977,-675.4082 393.3049,-674.5918 392.3585,-673.7519 391.4629,-672.8907 390.6222,-672.0106 389.8409,-671.114 389.1234,-670.2035 388.4739,-669.2814 387.8968,-668.3503 387.3963,-667.4127 386.9764,-666.4713 386.6411,-665.5287 386.394,-664.5873 386.2385,-663.6497 386.1778,-662.7186 386.2146,-661.7965 386.3513,-660.886 386.59,-659.9894 386.9322,-659.1093 387.3791,-658.2481 387.9313,-657.4082 388.5888,-656.5918 389.3512,-655.8012 390.2177,-655.0385 391.1866,-654.3059 392.2558,-653.6054 393.4228,-652.9388 394.6843,-652.308 396.0366,-651.7147 397.4754,-651.1606 398.9959,-650.6472 400.5929,-650.1759 402.2604,-649.7479 403.9925,-649.3645 405.7825,-649.0266 407.6233,-648.7353 409.5079,-648.4913 411.4285,-648.2953 413.3775,-648.1479 415.3468,-648.0493 417.3284,-648 419.3141,-648 421.2957,-648.0493"></polygon>
<text text-anchor="middle" x="418.3213" y="-661.8" font-family="Times,serif" font-size="14.00" fill="#000000">☐ 31</text>
</a>
</g>
</g>
<!-- 22&#45;&gt;31 -->
<g id="edge12" class="edge">
<title>22-&gt;31</title>
<path fill="none" stroke="#000000" d="M418.3213,-719.8314C418.3213,-712.131 418.3213,-702.9743 418.3213,-694.4166"></path>
<polygon fill="#000000" stroke="#000000" points="421.8214,-694.4132 418.3213,-684.4133 414.8214,-694.4133 421.8214,-694.4132"></polygon>
</g>
<!-- 40 -->
<g id="node16" class="node">
<title>40</title>
<g id="a_node16"><a xlink:title="25">
<ellipse fill="none" stroke="#000000" cx="499.3213" cy="-666" rx="30.2015" ry="18"></ellipse>
<text text-anchor="middle" x="499.3213" y="-661.8" font-family="Times,serif" font-size="14.00" fill="#000000">☐ 40</text>
</a>
</g>
</g>
<!-- 22&#45;&gt;40 -->
<g id="edge13" class="edge">
<title>22-&gt;40</title>
<path fill="none" stroke="#000000" d="M435.4993,-722.7307C446.9596,-712.5437 462.1993,-698.9973 474.9127,-687.6965"></path>
<polygon fill="#000000" stroke="#000000" points="477.2969,-690.2601 482.4458,-681.0004 472.6464,-685.0282 477.2969,-690.2601"></polygon>
</g>
<!-- 40&#45;&gt;21 -->
<g id="edge24" class="edge">
<title>40-&gt;21</title>
<path fill="none" stroke="#000000" d="M486.1602,-649.6621C478.6703,-640.3644 469.1472,-628.5426 460.8055,-618.1873"></path>
<polygon fill="#000000" stroke="#000000" points="463.4292,-615.8652 454.4303,-610.2733 457.978,-620.2565 463.4292,-615.8652"></polygon>
</g>
<!-- 49 -->
<g id="node30" class="node">
<title>49</title>
<g id="a_node30"><a xlink:title="28">
<ellipse fill="none" stroke="#000000" cx="521.3213" cy="-594" rx="30.2015" ry="18"></ellipse>
<text text-anchor="middle" x="521.3213" y="-589.8" font-family="Times,serif" font-size="14.00" fill="#000000">☐ 49</text>
</a>
</g>
</g>
<!-- 40&#45;&gt;49 -->
<g id="edge25" class="edge">
<title>40-&gt;49</title>
<path fill="none" stroke="#000000" d="M504.7595,-648.2022C507.2186,-640.1541 510.1811,-630.4588 512.9164,-621.5067"></path>
<polygon fill="#000000" stroke="#000000" points="516.2943,-622.4289 515.8694,-611.8425 509.5999,-620.3833 516.2943,-622.4289"></polygon>
</g>
<!-- 113 -->
<g id="node18" class="node">
<title>113</title>
<g id="a_node18"><a xlink:title="59">
<ellipse fill="none" stroke="#000000" cx="170.3213" cy="-666" rx="35.3587" ry="18"></ellipse>
<text text-anchor="middle" x="170.3213" y="-661.8" font-family="Times,serif" font-size="14.00" fill="#000000">☐ 113</text>
</a>
</g>
</g>
<!-- 28&#45;&gt;113 -->
<g id="edge16" class="edge">
<title>28-&gt;113</title>
<path fill="none" stroke="#000000" d="M257.1954,-724.4574C241.1718,-713.6751 218.498,-698.418 200.3322,-686.1943"></path>
<polygon fill="#000000" stroke="#000000" points="202.0761,-683.1491 191.8255,-680.4701 198.1681,-688.9567 202.0761,-683.1491"></polygon>
</g>
<!-- 33 -->
<g id="node19" class="node">
<title>33</title>
<g id="a_node19"><a xlink:title="20">
<polygon fill="#c8c8c8" stroke="#000000" stroke-width="2" points="259.2957,-648.0493 261.265,-648.1479 263.214,-648.2953 265.1346,-648.4913 267.0192,-648.7353 268.8601,-649.0266 270.65,-649.3645 272.3821,-649.7479 274.0497,-650.1759 275.6466,-650.6472 277.1671,-651.1606 278.6059,-651.7147 279.9582,-652.308 281.2197,-652.9388 282.3867,-653.6054 283.4559,-654.3059 284.4248,-655.0385 285.2913,-655.8012 286.0537,-656.5918 286.7112,-657.4082 287.2634,-658.2481 287.7103,-659.1093 288.0525,-659.9894 288.2912,-660.886 288.428,-661.7965 288.4648,-662.7186 288.404,-663.6497 288.2485,-664.5873 288.0014,-665.5287 287.6661,-666.4713 287.2462,-667.4127 286.7457,-668.3503 286.1686,-669.2814 285.5191,-670.2035 284.8016,-671.114 284.0203,-672.0106 283.1797,-672.8907 282.284,-673.7519 281.3377,-674.5918 280.3448,-675.4082 279.3096,-676.1988 278.2359,-676.9615 277.1276,-677.6941 275.9882,-678.3946 274.8212,-679.0612 273.6298,-679.692 272.4169,-680.2853 271.1854,-680.8394 269.9377,-681.3528 268.6761,-681.8241 267.4027,-682.2521 266.1194,-682.6355 264.8278,-682.9734 263.5295,-683.2647 262.2258,-683.5087 260.9178,-683.7047 259.6067,-683.8521 258.2934,-683.9507 256.9788,-684 255.6637,-684 254.3491,-683.9507 253.0358,-683.8521 251.7247,-683.7047 250.4167,-683.5087 249.113,-683.2647 247.8147,-682.9734 246.5231,-682.6355 245.2398,-682.2521 243.9664,-681.8241 242.7049,-681.3528 241.4571,-680.8394 240.2256,-680.2853 239.0127,-679.692 237.8213,-679.0612 236.6543,-678.3946 235.515,-677.6941 234.4066,-676.9615 233.333,-676.1988 232.2977,-675.4082 231.3049,-674.5918 230.3585,-673.7519 229.4629,-672.8907 228.6222,-672.0106 227.8409,-671.114 227.1234,-670.2035 226.4739,-669.2814 225.8968,-668.3503 225.3963,-667.4127 224.9764,-666.4713 224.6411,-665.5287 224.394,-664.5873 224.2385,-663.6497 224.1778,-662.7186 224.2146,-661.7965 224.3513,-660.886 224.59,-659.9894 224.9322,-659.1093 225.3791,-658.2481 225.9313,-657.4082 226.5888,-656.5918 227.3512,-655.8012 228.2177,-655.0385 229.1866,-654.3059 230.2558,-653.6054 231.4228,-652.9388 232.6843,-652.308 234.0366,-651.7147 235.4754,-651.1606 236.9959,-650.6472 238.5929,-650.1759 240.2604,-649.7479 241.9925,-649.3645 243.7825,-649.0266 245.6233,-648.7353 247.5079,-648.4913 249.4285,-648.2953 251.3775,-648.1479 253.3468,-648.0493 255.3284,-648 257.3141,-648 259.2957,-648.0493"></polygon>
<text text-anchor="middle" x="256.3213" y="-661.8" font-family="Times,serif" font-size="14.00" fill="#000000">☐ 33</text>
</a>
</g>
</g>
<!-- 28&#45;&gt;33 -->
<g id="edge17" class="edge">
<title>28-&gt;33</title>
<path fill="none" stroke="#000000" d="M272.1302,-720.2022C269.7829,-712.1541 266.9551,-702.4588 264.344,-693.5067"></path>
<polygon fill="#000000" stroke="#000000" points="267.6854,-692.4625 261.5253,-683.8425 260.9654,-694.4226 267.6854,-692.4625"></polygon>
</g>
<!-- 78 -->
<g id="node20" class="node">
<title>78</title>
<g id="a_node20"><a xlink:title="42">
<ellipse fill="none" stroke="#000000" cx="337.3213" cy="-666" rx="30.2015" ry="18"></ellipse>
<text text-anchor="middle" x="337.3213" y="-661.8" font-family="Times,serif" font-size="14.00" fill="#000000">☐ 78</text>
</a>
</g>
</g>
<!-- 28&#45;&gt;78 -->
<g id="edge18" class="edge">
<title>28-&gt;78</title>
<path fill="none" stroke="#000000" d="M290.9362,-721.6621C298.6843,-712.3644 308.5358,-700.5426 317.1652,-690.1873"></path>
<polygon fill="#000000" stroke="#000000" points="320.0471,-692.1962 323.7602,-682.2733 314.6695,-687.7148 320.0471,-692.1962"></polygon>
</g>
<!-- 34 -->
<g id="node24" class="node">
<title>34</title>
<g id="a_node24"><a xlink:title="21">
<ellipse fill="none" stroke="#000000" cx="170.3213" cy="-594" rx="30.2015" ry="18"></ellipse>
<text text-anchor="middle" x="170.3213" y="-589.8" font-family="Times,serif" font-size="14.00" fill="#000000">☐ 34</text>
</a>
</g>
</g>
<!-- 113&#45;&gt;34 -->
<g id="edge58" class="edge">
<title>113-&gt;34</title>
<path fill="none" stroke="#000000" d="M170.3213,-647.8314C170.3213,-640.131 170.3213,-630.9743 170.3213,-622.4166"></path>
<polygon fill="#000000" stroke="#000000" points="173.8214,-622.4132 170.3213,-612.4133 166.8214,-622.4133 173.8214,-622.4132"></polygon>
</g>
<!-- 30 -->
<g id="node21" class="node">
<title>30</title>
<g id="a_node21"><a xlink:title="18">
<ellipse fill="none" stroke="#000000" cx="337.3213" cy="-594" rx="30.2015" ry="18"></ellipse>
<text text-anchor="middle" x="337.3213" y="-589.8" font-family="Times,serif" font-size="14.00" fill="#000000">☐ 30</text>
</a>
</g>
</g>
<!-- 78&#45;&gt;30 -->
<g id="edge40" class="edge">
<title>78-&gt;30</title>
<path fill="none" stroke="#000000" d="M337.3213,-647.8314C337.3213,-640.131 337.3213,-630.9743 337.3213,-622.4166"></path>
<polygon fill="#000000" stroke="#000000" points="340.8214,-622.4132 337.3213,-612.4133 333.8214,-622.4133 340.8214,-622.4132"></polygon>
</g>
<!-- 50 -->
<g id="node22" class="node">
<title>50</title>
<g id="a_node22"><a xlink:title="29">
<polygon fill="#c8c8c8" stroke="#000000" stroke-width="2" points="282.2957,-504.0493 284.265,-504.1479 286.214,-504.2953 288.1346,-504.4913 290.0192,-504.7353 291.8601,-505.0266 293.65,-505.3645 295.3821,-505.7479 297.0497,-506.1759 298.6466,-506.6472 300.1671,-507.1606 301.6059,-507.7147 302.9582,-508.308 304.2197,-508.9388 305.3867,-509.6054 306.4559,-510.3059 307.4248,-511.0385 308.2913,-511.8012 309.0537,-512.5918 309.7112,-513.4082 310.2634,-514.2481 310.7103,-515.1093 311.0525,-515.9894 311.2912,-516.886 311.428,-517.7965 311.4648,-518.7186 311.404,-519.6497 311.2485,-520.5873 311.0014,-521.5287 310.6661,-522.4713 310.2462,-523.4127 309.7457,-524.3503 309.1686,-525.2814 308.5191,-526.2035 307.8016,-527.114 307.0203,-528.0106 306.1797,-528.8907 305.284,-529.7519 304.3377,-530.5918 303.3448,-531.4082 302.3096,-532.1988 301.2359,-532.9615 300.1276,-533.6941 298.9882,-534.3946 297.8212,-535.0612 296.6298,-535.692 295.4169,-536.2853 294.1854,-536.8394 292.9377,-537.3528 291.6761,-537.8241 290.4027,-538.2521 289.1194,-538.6355 287.8278,-538.9734 286.5295,-539.2647 285.2258,-539.5087 283.9178,-539.7047 282.6067,-539.8521 281.2934,-539.9507 279.9788,-540 278.6637,-540 277.3491,-539.9507 276.0358,-539.8521 274.7247,-539.7047 273.4167,-539.5087 272.113,-539.2647 270.8147,-538.9734 269.5231,-538.6355 268.2398,-538.2521 266.9664,-537.8241 265.7049,-537.3528 264.4571,-536.8394 263.2256,-536.2853 262.0127,-535.692 260.8213,-535.0612 259.6543,-534.3946 258.515,-533.6941 257.4066,-532.9615 256.333,-532.1988 255.2977,-531.4082 254.3049,-530.5918 253.3585,-529.7519 252.4629,-528.8907 251.6222,-528.0106 250.8409,-527.114 250.1234,-526.2035 249.4739,-525.2814 248.8968,-524.3503 248.3963,-523.4127 247.9764,-522.4713 247.6411,-521.5287 247.394,-520.5873 247.2385,-519.6497 247.1778,-518.7186 247.2146,-517.7965 247.3513,-516.886 247.59,-515.9894 247.9322,-515.1093 248.3791,-514.2481 248.9313,-513.4082 249.5888,-512.5918 250.3512,-511.8012 251.2177,-511.0385 252.1866,-510.3059 253.2558,-509.6054 254.4228,-508.9388 255.6843,-508.308 257.0366,-507.7147 258.4754,-507.1606 259.9959,-506.6472 261.5929,-506.1759 263.2604,-505.7479 264.9925,-505.3645 266.7825,-505.0266 268.6233,-504.7353 270.5079,-504.4913 272.4285,-504.2953 274.3775,-504.1479 276.3468,-504.0493 278.3284,-504 280.3141,-504 282.2957,-504.0493"></polygon>
<text text-anchor="middle" x="279.3213" y="-517.8" font-family="Times,serif" font-size="14.00" fill="#000000">☐ 50</text>
</a>
</g>
</g>
<!-- 30&#45;&gt;50 -->
<g id="edge19" class="edge">
<title>30-&gt;50</title>
<path fill="none" stroke="#000000" d="M324.1602,-577.6621C316.5648,-568.2334 306.8786,-556.2091 298.4537,-545.7507"></path>
<polygon fill="#000000" stroke="#000000" points="301.0307,-543.3703 292.0317,-537.7784 295.5794,-547.7617 301.0307,-543.3703"></polygon>
</g>
<!-- 54 -->
<g id="node23" class="node">
<title>54</title>
<g id="a_node23"><a xlink:title="31">
<ellipse fill="none" stroke="#000000" cx="360.3213" cy="-522" rx="30.2015" ry="18"></ellipse>
<text text-anchor="middle" x="360.3213" y="-517.8" font-family="Times,serif" font-size="14.00" fill="#000000">☐ 54</text>
</a>
</g>
</g>
<!-- 30&#45;&gt;54 -->
<g id="edge20" class="edge">
<title>30-&gt;54</title>
<path fill="none" stroke="#000000" d="M343.0067,-576.2022C345.5776,-568.1541 348.6747,-558.4588 351.5344,-549.5067"></path>
<polygon fill="#000000" stroke="#000000" points="354.9126,-550.4334 354.6216,-539.8425 348.2445,-548.3033 354.9126,-550.4334"></polygon>
</g>
<!-- 51 -->
<g id="node35" class="node">
<title>51</title>
<g id="a_node35"><a xlink:title="30">
<polygon fill="#c8c8c8" stroke="#000000" stroke-width="2" points="363.2957,-432.0493 365.265,-432.1479 367.214,-432.2953 369.1346,-432.4913 371.0192,-432.7353 372.8601,-433.0266 374.65,-433.3645 376.3821,-433.7479 378.0497,-434.1759 379.6466,-434.6472 381.1671,-435.1606 382.6059,-435.7147 383.9582,-436.308 385.2197,-436.9388 386.3867,-437.6054 387.4559,-438.3059 388.4248,-439.0385 389.2913,-439.8012 390.0537,-440.5918 390.7112,-441.4082 391.2634,-442.2481 391.7103,-443.1093 392.0525,-443.9894 392.2912,-444.886 392.428,-445.7965 392.4648,-446.7186 392.404,-447.6497 392.2485,-448.5873 392.0014,-449.5287 391.6661,-450.4713 391.2462,-451.4127 390.7457,-452.3503 390.1686,-453.2814 389.5191,-454.2035 388.8016,-455.114 388.0203,-456.0106 387.1797,-456.8907 386.284,-457.7519 385.3377,-458.5918 384.3448,-459.4082 383.3096,-460.1988 382.2359,-460.9615 381.1276,-461.6941 379.9882,-462.3946 378.8212,-463.0612 377.6298,-463.692 376.4169,-464.2853 375.1854,-464.8394 373.9377,-465.3528 372.6761,-465.8241 371.4027,-466.2521 370.1194,-466.6355 368.8278,-466.9734 367.5295,-467.2647 366.2258,-467.5087 364.9178,-467.7047 363.6067,-467.8521 362.2934,-467.9507 360.9788,-468 359.6637,-468 358.3491,-467.9507 357.0358,-467.8521 355.7247,-467.7047 354.4167,-467.5087 353.113,-467.2647 351.8147,-466.9734 350.5231,-466.6355 349.2398,-466.2521 347.9664,-465.8241 346.7049,-465.3528 345.4571,-464.8394 344.2256,-464.2853 343.0127,-463.692 341.8213,-463.0612 340.6543,-462.3946 339.515,-461.6941 338.4066,-460.9615 337.333,-460.1988 336.2977,-459.4082 335.3049,-458.5918 334.3585,-457.7519 333.4629,-456.8907 332.6222,-456.0106 331.8409,-455.114 331.1234,-454.2035 330.4739,-453.2814 329.8968,-452.3503 329.3963,-451.4127 328.9764,-450.4713 328.6411,-449.5287 328.394,-448.5873 328.2385,-447.6497 328.1778,-446.7186 328.2146,-445.7965 328.3513,-444.886 328.59,-443.9894 328.9322,-443.1093 329.3791,-442.2481 329.9313,-441.4082 330.5888,-440.5918 331.3512,-439.8012 332.2177,-439.0385 333.1866,-438.3059 334.2558,-437.6054 335.4228,-436.9388 336.6843,-436.308 338.0366,-435.7147 339.4754,-435.1606 340.9959,-434.6472 342.5929,-434.1759 344.2604,-433.7479 345.9925,-433.3645 347.7825,-433.0266 349.6233,-432.7353 351.5079,-432.4913 353.4285,-432.2953 355.3775,-432.1479 357.3468,-432.0493 359.3284,-432 361.3141,-432 363.2957,-432.0493"></polygon>
<text text-anchor="middle" x="360.3213" y="-445.8" font-family="Times,serif" font-size="14.00" fill="#000000">☐ 51</text>
</a>
</g>
</g>
<!-- 54&#45;&gt;51 -->
<g id="edge30" class="edge">
<title>54-&gt;51</title>
<path fill="none" stroke="#000000" d="M360.3213,-503.8314C360.3213,-496.131 360.3213,-486.9743 360.3213,-478.4166"></path>
<polygon fill="#000000" stroke="#000000" points="363.8214,-478.4132 360.3213,-468.4133 356.8214,-478.4133 363.8214,-478.4132"></polygon>
</g>
<!-- 38 -->
<g id="node25" class="node">
<title>38</title>
<g id="a_node25"><a xlink:title="24">
<ellipse fill="none" stroke="#000000" cx="55.3213" cy="-522" rx="30.2015" ry="18"></ellipse>
<text text-anchor="middle" x="55.3213" y="-517.8" font-family="Times,serif" font-size="14.00" fill="#000000">☐ 38</text>
</a>
</g>
</g>
<!-- 34&#45;&gt;38 -->
<g id="edge21" class="edge">
<title>34-&gt;38</title>
<path fill="none" stroke="#000000" d="M149.2285,-580.7941C131.1535,-569.4776 104.925,-553.0562 84.7785,-540.4428"></path>
<polygon fill="#000000" stroke="#000000" points="86.6135,-537.4623 76.2803,-535.1222 82.8988,-543.3954 86.6135,-537.4623"></polygon>
</g>
<!-- 45 -->
<g id="node26" class="node">
<title>45</title>
<g id="a_node26"><a xlink:title="27">
<ellipse fill="none" stroke="#000000" cx="172.3213" cy="-522" rx="30.2015" ry="18"></ellipse>
<text text-anchor="middle" x="172.3213" y="-517.8" font-family="Times,serif" font-size="14.00" fill="#000000">☐ 45</text>
</a>
</g>
</g>
<!-- 34&#45;&gt;45 -->
<g id="edge22" class="edge">
<title>34-&gt;45</title>
<path fill="none" stroke="#000000" d="M170.8259,-575.8314C171.0398,-568.131 171.2942,-558.9743 171.5319,-550.4166"></path>
<polygon fill="#000000" stroke="#000000" points="175.0307,-550.5066 171.8098,-540.4133 168.0334,-550.3122 175.0307,-550.5066"></polygon>
</g>
<!-- 44 -->
<g id="node29" class="node">
<title>44</title>
<g id="a_node29"><a xlink:title="26">
<polygon fill="#c8c8c8" stroke="#000000" stroke-width="2" points="35.2957,-432.0493 37.265,-432.1479 39.214,-432.2953 41.1346,-432.4913 43.0192,-432.7353 44.8601,-433.0266 46.65,-433.3645 48.3821,-433.7479 50.0497,-434.1759 51.6466,-434.6472 53.1671,-435.1606 54.6059,-435.7147 55.9582,-436.308 57.2197,-436.9388 58.3867,-437.6054 59.4559,-438.3059 60.4248,-439.0385 61.2913,-439.8012 62.0537,-440.5918 62.7112,-441.4082 63.2634,-442.2481 63.7103,-443.1093 64.0525,-443.9894 64.2912,-444.886 64.428,-445.7965 64.4648,-446.7186 64.404,-447.6497 64.2485,-448.5873 64.0014,-449.5287 63.6661,-450.4713 63.2462,-451.4127 62.7457,-452.3503 62.1686,-453.2814 61.5191,-454.2035 60.8016,-455.114 60.0203,-456.0106 59.1797,-456.8907 58.284,-457.7519 57.3377,-458.5918 56.3448,-459.4082 55.3096,-460.1988 54.2359,-460.9615 53.1276,-461.6941 51.9882,-462.3946 50.8212,-463.0612 49.6298,-463.692 48.4169,-464.2853 47.1854,-464.8394 45.9377,-465.3528 44.6761,-465.8241 43.4027,-466.2521 42.1194,-466.6355 40.8278,-466.9734 39.5295,-467.2647 38.2258,-467.5087 36.9178,-467.7047 35.6067,-467.8521 34.2934,-467.9507 32.9788,-468 31.6637,-468 30.3491,-467.9507 29.0358,-467.8521 27.7247,-467.7047 26.4167,-467.5087 25.113,-467.2647 23.8147,-466.9734 22.5231,-466.6355 21.2398,-466.2521 19.9664,-465.8241 18.7049,-465.3528 17.4571,-464.8394 16.2256,-464.2853 15.0127,-463.692 13.8213,-463.0612 12.6543,-462.3946 11.515,-461.6941 10.4066,-460.9615 9.333,-460.1988 8.2977,-459.4082 7.3049,-458.5918 6.3585,-457.7519 5.4629,-456.8907 4.6222,-456.0106 3.8409,-455.114 3.1234,-454.2035 2.4739,-453.2814 1.8968,-452.3503 1.3963,-451.4127 .9764,-450.4713 .6411,-449.5287 .394,-448.5873 .2385,-447.6497 .1778,-446.7186 .2146,-445.7965 .3513,-444.886 .59,-443.9894 .9322,-443.1093 1.3791,-442.2481 1.9313,-441.4082 2.5888,-440.5918 3.3512,-439.8012 4.2177,-439.0385 5.1866,-438.3059 6.2558,-437.6054 7.4228,-436.9388 8.6843,-436.308 10.0366,-435.7147 11.4754,-435.1606 12.9959,-434.6472 14.5929,-434.1759 16.2604,-433.7479 17.9925,-433.3645 19.7825,-433.0266 21.6233,-432.7353 23.5079,-432.4913 25.4285,-432.2953 27.3775,-432.1479 29.3468,-432.0493 31.3284,-432 33.3141,-432 35.2957,-432.0493"></polygon>
<text text-anchor="middle" x="32.3213" y="-445.8" font-family="Times,serif" font-size="14.00" fill="#000000">☐ 44</text>
</a>
</g>
</g>
<!-- 38&#45;&gt;44 -->
<g id="edge23" class="edge">
<title>38-&gt;44</title>
<path fill="none" stroke="#000000" d="M49.6359,-504.2022C47.0456,-496.0936 43.9212,-486.3129 41.0436,-477.3049"></path>
<polygon fill="#000000" stroke="#000000" points="44.3183,-476.0538 37.9413,-467.593 37.6503,-478.1839 44.3183,-476.0538"></polygon>
</g>
<!-- 57 -->
<g id="node31" class="node">
<title>57</title>
<g id="a_node31"><a xlink:title="33">
<polygon fill="#c8c8c8" stroke="#000000" stroke-width="2" points="118.2957,-432.0493 120.265,-432.1479 122.214,-432.2953 124.1346,-432.4913 126.0192,-432.7353 127.8601,-433.0266 129.65,-433.3645 131.3821,-433.7479 133.0497,-434.1759 134.6466,-434.6472 136.1671,-435.1606 137.6059,-435.7147 138.9582,-436.308 140.2197,-436.9388 141.3867,-437.6054 142.4559,-438.3059 143.4248,-439.0385 144.2913,-439.8012 145.0537,-440.5918 145.7112,-441.4082 146.2634,-442.2481 146.7103,-443.1093 147.0525,-443.9894 147.2912,-444.886 147.428,-445.7965 147.4648,-446.7186 147.404,-447.6497 147.2485,-448.5873 147.0014,-449.5287 146.6661,-450.4713 146.2462,-451.4127 145.7457,-452.3503 145.1686,-453.2814 144.5191,-454.2035 143.8016,-455.114 143.0203,-456.0106 142.1797,-456.8907 141.284,-457.7519 140.3377,-458.5918 139.3448,-459.4082 138.3096,-460.1988 137.2359,-460.9615 136.1276,-461.6941 134.9882,-462.3946 133.8212,-463.0612 132.6298,-463.692 131.4169,-464.2853 130.1854,-464.8394 128.9377,-465.3528 127.6761,-465.8241 126.4027,-466.2521 125.1194,-466.6355 123.8278,-466.9734 122.5295,-467.2647 121.2258,-467.5087 119.9178,-467.7047 118.6067,-467.8521 117.2934,-467.9507 115.9788,-468 114.6637,-468 113.3491,-467.9507 112.0358,-467.8521 110.7247,-467.7047 109.4167,-467.5087 108.113,-467.2647 106.8147,-466.9734 105.5231,-466.6355 104.2398,-466.2521 102.9664,-465.8241 101.7049,-465.3528 100.4571,-464.8394 99.2256,-464.2853 98.0127,-463.692 96.8213,-463.0612 95.6543,-462.3946 94.515,-461.6941 93.4066,-460.9615 92.333,-460.1988 91.2977,-459.4082 90.3049,-458.5918 89.3585,-457.7519 88.4629,-456.8907 87.6222,-456.0106 86.8409,-455.114 86.1234,-454.2035 85.4739,-453.2814 84.8968,-452.3503 84.3963,-451.4127 83.9764,-450.4713 83.6411,-449.5287 83.394,-448.5873 83.2385,-447.6497 83.1778,-446.7186 83.2146,-445.7965 83.3513,-444.886 83.59,-443.9894 83.9322,-443.1093 84.3791,-442.2481 84.9313,-441.4082 85.5888,-440.5918 86.3512,-439.8012 87.2177,-439.0385 88.1866,-438.3059 89.2558,-437.6054 90.4228,-436.9388 91.6843,-436.308 93.0366,-435.7147 94.4754,-435.1606 95.9959,-434.6472 97.5929,-434.1759 99.2604,-433.7479 100.9925,-433.3645 102.7825,-433.0266 104.6233,-432.7353 106.5079,-432.4913 108.4285,-432.2953 110.3775,-432.1479 112.3468,-432.0493 114.3284,-432 116.3141,-432 118.2957,-432.0493"></polygon>
<text text-anchor="middle" x="115.3213" y="-445.8" font-family="Times,serif" font-size="14.00" fill="#000000">☐ 57</text>
</a>
</g>
</g>
<!-- 45&#45;&gt;57 -->
<g id="edge26" class="edge">
<title>45-&gt;57</title>
<path fill="none" stroke="#000000" d="M159.3871,-505.6621C151.9227,-496.2334 142.4034,-484.2091 134.1239,-473.7507"></path>
<polygon fill="#000000" stroke="#000000" points="136.7638,-471.4465 127.8125,-465.7784 131.2754,-475.7914 136.7638,-471.4465"></polygon>
</g>
<!-- 62 -->
<g id="node32" class="node">
<title>62</title>
<g id="a_node32"><a xlink:title="35">
<ellipse fill="none" stroke="#000000" cx="196.3213" cy="-450" rx="30.2015" ry="18"></ellipse>
<text text-anchor="middle" x="196.3213" y="-445.8" font-family="Times,serif" font-size="14.00" fill="#000000">☐ 62</text>
</a>
</g>
</g>
<!-- 45&#45;&gt;62 -->
<g id="edge27" class="edge">
<title>45-&gt;62</title>
<path fill="none" stroke="#000000" d="M178.2538,-504.2022C180.9366,-496.1541 184.1683,-486.4588 187.1524,-477.5067"></path>
<polygon fill="#000000" stroke="#000000" points="190.5318,-478.4362 190.3737,-467.8425 183.891,-476.2226 190.5318,-478.4362"></polygon>
</g>
<!-- 86 -->
<g id="node33" class="node">
<title>86</title>
<g id="a_node33"><a xlink:title="46">
<ellipse fill="none" stroke="#000000" cx="276.3213" cy="-450" rx="30.2015" ry="18"></ellipse>
<text text-anchor="middle" x="276.3213" y="-445.8" font-family="Times,serif" font-size="14.00" fill="#000000">☐ 86</text>
</a>
</g>
</g>
<!-- 45&#45;&gt;86 -->
<g id="edge28" class="edge">
<title>45-&gt;86</title>
<path fill="none" stroke="#000000" d="M192.3735,-508.1177C208.1998,-497.161 230.4722,-481.7416 248.0991,-469.5384"></path>
<polygon fill="#000000" stroke="#000000" points="250.1009,-472.4095 256.3306,-463.8397 246.1164,-466.6542 250.1009,-472.4095"></polygon>
</g>
<!-- 35 -->
<g id="node27" class="node">
<title>35</title>
<g id="a_node27"><a xlink:title="22">
<polygon fill="#c8c8c8" stroke="#000000" stroke-width="2" points="261.2957,-72.0493 263.265,-72.1479 265.214,-72.2953 267.1346,-72.4913 269.0192,-72.7353 270.8601,-73.0266 272.65,-73.3645 274.3821,-73.7479 276.0497,-74.1759 277.6466,-74.6472 279.1671,-75.1606 280.6059,-75.7147 281.9582,-76.308 283.2197,-76.9388 284.3867,-77.6054 285.4559,-78.3059 286.4248,-79.0385 287.2913,-79.8012 288.0537,-80.5918 288.7112,-81.4082 289.2634,-82.2481 289.7103,-83.1093 290.0525,-83.9894 290.2912,-84.886 290.428,-85.7965 290.4648,-86.7186 290.404,-87.6497 290.2485,-88.5873 290.0014,-89.5287 289.6661,-90.4713 289.2462,-91.4127 288.7457,-92.3503 288.1686,-93.2814 287.5191,-94.2035 286.8016,-95.114 286.0203,-96.0106 285.1797,-96.8907 284.284,-97.7519 283.3377,-98.5918 282.3448,-99.4082 281.3096,-100.1988 280.2359,-100.9615 279.1276,-101.6941 277.9882,-102.3946 276.8212,-103.0612 275.6298,-103.692 274.4169,-104.2853 273.1854,-104.8394 271.9377,-105.3528 270.6761,-105.8241 269.4027,-106.2521 268.1194,-106.6355 266.8278,-106.9734 265.5295,-107.2647 264.2258,-107.5087 262.9178,-107.7047 261.6067,-107.8521 260.2934,-107.9507 258.9788,-108 257.6637,-108 256.3491,-107.9507 255.0358,-107.8521 253.7247,-107.7047 252.4167,-107.5087 251.113,-107.2647 249.8147,-106.9734 248.5231,-106.6355 247.2398,-106.2521 245.9664,-105.8241 244.7049,-105.3528 243.4571,-104.8394 242.2256,-104.2853 241.0127,-103.692 239.8213,-103.0612 238.6543,-102.3946 237.515,-101.6941 236.4066,-100.9615 235.333,-100.1988 234.2977,-99.4082 233.3049,-98.5918 232.3585,-97.7519 231.4629,-96.8907 230.6222,-96.0106 229.8409,-95.114 229.1234,-94.2035 228.4739,-93.2814 227.8968,-92.3503 227.3963,-91.4127 226.9764,-90.4713 226.6411,-89.5287 226.394,-88.5873 226.2385,-87.6497 226.1778,-86.7186 226.2146,-85.7965 226.3513,-84.886 226.59,-83.9894 226.9322,-83.1093 227.3791,-82.2481 227.9313,-81.4082 228.5888,-80.5918 229.3512,-79.8012 230.2177,-79.0385 231.1866,-78.3059 232.2558,-77.6054 233.4228,-76.9388 234.6843,-76.308 236.0366,-75.7147 237.4754,-75.1606 238.9959,-74.6472 240.5929,-74.1759 242.2604,-73.7479 243.9925,-73.3645 245.7825,-73.0266 247.6233,-72.7353 249.5079,-72.4913 251.4285,-72.2953 253.3775,-72.1479 255.3468,-72.0493 257.3284,-72 259.3141,-72 261.2957,-72.0493"></polygon>
<text text-anchor="middle" x="258.3213" y="-85.8" font-family="Times,serif" font-size="14.00" fill="#000000">☐ 35</text>
</a>
</g>
</g>
<!-- 36 -->
<g id="node28" class="node">
<title>36</title>
<g id="a_node28"><a xlink:title="23">
<polygon fill="#c8c8c8" stroke="#000000" stroke-width="2" points="155.2957,-288.0493 157.265,-288.1479 159.214,-288.2953 161.1346,-288.4913 163.0192,-288.7353 164.8601,-289.0266 166.65,-289.3645 168.3821,-289.7479 170.0497,-290.1759 171.6466,-290.6472 173.1671,-291.1606 174.6059,-291.7147 175.9582,-292.308 177.2197,-292.9388 178.3867,-293.6054 179.4559,-294.3059 180.4248,-295.0385 181.2913,-295.8012 182.0537,-296.5918 182.7112,-297.4082 183.2634,-298.2481 183.7103,-299.1093 184.0525,-299.9894 184.2912,-300.886 184.428,-301.7965 184.4648,-302.7186 184.404,-303.6497 184.2485,-304.5873 184.0014,-305.5287 183.6661,-306.4713 183.2462,-307.4127 182.7457,-308.3503 182.1686,-309.2814 181.5191,-310.2035 180.8016,-311.114 180.0203,-312.0106 179.1797,-312.8907 178.284,-313.7519 177.3377,-314.5918 176.3448,-315.4082 175.3096,-316.1988 174.2359,-316.9615 173.1276,-317.6941 171.9882,-318.3946 170.8212,-319.0612 169.6298,-319.692 168.4169,-320.2853 167.1854,-320.8394 165.9377,-321.3528 164.6761,-321.8241 163.4027,-322.2521 162.1194,-322.6355 160.8278,-322.9734 159.5295,-323.2647 158.2258,-323.5087 156.9178,-323.7047 155.6067,-323.8521 154.2934,-323.9507 152.9788,-324 151.6637,-324 150.3491,-323.9507 149.0358,-323.8521 147.7247,-323.7047 146.4167,-323.5087 145.113,-323.2647 143.8147,-322.9734 142.5231,-322.6355 141.2398,-322.2521 139.9664,-321.8241 138.7049,-321.3528 137.4571,-320.8394 136.2256,-320.2853 135.0127,-319.692 133.8213,-319.0612 132.6543,-318.3946 131.515,-317.6941 130.4066,-316.9615 129.333,-316.1988 128.2977,-315.4082 127.3049,-314.5918 126.3585,-313.7519 125.4629,-312.8907 124.6222,-312.0106 123.8409,-311.114 123.1234,-310.2035 122.4739,-309.2814 121.8968,-308.3503 121.3963,-307.4127 120.9764,-306.4713 120.6411,-305.5287 120.394,-304.5873 120.2385,-303.6497 120.1778,-302.7186 120.2146,-301.7965 120.3513,-300.886 120.59,-299.9894 120.9322,-299.1093 121.3791,-298.2481 121.9313,-297.4082 122.5888,-296.5918 123.3512,-295.8012 124.2177,-295.0385 125.1866,-294.3059 126.2558,-293.6054 127.4228,-292.9388 128.6843,-292.308 130.0366,-291.7147 131.4754,-291.1606 132.9959,-290.6472 134.5929,-290.1759 136.2604,-289.7479 137.9925,-289.3645 139.7825,-289.0266 141.6233,-288.7353 143.5079,-288.4913 145.4285,-288.2953 147.3775,-288.1479 149.3468,-288.0493 151.3284,-288 153.3141,-288 155.2957,-288.0493"></polygon>
<text text-anchor="middle" x="152.3213" y="-301.8" font-family="Times,serif" font-size="14.00" fill="#000000">☐ 36</text>
</a>
</g>
</g>
<!-- 82 -->
<g id="node34" class="node">
<title>82</title>
<g id="a_node34"><a xlink:title="44">
<ellipse fill="none" stroke="#000000" cx="522.3213" cy="-522" rx="30.2015" ry="18"></ellipse>
<text text-anchor="middle" x="522.3213" y="-517.8" font-family="Times,serif" font-size="14.00" fill="#000000">☐ 82</text>
</a>
</g>
</g>
<!-- 49&#45;&gt;82 -->
<g id="edge29" class="edge">
<title>49-&gt;82</title>
<path fill="none" stroke="#000000" d="M521.5736,-575.8314C521.6805,-568.131 521.8077,-558.9743 521.9266,-550.4166"></path>
<polygon fill="#000000" stroke="#000000" points="525.4262,-550.4609 522.0655,-540.4133 518.4269,-550.3637 525.4262,-550.4609"></polygon>
</g>
<!-- 68 -->
<g id="node39" class="node">
<title>68</title>
<g id="a_node39"><a xlink:title="37">
<ellipse fill="none" stroke="#000000" cx="195.3213" cy="-378" rx="30.2015" ry="18"></ellipse>
<text text-anchor="middle" x="195.3213" y="-373.8" font-family="Times,serif" font-size="14.00" fill="#000000">☐ 68</text>
</a>
</g>
</g>
<!-- 62&#45;&gt;68 -->
<g id="edge32" class="edge">
<title>62-&gt;68</title>
<path fill="none" stroke="#000000" d="M196.0689,-431.8314C195.962,-424.131 195.8348,-414.9743 195.7159,-406.4166"></path>
<polygon fill="#000000" stroke="#000000" points="199.2156,-406.3637 195.577,-396.4133 192.2163,-406.4609 199.2156,-406.3637"></polygon>
</g>
<!-- 75 -->
<g id="node46" class="node">
<title>75</title>
<g id="a_node46"><a xlink:title="40">
<polygon fill="#c8c8c8" stroke="#000000" stroke-width="2" points="279.2957,-360.0493 281.265,-360.1479 283.214,-360.2953 285.1346,-360.4913 287.0192,-360.7353 288.8601,-361.0266 290.65,-361.3645 292.3821,-361.7479 294.0497,-362.1759 295.6466,-362.6472 297.1671,-363.1606 298.6059,-363.7147 299.9582,-364.308 301.2197,-364.9388 302.3867,-365.6054 303.4559,-366.3059 304.4248,-367.0385 305.2913,-367.8012 306.0537,-368.5918 306.7112,-369.4082 307.2634,-370.2481 307.7103,-371.1093 308.0525,-371.9894 308.2912,-372.886 308.428,-373.7965 308.4648,-374.7186 308.404,-375.6497 308.2485,-376.5873 308.0014,-377.5287 307.6661,-378.4713 307.2462,-379.4127 306.7457,-380.3503 306.1686,-381.2814 305.5191,-382.2035 304.8016,-383.114 304.0203,-384.0106 303.1797,-384.8907 302.284,-385.7519 301.3377,-386.5918 300.3448,-387.4082 299.3096,-388.1988 298.2359,-388.9615 297.1276,-389.6941 295.9882,-390.3946 294.8212,-391.0612 293.6298,-391.692 292.4169,-392.2853 291.1854,-392.8394 289.9377,-393.3528 288.6761,-393.8241 287.4027,-394.2521 286.1194,-394.6355 284.8278,-394.9734 283.5295,-395.2647 282.2258,-395.5087 280.9178,-395.7047 279.6067,-395.8521 278.2934,-395.9507 276.9788,-396 275.6637,-396 274.3491,-395.9507 273.0358,-395.8521 271.7247,-395.7047 270.4167,-395.5087 269.113,-395.2647 267.8147,-394.9734 266.5231,-394.6355 265.2398,-394.2521 263.9664,-393.8241 262.7049,-393.3528 261.4571,-392.8394 260.2256,-392.2853 259.0127,-391.692 257.8213,-391.0612 256.6543,-390.3946 255.515,-389.6941 254.4066,-388.9615 253.333,-388.1988 252.2977,-387.4082 251.3049,-386.5918 250.3585,-385.7519 249.4629,-384.8907 248.6222,-384.0106 247.8409,-383.114 247.1234,-382.2035 246.4739,-381.2814 245.8968,-380.3503 245.3963,-379.4127 244.9764,-378.4713 244.6411,-377.5287 244.394,-376.5873 244.2385,-375.6497 244.1778,-374.7186 244.2146,-373.7965 244.3513,-372.886 244.59,-371.9894 244.9322,-371.1093 245.3791,-370.2481 245.9313,-369.4082 246.5888,-368.5918 247.3512,-367.8012 248.2177,-367.0385 249.1866,-366.3059 250.2558,-365.6054 251.4228,-364.9388 252.6843,-364.308 254.0366,-363.7147 255.4754,-363.1606 256.9959,-362.6472 258.5929,-362.1759 260.2604,-361.7479 261.9925,-361.3645 263.7825,-361.0266 265.6233,-360.7353 267.5079,-360.4913 269.4285,-360.2953 271.3775,-360.1479 273.3468,-360.0493 275.3284,-360 277.3141,-360 279.2957,-360.0493"></polygon>
<text text-anchor="middle" x="276.3213" y="-373.8" font-family="Times,serif" font-size="14.00" fill="#000000">☐ 75</text>
</a>
</g>
</g>
<!-- 86&#45;&gt;75 -->
<g id="edge44" class="edge">
<title>86-&gt;75</title>
<path fill="none" stroke="#000000" d="M276.3213,-431.8314C276.3213,-424.131 276.3213,-414.9743 276.3213,-406.4166"></path>
<polygon fill="#000000" stroke="#000000" points="279.8214,-406.4132 276.3213,-396.4133 272.8214,-406.4133 279.8214,-406.4132"></polygon>
</g>
<!-- 77 -->
<g id="node47" class="node">
<title>77</title>
<g id="a_node47"><a xlink:title="41">
<ellipse fill="none" stroke="#000000" cx="357.3213" cy="-378" rx="30.2015" ry="18"></ellipse>
<text text-anchor="middle" x="357.3213" y="-373.8" font-family="Times,serif" font-size="14.00" fill="#000000">☐ 77</text>
</a>
</g>
</g>
<!-- 86&#45;&gt;77 -->
<g id="edge45" class="edge">
<title>86-&gt;77</title>
<path fill="none" stroke="#000000" d="M293.4993,-434.7307C304.9596,-424.5437 320.1993,-410.9973 332.9127,-399.6965"></path>
<polygon fill="#000000" stroke="#000000" points="335.2969,-402.2601 340.4458,-393.0004 330.6464,-397.0282 335.2969,-402.2601"></polygon>
</g>
<!-- 69 -->
<g id="node42" class="node">
<title>69</title>
<g id="a_node42"><a xlink:title="38">
<ellipse fill="none" stroke="#000000" cx="521.3213" cy="-450" rx="30.2015" ry="18"></ellipse>
<text text-anchor="middle" x="521.3213" y="-445.8" font-family="Times,serif" font-size="14.00" fill="#000000">☐ 69</text>
</a>
</g>
</g>
<!-- 82&#45;&gt;69 -->
<g id="edge41" class="edge">
<title>82-&gt;69</title>
<path fill="none" stroke="#000000" d="M522.0689,-503.8314C521.962,-496.131 521.8348,-486.9743 521.7159,-478.4166"></path>
<polygon fill="#000000" stroke="#000000" points="525.2156,-478.3637 521.577,-468.4133 518.2163,-478.4609 525.2156,-478.3637"></polygon>
</g>
<!-- 71 -->
<g id="node43" class="node">
<title>71</title>
<g id="a_node43"><a xlink:title="39">
<ellipse fill="none" stroke="#000000" cx="604.3213" cy="-450" rx="30.2015" ry="18"></ellipse>
<text text-anchor="middle" x="604.3213" y="-445.8" font-family="Times,serif" font-size="14.00" fill="#000000">☐ 71</text>
</a>
</g>
</g>
<!-- 82&#45;&gt;71 -->
<g id="edge42" class="edge">
<title>82-&gt;71</title>
<path fill="none" stroke="#000000" d="M539.3117,-507.0816C550.8884,-496.9167 566.4082,-483.2895 579.3806,-471.8991"></path>
<polygon fill="#000000" stroke="#000000" points="581.8653,-474.3751 587.0705,-465.147 577.2467,-469.115 581.8653,-474.3751"></polygon>
</g>
<!-- 55 -->
<g id="node36" class="node">
<title>55</title>
<g id="a_node36"><a xlink:title="32">
<polygon fill="#c8c8c8" stroke="#000000" stroke-width="2" points="360.2957,-288.0493 362.265,-288.1479 364.214,-288.2953 366.1346,-288.4913 368.0192,-288.7353 369.8601,-289.0266 371.65,-289.3645 373.3821,-289.7479 375.0497,-290.1759 376.6466,-290.6472 378.1671,-291.1606 379.6059,-291.7147 380.9582,-292.308 382.2197,-292.9388 383.3867,-293.6054 384.4559,-294.3059 385.4248,-295.0385 386.2913,-295.8012 387.0537,-296.5918 387.7112,-297.4082 388.2634,-298.2481 388.7103,-299.1093 389.0525,-299.9894 389.2912,-300.886 389.428,-301.7965 389.4648,-302.7186 389.404,-303.6497 389.2485,-304.5873 389.0014,-305.5287 388.6661,-306.4713 388.2462,-307.4127 387.7457,-308.3503 387.1686,-309.2814 386.5191,-310.2035 385.8016,-311.114 385.0203,-312.0106 384.1797,-312.8907 383.284,-313.7519 382.3377,-314.5918 381.3448,-315.4082 380.3096,-316.1988 379.2359,-316.9615 378.1276,-317.6941 376.9882,-318.3946 375.8212,-319.0612 374.6298,-319.692 373.4169,-320.2853 372.1854,-320.8394 370.9377,-321.3528 369.6761,-321.8241 368.4027,-322.2521 367.1194,-322.6355 365.8278,-322.9734 364.5295,-323.2647 363.2258,-323.5087 361.9178,-323.7047 360.6067,-323.8521 359.2934,-323.9507 357.9788,-324 356.6637,-324 355.3491,-323.9507 354.0358,-323.8521 352.7247,-323.7047 351.4167,-323.5087 350.113,-323.2647 348.8147,-322.9734 347.5231,-322.6355 346.2398,-322.2521 344.9664,-321.8241 343.7049,-321.3528 342.4571,-320.8394 341.2256,-320.2853 340.0127,-319.692 338.8213,-319.0612 337.6543,-318.3946 336.515,-317.6941 335.4066,-316.9615 334.333,-316.1988 333.2977,-315.4082 332.3049,-314.5918 331.3585,-313.7519 330.4629,-312.8907 329.6222,-312.0106 328.8409,-311.114 328.1234,-310.2035 327.4739,-309.2814 326.8968,-308.3503 326.3963,-307.4127 325.9764,-306.4713 325.6411,-305.5287 325.394,-304.5873 325.2385,-303.6497 325.1778,-302.7186 325.2146,-301.7965 325.3513,-300.886 325.59,-299.9894 325.9322,-299.1093 326.3791,-298.2481 326.9313,-297.4082 327.5888,-296.5918 328.3512,-295.8012 329.2177,-295.0385 330.1866,-294.3059 331.2558,-293.6054 332.4228,-292.9388 333.6843,-292.308 335.0366,-291.7147 336.4754,-291.1606 337.9959,-290.6472 339.5929,-290.1759 341.2604,-289.7479 342.9925,-289.3645 344.7825,-289.0266 346.6233,-288.7353 348.5079,-288.4913 350.4285,-288.2953 352.3775,-288.1479 354.3468,-288.0493 356.3284,-288 358.3141,-288 360.2957,-288.0493"></polygon>
<text text-anchor="middle" x="357.3213" y="-301.8" font-family="Times,serif" font-size="14.00" fill="#000000">☐ 55</text>
</a>
</g>
</g>
<!-- 60 -->
<g id="node37" class="node">
<title>60</title>
<g id="a_node37"><a xlink:title="34">
<ellipse fill="none" stroke="#000000" cx="440.3213" cy="-378" rx="30.2015" ry="18"></ellipse>
<text text-anchor="middle" x="440.3213" y="-373.8" font-family="Times,serif" font-size="14.00" fill="#000000">☐ 60</text>
</a>
</g>
</g>
<!-- 89 -->
<g id="node38" class="node">
<title>89</title>
<g id="a_node38"><a xlink:title="47">
<ellipse fill="none" stroke="#000000" cx="440.3213" cy="-306" rx="30.2015" ry="18"></ellipse>
<text text-anchor="middle" x="440.3213" y="-301.8" font-family="Times,serif" font-size="14.00" fill="#000000">☐ 89</text>
</a>
</g>
</g>
<!-- 60&#45;&gt;89 -->
<g id="edge31" class="edge">
<title>60-&gt;89</title>
<path fill="none" stroke="#000000" d="M440.3213,-359.8314C440.3213,-352.131 440.3213,-342.9743 440.3213,-334.4166"></path>
<polygon fill="#000000" stroke="#000000" points="443.8214,-334.4132 440.3213,-324.4133 436.8214,-334.4133 443.8214,-334.4132"></polygon>
</g>
<!-- 95 -->
<g id="node49" class="node">
<title>95</title>
<g id="a_node49"><a xlink:title="51">
<ellipse fill="none" stroke="#000000" cx="349.3213" cy="-234" rx="30.2015" ry="18"></ellipse>
<text text-anchor="middle" x="349.3213" y="-229.8" font-family="Times,serif" font-size="14.00" fill="#000000">☐ 95</text>
</a>
</g>
</g>
<!-- 89&#45;&gt;95 -->
<g id="edge46" class="edge">
<title>89-&gt;95</title>
<path fill="none" stroke="#000000" d="M421.906,-291.4297C408.5848,-280.8899 390.3937,-266.4969 375.5554,-254.7567"></path>
<polygon fill="#000000" stroke="#000000" points="377.723,-252.0087 367.7091,-248.5486 373.3796,-257.4982 377.723,-252.0087"></polygon>
</g>
<!-- 98 -->
<g id="node50" class="node">
<title>98</title>
<g id="a_node50"><a xlink:title="52">
<ellipse fill="none" stroke="#000000" cx="440.3213" cy="-234" rx="30.2015" ry="18"></ellipse>
<text text-anchor="middle" x="440.3213" y="-229.8" font-family="Times,serif" font-size="14.00" fill="#000000">☐ 98</text>
</a>
</g>
</g>
<!-- 89&#45;&gt;98 -->
<g id="edge47" class="edge">
<title>89-&gt;98</title>
<path fill="none" stroke="#000000" d="M440.3213,-287.8314C440.3213,-280.131 440.3213,-270.9743 440.3213,-262.4166"></path>
<polygon fill="#000000" stroke="#000000" points="443.8214,-262.4132 440.3213,-252.4133 436.8214,-262.4133 443.8214,-262.4132"></polygon>
</g>
<!-- 108 -->
<g id="node51" class="node">
<title>108</title>
<g id="a_node51"><a xlink:title="57">
<ellipse fill="none" stroke="#000000" cx="528.3213" cy="-234" rx="35.3587" ry="18"></ellipse>
<text text-anchor="middle" x="528.3213" y="-229.8" font-family="Times,serif" font-size="14.00" fill="#000000">☐ 108</text>
</a>
</g>
</g>
<!-- 89&#45;&gt;108 -->
<g id="edge48" class="edge">
<title>89-&gt;108</title>
<path fill="none" stroke="#000000" d="M458.5549,-291.0816C471.0117,-280.8896 487.7227,-267.217 501.6666,-255.8083"></path>
<polygon fill="#000000" stroke="#000000" points="503.9805,-258.4374 509.5038,-249.3961 499.5478,-253.0197 503.9805,-258.4374"></polygon>
</g>
<!-- 68&#45;&gt;36 -->
<g id="edge33" class="edge">
<title>68-&gt;36</title>
<path fill="none" stroke="#000000" d="M185.1309,-360.937C179.9364,-352.2393 173.5107,-341.4799 167.7265,-331.7948"></path>
<polygon fill="#000000" stroke="#000000" points="170.5709,-329.7314 162.4385,-322.9405 164.5611,-333.3206 170.5709,-329.7314"></polygon>
</g>
<!-- 84 -->
<g id="node41" class="node">
<title>84</title>
<g id="a_node41"><a xlink:title="45">
<ellipse fill="none" stroke="#000000" cx="233.3213" cy="-306" rx="30.2015" ry="18"></ellipse>
<text text-anchor="middle" x="233.3213" y="-301.8" font-family="Times,serif" font-size="14.00" fill="#000000">☐ 84</text>
</a>
</g>
</g>
<!-- 68&#45;&gt;84 -->
<g id="edge34" class="edge">
<title>68-&gt;84</title>
<path fill="none" stroke="#000000" d="M204.52,-360.5708C209.0009,-352.0807 214.4834,-341.6929 219.4579,-332.2674"></path>
<polygon fill="#000000" stroke="#000000" points="222.6349,-333.7462 224.2072,-323.2687 216.4442,-330.4789 222.6349,-333.7462"></polygon>
</g>
<!-- 64 -->
<g id="node40" class="node">
<title>64</title>
<g id="a_node40"><a xlink:title="36">
<polygon fill="#c8c8c8" stroke="#000000" stroke-width="2" points="524.2957,-360.0493 526.265,-360.1479 528.214,-360.2953 530.1346,-360.4913 532.0192,-360.7353 533.8601,-361.0266 535.65,-361.3645 537.3821,-361.7479 539.0497,-362.1759 540.6466,-362.6472 542.1671,-363.1606 543.6059,-363.7147 544.9582,-364.308 546.2197,-364.9388 547.3867,-365.6054 548.4559,-366.3059 549.4248,-367.0385 550.2913,-367.8012 551.0537,-368.5918 551.7112,-369.4082 552.2634,-370.2481 552.7103,-371.1093 553.0525,-371.9894 553.2912,-372.886 553.428,-373.7965 553.4648,-374.7186 553.404,-375.6497 553.2485,-376.5873 553.0014,-377.5287 552.6661,-378.4713 552.2462,-379.4127 551.7457,-380.3503 551.1686,-381.2814 550.5191,-382.2035 549.8016,-383.114 549.0203,-384.0106 548.1797,-384.8907 547.284,-385.7519 546.3377,-386.5918 545.3448,-387.4082 544.3096,-388.1988 543.2359,-388.9615 542.1276,-389.6941 540.9882,-390.3946 539.8212,-391.0612 538.6298,-391.692 537.4169,-392.2853 536.1854,-392.8394 534.9377,-393.3528 533.6761,-393.8241 532.4027,-394.2521 531.1194,-394.6355 529.8278,-394.9734 528.5295,-395.2647 527.2258,-395.5087 525.9178,-395.7047 524.6067,-395.8521 523.2934,-395.9507 521.9788,-396 520.6637,-396 519.3491,-395.9507 518.0358,-395.8521 516.7247,-395.7047 515.4167,-395.5087 514.113,-395.2647 512.8147,-394.9734 511.5231,-394.6355 510.2398,-394.2521 508.9664,-393.8241 507.7049,-393.3528 506.4571,-392.8394 505.2256,-392.2853 504.0127,-391.692 502.8213,-391.0612 501.6543,-390.3946 500.515,-389.6941 499.4066,-388.9615 498.333,-388.1988 497.2977,-387.4082 496.3049,-386.5918 495.3585,-385.7519 494.4629,-384.8907 493.6222,-384.0106 492.8409,-383.114 492.1234,-382.2035 491.4739,-381.2814 490.8968,-380.3503 490.3963,-379.4127 489.9764,-378.4713 489.6411,-377.5287 489.394,-376.5873 489.2385,-375.6497 489.1778,-374.7186 489.2146,-373.7965 489.3513,-372.886 489.59,-371.9894 489.9322,-371.1093 490.3791,-370.2481 490.9313,-369.4082 491.5888,-368.5918 492.3512,-367.8012 493.2177,-367.0385 494.1866,-366.3059 495.2558,-365.6054 496.4228,-364.9388 497.6843,-364.308 499.0366,-363.7147 500.4754,-363.1606 501.9959,-362.6472 503.5929,-362.1759 505.2604,-361.7479 506.9925,-361.3645 508.7825,-361.0266 510.6233,-360.7353 512.5079,-360.4913 514.4285,-360.2953 516.3775,-360.1479 518.3468,-360.0493 520.3284,-360 522.3141,-360 524.2957,-360.0493"></polygon>
<text text-anchor="middle" x="521.3213" y="-373.8" font-family="Times,serif" font-size="14.00" fill="#000000">☐ 64</text>
</a>
</g>
</g>
<!-- 93 -->
<g id="node48" class="node">
<title>93</title>
<g id="a_node48"><a xlink:title="50">
<polygon fill="#c8c8c8" stroke="#000000" stroke-width="2" points="236.2957,-216.0493 238.265,-216.1479 240.214,-216.2953 242.1346,-216.4913 244.0192,-216.7353 245.8601,-217.0266 247.65,-217.3645 249.3821,-217.7479 251.0497,-218.1759 252.6466,-218.6472 254.1671,-219.1606 255.6059,-219.7147 256.9582,-220.308 258.2197,-220.9388 259.3867,-221.6054 260.4559,-222.3059 261.4248,-223.0385 262.2913,-223.8012 263.0537,-224.5918 263.7112,-225.4082 264.2634,-226.2481 264.7103,-227.1093 265.0525,-227.9894 265.2912,-228.886 265.428,-229.7965 265.4648,-230.7186 265.404,-231.6497 265.2485,-232.5873 265.0014,-233.5287 264.6661,-234.4713 264.2462,-235.4127 263.7457,-236.3503 263.1686,-237.2814 262.5191,-238.2035 261.8016,-239.114 261.0203,-240.0106 260.1797,-240.8907 259.284,-241.7519 258.3377,-242.5918 257.3448,-243.4082 256.3096,-244.1988 255.2359,-244.9615 254.1276,-245.6941 252.9882,-246.3946 251.8212,-247.0612 250.6298,-247.692 249.4169,-248.2853 248.1854,-248.8394 246.9377,-249.3528 245.6761,-249.8241 244.4027,-250.2521 243.1194,-250.6355 241.8278,-250.9734 240.5295,-251.2647 239.2258,-251.5087 237.9178,-251.7047 236.6067,-251.8521 235.2934,-251.9507 233.9788,-252 232.6637,-252 231.3491,-251.9507 230.0358,-251.8521 228.7247,-251.7047 227.4167,-251.5087 226.113,-251.2647 224.8147,-250.9734 223.5231,-250.6355 222.2398,-250.2521 220.9664,-249.8241 219.7049,-249.3528 218.4571,-248.8394 217.2256,-248.2853 216.0127,-247.692 214.8213,-247.0612 213.6543,-246.3946 212.515,-245.6941 211.4066,-244.9615 210.333,-244.1988 209.2977,-243.4082 208.3049,-242.5918 207.3585,-241.7519 206.4629,-240.8907 205.6222,-240.0106 204.8409,-239.114 204.1234,-238.2035 203.4739,-237.2814 202.8968,-236.3503 202.3963,-235.4127 201.9764,-234.4713 201.6411,-233.5287 201.394,-232.5873 201.2385,-231.6497 201.1778,-230.7186 201.2146,-229.7965 201.3513,-228.886 201.59,-227.9894 201.9322,-227.1093 202.3791,-226.2481 202.9313,-225.4082 203.5888,-224.5918 204.3512,-223.8012 205.2177,-223.0385 206.1866,-222.3059 207.2558,-221.6054 208.4228,-220.9388 209.6843,-220.308 211.0366,-219.7147 212.4754,-219.1606 213.9959,-218.6472 215.5929,-218.1759 217.2604,-217.7479 218.9925,-217.3645 220.7825,-217.0266 222.6233,-216.7353 224.5079,-216.4913 226.4285,-216.2953 228.3775,-216.1479 230.3468,-216.0493 232.3284,-216 234.3141,-216 236.2957,-216.0493"></polygon>
<text text-anchor="middle" x="233.3213" y="-229.8" font-family="Times,serif" font-size="14.00" fill="#000000">☐ 93</text>
</a>
</g>
</g>
<!-- 84&#45;&gt;93 -->
<g id="edge43" class="edge">
<title>84-&gt;93</title>
<path fill="none" stroke="#000000" d="M233.3213,-287.8314C233.3213,-280.131 233.3213,-270.9743 233.3213,-262.4166"></path>
<polygon fill="#000000" stroke="#000000" points="236.8214,-262.4132 233.3213,-252.4133 229.8214,-262.4133 236.8214,-262.4132"></polygon>
</g>
<!-- 69&#45;&gt;60 -->
<g id="edge35" class="edge">
<title>69-&gt;60</title>
<path fill="none" stroke="#000000" d="M504.1432,-434.7307C492.6829,-424.5437 477.4432,-410.9973 464.7298,-399.6965"></path>
<polygon fill="#000000" stroke="#000000" points="466.9962,-397.0282 457.1968,-393.0004 462.3456,-402.2601 466.9962,-397.0282"></polygon>
</g>
<!-- 69&#45;&gt;64 -->
<g id="edge36" class="edge">
<title>69-&gt;64</title>
<path fill="none" stroke="#000000" d="M521.3213,-431.8314C521.3213,-424.131 521.3213,-414.9743 521.3213,-406.4166"></path>
<polygon fill="#000000" stroke="#000000" points="524.8214,-406.4132 521.3213,-396.4133 517.8214,-406.4133 524.8214,-406.4132"></polygon>
</g>
<!-- 90 -->
<g id="node44" class="node">
<title>90</title>
<g id="a_node44"><a xlink:title="48">
<polygon fill="#c8c8c8" stroke="#000000" stroke-width="2" points="607.2957,-360.0493 609.265,-360.1479 611.214,-360.2953 613.1346,-360.4913 615.0192,-360.7353 616.8601,-361.0266 618.65,-361.3645 620.3821,-361.7479 622.0497,-362.1759 623.6466,-362.6472 625.1671,-363.1606 626.6059,-363.7147 627.9582,-364.308 629.2197,-364.9388 630.3867,-365.6054 631.4559,-366.3059 632.4248,-367.0385 633.2913,-367.8012 634.0537,-368.5918 634.7112,-369.4082 635.2634,-370.2481 635.7103,-371.1093 636.0525,-371.9894 636.2912,-372.886 636.428,-373.7965 636.4648,-374.7186 636.404,-375.6497 636.2485,-376.5873 636.0014,-377.5287 635.6661,-378.4713 635.2462,-379.4127 634.7457,-380.3503 634.1686,-381.2814 633.5191,-382.2035 632.8016,-383.114 632.0203,-384.0106 631.1797,-384.8907 630.284,-385.7519 629.3377,-386.5918 628.3448,-387.4082 627.3096,-388.1988 626.2359,-388.9615 625.1276,-389.6941 623.9882,-390.3946 622.8212,-391.0612 621.6298,-391.692 620.4169,-392.2853 619.1854,-392.8394 617.9377,-393.3528 616.6761,-393.8241 615.4027,-394.2521 614.1194,-394.6355 612.8278,-394.9734 611.5295,-395.2647 610.2258,-395.5087 608.9178,-395.7047 607.6067,-395.8521 606.2934,-395.9507 604.9788,-396 603.6637,-396 602.3491,-395.9507 601.0358,-395.8521 599.7247,-395.7047 598.4167,-395.5087 597.113,-395.2647 595.8147,-394.9734 594.5231,-394.6355 593.2398,-394.2521 591.9664,-393.8241 590.7049,-393.3528 589.4571,-392.8394 588.2256,-392.2853 587.0127,-391.692 585.8213,-391.0612 584.6543,-390.3946 583.515,-389.6941 582.4066,-388.9615 581.333,-388.1988 580.2977,-387.4082 579.3049,-386.5918 578.3585,-385.7519 577.4629,-384.8907 576.6222,-384.0106 575.8409,-383.114 575.1234,-382.2035 574.4739,-381.2814 573.8968,-380.3503 573.3963,-379.4127 572.9764,-378.4713 572.6411,-377.5287 572.394,-376.5873 572.2385,-375.6497 572.1778,-374.7186 572.2146,-373.7965 572.3513,-372.886 572.59,-371.9894 572.9322,-371.1093 573.3791,-370.2481 573.9313,-369.4082 574.5888,-368.5918 575.3512,-367.8012 576.2177,-367.0385 577.1866,-366.3059 578.2558,-365.6054 579.4228,-364.9388 580.6843,-364.308 582.0366,-363.7147 583.4754,-363.1606 584.9959,-362.6472 586.5929,-362.1759 588.2604,-361.7479 589.9925,-361.3645 591.7825,-361.0266 593.6233,-360.7353 595.5079,-360.4913 597.4285,-360.2953 599.3775,-360.1479 601.3468,-360.0493 603.3284,-360 605.3141,-360 607.2957,-360.0493"></polygon>
<text text-anchor="middle" x="604.3213" y="-373.8" font-family="Times,serif" font-size="14.00" fill="#000000">☐ 90</text>
</a>
</g>
</g>
<!-- 71&#45;&gt;90 -->
<g id="edge37" class="edge">
<title>71-&gt;90</title>
<path fill="none" stroke="#000000" d="M604.3213,-431.8314C604.3213,-424.131 604.3213,-414.9743 604.3213,-406.4166"></path>
<polygon fill="#000000" stroke="#000000" points="607.8214,-406.4132 604.3213,-396.4133 600.8214,-406.4133 607.8214,-406.4132"></polygon>
</g>
<!-- 92 -->
<g id="node45" class="node">
<title>92</title>
<g id="a_node45"><a xlink:title="49">
<polygon fill="#c8c8c8" stroke="#000000" stroke-width="2" points="690.2957,-360.0493 692.265,-360.1479 694.214,-360.2953 696.1346,-360.4913 698.0192,-360.7353 699.8601,-361.0266 701.65,-361.3645 703.3821,-361.7479 705.0497,-362.1759 706.6466,-362.6472 708.1671,-363.1606 709.6059,-363.7147 710.9582,-364.308 712.2197,-364.9388 713.3867,-365.6054 714.4559,-366.3059 715.4248,-367.0385 716.2913,-367.8012 717.0537,-368.5918 717.7112,-369.4082 718.2634,-370.2481 718.7103,-371.1093 719.0525,-371.9894 719.2912,-372.886 719.428,-373.7965 719.4648,-374.7186 719.404,-375.6497 719.2485,-376.5873 719.0014,-377.5287 718.6661,-378.4713 718.2462,-379.4127 717.7457,-380.3503 717.1686,-381.2814 716.5191,-382.2035 715.8016,-383.114 715.0203,-384.0106 714.1797,-384.8907 713.284,-385.7519 712.3377,-386.5918 711.3448,-387.4082 710.3096,-388.1988 709.2359,-388.9615 708.1276,-389.6941 706.9882,-390.3946 705.8212,-391.0612 704.6298,-391.692 703.4169,-392.2853 702.1854,-392.8394 700.9377,-393.3528 699.6761,-393.8241 698.4027,-394.2521 697.1194,-394.6355 695.8278,-394.9734 694.5295,-395.2647 693.2258,-395.5087 691.9178,-395.7047 690.6067,-395.8521 689.2934,-395.9507 687.9788,-396 686.6637,-396 685.3491,-395.9507 684.0358,-395.8521 682.7247,-395.7047 681.4167,-395.5087 680.113,-395.2647 678.8147,-394.9734 677.5231,-394.6355 676.2398,-394.2521 674.9664,-393.8241 673.7049,-393.3528 672.4571,-392.8394 671.2256,-392.2853 670.0127,-391.692 668.8213,-391.0612 667.6543,-390.3946 666.515,-389.6941 665.4066,-388.9615 664.333,-388.1988 663.2977,-387.4082 662.3049,-386.5918 661.3585,-385.7519 660.4629,-384.8907 659.6222,-384.0106 658.8409,-383.114 658.1234,-382.2035 657.4739,-381.2814 656.8968,-380.3503 656.3963,-379.4127 655.9764,-378.4713 655.6411,-377.5287 655.394,-376.5873 655.2385,-375.6497 655.1778,-374.7186 655.2146,-373.7965 655.3513,-372.886 655.59,-371.9894 655.9322,-371.1093 656.3791,-370.2481 656.9313,-369.4082 657.5888,-368.5918 658.3512,-367.8012 659.2177,-367.0385 660.1866,-366.3059 661.2558,-365.6054 662.4228,-364.9388 663.6843,-364.308 665.0366,-363.7147 666.4754,-363.1606 667.9959,-362.6472 669.5929,-362.1759 671.2604,-361.7479 672.9925,-361.3645 674.7825,-361.0266 676.6233,-360.7353 678.5079,-360.4913 680.4285,-360.2953 682.3775,-360.1479 684.3468,-360.0493 686.3284,-360 688.3141,-360 690.2957,-360.0493"></polygon>
<text text-anchor="middle" x="687.3213" y="-373.8" font-family="Times,serif" font-size="14.00" fill="#000000">☐ 92</text>
</a>
</g>
</g>
<!-- 71&#45;&gt;92 -->
<g id="edge38" class="edge">
<title>71-&gt;92</title>
<path fill="none" stroke="#000000" d="M621.5189,-435.0816C633.4727,-424.712 649.5801,-410.7393 662.8663,-399.2139"></path>
<polygon fill="#000000" stroke="#000000" points="665.4516,-401.6047 670.712,-392.408 660.8646,-396.317 665.4516,-401.6047"></polygon>
</g>
<!-- 77&#45;&gt;55 -->
<g id="edge39" class="edge">
<title>77-&gt;55</title>
<path fill="none" stroke="#000000" d="M357.3213,-359.8314C357.3213,-352.131 357.3213,-342.9743 357.3213,-334.4166"></path>
<polygon fill="#000000" stroke="#000000" points="360.8214,-334.4132 357.3213,-324.4133 353.8214,-334.4133 360.8214,-334.4132"></polygon>
</g>
<!-- 116 -->
<g id="node52" class="node">
<title>116</title>
<g id="a_node52"><a xlink:title="61">
<ellipse fill="none" stroke="#000000" cx="258.3213" cy="-162" rx="35.3587" ry="18"></ellipse>
<text text-anchor="middle" x="258.3213" y="-157.8" font-family="Times,serif" font-size="14.00" fill="#000000">☐ 116</text>
</a>
</g>
</g>
<!-- 95&#45;&gt;116 -->
<g id="edge49" class="edge">
<title>95-&gt;116</title>
<path fill="none" stroke="#000000" d="M330.906,-219.4297C317.9687,-209.1936 300.438,-195.3231 285.8462,-183.778"></path>
<polygon fill="#000000" stroke="#000000" points="287.6653,-180.7542 277.6513,-177.2941 283.3219,-186.2438 287.6653,-180.7542"></polygon>
</g>
<!-- 105 -->
<g id="node53" class="node">
<title>105</title>
<g id="a_node53"><a xlink:title="56">
<polygon fill="#c8c8c8" stroke="#000000" stroke-width="2" points="352.7846,-144.0493 355.0776,-144.1479 357.3469,-144.2953 359.5832,-144.4913 361.7775,-144.7353 363.9209,-145.0266 366.0051,-145.3645 368.0218,-145.7479 369.9635,-146.1759 371.8229,-146.6472 373.5933,-147.1606 375.2686,-147.7147 376.8431,-148.308 378.312,-148.9388 379.6708,-149.6054 380.9158,-150.3059 382.0439,-151.0385 383.0528,-151.8012 383.9405,-152.5918 384.7061,-153.4082 385.349,-154.2481 385.8694,-155.1093 386.2679,-155.9894 386.5458,-156.886 386.705,-157.7965 386.7478,-158.7186 386.6771,-159.6497 386.4961,-160.5873 386.2083,-161.5287 385.8179,-162.4713 385.329,-163.4127 384.7462,-164.3503 384.0743,-165.2814 383.3181,-166.2035 382.4826,-167.114 381.5729,-168.0106 380.5941,-168.8907 379.5512,-169.7519 378.4493,-170.5918 377.2933,-171.4082 376.0879,-172.1988 374.8378,-172.9615 373.5473,-173.6941 372.2206,-174.3946 370.8618,-175.0612 369.4746,-175.692 368.0624,-176.2853 366.6284,-176.8394 365.1756,-177.3528 363.7067,-177.8241 362.224,-178.2521 360.7298,-178.6355 359.226,-178.9734 357.7143,-179.2647 356.1963,-179.5087 354.6733,-179.7047 353.1467,-179.8521 351.6175,-179.9507 350.0868,-180 348.5557,-180 347.025,-179.9507 345.4958,-179.8521 343.9692,-179.7047 342.4462,-179.5087 340.9282,-179.2647 339.4165,-178.9734 337.9127,-178.6355 336.4185,-178.2521 334.9358,-177.8241 333.4669,-177.3528 332.0141,-176.8394 330.5801,-176.2853 329.1679,-175.692 327.7807,-175.0612 326.4219,-174.3946 325.0953,-173.6941 323.8048,-172.9615 322.5546,-172.1988 321.3492,-171.4082 320.1932,-170.5918 319.0913,-169.7519 318.0484,-168.8907 317.0696,-168.0106 316.1599,-167.114 315.3244,-166.2035 314.5682,-165.2814 313.8963,-164.3503 313.3135,-163.4127 312.8246,-162.4713 312.4342,-161.5287 312.1464,-160.5873 311.9654,-159.6497 311.8947,-158.7186 311.9375,-157.7965 312.0967,-156.886 312.3747,-155.9894 312.7731,-155.1093 313.2935,-154.2481 313.9364,-153.4082 314.702,-152.5918 315.5898,-151.8012 316.5986,-151.0385 317.7267,-150.3059 318.9717,-149.6054 320.3305,-148.9388 321.7994,-148.308 323.3739,-147.7147 325.0492,-147.1606 326.8196,-146.6472 328.679,-146.1759 330.6207,-145.7479 332.6374,-145.3645 334.7216,-145.0266 336.865,-144.7353 339.0593,-144.4913 341.2956,-144.2953 343.5649,-144.1479 345.8579,-144.0493 348.1652,-144 350.4773,-144 352.7846,-144.0493"></polygon>
<text text-anchor="middle" x="349.3213" y="-157.8" font-family="Times,serif" font-size="14.00" fill="#000000">☐ 105</text>
</a>
</g>
</g>
<!-- 95&#45;&gt;105 -->
<g id="edge50" class="edge">
<title>95-&gt;105</title>
<path fill="none" stroke="#000000" d="M349.3213,-215.8314C349.3213,-208.131 349.3213,-198.9743 349.3213,-190.4166"></path>
<polygon fill="#000000" stroke="#000000" points="352.8214,-190.4132 349.3213,-180.4133 345.8214,-190.4133 352.8214,-190.4132"></polygon>
</g>
<!-- 102 -->
<g id="node54" class="node">
<title>102</title>
<g id="a_node54"><a xlink:title="54">
<ellipse fill="none" stroke="#000000" cx="440.3213" cy="-162" rx="35.3587" ry="18"></ellipse>
<text text-anchor="middle" x="440.3213" y="-157.8" font-family="Times,serif" font-size="14.00" fill="#000000">☐ 102</text>
</a>
</g>
</g>
<!-- 98&#45;&gt;102 -->
<g id="edge51" class="edge">
<title>98-&gt;102</title>
<path fill="none" stroke="#000000" d="M440.3213,-215.8314C440.3213,-208.131 440.3213,-198.9743 440.3213,-190.4166"></path>
<polygon fill="#000000" stroke="#000000" points="443.8214,-190.4132 440.3213,-180.4133 436.8214,-190.4133 443.8214,-190.4132"></polygon>
</g>
<!-- 103 -->
<g id="node58" class="node">
<title>103</title>
<g id="a_node58"><a xlink:title="55">
<ellipse fill="none" stroke="#000000" cx="533.3213" cy="-162" rx="35.3587" ry="18"></ellipse>
<text text-anchor="middle" x="533.3213" y="-157.8" font-family="Times,serif" font-size="14.00" fill="#000000">☐ 103</text>
</a>
</g>
</g>
<!-- 108&#45;&gt;103 -->
<g id="edge56" class="edge">
<title>108-&gt;103</title>
<path fill="none" stroke="#000000" d="M529.583,-215.8314C530.1177,-208.131 530.7536,-198.9743 531.3479,-190.4166"></path>
<polygon fill="#000000" stroke="#000000" points="534.8413,-190.6317 532.0426,-180.4133 527.8581,-190.1467 534.8413,-190.6317"></polygon>
</g>
<!-- 116&#45;&gt;35 -->
<g id="edge59" class="edge">
<title>116-&gt;35</title>
<path fill="none" stroke="#000000" d="M258.3213,-143.8314C258.3213,-136.131 258.3213,-126.9743 258.3213,-118.4166"></path>
<polygon fill="#000000" stroke="#000000" points="261.8214,-118.4132 258.3213,-108.4133 254.8214,-118.4133 261.8214,-118.4132"></polygon>
</g>
<!-- 118 -->
<g id="node56" class="node">
<title>118</title>
<g id="a_node56"><a xlink:title="62">
<ellipse fill="none" stroke="#000000" cx="349.3213" cy="-90" rx="35.3587" ry="18"></ellipse>
<text text-anchor="middle" x="349.3213" y="-85.8" font-family="Times,serif" font-size="14.00" fill="#000000">☐ 118</text>
</a>
</g>
</g>
<!-- 102&#45;&gt;118 -->
<g id="edge52" class="edge">
<title>102-&gt;118</title>
<path fill="none" stroke="#000000" d="M421.0225,-146.7307C408.1131,-136.5166 390.9351,-122.9252 376.6293,-111.6064"></path>
<polygon fill="#000000" stroke="#000000" points="378.6061,-108.7074 368.5922,-105.2473 374.2627,-114.197 378.6061,-108.7074"></polygon>
</g>
<!-- 121 -->
<g id="node57" class="node">
<title>121</title>
<g id="a_node57"><a xlink:title="64">
<polygon fill="#c8c8c8" stroke="#000000" stroke-width="2" points="443.7846,-72.0493 446.0776,-72.1479 448.3469,-72.2953 450.5832,-72.4913 452.7775,-72.7353 454.9209,-73.0266 457.0051,-73.3645 459.0218,-73.7479 460.9635,-74.1759 462.8229,-74.6472 464.5933,-75.1606 466.2686,-75.7147 467.8431,-76.308 469.312,-76.9388 470.6708,-77.6054 471.9158,-78.3059 473.0439,-79.0385 474.0528,-79.8012 474.9405,-80.5918 475.7061,-81.4082 476.349,-82.2481 476.8694,-83.1093 477.2679,-83.9894 477.5458,-84.886 477.705,-85.7965 477.7478,-86.7186 477.6771,-87.6497 477.4961,-88.5873 477.2083,-89.5287 476.8179,-90.4713 476.329,-91.4127 475.7462,-92.3503 475.0743,-93.2814 474.3181,-94.2035 473.4826,-95.114 472.5729,-96.0106 471.5941,-96.8907 470.5512,-97.7519 469.4493,-98.5918 468.2933,-99.4082 467.0879,-100.1988 465.8378,-100.9615 464.5473,-101.6941 463.2206,-102.3946 461.8618,-103.0612 460.4746,-103.692 459.0624,-104.2853 457.6284,-104.8394 456.1756,-105.3528 454.7067,-105.8241 453.224,-106.2521 451.7298,-106.6355 450.226,-106.9734 448.7143,-107.2647 447.1963,-107.5087 445.6733,-107.7047 444.1467,-107.8521 442.6175,-107.9507 441.0868,-108 439.5557,-108 438.025,-107.9507 436.4958,-107.8521 434.9692,-107.7047 433.4462,-107.5087 431.9282,-107.2647 430.4165,-106.9734 428.9127,-106.6355 427.4185,-106.2521 425.9358,-105.8241 424.4669,-105.3528 423.0141,-104.8394 421.5801,-104.2853 420.1679,-103.692 418.7807,-103.0612 417.4219,-102.3946 416.0953,-101.6941 414.8048,-100.9615 413.5546,-100.1988 412.3492,-99.4082 411.1932,-98.5918 410.0913,-97.7519 409.0484,-96.8907 408.0696,-96.0106 407.1599,-95.114 406.3244,-94.2035 405.5682,-93.2814 404.8963,-92.3503 404.3135,-91.4127 403.8246,-90.4713 403.4342,-89.5287 403.1464,-88.5873 402.9654,-87.6497 402.8947,-86.7186 402.9375,-85.7965 403.0967,-84.886 403.3747,-83.9894 403.7731,-83.1093 404.2935,-82.2481 404.9364,-81.4082 405.702,-80.5918 406.5898,-79.8012 407.5986,-79.0385 408.7267,-78.3059 409.9717,-77.6054 411.3305,-76.9388 412.7994,-76.308 414.3739,-75.7147 416.0492,-75.1606 417.8196,-74.6472 419.679,-74.1759 421.6207,-73.7479 423.6374,-73.3645 425.7216,-73.0266 427.865,-72.7353 430.0593,-72.4913 432.2956,-72.2953 434.5649,-72.1479 436.8579,-72.0493 439.1652,-72 441.4773,-72 443.7846,-72.0493"></polygon>
<text text-anchor="middle" x="440.3213" y="-85.8" font-family="Times,serif" font-size="14.00" fill="#000000">☐ 121</text>
</a>
</g>
</g>
<!-- 102&#45;&gt;121 -->
<g id="edge53" class="edge">
<title>102-&gt;121</title>
<path fill="none" stroke="#000000" d="M440.3213,-143.8314C440.3213,-136.131 440.3213,-126.9743 440.3213,-118.4166"></path>
<polygon fill="#000000" stroke="#000000" points="443.8214,-118.4132 440.3213,-108.4133 436.8214,-118.4133 443.8214,-118.4132"></polygon>
</g>
<!-- 100 -->
<g id="node55" class="node">
<title>100</title>
<g id="a_node55"><a xlink:title="53">
<polygon fill="#c8c8c8" stroke="#000000" stroke-width="2" points="536.7846,-72.0493 539.0776,-72.1479 541.3469,-72.2953 543.5832,-72.4913 545.7775,-72.7353 547.9209,-73.0266 550.0051,-73.3645 552.0218,-73.7479 553.9635,-74.1759 555.8229,-74.6472 557.5933,-75.1606 559.2686,-75.7147 560.8431,-76.308 562.312,-76.9388 563.6708,-77.6054 564.9158,-78.3059 566.0439,-79.0385 567.0528,-79.8012 567.9405,-80.5918 568.7061,-81.4082 569.349,-82.2481 569.8694,-83.1093 570.2679,-83.9894 570.5458,-84.886 570.705,-85.7965 570.7478,-86.7186 570.6771,-87.6497 570.4961,-88.5873 570.2083,-89.5287 569.8179,-90.4713 569.329,-91.4127 568.7462,-92.3503 568.0743,-93.2814 567.3181,-94.2035 566.4826,-95.114 565.5729,-96.0106 564.5941,-96.8907 563.5512,-97.7519 562.4493,-98.5918 561.2933,-99.4082 560.0879,-100.1988 558.8378,-100.9615 557.5473,-101.6941 556.2206,-102.3946 554.8618,-103.0612 553.4746,-103.692 552.0624,-104.2853 550.6284,-104.8394 549.1756,-105.3528 547.7067,-105.8241 546.224,-106.2521 544.7298,-106.6355 543.226,-106.9734 541.7143,-107.2647 540.1963,-107.5087 538.6733,-107.7047 537.1467,-107.8521 535.6175,-107.9507 534.0868,-108 532.5557,-108 531.025,-107.9507 529.4958,-107.8521 527.9692,-107.7047 526.4462,-107.5087 524.9282,-107.2647 523.4165,-106.9734 521.9127,-106.6355 520.4185,-106.2521 518.9358,-105.8241 517.4669,-105.3528 516.0141,-104.8394 514.5801,-104.2853 513.1679,-103.692 511.7807,-103.0612 510.4219,-102.3946 509.0953,-101.6941 507.8048,-100.9615 506.5546,-100.1988 505.3492,-99.4082 504.1932,-98.5918 503.0913,-97.7519 502.0484,-96.8907 501.0696,-96.0106 500.1599,-95.114 499.3244,-94.2035 498.5682,-93.2814 497.8963,-92.3503 497.3135,-91.4127 496.8246,-90.4713 496.4342,-89.5287 496.1464,-88.5873 495.9654,-87.6497 495.8947,-86.7186 495.9375,-85.7965 496.0967,-84.886 496.3747,-83.9894 496.7731,-83.1093 497.2935,-82.2481 497.9364,-81.4082 498.702,-80.5918 499.5898,-79.8012 500.5986,-79.0385 501.7267,-78.3059 502.9717,-77.6054 504.3305,-76.9388 505.7994,-76.308 507.3739,-75.7147 509.0492,-75.1606 510.8196,-74.6472 512.679,-74.1759 514.6207,-73.7479 516.6374,-73.3645 518.7216,-73.0266 520.865,-72.7353 523.0593,-72.4913 525.2956,-72.2953 527.5649,-72.1479 529.8579,-72.0493 532.1652,-72 534.4773,-72 536.7846,-72.0493"></polygon>
<text text-anchor="middle" x="533.3213" y="-85.8" font-family="Times,serif" font-size="14.00" fill="#000000">☐ 100</text>
</a>
</g>
</g>
<!-- 114 -->
<g id="node61" class="node">
<title>114</title>
<g id="a_node61"><a xlink:title="60">
<polygon fill="#c8c8c8" stroke="#000000" stroke-width="2" points="352.7846,-.0493 355.0776,-.1479 357.3469,-.2953 359.5832,-.4913 361.7775,-.7353 363.9209,-1.0266 366.0051,-1.3645 368.0218,-1.7479 369.9635,-2.1759 371.8229,-2.6472 373.5933,-3.1606 375.2686,-3.7147 376.8431,-4.308 378.312,-4.9388 379.6708,-5.6054 380.9158,-6.3059 382.0439,-7.0385 383.0528,-7.8012 383.9405,-8.5918 384.7061,-9.4082 385.349,-10.2481 385.8694,-11.1093 386.2679,-11.9894 386.5458,-12.886 386.705,-13.7965 386.7478,-14.7186 386.6771,-15.6497 386.4961,-16.5873 386.2083,-17.5287 385.8179,-18.4713 385.329,-19.4127 384.7462,-20.3503 384.0743,-21.2814 383.3181,-22.2035 382.4826,-23.114 381.5729,-24.0106 380.5941,-24.8907 379.5512,-25.7519 378.4493,-26.5918 377.2933,-27.4082 376.0879,-28.1988 374.8378,-28.9615 373.5473,-29.6941 372.2206,-30.3946 370.8618,-31.0612 369.4746,-31.692 368.0624,-32.2853 366.6284,-32.8394 365.1756,-33.3528 363.7067,-33.8241 362.224,-34.2521 360.7298,-34.6355 359.226,-34.9734 357.7143,-35.2647 356.1963,-35.5087 354.6733,-35.7047 353.1467,-35.8521 351.6175,-35.9507 350.0868,-36 348.5557,-36 347.025,-35.9507 345.4958,-35.8521 343.9692,-35.7047 342.4462,-35.5087 340.9282,-35.2647 339.4165,-34.9734 337.9127,-34.6355 336.4185,-34.2521 334.9358,-33.8241 333.4669,-33.3528 332.0141,-32.8394 330.5801,-32.2853 329.1679,-31.692 327.7807,-31.0612 326.4219,-30.3946 325.0953,-29.6941 323.8048,-28.9615 322.5546,-28.1988 321.3492,-27.4082 320.1932,-26.5918 319.0913,-25.7519 318.0484,-24.8907 317.0696,-24.0106 316.1599,-23.114 315.3244,-22.2035 314.5682,-21.2814 313.8963,-20.3503 313.3135,-19.4127 312.8246,-18.4713 312.4342,-17.5287 312.1464,-16.5873 311.9654,-15.6497 311.8947,-14.7186 311.9375,-13.7965 312.0967,-12.886 312.3747,-11.9894 312.7731,-11.1093 313.2935,-10.2481 313.9364,-9.4082 314.702,-8.5918 315.5898,-7.8012 316.5986,-7.0385 317.7267,-6.3059 318.9717,-5.6054 320.3305,-4.9388 321.7994,-4.308 323.3739,-3.7147 325.0492,-3.1606 326.8196,-2.6472 328.679,-2.1759 330.6207,-1.7479 332.6374,-1.3645 334.7216,-1.0266 336.865,-.7353 339.0593,-.4913 341.2956,-.2953 343.5649,-.1479 345.8579,-.0493 348.1652,0 350.4773,0 352.7846,-.0493"></polygon>
<text text-anchor="middle" x="349.3213" y="-13.8" font-family="Times,serif" font-size="14.00" fill="#000000">☐ 114</text>
</a>
</g>
</g>
<!-- 118&#45;&gt;114 -->
<g id="edge60" class="edge">
<title>118-&gt;114</title>
<path fill="none" stroke="#000000" d="M349.3213,-71.8314C349.3213,-64.131 349.3213,-54.9743 349.3213,-46.4166"></path>
<polygon fill="#000000" stroke="#000000" points="352.8214,-46.4132 349.3213,-36.4133 345.8214,-46.4133 352.8214,-46.4132"></polygon>
</g>
<!-- 103&#45;&gt;100 -->
<g id="edge54" class="edge">
<title>103-&gt;100</title>
<path fill="none" stroke="#000000" d="M533.3213,-143.8314C533.3213,-136.131 533.3213,-126.9743 533.3213,-118.4166"></path>
<polygon fill="#000000" stroke="#000000" points="536.8214,-118.4132 533.3213,-108.4133 529.8214,-118.4133 536.8214,-118.4132"></polygon>
</g>
<!-- 110 -->
<g id="node59" class="node">
<title>110</title>
<g id="a_node59"><a xlink:title="58">
<ellipse fill="none" stroke="#000000" cx="624.3213" cy="-90" rx="35.3587" ry="18"></ellipse>
<text text-anchor="middle" x="624.3213" y="-85.8" font-family="Times,serif" font-size="14.00" fill="#000000">☐ 110</text>
</a>
</g>
</g>
<!-- 103&#45;&gt;110 -->
<g id="edge55" class="edge">
<title>103-&gt;110</title>
<path fill="none" stroke="#000000" d="M552.62,-146.7307C565.5294,-136.5166 582.7074,-122.9252 597.0132,-111.6064"></path>
<polygon fill="#000000" stroke="#000000" points="599.3798,-114.197 605.0503,-105.2473 595.0364,-108.7074 599.3798,-114.197"></polygon>
</g>
<!-- 119 -->
<g id="node60" class="node">
<title>119</title>
<g id="a_node60"><a xlink:title="63">
<polygon fill="#c8c8c8" stroke="#000000" stroke-width="2" points="627.7846,-.0493 630.0776,-.1479 632.3469,-.2953 634.5832,-.4913 636.7775,-.7353 638.9209,-1.0266 641.0051,-1.3645 643.0218,-1.7479 644.9635,-2.1759 646.8229,-2.6472 648.5933,-3.1606 650.2686,-3.7147 651.8431,-4.308 653.312,-4.9388 654.6708,-5.6054 655.9158,-6.3059 657.0439,-7.0385 658.0528,-7.8012 658.9405,-8.5918 659.7061,-9.4082 660.349,-10.2481 660.8694,-11.1093 661.2679,-11.9894 661.5458,-12.886 661.705,-13.7965 661.7478,-14.7186 661.6771,-15.6497 661.4961,-16.5873 661.2083,-17.5287 660.8179,-18.4713 660.329,-19.4127 659.7462,-20.3503 659.0743,-21.2814 658.3181,-22.2035 657.4826,-23.114 656.5729,-24.0106 655.5941,-24.8907 654.5512,-25.7519 653.4493,-26.5918 652.2933,-27.4082 651.0879,-28.1988 649.8378,-28.9615 648.5473,-29.6941 647.2206,-30.3946 645.8618,-31.0612 644.4746,-31.692 643.0624,-32.2853 641.6284,-32.8394 640.1756,-33.3528 638.7067,-33.8241 637.224,-34.2521 635.7298,-34.6355 634.226,-34.9734 632.7143,-35.2647 631.1963,-35.5087 629.6733,-35.7047 628.1467,-35.8521 626.6175,-35.9507 625.0868,-36 623.5557,-36 622.025,-35.9507 620.4958,-35.8521 618.9692,-35.7047 617.4462,-35.5087 615.9282,-35.2647 614.4165,-34.9734 612.9127,-34.6355 611.4185,-34.2521 609.9358,-33.8241 608.4669,-33.3528 607.0141,-32.8394 605.5801,-32.2853 604.1679,-31.692 602.7807,-31.0612 601.4219,-30.3946 600.0953,-29.6941 598.8048,-28.9615 597.5546,-28.1988 596.3492,-27.4082 595.1932,-26.5918 594.0913,-25.7519 593.0484,-24.8907 592.0696,-24.0106 591.1599,-23.114 590.3244,-22.2035 589.5682,-21.2814 588.8963,-20.3503 588.3135,-19.4127 587.8246,-18.4713 587.4342,-17.5287 587.1464,-16.5873 586.9654,-15.6497 586.8947,-14.7186 586.9375,-13.7965 587.0967,-12.886 587.3747,-11.9894 587.7731,-11.1093 588.2935,-10.2481 588.9364,-9.4082 589.702,-8.5918 590.5898,-7.8012 591.5986,-7.0385 592.7267,-6.3059 593.9717,-5.6054 595.3305,-4.9388 596.7994,-4.308 598.3739,-3.7147 600.0492,-3.1606 601.8196,-2.6472 603.679,-2.1759 605.6207,-1.7479 607.6374,-1.3645 609.7216,-1.0266 611.865,-.7353 614.0593,-.4913 616.2956,-.2953 618.5649,-.1479 620.8579,-.0493 623.1652,0 625.4773,0 627.7846,-.0493"></polygon>
<text text-anchor="middle" x="624.3213" y="-13.8" font-family="Times,serif" font-size="14.00" fill="#000000">☐ 119</text>
</a>
</g>
</g>
<!-- 110&#45;&gt;119 -->
<g id="edge57" class="edge">
<title>110-&gt;119</title>
<path fill="none" stroke="#000000" d="M624.3213,-71.8314C624.3213,-64.131 624.3213,-54.9743 624.3213,-46.4166"></path>
<polygon fill="#000000" stroke="#000000" points="627.8214,-46.4132 624.3213,-36.4133 620.8214,-46.4133 627.8214,-46.4132"></polygon>
</g>
</g>
</svg>