<?xml version="1.0" encoding="UTF-8" standalone="yes"?>
<!DOCTYPE svg PUBLIC "-//W3C//DTD SVG 1.1//EN"
 "http://www.w3.org/Graphics/SVG/1.1/DTD/svg11.dtd">
<!-- Generated by graphviz version 2.28.0 (20110507.0327)
 -->
<!-- Title: Big Trouble (2018) &#45;&#45; ISBN 9781536202441 &#45;&#45; github.com/morbus/gamebook&#45;choicemaps &#45;&#45; v20180908 Pages: 1 -->
<svg width="687pt" height="1109pt"
 viewBox="0.00 0.00 687.00 1108.80" xmlns="http://www.w3.org/2000/svg" xmlns:xlink="http://www.w3.org/1999/xlink">
<g id="graph1" class="graph" transform="scale(1 1) rotate(0) translate(4 1104.8)">
<title>Big Trouble (2018) &#45;&#45; ISBN 9781536202441 &#45;&#45; github.com/morbus/gamebook&#45;choicemaps &#45;&#45; v20180908</title>
<polygon fill="white" stroke="white" points="-4,5 -4,-1104.8 684,-1104.8 684,5 -4,5"/>
<text text-anchor="middle" x="339.5" y="-1084.2" font-family="Times,serif" font-size="14.00">Big Trouble (2018) &#45;&#45; ISBN 9781536202441 &#45;&#45; github.com/morbus/gamebook&#45;choicemaps &#45;&#45; v20180908</text>
<!-- Start -->
<g id="node1" class="node"><title>Start</title>
<a xlink:title="4">
<ellipse fill="lightgrey" stroke="black" stroke-width="2" cx="178" cy="-1042" rx="28.9563" ry="29.0759"/>
<ellipse fill="none" stroke="black" stroke-width="2" cx="178" cy="-1042" rx="32.9129" ry="33.0488"/>
<text text-anchor="middle" x="178" y="-1037.8" font-family="Times,serif" font-size="14.00">Start</text>
</a>
</g>
<!-- 1 -->
<g id="node3" class="node"><title>1</title>
<a xlink:title="5">
<ellipse fill="none" stroke="black" cx="178" cy="-954" rx="27" ry="18"/>
<text text-anchor="middle" x="178" y="-949.8" font-family="Times,serif" font-size="14.00">1</text>
</a>
</g>
<!-- Start&#45;&gt;1 -->
<g id="edge2" class="edge"><title>Start&#45;&gt;1</title>
<path fill="none" stroke="black" d="M178,-1008.49C178,-999.888 178,-990.693 178,-982.395"/>
<polygon fill="black" stroke="black" points="181.5,-982.129 178,-972.129 174.5,-982.129 181.5,-982.129"/>
</g>
<!-- 6 -->
<g id="node5" class="node"><title>6</title>
<a xlink:title="7">
<ellipse fill="none" stroke="black" cx="104" cy="-882" rx="27" ry="18"/>
<text text-anchor="middle" x="104" y="-877.8" font-family="Times,serif" font-size="14.00">6</text>
</a>
</g>
<!-- 1&#45;&gt;6 -->
<g id="edge4" class="edge"><title>1&#45;&gt;6</title>
<path fill="none" stroke="black" d="M163.025,-938.834C152.493,-928.872 138.218,-915.369 126.345,-904.137"/>
<polygon fill="black" stroke="black" points="128.623,-901.474 118.953,-897.144 123.812,-906.559 128.623,-901.474"/>
</g>
<!-- 8 -->
<g id="node7" class="node"><title>8</title>
<a xlink:title="8">
<polygon fill="lightgrey" stroke="black" stroke-width="2" points="180.648,-864.049 182.401,-864.148 184.136,-864.295 185.846,-864.491 187.523,-864.735 189.162,-865.027 190.755,-865.364 192.297,-865.748 193.782,-866.176 195.203,-866.647 196.557,-867.161 197.838,-867.715 199.042,-868.308 200.165,-868.939 201.203,-869.605 202.155,-870.306 203.018,-871.039 203.789,-871.801 204.468,-872.592 205.053,-873.408 205.545,-874.248 205.942,-875.109 206.247,-875.989 206.46,-876.886 206.581,-877.797 206.614,-878.719 206.56,-879.65 206.422,-880.587 206.202,-881.529 205.903,-882.471 205.529,-883.413 205.084,-884.35 204.57,-885.281 203.992,-886.203 203.353,-887.114 202.658,-888.011 201.909,-888.891 201.112,-889.752 200.27,-890.592 199.386,-891.408 198.464,-892.199 197.508,-892.961 196.522,-893.694 195.507,-894.395 194.469,-895.061 193.408,-895.692 192.328,-896.285 191.232,-896.839 190.121,-897.353 188.998,-897.824 187.865,-898.252 186.722,-898.636 185.573,-898.973 184.417,-899.265 183.256,-899.509 182.092,-899.705 180.925,-899.852 179.756,-899.951 178.585,-900 177.415,-900 176.244,-899.951 175.075,-899.852 173.908,-899.705 172.744,-899.509 171.583,-899.265 170.427,-898.973 169.278,-898.636 168.135,-898.252 167.002,-897.824 165.879,-897.353 164.768,-896.839 163.672,-896.285 162.592,-895.692 161.531,-895.061 160.493,-894.395 159.478,-893.694 158.492,-892.961 157.536,-892.199 156.614,-891.408 155.73,-890.592 154.888,-889.752 154.091,-888.891 153.342,-888.011 152.647,-887.114 152.008,-886.203 151.43,-885.281 150.916,-884.35 150.471,-883.413 150.097,-882.471 149.798,-881.529 149.578,-880.587 149.44,-879.65 149.386,-878.719 149.419,-877.797 149.54,-876.886 149.753,-875.989 150.058,-875.109 150.455,-874.248 150.947,-873.408 151.532,-872.592 152.211,-871.801 152.982,-871.039 153.845,-870.306 154.797,-869.605 155.835,-868.939 156.958,-868.308 158.162,-867.715 159.443,-867.161 160.797,-866.647 162.218,-866.176 163.703,-865.748 165.245,-865.364 166.838,-865.027 168.477,-864.735 170.154,-864.491 171.864,-864.295 173.599,-864.148 175.352,-864.049 177.116,-864 178.884,-864 180.648,-864.049"/>
<text text-anchor="middle" x="178" y="-877.8" font-family="Times,serif" font-size="14.00">8</text>
</a>
</g>
<!-- 1&#45;&gt;8 -->
<g id="edge6" class="edge"><title>1&#45;&gt;8</title>
<path fill="none" stroke="black" d="M178,-935.697C178,-927.983 178,-918.712 178,-910.112"/>
<polygon fill="black" stroke="black" points="181.5,-910.104 178,-900.104 174.5,-910.104 181.5,-910.104"/>
</g>
<!-- 16 -->
<g id="node9" class="node"><title>16</title>
<a xlink:title="13">
<ellipse fill="none" stroke="black" cx="252" cy="-882" rx="27" ry="18"/>
<text text-anchor="middle" x="252" y="-877.8" font-family="Times,serif" font-size="14.00">16</text>
</a>
</g>
<!-- 1&#45;&gt;16 -->
<g id="edge8" class="edge"><title>1&#45;&gt;16</title>
<path fill="none" stroke="black" d="M192.975,-938.834C203.507,-928.872 217.782,-915.369 229.655,-904.137"/>
<polygon fill="black" stroke="black" points="232.188,-906.559 237.047,-897.144 227.377,-901.474 232.188,-906.559"/>
</g>
<!-- 12 -->
<g id="node12" class="node"><title>12</title>
<a xlink:title="9">
<ellipse fill="none" stroke="black" cx="30" cy="-810" rx="27" ry="18"/>
<text text-anchor="middle" x="30" y="-805.8" font-family="Times,serif" font-size="14.00">12</text>
</a>
</g>
<!-- 6&#45;&gt;12 -->
<g id="edge10" class="edge"><title>6&#45;&gt;12</title>
<path fill="none" stroke="black" d="M89.025,-866.834C78.4933,-856.872 64.2183,-843.369 52.345,-832.137"/>
<polygon fill="black" stroke="black" points="54.6227,-829.474 44.9527,-825.144 49.8122,-834.559 54.6227,-829.474"/>
</g>
<!-- 14 -->
<g id="node14" class="node"><title>14</title>
<a xlink:title="11">
<ellipse fill="none" stroke="black" cx="104" cy="-810" rx="27" ry="18"/>
<text text-anchor="middle" x="104" y="-805.8" font-family="Times,serif" font-size="14.00">14</text>
</a>
</g>
<!-- 6&#45;&gt;14 -->
<g id="edge12" class="edge"><title>6&#45;&gt;14</title>
<path fill="none" stroke="black" d="M104,-863.697C104,-855.983 104,-846.712 104,-838.112"/>
<polygon fill="black" stroke="black" points="107.5,-838.104 104,-828.104 100.5,-838.104 107.5,-838.104"/>
</g>
<!-- 25 -->
<g id="node21" class="node"><title>25</title>
<a xlink:title="16">
<ellipse fill="none" stroke="black" cx="252" cy="-810" rx="27" ry="18"/>
<text text-anchor="middle" x="252" y="-805.8" font-family="Times,serif" font-size="14.00">25</text>
</a>
</g>
<!-- 16&#45;&gt;25 -->
<g id="edge20" class="edge"><title>16&#45;&gt;25</title>
<path fill="none" stroke="black" d="M252,-863.697C252,-855.983 252,-846.712 252,-838.112"/>
<polygon fill="black" stroke="black" points="255.5,-838.104 252,-828.104 248.5,-838.104 255.5,-838.104"/>
</g>
<!-- 26 -->
<g id="node23" class="node"><title>26</title>
<a xlink:title="17">
<ellipse fill="none" stroke="black" cx="325" cy="-810" rx="27" ry="18"/>
<text text-anchor="middle" x="325" y="-805.8" font-family="Times,serif" font-size="14.00">26</text>
</a>
</g>
<!-- 16&#45;&gt;26 -->
<g id="edge22" class="edge"><title>16&#45;&gt;26</title>
<path fill="none" stroke="black" d="M266.773,-866.834C277.162,-856.872 291.244,-843.369 302.957,-832.137"/>
<polygon fill="black" stroke="black" points="305.454,-834.592 310.249,-825.144 300.609,-829.539 305.454,-834.592"/>
</g>
<!-- 4 -->
<g id="node10" class="node"><title>4</title>
<a xlink:title="6">
<polygon fill="lightgrey" stroke="black" stroke-width="2" points="105.648,-720.049 107.401,-720.148 109.136,-720.295 110.846,-720.491 112.523,-720.735 114.162,-721.027 115.755,-721.364 117.297,-721.748 118.782,-722.176 120.203,-722.647 121.557,-723.161 122.838,-723.715 124.042,-724.308 125.165,-724.939 126.203,-725.605 127.155,-726.306 128.018,-727.039 128.789,-727.801 129.468,-728.592 130.053,-729.408 130.545,-730.248 130.942,-731.109 131.247,-731.989 131.46,-732.886 131.581,-733.797 131.614,-734.719 131.56,-735.65 131.422,-736.587 131.202,-737.529 130.903,-738.471 130.529,-739.413 130.084,-740.35 129.57,-741.281 128.992,-742.203 128.353,-743.114 127.658,-744.011 126.909,-744.891 126.112,-745.752 125.27,-746.592 124.386,-747.408 123.464,-748.199 122.508,-748.961 121.522,-749.694 120.507,-750.395 119.469,-751.061 118.408,-751.692 117.328,-752.285 116.232,-752.839 115.121,-753.353 113.998,-753.824 112.865,-754.252 111.722,-754.636 110.573,-754.973 109.417,-755.265 108.256,-755.509 107.092,-755.705 105.925,-755.852 104.756,-755.951 103.585,-756 102.415,-756 101.244,-755.951 100.075,-755.852 98.9081,-755.705 97.7438,-755.509 96.5832,-755.265 95.4275,-754.973 94.2777,-754.636 93.1353,-754.252 92.0018,-753.824 90.8787,-753.353 89.768,-752.839 88.6717,-752.285 87.592,-751.692 86.5314,-751.061 85.4925,-750.395 84.4783,-749.694 83.4917,-748.961 82.5359,-748.199 81.6143,-747.408 80.7305,-746.592 79.888,-745.752 79.0907,-744.891 78.3424,-744.011 77.6469,-743.114 77.0081,-742.203 76.43,-741.281 75.9162,-740.35 75.4707,-739.413 75.0969,-738.471 74.7984,-737.529 74.5784,-736.587 74.44,-735.65 74.3859,-734.719 74.4187,-733.797 74.5404,-732.886 74.7529,-731.989 75.0576,-731.109 75.4554,-730.248 75.9469,-729.408 76.5322,-728.592 77.211,-727.801 77.9823,-727.039 78.8448,-726.306 79.7966,-725.605 80.8355,-724.939 81.9585,-724.308 83.1623,-723.715 84.4431,-723.161 85.7966,-722.647 87.2182,-722.176 88.7027,-721.748 90.2446,-721.364 91.838,-721.027 93.4767,-720.735 95.1543,-720.491 96.8641,-720.295 98.5991,-720.148 100.352,-720.049 102.116,-720 103.884,-720 105.648,-720.049"/>
<text text-anchor="middle" x="103" y="-733.8" font-family="Times,serif" font-size="14.00">4</text>
</a>
</g>
<!-- 15 -->
<g id="node16" class="node"><title>15</title>
<a xlink:title="12">
<polygon fill="lightgrey" stroke="black" stroke-width="2" points="30.6478,-720.049 32.4009,-720.148 34.1359,-720.295 35.8457,-720.491 37.5233,-720.735 39.162,-721.027 40.7554,-721.364 42.2973,-721.748 43.7818,-722.176 45.2034,-722.647 46.5569,-723.161 47.8377,-723.715 49.0415,-724.308 50.1645,-724.939 51.2034,-725.605 52.1552,-726.306 53.0177,-727.039 53.789,-727.801 54.4678,-728.592 55.0531,-729.408 55.5446,-730.248 55.9424,-731.109 56.2471,-731.989 56.4596,-732.886 56.5813,-733.797 56.6141,-734.719 56.56,-735.65 56.4216,-736.587 56.2016,-737.529 55.9031,-738.471 55.5293,-739.413 55.0838,-740.35 54.57,-741.281 53.9919,-742.203 53.3531,-743.114 52.6576,-744.011 51.9093,-744.891 51.112,-745.752 50.2695,-746.592 49.3857,-747.408 48.4641,-748.199 47.5083,-748.961 46.5217,-749.694 45.5075,-750.395 44.4686,-751.061 43.408,-751.692 42.3283,-752.285 41.232,-752.839 40.1213,-753.353 38.9982,-753.824 37.8647,-754.252 36.7223,-754.636 35.5725,-754.973 34.4168,-755.265 33.2562,-755.509 32.0919,-755.705 30.9247,-755.852 29.7556,-755.951 28.5853,-756 27.4147,-756 26.2444,-755.951 25.0753,-755.852 23.9081,-755.705 22.7438,-755.509 21.5832,-755.265 20.4275,-754.973 19.2777,-754.636 18.1353,-754.252 17.0018,-753.824 15.8787,-753.353 14.768,-752.839 13.6717,-752.285 12.592,-751.692 11.5314,-751.061 10.4925,-750.395 9.47828,-749.694 8.49165,-748.961 7.53586,-748.199 6.61429,-747.408 5.73046,-746.592 4.88802,-745.752 4.09072,-744.891 3.34238,-744.011 2.64689,-743.114 2.00813,-742.203 1.42997,-741.281 0.916243,-740.35 0.470687,-739.413 0.0969219,-738.471 -0.201589,-737.529 -0.421575,-736.587 -0.559994,-735.65 -0.614068,-734.719 -0.581317,-733.797 -0.459591,-732.886 -0.247098,-731.989 0.0575627,-731.109 0.455378,-730.248 0.946899,-729.408 1.53222,-728.592 2.21096,-727.801 2.98226,-727.039 3.84477,-726.306 4.79662,-725.605 5.83547,-724.939 6.95846,-724.308 8.16227,-723.715 9.44309,-723.161 10.7966,-722.647 12.2182,-722.176 13.7027,-721.748 15.2446,-721.364 16.838,-721.027 18.4767,-720.735 20.1543,-720.491 21.8641,-720.295 23.5991,-720.148 25.3522,-720.049 27.1162,-720 28.8838,-720 30.6478,-720.049"/>
<text text-anchor="middle" x="28" y="-733.8" font-family="Times,serif" font-size="14.00">15</text>
</a>
</g>
<!-- 12&#45;&gt;15 -->
<g id="edge14" class="edge"><title>12&#45;&gt;15</title>
<path fill="none" stroke="black" d="M29.5056,-791.697C29.2852,-783.983 29.0204,-774.712 28.7746,-766.112"/>
<polygon fill="black" stroke="black" points="32.273,-766 28.4887,-756.104 25.2758,-766.2 32.273,-766"/>
</g>
<!-- 14&#45;&gt;4 -->
<g id="edge16" class="edge"><title>14&#45;&gt;4</title>
<path fill="none" stroke="black" d="M103.753,-791.697C103.643,-783.983 103.51,-774.712 103.387,-766.112"/>
<polygon fill="black" stroke="black" points="106.887,-766.053 103.244,-756.104 99.8876,-766.153 106.887,-766.053"/>
</g>
<!-- 13 -->
<g id="node17" class="node"><title>13</title>
<a xlink:title="10">
<polygon fill="lightgrey" stroke="black" stroke-width="2" points="180.648,-720.049 182.401,-720.148 184.136,-720.295 185.846,-720.491 187.523,-720.735 189.162,-721.027 190.755,-721.364 192.297,-721.748 193.782,-722.176 195.203,-722.647 196.557,-723.161 197.838,-723.715 199.042,-724.308 200.165,-724.939 201.203,-725.605 202.155,-726.306 203.018,-727.039 203.789,-727.801 204.468,-728.592 205.053,-729.408 205.545,-730.248 205.942,-731.109 206.247,-731.989 206.46,-732.886 206.581,-733.797 206.614,-734.719 206.56,-735.65 206.422,-736.587 206.202,-737.529 205.903,-738.471 205.529,-739.413 205.084,-740.35 204.57,-741.281 203.992,-742.203 203.353,-743.114 202.658,-744.011 201.909,-744.891 201.112,-745.752 200.27,-746.592 199.386,-747.408 198.464,-748.199 197.508,-748.961 196.522,-749.694 195.507,-750.395 194.469,-751.061 193.408,-751.692 192.328,-752.285 191.232,-752.839 190.121,-753.353 188.998,-753.824 187.865,-754.252 186.722,-754.636 185.573,-754.973 184.417,-755.265 183.256,-755.509 182.092,-755.705 180.925,-755.852 179.756,-755.951 178.585,-756 177.415,-756 176.244,-755.951 175.075,-755.852 173.908,-755.705 172.744,-755.509 171.583,-755.265 170.427,-754.973 169.278,-754.636 168.135,-754.252 167.002,-753.824 165.879,-753.353 164.768,-752.839 163.672,-752.285 162.592,-751.692 161.531,-751.061 160.493,-750.395 159.478,-749.694 158.492,-748.961 157.536,-748.199 156.614,-747.408 155.73,-746.592 154.888,-745.752 154.091,-744.891 153.342,-744.011 152.647,-743.114 152.008,-742.203 151.43,-741.281 150.916,-740.35 150.471,-739.413 150.097,-738.471 149.798,-737.529 149.578,-736.587 149.44,-735.65 149.386,-734.719 149.419,-733.797 149.54,-732.886 149.753,-731.989 150.058,-731.109 150.455,-730.248 150.947,-729.408 151.532,-728.592 152.211,-727.801 152.982,-727.039 153.845,-726.306 154.797,-725.605 155.835,-724.939 156.958,-724.308 158.162,-723.715 159.443,-723.161 160.797,-722.647 162.218,-722.176 163.703,-721.748 165.245,-721.364 166.838,-721.027 168.477,-720.735 170.154,-720.491 171.864,-720.295 173.599,-720.148 175.352,-720.049 177.116,-720 178.884,-720 180.648,-720.049"/>
<text text-anchor="middle" x="178" y="-733.8" font-family="Times,serif" font-size="14.00">13</text>
</a>
</g>
<!-- 14&#45;&gt;13 -->
<g id="edge18" class="edge"><title>14&#45;&gt;13</title>
<path fill="none" stroke="black" d="M118.975,-794.834C129.645,-784.741 144.158,-771.013 156.122,-759.695"/>
<polygon fill="black" stroke="black" points="158.691,-762.083 163.551,-752.668 153.881,-756.997 158.691,-762.083"/>
</g>
<!-- 28 -->
<g id="node33" class="node"><title>28</title>
<a xlink:title="18">
<ellipse fill="none" stroke="black" cx="252" cy="-738" rx="27" ry="18"/>
<text text-anchor="middle" x="252" y="-733.8" font-family="Times,serif" font-size="14.00">28</text>
</a>
</g>
<!-- 25&#45;&gt;28 -->
<g id="edge30" class="edge"><title>25&#45;&gt;28</title>
<path fill="none" stroke="black" d="M252,-791.697C252,-783.983 252,-774.712 252,-766.112"/>
<polygon fill="black" stroke="black" points="255.5,-766.104 252,-756.104 248.5,-766.104 255.5,-766.104"/>
</g>
<!-- 22 -->
<g id="node27" class="node"><title>22</title>
<a xlink:title="15">
<ellipse fill="none" stroke="black" cx="363" cy="-738" rx="27" ry="18"/>
<text text-anchor="middle" x="363" y="-733.8" font-family="Times,serif" font-size="14.00">22</text>
</a>
</g>
<!-- 26&#45;&gt;22 -->
<g id="edge32" class="edge"><title>26&#45;&gt;22</title>
<path fill="none" stroke="black" d="M333.813,-792.765C338.418,-784.283 344.155,-773.714 349.321,-764.197"/>
<polygon fill="black" stroke="black" points="352.539,-765.606 354.234,-755.147 346.387,-762.266 352.539,-765.606"/>
</g>
<!-- 21 -->
<g id="node24" class="node"><title>21</title>
<a xlink:title="14">
<ellipse fill="none" stroke="black" cx="427" cy="-594" rx="27" ry="18"/>
<text text-anchor="middle" x="427" y="-589.8" font-family="Times,serif" font-size="14.00">21</text>
</a>
</g>
<!-- 81 -->
<g id="node26" class="node"><title>81</title>
<a xlink:title="44">
<polygon fill="lightgrey" stroke="black" stroke-width="2" points="429.648,-504.049 431.401,-504.148 433.136,-504.295 434.846,-504.491 436.523,-504.735 438.162,-505.027 439.755,-505.364 441.297,-505.748 442.782,-506.176 444.203,-506.647 445.557,-507.161 446.838,-507.715 448.042,-508.308 449.165,-508.939 450.203,-509.605 451.155,-510.306 452.018,-511.039 452.789,-511.801 453.468,-512.592 454.053,-513.408 454.545,-514.248 454.942,-515.109 455.247,-515.989 455.46,-516.886 455.581,-517.797 455.614,-518.719 455.56,-519.65 455.422,-520.587 455.202,-521.529 454.903,-522.471 454.529,-523.413 454.084,-524.35 453.57,-525.281 452.992,-526.203 452.353,-527.114 451.658,-528.011 450.909,-528.891 450.112,-529.752 449.27,-530.592 448.386,-531.408 447.464,-532.199 446.508,-532.961 445.522,-533.694 444.507,-534.395 443.469,-535.061 442.408,-535.692 441.328,-536.285 440.232,-536.839 439.121,-537.353 437.998,-537.824 436.865,-538.252 435.722,-538.636 434.573,-538.973 433.417,-539.265 432.256,-539.509 431.092,-539.705 429.925,-539.852 428.756,-539.951 427.585,-540 426.415,-540 425.244,-539.951 424.075,-539.852 422.908,-539.705 421.744,-539.509 420.583,-539.265 419.427,-538.973 418.278,-538.636 417.135,-538.252 416.002,-537.824 414.879,-537.353 413.768,-536.839 412.672,-536.285 411.592,-535.692 410.531,-535.061 409.493,-534.395 408.478,-533.694 407.492,-532.961 406.536,-532.199 405.614,-531.408 404.73,-530.592 403.888,-529.752 403.091,-528.891 402.342,-528.011 401.647,-527.114 401.008,-526.203 400.43,-525.281 399.916,-524.35 399.471,-523.413 399.097,-522.471 398.798,-521.529 398.578,-520.587 398.44,-519.65 398.386,-518.719 398.419,-517.797 398.54,-516.886 398.753,-515.989 399.058,-515.109 399.455,-514.248 399.947,-513.408 400.532,-512.592 401.211,-511.801 401.982,-511.039 402.845,-510.306 403.797,-509.605 404.835,-508.939 405.958,-508.308 407.162,-507.715 408.443,-507.161 409.797,-506.647 411.218,-506.176 412.703,-505.748 414.245,-505.364 415.838,-505.027 417.477,-504.735 419.154,-504.491 420.864,-504.295 422.599,-504.148 424.352,-504.049 426.116,-504 427.884,-504 429.648,-504.049"/>
<text text-anchor="middle" x="427" y="-517.8" font-family="Times,serif" font-size="14.00">81</text>
</a>
</g>
<!-- 21&#45;&gt;81 -->
<g id="edge24" class="edge"><title>21&#45;&gt;81</title>
<path fill="none" stroke="black" d="M427,-575.697C427,-567.983 427,-558.712 427,-550.112"/>
<polygon fill="black" stroke="black" points="430.5,-550.104 427,-540.104 423.5,-550.104 430.5,-550.104"/>
</g>
<!-- 31 -->
<g id="node29" class="node"><title>31</title>
<a xlink:title="20">
<polygon fill="lightgrey" stroke="black" stroke-width="2" points="365.648,-648.049 367.401,-648.148 369.136,-648.295 370.846,-648.491 372.523,-648.735 374.162,-649.027 375.755,-649.364 377.297,-649.748 378.782,-650.176 380.203,-650.647 381.557,-651.161 382.838,-651.715 384.042,-652.308 385.165,-652.939 386.203,-653.605 387.155,-654.306 388.018,-655.039 388.789,-655.801 389.468,-656.592 390.053,-657.408 390.545,-658.248 390.942,-659.109 391.247,-659.989 391.46,-660.886 391.581,-661.797 391.614,-662.719 391.56,-663.65 391.422,-664.587 391.202,-665.529 390.903,-666.471 390.529,-667.413 390.084,-668.35 389.57,-669.281 388.992,-670.203 388.353,-671.114 387.658,-672.011 386.909,-672.891 386.112,-673.752 385.27,-674.592 384.386,-675.408 383.464,-676.199 382.508,-676.961 381.522,-677.694 380.507,-678.395 379.469,-679.061 378.408,-679.692 377.328,-680.285 376.232,-680.839 375.121,-681.353 373.998,-681.824 372.865,-682.252 371.722,-682.636 370.573,-682.973 369.417,-683.265 368.256,-683.509 367.092,-683.705 365.925,-683.852 364.756,-683.951 363.585,-684 362.415,-684 361.244,-683.951 360.075,-683.852 358.908,-683.705 357.744,-683.509 356.583,-683.265 355.427,-682.973 354.278,-682.636 353.135,-682.252 352.002,-681.824 350.879,-681.353 349.768,-680.839 348.672,-680.285 347.592,-679.692 346.531,-679.061 345.493,-678.395 344.478,-677.694 343.492,-676.961 342.536,-676.199 341.614,-675.408 340.73,-674.592 339.888,-673.752 339.091,-672.891 338.342,-672.011 337.647,-671.114 337.008,-670.203 336.43,-669.281 335.916,-668.35 335.471,-667.413 335.097,-666.471 334.798,-665.529 334.578,-664.587 334.44,-663.65 334.386,-662.719 334.419,-661.797 334.54,-660.886 334.753,-659.989 335.058,-659.109 335.455,-658.248 335.947,-657.408 336.532,-656.592 337.211,-655.801 337.982,-655.039 338.845,-654.306 339.797,-653.605 340.835,-652.939 341.958,-652.308 343.162,-651.715 344.443,-651.161 345.797,-650.647 347.218,-650.176 348.703,-649.748 350.245,-649.364 351.838,-649.027 353.477,-648.735 355.154,-648.491 356.864,-648.295 358.599,-648.148 360.352,-648.049 362.116,-648 363.884,-648 365.648,-648.049"/>
<text text-anchor="middle" x="363" y="-661.8" font-family="Times,serif" font-size="14.00">31</text>
</a>
</g>
<!-- 22&#45;&gt;31 -->
<g id="edge26" class="edge"><title>22&#45;&gt;31</title>
<path fill="none" stroke="black" d="M363,-719.697C363,-711.983 363,-702.712 363,-694.112"/>
<polygon fill="black" stroke="black" points="366.5,-694.104 363,-684.104 359.5,-694.104 366.5,-694.104"/>
</g>
<!-- 40 -->
<g id="node31" class="node"><title>40</title>
<a xlink:title="26">
<ellipse fill="none" stroke="black" cx="437" cy="-666" rx="27" ry="18"/>
<text text-anchor="middle" x="437" y="-661.8" font-family="Times,serif" font-size="14.00">40</text>
</a>
</g>
<!-- 22&#45;&gt;40 -->
<g id="edge28" class="edge"><title>22&#45;&gt;40</title>
<path fill="none" stroke="black" d="M377.975,-722.834C388.507,-712.872 402.782,-699.369 414.655,-688.137"/>
<polygon fill="black" stroke="black" points="417.188,-690.559 422.047,-681.144 412.377,-685.474 417.188,-690.559"/>
</g>
<!-- 40&#45;&gt;21 -->
<g id="edge50" class="edge"><title>40&#45;&gt;21</title>
<path fill="none" stroke="black" d="M434.579,-648.055C433.478,-640.346 432.147,-631.027 430.909,-622.364"/>
<polygon fill="black" stroke="black" points="434.347,-621.68 429.468,-612.275 427.417,-622.67 434.347,-621.68"/>
</g>
<!-- 49 -->
<g id="node57" class="node"><title>49</title>
<a xlink:title="29">
<ellipse fill="none" stroke="black" cx="500" cy="-594" rx="27" ry="18"/>
<text text-anchor="middle" x="500" y="-589.8" font-family="Times,serif" font-size="14.00">49</text>
</a>
</g>
<!-- 40&#45;&gt;49 -->
<g id="edge52" class="edge"><title>40&#45;&gt;49</title>
<path fill="none" stroke="black" d="M450.361,-650.155C458.88,-640.689 470.085,-628.238 479.693,-617.563"/>
<polygon fill="black" stroke="black" points="482.57,-619.598 486.659,-609.824 477.367,-614.915 482.57,-619.598"/>
</g>
<!-- 113 -->
<g id="node36" class="node"><title>113</title>
<a xlink:title="60">
<ellipse fill="none" stroke="black" cx="141" cy="-666" rx="27" ry="18"/>
<text text-anchor="middle" x="141" y="-661.8" font-family="Times,serif" font-size="14.00">113</text>
</a>
</g>
<!-- 28&#45;&gt;113 -->
<g id="edge34" class="edge"><title>28&#45;&gt;113</title>
<path fill="none" stroke="black" d="M232.918,-724.967C215.287,-713.848 188.877,-697.193 168.884,-684.585"/>
<polygon fill="black" stroke="black" points="170.53,-681.484 160.204,-679.111 166.796,-687.405 170.53,-681.484"/>
</g>
<!-- 33 -->
<g id="node38" class="node"><title>33</title>
<a xlink:title="21">
<polygon fill="lightgrey" stroke="black" stroke-width="2" points="217.648,-648.049 219.401,-648.148 221.136,-648.295 222.846,-648.491 224.523,-648.735 226.162,-649.027 227.755,-649.364 229.297,-649.748 230.782,-650.176 232.203,-650.647 233.557,-651.161 234.838,-651.715 236.042,-652.308 237.165,-652.939 238.203,-653.605 239.155,-654.306 240.018,-655.039 240.789,-655.801 241.468,-656.592 242.053,-657.408 242.545,-658.248 242.942,-659.109 243.247,-659.989 243.46,-660.886 243.581,-661.797 243.614,-662.719 243.56,-663.65 243.422,-664.587 243.202,-665.529 242.903,-666.471 242.529,-667.413 242.084,-668.35 241.57,-669.281 240.992,-670.203 240.353,-671.114 239.658,-672.011 238.909,-672.891 238.112,-673.752 237.27,-674.592 236.386,-675.408 235.464,-676.199 234.508,-676.961 233.522,-677.694 232.507,-678.395 231.469,-679.061 230.408,-679.692 229.328,-680.285 228.232,-680.839 227.121,-681.353 225.998,-681.824 224.865,-682.252 223.722,-682.636 222.573,-682.973 221.417,-683.265 220.256,-683.509 219.092,-683.705 217.925,-683.852 216.756,-683.951 215.585,-684 214.415,-684 213.244,-683.951 212.075,-683.852 210.908,-683.705 209.744,-683.509 208.583,-683.265 207.427,-682.973 206.278,-682.636 205.135,-682.252 204.002,-681.824 202.879,-681.353 201.768,-680.839 200.672,-680.285 199.592,-679.692 198.531,-679.061 197.493,-678.395 196.478,-677.694 195.492,-676.961 194.536,-676.199 193.614,-675.408 192.73,-674.592 191.888,-673.752 191.091,-672.891 190.342,-672.011 189.647,-671.114 189.008,-670.203 188.43,-669.281 187.916,-668.35 187.471,-667.413 187.097,-666.471 186.798,-665.529 186.578,-664.587 186.44,-663.65 186.386,-662.719 186.419,-661.797 186.54,-660.886 186.753,-659.989 187.058,-659.109 187.455,-658.248 187.947,-657.408 188.532,-656.592 189.211,-655.801 189.982,-655.039 190.845,-654.306 191.797,-653.605 192.835,-652.939 193.958,-652.308 195.162,-651.715 196.443,-651.161 197.797,-650.647 199.218,-650.176 200.703,-649.748 202.245,-649.364 203.838,-649.027 205.477,-648.735 207.154,-648.491 208.864,-648.295 210.599,-648.148 212.352,-648.049 214.116,-648 215.884,-648 217.648,-648.049"/>
<text text-anchor="middle" x="215" y="-661.8" font-family="Times,serif" font-size="14.00">33</text>
</a>
</g>
<!-- 28&#45;&gt;33 -->
<g id="edge36" class="edge"><title>28&#45;&gt;33</title>
<path fill="none" stroke="black" d="M243.418,-720.765C238.935,-712.283 233.349,-701.714 228.319,-692.197"/>
<polygon fill="black" stroke="black" points="231.302,-690.353 223.535,-683.147 225.114,-693.624 231.302,-690.353"/>
</g>
<!-- 78 -->
<g id="node40" class="node"><title>78</title>
<a xlink:title="43">
<ellipse fill="none" stroke="black" cx="289" cy="-666" rx="27" ry="18"/>
<text text-anchor="middle" x="289" y="-661.8" font-family="Times,serif" font-size="14.00">78</text>
</a>
</g>
<!-- 28&#45;&gt;78 -->
<g id="edge38" class="edge"><title>28&#45;&gt;78</title>
<path fill="none" stroke="black" d="M260.582,-720.765C265.065,-712.283 270.651,-701.714 275.681,-692.197"/>
<polygon fill="black" stroke="black" points="278.886,-693.624 280.465,-683.147 272.698,-690.353 278.886,-693.624"/>
</g>
<!-- 34 -->
<g id="node46" class="node"><title>34</title>
<a xlink:title="22">
<ellipse fill="none" stroke="black" cx="141" cy="-594" rx="27" ry="18"/>
<text text-anchor="middle" x="141" y="-589.8" font-family="Times,serif" font-size="14.00">34</text>
</a>
</g>
<!-- 113&#45;&gt;34 -->
<g id="edge118" class="edge"><title>113&#45;&gt;34</title>
<path fill="none" stroke="black" d="M141,-647.697C141,-639.983 141,-630.712 141,-622.112"/>
<polygon fill="black" stroke="black" points="144.5,-622.104 141,-612.104 137.5,-622.104 144.5,-622.104"/>
</g>
<!-- 30 -->
<g id="node41" class="node"><title>30</title>
<a xlink:title="19">
<ellipse fill="none" stroke="black" cx="289" cy="-594" rx="27" ry="18"/>
<text text-anchor="middle" x="289" y="-589.8" font-family="Times,serif" font-size="14.00">30</text>
</a>
</g>
<!-- 78&#45;&gt;30 -->
<g id="edge82" class="edge"><title>78&#45;&gt;30</title>
<path fill="none" stroke="black" d="M289,-647.697C289,-639.983 289,-630.712 289,-622.112"/>
<polygon fill="black" stroke="black" points="292.5,-622.104 289,-612.104 285.5,-622.104 292.5,-622.104"/>
</g>
<!-- 50 -->
<g id="node43" class="node"><title>50</title>
<a xlink:title="30">
<polygon fill="lightgrey" stroke="black" stroke-width="2" points="281.648,-504.049 283.401,-504.148 285.136,-504.295 286.846,-504.491 288.523,-504.735 290.162,-505.027 291.755,-505.364 293.297,-505.748 294.782,-506.176 296.203,-506.647 297.557,-507.161 298.838,-507.715 300.042,-508.308 301.165,-508.939 302.203,-509.605 303.155,-510.306 304.018,-511.039 304.789,-511.801 305.468,-512.592 306.053,-513.408 306.545,-514.248 306.942,-515.109 307.247,-515.989 307.46,-516.886 307.581,-517.797 307.614,-518.719 307.56,-519.65 307.422,-520.587 307.202,-521.529 306.903,-522.471 306.529,-523.413 306.084,-524.35 305.57,-525.281 304.992,-526.203 304.353,-527.114 303.658,-528.011 302.909,-528.891 302.112,-529.752 301.27,-530.592 300.386,-531.408 299.464,-532.199 298.508,-532.961 297.522,-533.694 296.507,-534.395 295.469,-535.061 294.408,-535.692 293.328,-536.285 292.232,-536.839 291.121,-537.353 289.998,-537.824 288.865,-538.252 287.722,-538.636 286.573,-538.973 285.417,-539.265 284.256,-539.509 283.092,-539.705 281.925,-539.852 280.756,-539.951 279.585,-540 278.415,-540 277.244,-539.951 276.075,-539.852 274.908,-539.705 273.744,-539.509 272.583,-539.265 271.427,-538.973 270.278,-538.636 269.135,-538.252 268.002,-537.824 266.879,-537.353 265.768,-536.839 264.672,-536.285 263.592,-535.692 262.531,-535.061 261.493,-534.395 260.478,-533.694 259.492,-532.961 258.536,-532.199 257.614,-531.408 256.73,-530.592 255.888,-529.752 255.091,-528.891 254.342,-528.011 253.647,-527.114 253.008,-526.203 252.43,-525.281 251.916,-524.35 251.471,-523.413 251.097,-522.471 250.798,-521.529 250.578,-520.587 250.44,-519.65 250.386,-518.719 250.419,-517.797 250.54,-516.886 250.753,-515.989 251.058,-515.109 251.455,-514.248 251.947,-513.408 252.532,-512.592 253.211,-511.801 253.982,-511.039 254.845,-510.306 255.797,-509.605 256.835,-508.939 257.958,-508.308 259.162,-507.715 260.443,-507.161 261.797,-506.647 263.218,-506.176 264.703,-505.748 266.245,-505.364 267.838,-505.027 269.477,-504.735 271.154,-504.491 272.864,-504.295 274.599,-504.148 276.352,-504.049 278.116,-504 279.884,-504 281.648,-504.049"/>
<text text-anchor="middle" x="279" y="-517.8" font-family="Times,serif" font-size="14.00">50</text>
</a>
</g>
<!-- 30&#45;&gt;50 -->
<g id="edge40" class="edge"><title>30&#45;&gt;50</title>
<path fill="none" stroke="black" d="M286.579,-576.055C285.478,-568.346 284.147,-559.027 282.909,-550.364"/>
<polygon fill="black" stroke="black" points="286.347,-549.68 281.468,-540.275 279.417,-550.67 286.347,-549.68"/>
</g>
<!-- 54 -->
<g id="node45" class="node"><title>54</title>
<a xlink:title="32">
<ellipse fill="none" stroke="black" cx="353" cy="-522" rx="27" ry="18"/>
<text text-anchor="middle" x="353" y="-517.8" font-family="Times,serif" font-size="14.00">54</text>
</a>
</g>
<!-- 30&#45;&gt;54 -->
<g id="edge42" class="edge"><title>30&#45;&gt;54</title>
<path fill="none" stroke="black" d="M302.573,-578.155C311.312,-568.596 322.834,-555.994 332.658,-545.249"/>
<polygon fill="black" stroke="black" points="335.282,-547.566 339.447,-537.824 330.116,-542.842 335.282,-547.566"/>
</g>
<!-- 51 -->
<g id="node66" class="node"><title>51</title>
<a xlink:title="31">
<polygon fill="lightgrey" stroke="black" stroke-width="2" points="355.648,-432.049 357.401,-432.148 359.136,-432.295 360.846,-432.491 362.523,-432.735 364.162,-433.027 365.755,-433.364 367.297,-433.748 368.782,-434.176 370.203,-434.647 371.557,-435.161 372.838,-435.715 374.042,-436.308 375.165,-436.939 376.203,-437.605 377.155,-438.306 378.018,-439.039 378.789,-439.801 379.468,-440.592 380.053,-441.408 380.545,-442.248 380.942,-443.109 381.247,-443.989 381.46,-444.886 381.581,-445.797 381.614,-446.719 381.56,-447.65 381.422,-448.587 381.202,-449.529 380.903,-450.471 380.529,-451.413 380.084,-452.35 379.57,-453.281 378.992,-454.203 378.353,-455.114 377.658,-456.011 376.909,-456.891 376.112,-457.752 375.27,-458.592 374.386,-459.408 373.464,-460.199 372.508,-460.961 371.522,-461.694 370.507,-462.395 369.469,-463.061 368.408,-463.692 367.328,-464.285 366.232,-464.839 365.121,-465.353 363.998,-465.824 362.865,-466.252 361.722,-466.636 360.573,-466.973 359.417,-467.265 358.256,-467.509 357.092,-467.705 355.925,-467.852 354.756,-467.951 353.585,-468 352.415,-468 351.244,-467.951 350.075,-467.852 348.908,-467.705 347.744,-467.509 346.583,-467.265 345.427,-466.973 344.278,-466.636 343.135,-466.252 342.002,-465.824 340.879,-465.353 339.768,-464.839 338.672,-464.285 337.592,-463.692 336.531,-463.061 335.493,-462.395 334.478,-461.694 333.492,-460.961 332.536,-460.199 331.614,-459.408 330.73,-458.592 329.888,-457.752 329.091,-456.891 328.342,-456.011 327.647,-455.114 327.008,-454.203 326.43,-453.281 325.916,-452.35 325.471,-451.413 325.097,-450.471 324.798,-449.529 324.578,-448.587 324.44,-447.65 324.386,-446.719 324.419,-445.797 324.54,-444.886 324.753,-443.989 325.058,-443.109 325.455,-442.248 325.947,-441.408 326.532,-440.592 327.211,-439.801 327.982,-439.039 328.845,-438.306 329.797,-437.605 330.835,-436.939 331.958,-436.308 333.162,-435.715 334.443,-435.161 335.797,-434.647 337.218,-434.176 338.703,-433.748 340.245,-433.364 341.838,-433.027 343.477,-432.735 345.154,-432.491 346.864,-432.295 348.599,-432.148 350.352,-432.049 352.116,-432 353.884,-432 355.648,-432.049"/>
<text text-anchor="middle" x="353" y="-445.8" font-family="Times,serif" font-size="14.00">51</text>
</a>
</g>
<!-- 54&#45;&gt;51 -->
<g id="edge62" class="edge"><title>54&#45;&gt;51</title>
<path fill="none" stroke="black" d="M353,-503.697C353,-495.983 353,-486.712 353,-478.112"/>
<polygon fill="black" stroke="black" points="356.5,-478.104 353,-468.104 349.5,-478.104 356.5,-478.104"/>
</g>
<!-- 38 -->
<g id="node48" class="node"><title>38</title>
<a xlink:title="25">
<ellipse fill="none" stroke="black" cx="104" cy="-522" rx="27" ry="18"/>
<text text-anchor="middle" x="104" y="-517.8" font-family="Times,serif" font-size="14.00">38</text>
</a>
</g>
<!-- 34&#45;&gt;38 -->
<g id="edge44" class="edge"><title>34&#45;&gt;38</title>
<path fill="none" stroke="black" d="M132.418,-576.765C127.935,-568.283 122.349,-557.714 117.319,-548.197"/>
<polygon fill="black" stroke="black" points="120.302,-546.353 112.535,-539.147 114.114,-549.624 120.302,-546.353"/>
</g>
<!-- 45 -->
<g id="node50" class="node"><title>45</title>
<a xlink:title="28">
<ellipse fill="none" stroke="black" cx="186" cy="-522" rx="27" ry="18"/>
<text text-anchor="middle" x="186" y="-517.8" font-family="Times,serif" font-size="14.00">45</text>
</a>
</g>
<!-- 34&#45;&gt;45 -->
<g id="edge46" class="edge"><title>34&#45;&gt;45</title>
<path fill="none" stroke="black" d="M151.211,-577.116C156.85,-568.345 163.973,-557.264 170.304,-547.416"/>
<polygon fill="black" stroke="black" points="173.366,-549.126 175.829,-538.821 167.477,-545.34 173.366,-549.126"/>
</g>
<!-- 44 -->
<g id="node54" class="node"><title>44</title>
<a xlink:title="27">
<polygon fill="lightgrey" stroke="black" stroke-width="2" points="49.6478,-432.049 51.4009,-432.148 53.1359,-432.295 54.8457,-432.491 56.5233,-432.735 58.162,-433.027 59.7554,-433.364 61.2973,-433.748 62.7818,-434.176 64.2034,-434.647 65.5569,-435.161 66.8377,-435.715 68.0415,-436.308 69.1645,-436.939 70.2034,-437.605 71.1552,-438.306 72.0177,-439.039 72.789,-439.801 73.4678,-440.592 74.0531,-441.408 74.5446,-442.248 74.9424,-443.109 75.2471,-443.989 75.4596,-444.886 75.5813,-445.797 75.6141,-446.719 75.56,-447.65 75.4216,-448.587 75.2016,-449.529 74.9031,-450.471 74.5293,-451.413 74.0838,-452.35 73.57,-453.281 72.9919,-454.203 72.3531,-455.114 71.6576,-456.011 70.9093,-456.891 70.112,-457.752 69.2695,-458.592 68.3857,-459.408 67.4641,-460.199 66.5083,-460.961 65.5217,-461.694 64.5075,-462.395 63.4686,-463.061 62.408,-463.692 61.3283,-464.285 60.232,-464.839 59.1213,-465.353 57.9982,-465.824 56.8647,-466.252 55.7223,-466.636 54.5725,-466.973 53.4168,-467.265 52.2562,-467.509 51.0919,-467.705 49.9247,-467.852 48.7556,-467.951 47.5853,-468 46.4147,-468 45.2444,-467.951 44.0753,-467.852 42.9081,-467.705 41.7438,-467.509 40.5832,-467.265 39.4275,-466.973 38.2777,-466.636 37.1353,-466.252 36.0018,-465.824 34.8787,-465.353 33.768,-464.839 32.6717,-464.285 31.592,-463.692 30.5314,-463.061 29.4925,-462.395 28.4783,-461.694 27.4917,-460.961 26.5359,-460.199 25.6143,-459.408 24.7305,-458.592 23.888,-457.752 23.0907,-456.891 22.3424,-456.011 21.6469,-455.114 21.0081,-454.203 20.43,-453.281 19.9162,-452.35 19.4707,-451.413 19.0969,-450.471 18.7984,-449.529 18.5784,-448.587 18.44,-447.65 18.3859,-446.719 18.4187,-445.797 18.5404,-444.886 18.7529,-443.989 19.0576,-443.109 19.4554,-442.248 19.9469,-441.408 20.5322,-440.592 21.211,-439.801 21.9823,-439.039 22.8448,-438.306 23.7966,-437.605 24.8355,-436.939 25.9585,-436.308 27.1623,-435.715 28.4431,-435.161 29.7966,-434.647 31.2182,-434.176 32.7027,-433.748 34.2446,-433.364 35.838,-433.027 37.4767,-432.735 39.1543,-432.491 40.8641,-432.295 42.5991,-432.148 44.3522,-432.049 46.1162,-432 47.8838,-432 49.6478,-432.049"/>
<text text-anchor="middle" x="47" y="-445.8" font-family="Times,serif" font-size="14.00">44</text>
</a>
</g>
<!-- 38&#45;&gt;44 -->
<g id="edge48" class="edge"><title>38&#45;&gt;44</title>
<path fill="none" stroke="black" d="M91.6318,-505.811C83.9844,-496.419 74.0264,-484.19 65.4573,-473.667"/>
<polygon fill="black" stroke="black" points="67.9817,-471.224 58.9534,-465.68 62.5537,-475.644 67.9817,-471.224"/>
</g>
<!-- 57 -->
<g id="node59" class="node"><title>57</title>
<a xlink:title="34">
<polygon fill="lightgrey" stroke="black" stroke-width="2" points="124.648,-432.049 126.401,-432.148 128.136,-432.295 129.846,-432.491 131.523,-432.735 133.162,-433.027 134.755,-433.364 136.297,-433.748 137.782,-434.176 139.203,-434.647 140.557,-435.161 141.838,-435.715 143.042,-436.308 144.165,-436.939 145.203,-437.605 146.155,-438.306 147.018,-439.039 147.789,-439.801 148.468,-440.592 149.053,-441.408 149.545,-442.248 149.942,-443.109 150.247,-443.989 150.46,-444.886 150.581,-445.797 150.614,-446.719 150.56,-447.65 150.422,-448.587 150.202,-449.529 149.903,-450.471 149.529,-451.413 149.084,-452.35 148.57,-453.281 147.992,-454.203 147.353,-455.114 146.658,-456.011 145.909,-456.891 145.112,-457.752 144.27,-458.592 143.386,-459.408 142.464,-460.199 141.508,-460.961 140.522,-461.694 139.507,-462.395 138.469,-463.061 137.408,-463.692 136.328,-464.285 135.232,-464.839 134.121,-465.353 132.998,-465.824 131.865,-466.252 130.722,-466.636 129.573,-466.973 128.417,-467.265 127.256,-467.509 126.092,-467.705 124.925,-467.852 123.756,-467.951 122.585,-468 121.415,-468 120.244,-467.951 119.075,-467.852 117.908,-467.705 116.744,-467.509 115.583,-467.265 114.427,-466.973 113.278,-466.636 112.135,-466.252 111.002,-465.824 109.879,-465.353 108.768,-464.839 107.672,-464.285 106.592,-463.692 105.531,-463.061 104.493,-462.395 103.478,-461.694 102.492,-460.961 101.536,-460.199 100.614,-459.408 99.7305,-458.592 98.888,-457.752 98.0907,-456.891 97.3424,-456.011 96.6469,-455.114 96.0081,-454.203 95.43,-453.281 94.9162,-452.35 94.4707,-451.413 94.0969,-450.471 93.7984,-449.529 93.5784,-448.587 93.44,-447.65 93.3859,-446.719 93.4187,-445.797 93.5404,-444.886 93.7529,-443.989 94.0576,-443.109 94.4554,-442.248 94.9469,-441.408 95.5322,-440.592 96.211,-439.801 96.9823,-439.039 97.8448,-438.306 98.7966,-437.605 99.8355,-436.939 100.958,-436.308 102.162,-435.715 103.443,-435.161 104.797,-434.647 106.218,-434.176 107.703,-433.748 109.245,-433.364 110.838,-433.027 112.477,-432.735 114.154,-432.491 115.864,-432.295 117.599,-432.148 119.352,-432.049 121.116,-432 122.884,-432 124.648,-432.049"/>
<text text-anchor="middle" x="122" y="-445.8" font-family="Times,serif" font-size="14.00">57</text>
</a>
</g>
<!-- 45&#45;&gt;57 -->
<g id="edge54" class="edge"><title>45&#45;&gt;57</title>
<path fill="none" stroke="black" d="M172.427,-506.155C163.569,-496.467 151.854,-483.653 141.945,-472.815"/>
<polygon fill="black" stroke="black" points="144.446,-470.364 135.115,-465.345 139.28,-475.087 144.446,-470.364"/>
</g>
<!-- 62 -->
<g id="node61" class="node"><title>62</title>
<a xlink:title="36">
<ellipse fill="none" stroke="black" cx="196" cy="-450" rx="27" ry="18"/>
<text text-anchor="middle" x="196" y="-445.8" font-family="Times,serif" font-size="14.00">62</text>
</a>
</g>
<!-- 45&#45;&gt;62 -->
<g id="edge56" class="edge"><title>45&#45;&gt;62</title>
<path fill="none" stroke="black" d="M188.421,-504.055C189.522,-496.346 190.853,-487.027 192.091,-478.364"/>
<polygon fill="black" stroke="black" points="195.583,-478.67 193.532,-468.275 188.653,-477.68 195.583,-478.67"/>
</g>
<!-- 86 -->
<g id="node63" class="node"><title>86</title>
<a xlink:title="47">
<ellipse fill="none" stroke="black" cx="269" cy="-450" rx="27" ry="18"/>
<text text-anchor="middle" x="269" y="-445.8" font-family="Times,serif" font-size="14.00">86</text>
</a>
</g>
<!-- 45&#45;&gt;86 -->
<g id="edge58" class="edge"><title>45&#45;&gt;86</title>
<path fill="none" stroke="black" d="M202.398,-507.17C214.641,-496.845 231.552,-482.582 245.27,-471.013"/>
<polygon fill="black" stroke="black" points="247.53,-473.685 252.918,-464.563 243.018,-468.334 247.53,-473.685"/>
</g>
<!-- 35 -->
<g id="node51" class="node"><title>35</title>
<a xlink:title="23">
<polygon fill="lightgrey" stroke="black" stroke-width="2" points="281.648,-72.0493 283.401,-72.1479 285.136,-72.2953 286.846,-72.4913 288.523,-72.7353 290.162,-73.0266 291.755,-73.3645 293.297,-73.7479 294.782,-74.1759 296.203,-74.6472 297.557,-75.1606 298.838,-75.7147 300.042,-76.308 301.165,-76.9388 302.203,-77.6054 303.155,-78.3059 304.018,-79.0385 304.789,-79.8012 305.468,-80.5918 306.053,-81.4082 306.545,-82.2481 306.942,-83.1093 307.247,-83.9894 307.46,-84.886 307.581,-85.7965 307.614,-86.7186 307.56,-87.6497 307.422,-88.5873 307.202,-89.5287 306.903,-90.4713 306.529,-91.4127 306.084,-92.3503 305.57,-93.2814 304.992,-94.2035 304.353,-95.114 303.658,-96.0106 302.909,-96.8907 302.112,-97.7519 301.27,-98.5918 300.386,-99.4082 299.464,-100.199 298.508,-100.961 297.522,-101.694 296.507,-102.395 295.469,-103.061 294.408,-103.692 293.328,-104.285 292.232,-104.839 291.121,-105.353 289.998,-105.824 288.865,-106.252 287.722,-106.636 286.573,-106.973 285.417,-107.265 284.256,-107.509 283.092,-107.705 281.925,-107.852 280.756,-107.951 279.585,-108 278.415,-108 277.244,-107.951 276.075,-107.852 274.908,-107.705 273.744,-107.509 272.583,-107.265 271.427,-106.973 270.278,-106.636 269.135,-106.252 268.002,-105.824 266.879,-105.353 265.768,-104.839 264.672,-104.285 263.592,-103.692 262.531,-103.061 261.493,-102.395 260.478,-101.694 259.492,-100.961 258.536,-100.199 257.614,-99.4082 256.73,-98.5918 255.888,-97.7519 255.091,-96.8907 254.342,-96.0106 253.647,-95.114 253.008,-94.2035 252.43,-93.2814 251.916,-92.3503 251.471,-91.4127 251.097,-90.4713 250.798,-89.5287 250.578,-88.5873 250.44,-87.6497 250.386,-86.7186 250.419,-85.7965 250.54,-84.886 250.753,-83.9894 251.058,-83.1093 251.455,-82.2481 251.947,-81.4082 252.532,-80.5918 253.211,-79.8012 253.982,-79.0385 254.845,-78.3059 255.797,-77.6054 256.835,-76.9388 257.958,-76.308 259.162,-75.7147 260.443,-75.1606 261.797,-74.6472 263.218,-74.1759 264.703,-73.7479 266.245,-73.3645 267.838,-73.0266 269.477,-72.7353 271.154,-72.4913 272.864,-72.2953 274.599,-72.1479 276.352,-72.0493 278.116,-72 279.884,-72 281.648,-72.0493"/>
<text text-anchor="middle" x="279" y="-85.8" font-family="Times,serif" font-size="14.00">35</text>
</a>
</g>
<!-- 36 -->
<g id="node52" class="node"><title>36</title>
<a xlink:title="24">
<polygon fill="lightgrey" stroke="black" stroke-width="2" points="160.648,-288.049 162.401,-288.148 164.136,-288.295 165.846,-288.491 167.523,-288.735 169.162,-289.027 170.755,-289.364 172.297,-289.748 173.782,-290.176 175.203,-290.647 176.557,-291.161 177.838,-291.715 179.042,-292.308 180.165,-292.939 181.203,-293.605 182.155,-294.306 183.018,-295.039 183.789,-295.801 184.468,-296.592 185.053,-297.408 185.545,-298.248 185.942,-299.109 186.247,-299.989 186.46,-300.886 186.581,-301.797 186.614,-302.719 186.56,-303.65 186.422,-304.587 186.202,-305.529 185.903,-306.471 185.529,-307.413 185.084,-308.35 184.57,-309.281 183.992,-310.203 183.353,-311.114 182.658,-312.011 181.909,-312.891 181.112,-313.752 180.27,-314.592 179.386,-315.408 178.464,-316.199 177.508,-316.961 176.522,-317.694 175.507,-318.395 174.469,-319.061 173.408,-319.692 172.328,-320.285 171.232,-320.839 170.121,-321.353 168.998,-321.824 167.865,-322.252 166.722,-322.636 165.573,-322.973 164.417,-323.265 163.256,-323.509 162.092,-323.705 160.925,-323.852 159.756,-323.951 158.585,-324 157.415,-324 156.244,-323.951 155.075,-323.852 153.908,-323.705 152.744,-323.509 151.583,-323.265 150.427,-322.973 149.278,-322.636 148.135,-322.252 147.002,-321.824 145.879,-321.353 144.768,-320.839 143.672,-320.285 142.592,-319.692 141.531,-319.061 140.493,-318.395 139.478,-317.694 138.492,-316.961 137.536,-316.199 136.614,-315.408 135.73,-314.592 134.888,-313.752 134.091,-312.891 133.342,-312.011 132.647,-311.114 132.008,-310.203 131.43,-309.281 130.916,-308.35 130.471,-307.413 130.097,-306.471 129.798,-305.529 129.578,-304.587 129.44,-303.65 129.386,-302.719 129.419,-301.797 129.54,-300.886 129.753,-299.989 130.058,-299.109 130.455,-298.248 130.947,-297.408 131.532,-296.592 132.211,-295.801 132.982,-295.039 133.845,-294.306 134.797,-293.605 135.835,-292.939 136.958,-292.308 138.162,-291.715 139.443,-291.161 140.797,-290.647 142.218,-290.176 143.703,-289.748 145.245,-289.364 146.838,-289.027 148.477,-288.735 150.154,-288.491 151.864,-288.295 153.599,-288.148 155.352,-288.049 157.116,-288 158.884,-288 160.648,-288.049"/>
<text text-anchor="middle" x="158" y="-301.8" font-family="Times,serif" font-size="14.00">36</text>
</a>
</g>
<!-- 82 -->
<g id="node65" class="node"><title>82</title>
<a xlink:title="45">
<ellipse fill="none" stroke="black" cx="501" cy="-522" rx="27" ry="18"/>
<text text-anchor="middle" x="501" y="-517.8" font-family="Times,serif" font-size="14.00">82</text>
</a>
</g>
<!-- 49&#45;&gt;82 -->
<g id="edge60" class="edge"><title>49&#45;&gt;82</title>
<path fill="none" stroke="black" d="M500.247,-575.697C500.357,-567.983 500.49,-558.712 500.613,-550.112"/>
<polygon fill="black" stroke="black" points="504.112,-550.153 500.756,-540.104 497.113,-550.053 504.112,-550.153"/>
</g>
<!-- 68 -->
<g id="node73" class="node"><title>68</title>
<a xlink:title="38">
<ellipse fill="none" stroke="black" cx="195" cy="-378" rx="27" ry="18"/>
<text text-anchor="middle" x="195" y="-373.8" font-family="Times,serif" font-size="14.00">68</text>
</a>
</g>
<!-- 62&#45;&gt;68 -->
<g id="edge66" class="edge"><title>62&#45;&gt;68</title>
<path fill="none" stroke="black" d="M195.753,-431.697C195.643,-423.983 195.51,-414.712 195.387,-406.112"/>
<polygon fill="black" stroke="black" points="198.887,-406.053 195.244,-396.104 191.888,-406.153 198.887,-406.053"/>
</g>
<!-- 75 -->
<g id="node86" class="node"><title>75</title>
<a xlink:title="41">
<polygon fill="lightgrey" stroke="black" stroke-width="2" points="271.648,-360.049 273.401,-360.148 275.136,-360.295 276.846,-360.491 278.523,-360.735 280.162,-361.027 281.755,-361.364 283.297,-361.748 284.782,-362.176 286.203,-362.647 287.557,-363.161 288.838,-363.715 290.042,-364.308 291.165,-364.939 292.203,-365.605 293.155,-366.306 294.018,-367.039 294.789,-367.801 295.468,-368.592 296.053,-369.408 296.545,-370.248 296.942,-371.109 297.247,-371.989 297.46,-372.886 297.581,-373.797 297.614,-374.719 297.56,-375.65 297.422,-376.587 297.202,-377.529 296.903,-378.471 296.529,-379.413 296.084,-380.35 295.57,-381.281 294.992,-382.203 294.353,-383.114 293.658,-384.011 292.909,-384.891 292.112,-385.752 291.27,-386.592 290.386,-387.408 289.464,-388.199 288.508,-388.961 287.522,-389.694 286.507,-390.395 285.469,-391.061 284.408,-391.692 283.328,-392.285 282.232,-392.839 281.121,-393.353 279.998,-393.824 278.865,-394.252 277.722,-394.636 276.573,-394.973 275.417,-395.265 274.256,-395.509 273.092,-395.705 271.925,-395.852 270.756,-395.951 269.585,-396 268.415,-396 267.244,-395.951 266.075,-395.852 264.908,-395.705 263.744,-395.509 262.583,-395.265 261.427,-394.973 260.278,-394.636 259.135,-394.252 258.002,-393.824 256.879,-393.353 255.768,-392.839 254.672,-392.285 253.592,-391.692 252.531,-391.061 251.493,-390.395 250.478,-389.694 249.492,-388.961 248.536,-388.199 247.614,-387.408 246.73,-386.592 245.888,-385.752 245.091,-384.891 244.342,-384.011 243.647,-383.114 243.008,-382.203 242.43,-381.281 241.916,-380.35 241.471,-379.413 241.097,-378.471 240.798,-377.529 240.578,-376.587 240.44,-375.65 240.386,-374.719 240.419,-373.797 240.54,-372.886 240.753,-371.989 241.058,-371.109 241.455,-370.248 241.947,-369.408 242.532,-368.592 243.211,-367.801 243.982,-367.039 244.845,-366.306 245.797,-365.605 246.835,-364.939 247.958,-364.308 249.162,-363.715 250.443,-363.161 251.797,-362.647 253.218,-362.176 254.703,-361.748 256.245,-361.364 257.838,-361.027 259.477,-360.735 261.154,-360.491 262.864,-360.295 264.599,-360.148 266.352,-360.049 268.116,-360 269.884,-360 271.648,-360.049"/>
<text text-anchor="middle" x="269" y="-373.8" font-family="Times,serif" font-size="14.00">75</text>
</a>
</g>
<!-- 86&#45;&gt;75 -->
<g id="edge90" class="edge"><title>86&#45;&gt;75</title>
<path fill="none" stroke="black" d="M269,-431.697C269,-423.983 269,-414.712 269,-406.112"/>
<polygon fill="black" stroke="black" points="272.5,-406.104 269,-396.104 265.5,-406.104 272.5,-406.104"/>
</g>
<!-- 77 -->
<g id="node87" class="node"><title>77</title>
<a xlink:title="42">
<ellipse fill="none" stroke="black" cx="343" cy="-378" rx="27" ry="18"/>
<text text-anchor="middle" x="343" y="-373.8" font-family="Times,serif" font-size="14.00">77</text>
</a>
</g>
<!-- 86&#45;&gt;77 -->
<g id="edge92" class="edge"><title>86&#45;&gt;77</title>
<path fill="none" stroke="black" d="M283.975,-434.834C294.507,-424.872 308.782,-411.369 320.655,-400.137"/>
<polygon fill="black" stroke="black" points="323.188,-402.559 328.047,-393.144 318.377,-397.474 323.188,-402.559"/>
</g>
<!-- 69 -->
<g id="node78" class="node"><title>69</title>
<a xlink:title="39">
<ellipse fill="none" stroke="black" cx="501" cy="-450" rx="27" ry="18"/>
<text text-anchor="middle" x="501" y="-445.8" font-family="Times,serif" font-size="14.00">69</text>
</a>
</g>
<!-- 82&#45;&gt;69 -->
<g id="edge84" class="edge"><title>82&#45;&gt;69</title>
<path fill="none" stroke="black" d="M501,-503.697C501,-495.983 501,-486.712 501,-478.112"/>
<polygon fill="black" stroke="black" points="504.5,-478.104 501,-468.104 497.5,-478.104 504.5,-478.104"/>
</g>
<!-- 71 -->
<g id="node81" class="node"><title>71</title>
<a xlink:title="40">
<ellipse fill="none" stroke="black" cx="576" cy="-450" rx="27" ry="18"/>
<text text-anchor="middle" x="576" y="-445.8" font-family="Times,serif" font-size="14.00">71</text>
</a>
</g>
<!-- 82&#45;&gt;71 -->
<g id="edge86" class="edge"><title>82&#45;&gt;71</title>
<path fill="none" stroke="black" d="M516.177,-506.834C526.851,-496.872 541.319,-483.369 553.353,-472.137"/>
<polygon fill="black" stroke="black" points="555.923,-474.526 560.845,-465.144 551.146,-469.409 555.923,-474.526"/>
</g>
<!-- 55 -->
<g id="node68" class="node"><title>55</title>
<a xlink:title="33">
<polygon fill="lightgrey" stroke="black" stroke-width="2" points="345.648,-288.049 347.401,-288.148 349.136,-288.295 350.846,-288.491 352.523,-288.735 354.162,-289.027 355.755,-289.364 357.297,-289.748 358.782,-290.176 360.203,-290.647 361.557,-291.161 362.838,-291.715 364.042,-292.308 365.165,-292.939 366.203,-293.605 367.155,-294.306 368.018,-295.039 368.789,-295.801 369.468,-296.592 370.053,-297.408 370.545,-298.248 370.942,-299.109 371.247,-299.989 371.46,-300.886 371.581,-301.797 371.614,-302.719 371.56,-303.65 371.422,-304.587 371.202,-305.529 370.903,-306.471 370.529,-307.413 370.084,-308.35 369.57,-309.281 368.992,-310.203 368.353,-311.114 367.658,-312.011 366.909,-312.891 366.112,-313.752 365.27,-314.592 364.386,-315.408 363.464,-316.199 362.508,-316.961 361.522,-317.694 360.507,-318.395 359.469,-319.061 358.408,-319.692 357.328,-320.285 356.232,-320.839 355.121,-321.353 353.998,-321.824 352.865,-322.252 351.722,-322.636 350.573,-322.973 349.417,-323.265 348.256,-323.509 347.092,-323.705 345.925,-323.852 344.756,-323.951 343.585,-324 342.415,-324 341.244,-323.951 340.075,-323.852 338.908,-323.705 337.744,-323.509 336.583,-323.265 335.427,-322.973 334.278,-322.636 333.135,-322.252 332.002,-321.824 330.879,-321.353 329.768,-320.839 328.672,-320.285 327.592,-319.692 326.531,-319.061 325.493,-318.395 324.478,-317.694 323.492,-316.961 322.536,-316.199 321.614,-315.408 320.73,-314.592 319.888,-313.752 319.091,-312.891 318.342,-312.011 317.647,-311.114 317.008,-310.203 316.43,-309.281 315.916,-308.35 315.471,-307.413 315.097,-306.471 314.798,-305.529 314.578,-304.587 314.44,-303.65 314.386,-302.719 314.419,-301.797 314.54,-300.886 314.753,-299.989 315.058,-299.109 315.455,-298.248 315.947,-297.408 316.532,-296.592 317.211,-295.801 317.982,-295.039 318.845,-294.306 319.797,-293.605 320.835,-292.939 321.958,-292.308 323.162,-291.715 324.443,-291.161 325.797,-290.647 327.218,-290.176 328.703,-289.748 330.245,-289.364 331.838,-289.027 333.477,-288.735 335.154,-288.491 336.864,-288.295 338.599,-288.148 340.352,-288.049 342.116,-288 343.884,-288 345.648,-288.049"/>
<text text-anchor="middle" x="343" y="-301.8" font-family="Times,serif" font-size="14.00">55</text>
</a>
</g>
<!-- 60 -->
<g id="node69" class="node"><title>60</title>
<a xlink:title="35">
<ellipse fill="none" stroke="black" cx="427" cy="-378" rx="27" ry="18"/>
<text text-anchor="middle" x="427" y="-373.8" font-family="Times,serif" font-size="14.00">60</text>
</a>
</g>
<!-- 89 -->
<g id="node71" class="node"><title>89</title>
<a xlink:title="48">
<ellipse fill="none" stroke="black" cx="427" cy="-306" rx="27" ry="18"/>
<text text-anchor="middle" x="427" y="-301.8" font-family="Times,serif" font-size="14.00">89</text>
</a>
</g>
<!-- 60&#45;&gt;89 -->
<g id="edge64" class="edge"><title>60&#45;&gt;89</title>
<path fill="none" stroke="black" d="M427,-359.697C427,-351.983 427,-342.712 427,-334.112"/>
<polygon fill="black" stroke="black" points="430.5,-334.104 427,-324.104 423.5,-334.104 430.5,-334.104"/>
</g>
<!-- 95 -->
<g id="node97" class="node"><title>95</title>
<a xlink:title="52">
<ellipse fill="none" stroke="black" cx="353" cy="-234" rx="27" ry="18"/>
<text text-anchor="middle" x="353" y="-229.8" font-family="Times,serif" font-size="14.00">95</text>
</a>
</g>
<!-- 89&#45;&gt;95 -->
<g id="edge94" class="edge"><title>89&#45;&gt;95</title>
<path fill="none" stroke="black" d="M412.025,-290.834C401.493,-280.872 387.218,-267.369 375.345,-256.137"/>
<polygon fill="black" stroke="black" points="377.623,-253.474 367.953,-249.144 372.812,-258.559 377.623,-253.474"/>
</g>
<!-- 98 -->
<g id="node99" class="node"><title>98</title>
<a xlink:title="53">
<ellipse fill="none" stroke="black" cx="427" cy="-234" rx="27" ry="18"/>
<text text-anchor="middle" x="427" y="-229.8" font-family="Times,serif" font-size="14.00">98</text>
</a>
</g>
<!-- 89&#45;&gt;98 -->
<g id="edge96" class="edge"><title>89&#45;&gt;98</title>
<path fill="none" stroke="black" d="M427,-287.697C427,-279.983 427,-270.712 427,-262.112"/>
<polygon fill="black" stroke="black" points="430.5,-262.104 427,-252.104 423.5,-262.104 430.5,-262.104"/>
</g>
<!-- 108 -->
<g id="node101" class="node"><title>108</title>
<a xlink:title="58">
<ellipse fill="none" stroke="black" cx="501" cy="-234" rx="27" ry="18"/>
<text text-anchor="middle" x="501" y="-229.8" font-family="Times,serif" font-size="14.00">108</text>
</a>
</g>
<!-- 89&#45;&gt;108 -->
<g id="edge98" class="edge"><title>89&#45;&gt;108</title>
<path fill="none" stroke="black" d="M441.975,-290.834C452.507,-280.872 466.782,-267.369 478.655,-256.137"/>
<polygon fill="black" stroke="black" points="481.188,-258.559 486.047,-249.144 476.377,-253.474 481.188,-258.559"/>
</g>
<!-- 68&#45;&gt;36 -->
<g id="edge68" class="edge"><title>68&#45;&gt;36</title>
<path fill="none" stroke="black" d="M186.418,-360.765C181.935,-352.283 176.349,-341.714 171.319,-332.197"/>
<polygon fill="black" stroke="black" points="174.302,-330.353 166.535,-323.147 168.114,-333.624 174.302,-330.353"/>
</g>
<!-- 84 -->
<g id="node77" class="node"><title>84</title>
<a xlink:title="46">
<ellipse fill="none" stroke="black" cx="232" cy="-306" rx="27" ry="18"/>
<text text-anchor="middle" x="232" y="-301.8" font-family="Times,serif" font-size="14.00">84</text>
</a>
</g>
<!-- 68&#45;&gt;84 -->
<g id="edge70" class="edge"><title>68&#45;&gt;84</title>
<path fill="none" stroke="black" d="M203.582,-360.765C208.065,-352.283 213.651,-341.714 218.681,-332.197"/>
<polygon fill="black" stroke="black" points="221.886,-333.624 223.465,-323.147 215.698,-330.353 221.886,-333.624"/>
</g>
<!-- 64 -->
<g id="node74" class="node"><title>64</title>
<a xlink:title="37">
<polygon fill="lightgrey" stroke="black" stroke-width="2" points="503.648,-360.049 505.401,-360.148 507.136,-360.295 508.846,-360.491 510.523,-360.735 512.162,-361.027 513.755,-361.364 515.297,-361.748 516.782,-362.176 518.203,-362.647 519.557,-363.161 520.838,-363.715 522.042,-364.308 523.165,-364.939 524.203,-365.605 525.155,-366.306 526.018,-367.039 526.789,-367.801 527.468,-368.592 528.053,-369.408 528.545,-370.248 528.942,-371.109 529.247,-371.989 529.46,-372.886 529.581,-373.797 529.614,-374.719 529.56,-375.65 529.422,-376.587 529.202,-377.529 528.903,-378.471 528.529,-379.413 528.084,-380.35 527.57,-381.281 526.992,-382.203 526.353,-383.114 525.658,-384.011 524.909,-384.891 524.112,-385.752 523.27,-386.592 522.386,-387.408 521.464,-388.199 520.508,-388.961 519.522,-389.694 518.507,-390.395 517.469,-391.061 516.408,-391.692 515.328,-392.285 514.232,-392.839 513.121,-393.353 511.998,-393.824 510.865,-394.252 509.722,-394.636 508.573,-394.973 507.417,-395.265 506.256,-395.509 505.092,-395.705 503.925,-395.852 502.756,-395.951 501.585,-396 500.415,-396 499.244,-395.951 498.075,-395.852 496.908,-395.705 495.744,-395.509 494.583,-395.265 493.427,-394.973 492.278,-394.636 491.135,-394.252 490.002,-393.824 488.879,-393.353 487.768,-392.839 486.672,-392.285 485.592,-391.692 484.531,-391.061 483.493,-390.395 482.478,-389.694 481.492,-388.961 480.536,-388.199 479.614,-387.408 478.73,-386.592 477.888,-385.752 477.091,-384.891 476.342,-384.011 475.647,-383.114 475.008,-382.203 474.43,-381.281 473.916,-380.35 473.471,-379.413 473.097,-378.471 472.798,-377.529 472.578,-376.587 472.44,-375.65 472.386,-374.719 472.419,-373.797 472.54,-372.886 472.753,-371.989 473.058,-371.109 473.455,-370.248 473.947,-369.408 474.532,-368.592 475.211,-367.801 475.982,-367.039 476.845,-366.306 477.797,-365.605 478.835,-364.939 479.958,-364.308 481.162,-363.715 482.443,-363.161 483.797,-362.647 485.218,-362.176 486.703,-361.748 488.245,-361.364 489.838,-361.027 491.477,-360.735 493.154,-360.491 494.864,-360.295 496.599,-360.148 498.352,-360.049 500.116,-360 501.884,-360 503.648,-360.049"/>
<text text-anchor="middle" x="501" y="-373.8" font-family="Times,serif" font-size="14.00">64</text>
</a>
</g>
<!-- 93 -->
<g id="node93" class="node"><title>93</title>
<a xlink:title="51">
<polygon fill="lightgrey" stroke="black" stroke-width="2" points="234.648,-216.049 236.401,-216.148 238.136,-216.295 239.846,-216.491 241.523,-216.735 243.162,-217.027 244.755,-217.364 246.297,-217.748 247.782,-218.176 249.203,-218.647 250.557,-219.161 251.838,-219.715 253.042,-220.308 254.165,-220.939 255.203,-221.605 256.155,-222.306 257.018,-223.039 257.789,-223.801 258.468,-224.592 259.053,-225.408 259.545,-226.248 259.942,-227.109 260.247,-227.989 260.46,-228.886 260.581,-229.797 260.614,-230.719 260.56,-231.65 260.422,-232.587 260.202,-233.529 259.903,-234.471 259.529,-235.413 259.084,-236.35 258.57,-237.281 257.992,-238.203 257.353,-239.114 256.658,-240.011 255.909,-240.891 255.112,-241.752 254.27,-242.592 253.386,-243.408 252.464,-244.199 251.508,-244.961 250.522,-245.694 249.507,-246.395 248.469,-247.061 247.408,-247.692 246.328,-248.285 245.232,-248.839 244.121,-249.353 242.998,-249.824 241.865,-250.252 240.722,-250.636 239.573,-250.973 238.417,-251.265 237.256,-251.509 236.092,-251.705 234.925,-251.852 233.756,-251.951 232.585,-252 231.415,-252 230.244,-251.951 229.075,-251.852 227.908,-251.705 226.744,-251.509 225.583,-251.265 224.427,-250.973 223.278,-250.636 222.135,-250.252 221.002,-249.824 219.879,-249.353 218.768,-248.839 217.672,-248.285 216.592,-247.692 215.531,-247.061 214.493,-246.395 213.478,-245.694 212.492,-244.961 211.536,-244.199 210.614,-243.408 209.73,-242.592 208.888,-241.752 208.091,-240.891 207.342,-240.011 206.647,-239.114 206.008,-238.203 205.43,-237.281 204.916,-236.35 204.471,-235.413 204.097,-234.471 203.798,-233.529 203.578,-232.587 203.44,-231.65 203.386,-230.719 203.419,-229.797 203.54,-228.886 203.753,-227.989 204.058,-227.109 204.455,-226.248 204.947,-225.408 205.532,-224.592 206.211,-223.801 206.982,-223.039 207.845,-222.306 208.797,-221.605 209.835,-220.939 210.958,-220.308 212.162,-219.715 213.443,-219.161 214.797,-218.647 216.218,-218.176 217.703,-217.748 219.245,-217.364 220.838,-217.027 222.477,-216.735 224.154,-216.491 225.864,-216.295 227.599,-216.148 229.352,-216.049 231.116,-216 232.884,-216 234.648,-216.049"/>
<text text-anchor="middle" x="232" y="-229.8" font-family="Times,serif" font-size="14.00">93</text>
</a>
</g>
<!-- 84&#45;&gt;93 -->
<g id="edge88" class="edge"><title>84&#45;&gt;93</title>
<path fill="none" stroke="black" d="M232,-287.697C232,-279.983 232,-270.712 232,-262.112"/>
<polygon fill="black" stroke="black" points="235.5,-262.104 232,-252.104 228.5,-262.104 235.5,-262.104"/>
</g>
<!-- 69&#45;&gt;60 -->
<g id="edge72" class="edge"><title>69&#45;&gt;60</title>
<path fill="none" stroke="black" d="M486.025,-434.834C475.493,-424.872 461.218,-411.369 449.345,-400.137"/>
<polygon fill="black" stroke="black" points="451.623,-397.474 441.953,-393.144 446.812,-402.559 451.623,-397.474"/>
</g>
<!-- 69&#45;&gt;64 -->
<g id="edge74" class="edge"><title>69&#45;&gt;64</title>
<path fill="none" stroke="black" d="M501,-431.697C501,-423.983 501,-414.712 501,-406.112"/>
<polygon fill="black" stroke="black" points="504.5,-406.104 501,-396.104 497.5,-406.104 504.5,-406.104"/>
</g>
<!-- 90 -->
<g id="node83" class="node"><title>90</title>
<a xlink:title="49">
<polygon fill="lightgrey" stroke="black" stroke-width="2" points="578.648,-360.049 580.401,-360.148 582.136,-360.295 583.846,-360.491 585.523,-360.735 587.162,-361.027 588.755,-361.364 590.297,-361.748 591.782,-362.176 593.203,-362.647 594.557,-363.161 595.838,-363.715 597.042,-364.308 598.165,-364.939 599.203,-365.605 600.155,-366.306 601.018,-367.039 601.789,-367.801 602.468,-368.592 603.053,-369.408 603.545,-370.248 603.942,-371.109 604.247,-371.989 604.46,-372.886 604.581,-373.797 604.614,-374.719 604.56,-375.65 604.422,-376.587 604.202,-377.529 603.903,-378.471 603.529,-379.413 603.084,-380.35 602.57,-381.281 601.992,-382.203 601.353,-383.114 600.658,-384.011 599.909,-384.891 599.112,-385.752 598.27,-386.592 597.386,-387.408 596.464,-388.199 595.508,-388.961 594.522,-389.694 593.507,-390.395 592.469,-391.061 591.408,-391.692 590.328,-392.285 589.232,-392.839 588.121,-393.353 586.998,-393.824 585.865,-394.252 584.722,-394.636 583.573,-394.973 582.417,-395.265 581.256,-395.509 580.092,-395.705 578.925,-395.852 577.756,-395.951 576.585,-396 575.415,-396 574.244,-395.951 573.075,-395.852 571.908,-395.705 570.744,-395.509 569.583,-395.265 568.427,-394.973 567.278,-394.636 566.135,-394.252 565.002,-393.824 563.879,-393.353 562.768,-392.839 561.672,-392.285 560.592,-391.692 559.531,-391.061 558.493,-390.395 557.478,-389.694 556.492,-388.961 555.536,-388.199 554.614,-387.408 553.73,-386.592 552.888,-385.752 552.091,-384.891 551.342,-384.011 550.647,-383.114 550.008,-382.203 549.43,-381.281 548.916,-380.35 548.471,-379.413 548.097,-378.471 547.798,-377.529 547.578,-376.587 547.44,-375.65 547.386,-374.719 547.419,-373.797 547.54,-372.886 547.753,-371.989 548.058,-371.109 548.455,-370.248 548.947,-369.408 549.532,-368.592 550.211,-367.801 550.982,-367.039 551.845,-366.306 552.797,-365.605 553.835,-364.939 554.958,-364.308 556.162,-363.715 557.443,-363.161 558.797,-362.647 560.218,-362.176 561.703,-361.748 563.245,-361.364 564.838,-361.027 566.477,-360.735 568.154,-360.491 569.864,-360.295 571.599,-360.148 573.352,-360.049 575.116,-360 576.884,-360 578.648,-360.049"/>
<text text-anchor="middle" x="576" y="-373.8" font-family="Times,serif" font-size="14.00">90</text>
</a>
</g>
<!-- 71&#45;&gt;90 -->
<g id="edge76" class="edge"><title>71&#45;&gt;90</title>
<path fill="none" stroke="black" d="M576,-431.697C576,-423.983 576,-414.712 576,-406.112"/>
<polygon fill="black" stroke="black" points="579.5,-406.104 576,-396.104 572.5,-406.104 579.5,-406.104"/>
</g>
<!-- 92 -->
<g id="node85" class="node"><title>92</title>
<a xlink:title="50">
<polygon fill="lightgrey" stroke="black" stroke-width="2" points="653.648,-360.049 655.401,-360.148 657.136,-360.295 658.846,-360.491 660.523,-360.735 662.162,-361.027 663.755,-361.364 665.297,-361.748 666.782,-362.176 668.203,-362.647 669.557,-363.161 670.838,-363.715 672.042,-364.308 673.165,-364.939 674.203,-365.605 675.155,-366.306 676.018,-367.039 676.789,-367.801 677.468,-368.592 678.053,-369.408 678.545,-370.248 678.942,-371.109 679.247,-371.989 679.46,-372.886 679.581,-373.797 679.614,-374.719 679.56,-375.65 679.422,-376.587 679.202,-377.529 678.903,-378.471 678.529,-379.413 678.084,-380.35 677.57,-381.281 676.992,-382.203 676.353,-383.114 675.658,-384.011 674.909,-384.891 674.112,-385.752 673.27,-386.592 672.386,-387.408 671.464,-388.199 670.508,-388.961 669.522,-389.694 668.507,-390.395 667.469,-391.061 666.408,-391.692 665.328,-392.285 664.232,-392.839 663.121,-393.353 661.998,-393.824 660.865,-394.252 659.722,-394.636 658.573,-394.973 657.417,-395.265 656.256,-395.509 655.092,-395.705 653.925,-395.852 652.756,-395.951 651.585,-396 650.415,-396 649.244,-395.951 648.075,-395.852 646.908,-395.705 645.744,-395.509 644.583,-395.265 643.427,-394.973 642.278,-394.636 641.135,-394.252 640.002,-393.824 638.879,-393.353 637.768,-392.839 636.672,-392.285 635.592,-391.692 634.531,-391.061 633.493,-390.395 632.478,-389.694 631.492,-388.961 630.536,-388.199 629.614,-387.408 628.73,-386.592 627.888,-385.752 627.091,-384.891 626.342,-384.011 625.647,-383.114 625.008,-382.203 624.43,-381.281 623.916,-380.35 623.471,-379.413 623.097,-378.471 622.798,-377.529 622.578,-376.587 622.44,-375.65 622.386,-374.719 622.419,-373.797 622.54,-372.886 622.753,-371.989 623.058,-371.109 623.455,-370.248 623.947,-369.408 624.532,-368.592 625.211,-367.801 625.982,-367.039 626.845,-366.306 627.797,-365.605 628.835,-364.939 629.958,-364.308 631.162,-363.715 632.443,-363.161 633.797,-362.647 635.218,-362.176 636.703,-361.748 638.245,-361.364 639.838,-361.027 641.477,-360.735 643.154,-360.491 644.864,-360.295 646.599,-360.148 648.352,-360.049 650.116,-360 651.884,-360 653.648,-360.049"/>
<text text-anchor="middle" x="651" y="-373.8" font-family="Times,serif" font-size="14.00">92</text>
</a>
</g>
<!-- 71&#45;&gt;92 -->
<g id="edge78" class="edge"><title>71&#45;&gt;92</title>
<path fill="none" stroke="black" d="M591.177,-434.834C602.062,-424.675 616.892,-410.834 629.063,-399.475"/>
<polygon fill="black" stroke="black" points="631.686,-401.814 636.609,-392.432 626.91,-396.696 631.686,-401.814"/>
</g>
<!-- 77&#45;&gt;55 -->
<g id="edge80" class="edge"><title>77&#45;&gt;55</title>
<path fill="none" stroke="black" d="M343,-359.697C343,-351.983 343,-342.712 343,-334.112"/>
<polygon fill="black" stroke="black" points="346.5,-334.104 343,-324.104 339.5,-334.104 346.5,-334.104"/>
</g>
<!-- 116 -->
<g id="node103" class="node"><title>116</title>
<a xlink:title="62">
<ellipse fill="none" stroke="black" cx="279" cy="-162" rx="27" ry="18"/>
<text text-anchor="middle" x="279" y="-157.8" font-family="Times,serif" font-size="14.00">116</text>
</a>
</g>
<!-- 95&#45;&gt;116 -->
<g id="edge100" class="edge"><title>95&#45;&gt;116</title>
<path fill="none" stroke="black" d="M338.025,-218.834C327.493,-208.872 313.218,-195.369 301.345,-184.137"/>
<polygon fill="black" stroke="black" points="303.623,-181.474 293.953,-177.144 298.812,-186.559 303.623,-181.474"/>
</g>
<!-- 105 -->
<g id="node105" class="node"><title>105</title>
<a xlink:title="57">
<polygon fill="lightgrey" stroke="black" stroke-width="2" points="355.648,-144.049 357.401,-144.148 359.136,-144.295 360.846,-144.491 362.523,-144.735 364.162,-145.027 365.755,-145.364 367.297,-145.748 368.782,-146.176 370.203,-146.647 371.557,-147.161 372.838,-147.715 374.042,-148.308 375.165,-148.939 376.203,-149.605 377.155,-150.306 378.018,-151.039 378.789,-151.801 379.468,-152.592 380.053,-153.408 380.545,-154.248 380.942,-155.109 381.247,-155.989 381.46,-156.886 381.581,-157.797 381.614,-158.719 381.56,-159.65 381.422,-160.587 381.202,-161.529 380.903,-162.471 380.529,-163.413 380.084,-164.35 379.57,-165.281 378.992,-166.203 378.353,-167.114 377.658,-168.011 376.909,-168.891 376.112,-169.752 375.27,-170.592 374.386,-171.408 373.464,-172.199 372.508,-172.961 371.522,-173.694 370.507,-174.395 369.469,-175.061 368.408,-175.692 367.328,-176.285 366.232,-176.839 365.121,-177.353 363.998,-177.824 362.865,-178.252 361.722,-178.636 360.573,-178.973 359.417,-179.265 358.256,-179.509 357.092,-179.705 355.925,-179.852 354.756,-179.951 353.585,-180 352.415,-180 351.244,-179.951 350.075,-179.852 348.908,-179.705 347.744,-179.509 346.583,-179.265 345.427,-178.973 344.278,-178.636 343.135,-178.252 342.002,-177.824 340.879,-177.353 339.768,-176.839 338.672,-176.285 337.592,-175.692 336.531,-175.061 335.493,-174.395 334.478,-173.694 333.492,-172.961 332.536,-172.199 331.614,-171.408 330.73,-170.592 329.888,-169.752 329.091,-168.891 328.342,-168.011 327.647,-167.114 327.008,-166.203 326.43,-165.281 325.916,-164.35 325.471,-163.413 325.097,-162.471 324.798,-161.529 324.578,-160.587 324.44,-159.65 324.386,-158.719 324.419,-157.797 324.54,-156.886 324.753,-155.989 325.058,-155.109 325.455,-154.248 325.947,-153.408 326.532,-152.592 327.211,-151.801 327.982,-151.039 328.845,-150.306 329.797,-149.605 330.835,-148.939 331.958,-148.308 333.162,-147.715 334.443,-147.161 335.797,-146.647 337.218,-146.176 338.703,-145.748 340.245,-145.364 341.838,-145.027 343.477,-144.735 345.154,-144.491 346.864,-144.295 348.599,-144.148 350.352,-144.049 352.116,-144 353.884,-144 355.648,-144.049"/>
<text text-anchor="middle" x="353" y="-157.8" font-family="Times,serif" font-size="14.00">105</text>
</a>
</g>
<!-- 95&#45;&gt;105 -->
<g id="edge102" class="edge"><title>95&#45;&gt;105</title>
<path fill="none" stroke="black" d="M353,-215.697C353,-207.983 353,-198.712 353,-190.112"/>
<polygon fill="black" stroke="black" points="356.5,-190.104 353,-180.104 349.5,-190.104 356.5,-190.104"/>
</g>
<!-- 102 -->
<g id="node107" class="node"><title>102</title>
<a xlink:title="55">
<ellipse fill="none" stroke="black" cx="427" cy="-162" rx="27" ry="18"/>
<text text-anchor="middle" x="427" y="-157.8" font-family="Times,serif" font-size="14.00">102</text>
</a>
</g>
<!-- 98&#45;&gt;102 -->
<g id="edge104" class="edge"><title>98&#45;&gt;102</title>
<path fill="none" stroke="black" d="M427,-215.697C427,-207.983 427,-198.712 427,-190.112"/>
<polygon fill="black" stroke="black" points="430.5,-190.104 427,-180.104 423.5,-190.104 430.5,-190.104"/>
</g>
<!-- 103 -->
<g id="node113" class="node"><title>103</title>
<a xlink:title="56">
<ellipse fill="none" stroke="black" cx="502" cy="-162" rx="27" ry="18"/>
<text text-anchor="middle" x="502" y="-157.8" font-family="Times,serif" font-size="14.00">103</text>
</a>
</g>
<!-- 108&#45;&gt;103 -->
<g id="edge114" class="edge"><title>108&#45;&gt;103</title>
<path fill="none" stroke="black" d="M501.247,-215.697C501.357,-207.983 501.49,-198.712 501.613,-190.112"/>
<polygon fill="black" stroke="black" points="505.112,-190.153 501.756,-180.104 498.113,-190.053 505.112,-190.153"/>
</g>
<!-- 116&#45;&gt;35 -->
<g id="edge120" class="edge"><title>116&#45;&gt;35</title>
<path fill="none" stroke="black" d="M279,-143.697C279,-135.983 279,-126.712 279,-118.112"/>
<polygon fill="black" stroke="black" points="282.5,-118.104 279,-108.104 275.5,-118.104 282.5,-118.104"/>
</g>
<!-- 118 -->
<g id="node110" class="node"><title>118</title>
<a xlink:title="63">
<ellipse fill="none" stroke="black" cx="353" cy="-90" rx="27" ry="18"/>
<text text-anchor="middle" x="353" y="-85.8" font-family="Times,serif" font-size="14.00">118</text>
</a>
</g>
<!-- 102&#45;&gt;118 -->
<g id="edge106" class="edge"><title>102&#45;&gt;118</title>
<path fill="none" stroke="black" d="M412.025,-146.834C401.493,-136.872 387.218,-123.369 375.345,-112.137"/>
<polygon fill="black" stroke="black" points="377.623,-109.474 367.953,-105.144 372.812,-114.559 377.623,-109.474"/>
</g>
<!-- 121 -->
<g id="node112" class="node"><title>121</title>
<a xlink:title="65">
<polygon fill="lightgrey" stroke="black" stroke-width="2" points="429.648,-72.0493 431.401,-72.1479 433.136,-72.2953 434.846,-72.4913 436.523,-72.7353 438.162,-73.0266 439.755,-73.3645 441.297,-73.7479 442.782,-74.1759 444.203,-74.6472 445.557,-75.1606 446.838,-75.7147 448.042,-76.308 449.165,-76.9388 450.203,-77.6054 451.155,-78.3059 452.018,-79.0385 452.789,-79.8012 453.468,-80.5918 454.053,-81.4082 454.545,-82.2481 454.942,-83.1093 455.247,-83.9894 455.46,-84.886 455.581,-85.7965 455.614,-86.7186 455.56,-87.6497 455.422,-88.5873 455.202,-89.5287 454.903,-90.4713 454.529,-91.4127 454.084,-92.3503 453.57,-93.2814 452.992,-94.2035 452.353,-95.114 451.658,-96.0106 450.909,-96.8907 450.112,-97.7519 449.27,-98.5918 448.386,-99.4082 447.464,-100.199 446.508,-100.961 445.522,-101.694 444.507,-102.395 443.469,-103.061 442.408,-103.692 441.328,-104.285 440.232,-104.839 439.121,-105.353 437.998,-105.824 436.865,-106.252 435.722,-106.636 434.573,-106.973 433.417,-107.265 432.256,-107.509 431.092,-107.705 429.925,-107.852 428.756,-107.951 427.585,-108 426.415,-108 425.244,-107.951 424.075,-107.852 422.908,-107.705 421.744,-107.509 420.583,-107.265 419.427,-106.973 418.278,-106.636 417.135,-106.252 416.002,-105.824 414.879,-105.353 413.768,-104.839 412.672,-104.285 411.592,-103.692 410.531,-103.061 409.493,-102.395 408.478,-101.694 407.492,-100.961 406.536,-100.199 405.614,-99.4082 404.73,-98.5918 403.888,-97.7519 403.091,-96.8907 402.342,-96.0106 401.647,-95.114 401.008,-94.2035 400.43,-93.2814 399.916,-92.3503 399.471,-91.4127 399.097,-90.4713 398.798,-89.5287 398.578,-88.5873 398.44,-87.6497 398.386,-86.7186 398.419,-85.7965 398.54,-84.886 398.753,-83.9894 399.058,-83.1093 399.455,-82.2481 399.947,-81.4082 400.532,-80.5918 401.211,-79.8012 401.982,-79.0385 402.845,-78.3059 403.797,-77.6054 404.835,-76.9388 405.958,-76.308 407.162,-75.7147 408.443,-75.1606 409.797,-74.6472 411.218,-74.1759 412.703,-73.7479 414.245,-73.3645 415.838,-73.0266 417.477,-72.7353 419.154,-72.4913 420.864,-72.2953 422.599,-72.1479 424.352,-72.0493 426.116,-72 427.884,-72 429.648,-72.0493"/>
<text text-anchor="middle" x="427" y="-85.8" font-family="Times,serif" font-size="14.00">121</text>
</a>
</g>
<!-- 102&#45;&gt;121 -->
<g id="edge108" class="edge"><title>102&#45;&gt;121</title>
<path fill="none" stroke="black" d="M427,-143.697C427,-135.983 427,-126.712 427,-118.112"/>
<polygon fill="black" stroke="black" points="430.5,-118.104 427,-108.104 423.5,-118.104 430.5,-118.104"/>
</g>
<!-- 100 -->
<g id="node108" class="node"><title>100</title>
<a xlink:title="54">
<polygon fill="lightgrey" stroke="black" stroke-width="2" points="504.648,-72.0493 506.401,-72.1479 508.136,-72.2953 509.846,-72.4913 511.523,-72.7353 513.162,-73.0266 514.755,-73.3645 516.297,-73.7479 517.782,-74.1759 519.203,-74.6472 520.557,-75.1606 521.838,-75.7147 523.042,-76.308 524.165,-76.9388 525.203,-77.6054 526.155,-78.3059 527.018,-79.0385 527.789,-79.8012 528.468,-80.5918 529.053,-81.4082 529.545,-82.2481 529.942,-83.1093 530.247,-83.9894 530.46,-84.886 530.581,-85.7965 530.614,-86.7186 530.56,-87.6497 530.422,-88.5873 530.202,-89.5287 529.903,-90.4713 529.529,-91.4127 529.084,-92.3503 528.57,-93.2814 527.992,-94.2035 527.353,-95.114 526.658,-96.0106 525.909,-96.8907 525.112,-97.7519 524.27,-98.5918 523.386,-99.4082 522.464,-100.199 521.508,-100.961 520.522,-101.694 519.507,-102.395 518.469,-103.061 517.408,-103.692 516.328,-104.285 515.232,-104.839 514.121,-105.353 512.998,-105.824 511.865,-106.252 510.722,-106.636 509.573,-106.973 508.417,-107.265 507.256,-107.509 506.092,-107.705 504.925,-107.852 503.756,-107.951 502.585,-108 501.415,-108 500.244,-107.951 499.075,-107.852 497.908,-107.705 496.744,-107.509 495.583,-107.265 494.427,-106.973 493.278,-106.636 492.135,-106.252 491.002,-105.824 489.879,-105.353 488.768,-104.839 487.672,-104.285 486.592,-103.692 485.531,-103.061 484.493,-102.395 483.478,-101.694 482.492,-100.961 481.536,-100.199 480.614,-99.4082 479.73,-98.5918 478.888,-97.7519 478.091,-96.8907 477.342,-96.0106 476.647,-95.114 476.008,-94.2035 475.43,-93.2814 474.916,-92.3503 474.471,-91.4127 474.097,-90.4713 473.798,-89.5287 473.578,-88.5873 473.44,-87.6497 473.386,-86.7186 473.419,-85.7965 473.54,-84.886 473.753,-83.9894 474.058,-83.1093 474.455,-82.2481 474.947,-81.4082 475.532,-80.5918 476.211,-79.8012 476.982,-79.0385 477.845,-78.3059 478.797,-77.6054 479.835,-76.9388 480.958,-76.308 482.162,-75.7147 483.443,-75.1606 484.797,-74.6472 486.218,-74.1759 487.703,-73.7479 489.245,-73.3645 490.838,-73.0266 492.477,-72.7353 494.154,-72.4913 495.864,-72.2953 497.599,-72.1479 499.352,-72.0493 501.116,-72 502.884,-72 504.648,-72.0493"/>
<text text-anchor="middle" x="502" y="-85.8" font-family="Times,serif" font-size="14.00">100</text>
</a>
</g>
<!-- 114 -->
<g id="node121" class="node"><title>114</title>
<a xlink:title="61">
<polygon fill="lightgrey" stroke="black" stroke-width="2" points="355.648,-0.0493367 357.401,-0.147875 359.136,-0.295345 360.846,-0.491342 362.523,-0.735329 364.162,-1.02664 365.755,-1.36447 367.297,-1.7479 368.782,-2.17587 370.203,-2.64722 371.557,-3.16064 372.838,-3.71474 374.042,-4.308 375.165,-4.93879 376.203,-5.60537 377.155,-6.30593 378.018,-7.03854 378.789,-7.80119 379.468,-8.5918 380.053,-9.4082 380.545,-10.2481 380.942,-11.1093 381.247,-11.9894 381.46,-12.886 381.581,-13.7965 381.614,-14.7186 381.56,-15.6497 381.422,-16.5873 381.202,-17.5287 380.903,-18.4713 380.529,-19.4127 380.084,-20.3503 379.57,-21.2814 378.992,-22.2035 378.353,-23.114 377.658,-24.0106 376.909,-24.8907 376.112,-25.7519 375.27,-26.5918 374.386,-27.4082 373.464,-28.1988 372.508,-28.9615 371.522,-29.6941 370.507,-30.3946 369.469,-31.0612 368.408,-31.692 367.328,-32.2853 366.232,-32.8394 365.121,-33.3528 363.998,-33.8241 362.865,-34.2521 361.722,-34.6355 360.573,-34.9734 359.417,-35.2647 358.256,-35.5087 357.092,-35.7047 355.925,-35.8521 354.756,-35.9507 353.585,-36 352.415,-36 351.244,-35.9507 350.075,-35.8521 348.908,-35.7047 347.744,-35.5087 346.583,-35.2647 345.427,-34.9734 344.278,-34.6355 343.135,-34.2521 342.002,-33.8241 340.879,-33.3528 339.768,-32.8394 338.672,-32.2853 337.592,-31.692 336.531,-31.0612 335.493,-30.3946 334.478,-29.6941 333.492,-28.9615 332.536,-28.1988 331.614,-27.4082 330.73,-26.5918 329.888,-25.7519 329.091,-24.8907 328.342,-24.0106 327.647,-23.114 327.008,-22.2035 326.43,-21.2814 325.916,-20.3503 325.471,-19.4127 325.097,-18.4713 324.798,-17.5287 324.578,-16.5873 324.44,-15.6497 324.386,-14.7186 324.419,-13.7965 324.54,-12.886 324.753,-11.9894 325.058,-11.1093 325.455,-10.2481 325.947,-9.4082 326.532,-8.5918 327.211,-7.80119 327.982,-7.03854 328.845,-6.30593 329.797,-5.60537 330.835,-4.93879 331.958,-4.308 333.162,-3.71474 334.443,-3.16064 335.797,-2.64722 337.218,-2.17587 338.703,-1.7479 340.245,-1.36447 341.838,-1.02664 343.477,-0.735329 345.154,-0.491342 346.864,-0.295345 348.599,-0.147875 350.352,-0.0493367 352.116,-1.81188e-13 353.884,-1.84741e-13 355.648,-0.0493367"/>
<text text-anchor="middle" x="353" y="-13.8" font-family="Times,serif" font-size="14.00">114</text>
</a>
</g>
<!-- 118&#45;&gt;114 -->
<g id="edge122" class="edge"><title>118&#45;&gt;114</title>
<path fill="none" stroke="black" d="M353,-71.6966C353,-63.9827 353,-54.7125 353,-46.1124"/>
<polygon fill="black" stroke="black" points="356.5,-46.1043 353,-36.1043 349.5,-46.1044 356.5,-46.1043"/>
</g>
<!-- 103&#45;&gt;100 -->
<g id="edge110" class="edge"><title>103&#45;&gt;100</title>
<path fill="none" stroke="black" d="M502,-143.697C502,-135.983 502,-126.712 502,-118.112"/>
<polygon fill="black" stroke="black" points="505.5,-118.104 502,-108.104 498.5,-118.104 505.5,-118.104"/>
</g>
<!-- 110 -->
<g id="node116" class="node"><title>110</title>
<a xlink:title="59">
<ellipse fill="none" stroke="black" cx="576" cy="-90" rx="27" ry="18"/>
<text text-anchor="middle" x="576" y="-85.8" font-family="Times,serif" font-size="14.00">110</text>
</a>
</g>
<!-- 103&#45;&gt;110 -->
<g id="edge112" class="edge"><title>103&#45;&gt;110</title>
<path fill="none" stroke="black" d="M516.975,-146.834C527.507,-136.872 541.782,-123.369 553.655,-112.137"/>
<polygon fill="black" stroke="black" points="556.188,-114.559 561.047,-105.144 551.377,-109.474 556.188,-114.559"/>
</g>
<!-- 119 -->
<g id="node119" class="node"><title>119</title>
<a xlink:title="64">
<polygon fill="lightgrey" stroke="black" stroke-width="2" points="578.648,-0.0493367 580.401,-0.147875 582.136,-0.295345 583.846,-0.491342 585.523,-0.735329 587.162,-1.02664 588.755,-1.36447 590.297,-1.7479 591.782,-2.17587 593.203,-2.64722 594.557,-3.16064 595.838,-3.71474 597.042,-4.308 598.165,-4.93879 599.203,-5.60537 600.155,-6.30593 601.018,-7.03854 601.789,-7.80119 602.468,-8.5918 603.053,-9.4082 603.545,-10.2481 603.942,-11.1093 604.247,-11.9894 604.46,-12.886 604.581,-13.7965 604.614,-14.7186 604.56,-15.6497 604.422,-16.5873 604.202,-17.5287 603.903,-18.4713 603.529,-19.4127 603.084,-20.3503 602.57,-21.2814 601.992,-22.2035 601.353,-23.114 600.658,-24.0106 599.909,-24.8907 599.112,-25.7519 598.27,-26.5918 597.386,-27.4082 596.464,-28.1988 595.508,-28.9615 594.522,-29.6941 593.507,-30.3946 592.469,-31.0612 591.408,-31.692 590.328,-32.2853 589.232,-32.8394 588.121,-33.3528 586.998,-33.8241 585.865,-34.2521 584.722,-34.6355 583.573,-34.9734 582.417,-35.2647 581.256,-35.5087 580.092,-35.7047 578.925,-35.8521 577.756,-35.9507 576.585,-36 575.415,-36 574.244,-35.9507 573.075,-35.8521 571.908,-35.7047 570.744,-35.5087 569.583,-35.2647 568.427,-34.9734 567.278,-34.6355 566.135,-34.2521 565.002,-33.8241 563.879,-33.3528 562.768,-32.8394 561.672,-32.2853 560.592,-31.692 559.531,-31.0612 558.493,-30.3946 557.478,-29.6941 556.492,-28.9615 555.536,-28.1988 554.614,-27.4082 553.73,-26.5918 552.888,-25.7519 552.091,-24.8907 551.342,-24.0106 550.647,-23.114 550.008,-22.2035 549.43,-21.2814 548.916,-20.3503 548.471,-19.4127 548.097,-18.4713 547.798,-17.5287 547.578,-16.5873 547.44,-15.6497 547.386,-14.7186 547.419,-13.7965 547.54,-12.886 547.753,-11.9894 548.058,-11.1093 548.455,-10.2481 548.947,-9.4082 549.532,-8.5918 550.211,-7.80119 550.982,-7.03854 551.845,-6.30593 552.797,-5.60537 553.835,-4.93879 554.958,-4.308 556.162,-3.71474 557.443,-3.16064 558.797,-2.64722 560.218,-2.17587 561.703,-1.7479 563.245,-1.36447 564.838,-1.02664 566.477,-0.735329 568.154,-0.491342 569.864,-0.295345 571.599,-0.147875 573.352,-0.0493367 575.116,-1.81188e-13 576.884,-1.84741e-13 578.648,-0.0493367"/>
<text text-anchor="middle" x="576" y="-13.8" font-family="Times,serif" font-size="14.00">119</text>
</a>
</g>
<!-- 110&#45;&gt;119 -->
<g id="edge116" class="edge"><title>110&#45;&gt;119</title>
<path fill="none" stroke="black" d="M576,-71.6966C576,-63.9827 576,-54.7125 576,-46.1124"/>
<polygon fill="black" stroke="black" points="579.5,-46.1043 576,-36.1043 572.5,-46.1044 579.5,-46.1043"/>
</g>
</g>
</svg>
