<?xml version="1.0" encoding="UTF-8" standalone="yes"?>
<!DOCTYPE svg PUBLIC "-//W3C//DTD SVG 1.1//EN"
 "http://www.w3.org/Graphics/SVG/1.1/DTD/svg11.dtd">
<!-- Generated by graphviz version 2.28.0 (20110507.0327)
 -->
<!-- Title: The Haunted House (2007 reissue) &#45;&#45; ISBN 9781933390512 &#45;&#45; github.com/morbus/gamebook&#45;choicemaps &#45;&#45; v20180908 Pages: 1 -->
<svg width="1062pt" height="1109pt"
 viewBox="0.00 0.00 1062.00 1108.80" xmlns="http://www.w3.org/2000/svg" xmlns:xlink="http://www.w3.org/1999/xlink">
<g id="graph1" class="graph" transform="scale(1 1) rotate(0) translate(4 1104.8)">
<title>The Haunted House (2007 reissue) &#45;&#45; ISBN 9781933390512 &#45;&#45; github.com/morbus/gamebook&#45;choicemaps &#45;&#45; v20180908</title>
<polygon fill="white" stroke="white" points="-4,5 -4,-1104.8 1059,-1104.8 1059,5 -4,5"/>
<text text-anchor="middle" x="527" y="-1084.2" font-family="Times,serif" font-size="14.00">The Haunted House (2007 reissue) &#45;&#45; ISBN 9781933390512 &#45;&#45; github.com/morbus/gamebook&#45;choicemaps &#45;&#45; v20180908</text>
<!-- Start -->
<g id="node1" class="node"><title>Start</title>
<a xlink:title="4">
<ellipse fill="lightgrey" stroke="black" stroke-width="2" cx="257" cy="-1042" rx="28.9563" ry="29.0759"/>
<ellipse fill="none" stroke="black" stroke-width="2" cx="257" cy="-1042" rx="32.9129" ry="33.0488"/>
<text text-anchor="middle" x="257" y="-1037.8" font-family="Times,serif" font-size="14.00">Start</text>
</a>
</g>
<!-- 1 -->
<g id="node3" class="node"><title>1</title>
<a xlink:title="5">
<ellipse fill="none" stroke="black" cx="257" cy="-954" rx="27" ry="18"/>
<text text-anchor="middle" x="257" y="-949.8" font-family="Times,serif" font-size="14.00">1</text>
</a>
</g>
<!-- Start&#45;&gt;1 -->
<g id="edge2" class="edge"><title>Start&#45;&gt;1</title>
<path fill="none" stroke="black" d="M257,-1008.49C257,-999.888 257,-990.693 257,-982.395"/>
<polygon fill="black" stroke="black" points="260.5,-982.129 257,-972.129 253.5,-982.129 260.5,-982.129"/>
</g>
<!-- 2 -->
<g id="node5" class="node"><title>2</title>
<a xlink:title="6">
<ellipse fill="none" stroke="black" cx="257" cy="-882" rx="27" ry="18"/>
<text text-anchor="middle" x="257" y="-877.8" font-family="Times,serif" font-size="14.00">2</text>
</a>
</g>
<!-- 1&#45;&gt;2 -->
<g id="edge4" class="edge"><title>1&#45;&gt;2</title>
<path fill="none" stroke="black" d="M257,-935.697C257,-927.983 257,-918.712 257,-910.112"/>
<polygon fill="black" stroke="black" points="260.5,-910.104 257,-900.104 253.5,-910.104 260.5,-910.104"/>
</g>
<!-- 3 -->
<g id="node7" class="node"><title>3</title>
<a xlink:title="7">
<ellipse fill="none" stroke="black" cx="257" cy="-810" rx="27" ry="18"/>
<text text-anchor="middle" x="257" y="-805.8" font-family="Times,serif" font-size="14.00">3</text>
</a>
</g>
<!-- 2&#45;&gt;3 -->
<g id="edge6" class="edge"><title>2&#45;&gt;3</title>
<path fill="none" stroke="black" d="M257,-863.697C257,-855.983 257,-846.712 257,-838.112"/>
<polygon fill="black" stroke="black" points="260.5,-838.104 257,-828.104 253.5,-838.104 260.5,-838.104"/>
</g>
<!-- 4 -->
<g id="node9" class="node"><title>4</title>
<a xlink:title="8">
<ellipse fill="none" stroke="black" cx="257" cy="-738" rx="27" ry="18"/>
<text text-anchor="middle" x="257" y="-733.8" font-family="Times,serif" font-size="14.00">4</text>
</a>
</g>
<!-- 3&#45;&gt;4 -->
<g id="edge8" class="edge"><title>3&#45;&gt;4</title>
<path fill="none" stroke="black" d="M257,-791.697C257,-783.983 257,-774.712 257,-766.112"/>
<polygon fill="black" stroke="black" points="260.5,-766.104 257,-756.104 253.5,-766.104 260.5,-766.104"/>
</g>
<!-- 7 -->
<g id="node11" class="node"><title>7</title>
<a xlink:title="10">
<ellipse fill="none" stroke="black" cx="175" cy="-666" rx="27" ry="18"/>
<text text-anchor="middle" x="175" y="-661.8" font-family="Times,serif" font-size="14.00">7</text>
</a>
</g>
<!-- 4&#45;&gt;7 -->
<g id="edge10" class="edge"><title>4&#45;&gt;7</title>
<path fill="none" stroke="black" d="M240.799,-723.17C228.817,-712.942 212.309,-698.849 198.825,-687.338"/>
<polygon fill="black" stroke="black" points="200.766,-684.394 190.888,-680.563 196.221,-689.717 200.766,-684.394"/>
</g>
<!-- 11 -->
<g id="node13" class="node"><title>11</title>
<a xlink:title="14">
<ellipse fill="none" stroke="black" cx="340" cy="-666" rx="27" ry="18"/>
<text text-anchor="middle" x="340" y="-661.8" font-family="Times,serif" font-size="14.00">11</text>
</a>
</g>
<!-- 4&#45;&gt;11 -->
<g id="edge12" class="edge"><title>4&#45;&gt;11</title>
<path fill="none" stroke="black" d="M273.398,-723.17C285.641,-712.845 302.552,-698.582 316.27,-687.013"/>
<polygon fill="black" stroke="black" points="318.53,-689.685 323.918,-680.563 314.018,-684.334 318.53,-689.685"/>
</g>
<!-- 15 -->
<g id="node20" class="node"><title>15</title>
<a xlink:title="17">
<ellipse fill="none" stroke="black" cx="102" cy="-594" rx="27" ry="18"/>
<text text-anchor="middle" x="102" y="-589.8" font-family="Times,serif" font-size="14.00">15</text>
</a>
</g>
<!-- 7&#45;&gt;15 -->
<g id="edge18" class="edge"><title>7&#45;&gt;15</title>
<path fill="none" stroke="black" d="M160.227,-650.834C149.838,-640.872 135.756,-627.369 124.043,-616.137"/>
<polygon fill="black" stroke="black" points="126.391,-613.539 116.751,-609.144 121.546,-618.592 126.391,-613.539"/>
</g>
<!-- 17 -->
<g id="node22" class="node"><title>17</title>
<a xlink:title="19">
<ellipse fill="none" stroke="black" cx="175" cy="-594" rx="27" ry="18"/>
<text text-anchor="middle" x="175" y="-589.8" font-family="Times,serif" font-size="14.00">17</text>
</a>
</g>
<!-- 7&#45;&gt;17 -->
<g id="edge20" class="edge"><title>7&#45;&gt;17</title>
<path fill="none" stroke="black" d="M175,-647.697C175,-639.983 175,-630.712 175,-622.112"/>
<polygon fill="black" stroke="black" points="178.5,-622.104 175,-612.104 171.5,-622.104 178.5,-622.104"/>
</g>
<!-- 12 -->
<g id="node34" class="node"><title>12</title>
<a xlink:title="15">
<ellipse fill="none" stroke="black" cx="433" cy="-594" rx="27" ry="18"/>
<text text-anchor="middle" x="433" y="-589.8" font-family="Times,serif" font-size="14.00">12</text>
</a>
</g>
<!-- 11&#45;&gt;12 -->
<g id="edge30" class="edge"><title>11&#45;&gt;12</title>
<path fill="none" stroke="black" d="M357.493,-651.834C371.522,-641.274 391.416,-626.3 407.262,-614.373"/>
<polygon fill="black" stroke="black" points="409.701,-616.918 415.586,-608.107 405.491,-611.325 409.701,-616.918"/>
</g>
<!-- 6 -->
<g id="node14" class="node"><title>6</title>
<a xlink:title="9">
<ellipse fill="none" stroke="black" cx="653" cy="-450" rx="27" ry="18"/>
<text text-anchor="middle" x="653" y="-445.8" font-family="Times,serif" font-size="14.00">6</text>
</a>
</g>
<!-- 23 -->
<g id="node16" class="node"><title>23</title>
<a xlink:title="24">
<ellipse fill="none" stroke="black" cx="617" cy="-378" rx="27" ry="18"/>
<text text-anchor="middle" x="617" y="-373.8" font-family="Times,serif" font-size="14.00">23</text>
</a>
</g>
<!-- 6&#45;&gt;23 -->
<g id="edge14" class="edge"><title>6&#45;&gt;23</title>
<path fill="none" stroke="black" d="M644.65,-432.765C640.288,-424.283 634.853,-413.714 629.959,-404.197"/>
<polygon fill="black" stroke="black" points="632.99,-402.439 625.304,-395.147 626.765,-405.641 632.99,-402.439"/>
</g>
<!-- 37 -->
<g id="node18" class="node"><title>37</title>
<a xlink:title="36">
<ellipse fill="none" stroke="black" cx="690" cy="-378" rx="27" ry="18"/>
<text text-anchor="middle" x="690" y="-373.8" font-family="Times,serif" font-size="14.00">37</text>
</a>
</g>
<!-- 6&#45;&gt;37 -->
<g id="edge16" class="edge"><title>6&#45;&gt;37</title>
<path fill="none" stroke="black" d="M661.582,-432.765C666.065,-424.283 671.651,-413.714 676.681,-404.197"/>
<polygon fill="black" stroke="black" points="679.886,-405.624 681.465,-395.147 673.698,-402.353 679.886,-405.624"/>
</g>
<!-- 43 -->
<g id="node65" class="node"><title>43</title>
<a xlink:title="42">
<ellipse fill="none" stroke="black" cx="543" cy="-306" rx="27" ry="18"/>
<text text-anchor="middle" x="543" y="-301.8" font-family="Times,serif" font-size="14.00">43</text>
</a>
</g>
<!-- 23&#45;&gt;43 -->
<g id="edge62" class="edge"><title>23&#45;&gt;43</title>
<path fill="none" stroke="black" d="M602.025,-362.834C591.493,-352.872 577.218,-339.369 565.345,-328.137"/>
<polygon fill="black" stroke="black" points="567.623,-325.474 557.953,-321.144 562.812,-330.559 567.623,-325.474"/>
</g>
<!-- 47 -->
<g id="node67" class="node"><title>47</title>
<a xlink:title="45">
<polygon fill="lightgrey" stroke="black" stroke-width="2" points="619.648,-288.049 621.401,-288.148 623.136,-288.295 624.846,-288.491 626.523,-288.735 628.162,-289.027 629.755,-289.364 631.297,-289.748 632.782,-290.176 634.203,-290.647 635.557,-291.161 636.838,-291.715 638.042,-292.308 639.165,-292.939 640.203,-293.605 641.155,-294.306 642.018,-295.039 642.789,-295.801 643.468,-296.592 644.053,-297.408 644.545,-298.248 644.942,-299.109 645.247,-299.989 645.46,-300.886 645.581,-301.797 645.614,-302.719 645.56,-303.65 645.422,-304.587 645.202,-305.529 644.903,-306.471 644.529,-307.413 644.084,-308.35 643.57,-309.281 642.992,-310.203 642.353,-311.114 641.658,-312.011 640.909,-312.891 640.112,-313.752 639.27,-314.592 638.386,-315.408 637.464,-316.199 636.508,-316.961 635.522,-317.694 634.507,-318.395 633.469,-319.061 632.408,-319.692 631.328,-320.285 630.232,-320.839 629.121,-321.353 627.998,-321.824 626.865,-322.252 625.722,-322.636 624.573,-322.973 623.417,-323.265 622.256,-323.509 621.092,-323.705 619.925,-323.852 618.756,-323.951 617.585,-324 616.415,-324 615.244,-323.951 614.075,-323.852 612.908,-323.705 611.744,-323.509 610.583,-323.265 609.427,-322.973 608.278,-322.636 607.135,-322.252 606.002,-321.824 604.879,-321.353 603.768,-320.839 602.672,-320.285 601.592,-319.692 600.531,-319.061 599.493,-318.395 598.478,-317.694 597.492,-316.961 596.536,-316.199 595.614,-315.408 594.73,-314.592 593.888,-313.752 593.091,-312.891 592.342,-312.011 591.647,-311.114 591.008,-310.203 590.43,-309.281 589.916,-308.35 589.471,-307.413 589.097,-306.471 588.798,-305.529 588.578,-304.587 588.44,-303.65 588.386,-302.719 588.419,-301.797 588.54,-300.886 588.753,-299.989 589.058,-299.109 589.455,-298.248 589.947,-297.408 590.532,-296.592 591.211,-295.801 591.982,-295.039 592.845,-294.306 593.797,-293.605 594.835,-292.939 595.958,-292.308 597.162,-291.715 598.443,-291.161 599.797,-290.647 601.218,-290.176 602.703,-289.748 604.245,-289.364 605.838,-289.027 607.477,-288.735 609.154,-288.491 610.864,-288.295 612.599,-288.148 614.352,-288.049 616.116,-288 617.884,-288 619.648,-288.049"/>
<text text-anchor="middle" x="617" y="-301.8" font-family="Times,serif" font-size="14.00">47</text>
</a>
</g>
<!-- 23&#45;&gt;47 -->
<g id="edge64" class="edge"><title>23&#45;&gt;47</title>
<path fill="none" stroke="black" d="M617,-359.697C617,-351.983 617,-342.712 617,-334.112"/>
<polygon fill="black" stroke="black" points="620.5,-334.104 617,-324.104 613.5,-334.104 620.5,-334.104"/>
</g>
<!-- 38 -->
<g id="node91" class="node"><title>38</title>
<a xlink:title="37">
<ellipse fill="none" stroke="black" cx="691" cy="-306" rx="27" ry="18"/>
<text text-anchor="middle" x="691" y="-301.8" font-family="Times,serif" font-size="14.00">38</text>
</a>
</g>
<!-- 37&#45;&gt;38 -->
<g id="edge86" class="edge"><title>37&#45;&gt;38</title>
<path fill="none" stroke="black" d="M690.247,-359.697C690.357,-351.983 690.49,-342.712 690.613,-334.112"/>
<polygon fill="black" stroke="black" points="694.112,-334.153 690.756,-324.104 687.113,-334.053 694.112,-334.153"/>
</g>
<!-- 26 -->
<g id="node42" class="node"><title>26</title>
<a xlink:title="27">
<ellipse fill="none" stroke="black" cx="30" cy="-522" rx="27" ry="18"/>
<text text-anchor="middle" x="30" y="-517.8" font-family="Times,serif" font-size="14.00">26</text>
</a>
</g>
<!-- 15&#45;&gt;26 -->
<g id="edge40" class="edge"><title>15&#45;&gt;26</title>
<path fill="none" stroke="black" d="M87.4297,-578.834C77.2501,-568.938 63.4761,-555.546 51.9694,-544.359"/>
<polygon fill="black" stroke="black" points="54.4055,-541.846 44.7957,-537.385 49.5259,-546.865 54.4055,-541.846"/>
</g>
<!-- 28 -->
<g id="node44" class="node"><title>28</title>
<a xlink:title="29">
<ellipse fill="none" stroke="black" cx="102" cy="-522" rx="27" ry="18"/>
<text text-anchor="middle" x="102" y="-517.8" font-family="Times,serif" font-size="14.00">28</text>
</a>
</g>
<!-- 15&#45;&gt;28 -->
<g id="edge42" class="edge"><title>15&#45;&gt;28</title>
<path fill="none" stroke="black" d="M102,-575.697C102,-567.983 102,-558.712 102,-550.112"/>
<polygon fill="black" stroke="black" points="105.5,-550.104 102,-540.104 98.5001,-550.104 105.5,-550.104"/>
</g>
<!-- 31 -->
<g id="node48" class="node"><title>31</title>
<a xlink:title="31">
<ellipse fill="none" stroke="black" cx="175" cy="-522" rx="27" ry="18"/>
<text text-anchor="middle" x="175" y="-517.8" font-family="Times,serif" font-size="14.00">31</text>
</a>
</g>
<!-- 17&#45;&gt;31 -->
<g id="edge46" class="edge"><title>17&#45;&gt;31</title>
<path fill="none" stroke="black" d="M175,-575.697C175,-567.983 175,-558.712 175,-550.112"/>
<polygon fill="black" stroke="black" points="178.5,-550.104 175,-540.104 171.5,-550.104 178.5,-550.104"/>
</g>
<!-- 45 -->
<g id="node50" class="node"><title>45</title>
<a xlink:title="44">
<ellipse fill="none" stroke="black" cx="248" cy="-522" rx="27" ry="18"/>
<text text-anchor="middle" x="248" y="-517.8" font-family="Times,serif" font-size="14.00">45</text>
</a>
</g>
<!-- 17&#45;&gt;45 -->
<g id="edge48" class="edge"><title>17&#45;&gt;45</title>
<path fill="none" stroke="black" d="M189.773,-578.834C200.162,-568.872 214.244,-555.369 225.957,-544.137"/>
<polygon fill="black" stroke="black" points="228.454,-546.592 233.249,-537.144 223.609,-541.539 228.454,-546.592"/>
</g>
<!-- 8 -->
<g id="node23" class="node"><title>8</title>
<a xlink:title="11">
<ellipse fill="none" stroke="black" cx="433" cy="-522" rx="27" ry="18"/>
<text text-anchor="middle" x="433" y="-517.8" font-family="Times,serif" font-size="14.00">8</text>
</a>
</g>
<!-- 20 -->
<g id="node25" class="node"><title>20</title>
<a xlink:title="21">
<ellipse fill="none" stroke="black" cx="397" cy="-450" rx="27" ry="18"/>
<text text-anchor="middle" x="397" y="-445.8" font-family="Times,serif" font-size="14.00">20</text>
</a>
</g>
<!-- 8&#45;&gt;20 -->
<g id="edge22" class="edge"><title>8&#45;&gt;20</title>
<path fill="none" stroke="black" d="M424.65,-504.765C420.288,-496.283 414.853,-485.714 409.959,-476.197"/>
<polygon fill="black" stroke="black" points="412.99,-474.439 405.304,-467.147 406.765,-477.641 412.99,-474.439"/>
</g>
<!-- 21 -->
<g id="node27" class="node"><title>21</title>
<a xlink:title="22">
<ellipse fill="none" stroke="black" cx="469" cy="-450" rx="27" ry="18"/>
<text text-anchor="middle" x="469" y="-445.8" font-family="Times,serif" font-size="14.00">21</text>
</a>
</g>
<!-- 8&#45;&gt;21 -->
<g id="edge24" class="edge"><title>8&#45;&gt;21</title>
<path fill="none" stroke="black" d="M441.35,-504.765C445.712,-496.283 451.147,-485.714 456.041,-476.197"/>
<polygon fill="black" stroke="black" points="459.235,-477.641 460.696,-467.147 453.01,-474.439 459.235,-477.641"/>
</g>
<!-- 33 -->
<g id="node57" class="node"><title>33</title>
<a xlink:title="32">
<ellipse fill="none" stroke="black" cx="322" cy="-378" rx="27" ry="18"/>
<text text-anchor="middle" x="322" y="-373.8" font-family="Times,serif" font-size="14.00">33</text>
</a>
</g>
<!-- 20&#45;&gt;33 -->
<g id="edge54" class="edge"><title>20&#45;&gt;33</title>
<path fill="none" stroke="black" d="M381.823,-434.834C371.149,-424.872 356.681,-411.369 344.647,-400.137"/>
<polygon fill="black" stroke="black" points="346.854,-397.409 337.155,-393.144 342.077,-402.526 346.854,-397.409"/>
</g>
<!-- 71 -->
<g id="node59" class="node"><title>71</title>
<a xlink:title="66">
<polygon fill="lightgrey" stroke="black" stroke-width="2" points="398.648,-360.049 400.401,-360.148 402.136,-360.295 403.846,-360.491 405.523,-360.735 407.162,-361.027 408.755,-361.364 410.297,-361.748 411.782,-362.176 413.203,-362.647 414.557,-363.161 415.838,-363.715 417.042,-364.308 418.165,-364.939 419.203,-365.605 420.155,-366.306 421.018,-367.039 421.789,-367.801 422.468,-368.592 423.053,-369.408 423.545,-370.248 423.942,-371.109 424.247,-371.989 424.46,-372.886 424.581,-373.797 424.614,-374.719 424.56,-375.65 424.422,-376.587 424.202,-377.529 423.903,-378.471 423.529,-379.413 423.084,-380.35 422.57,-381.281 421.992,-382.203 421.353,-383.114 420.658,-384.011 419.909,-384.891 419.112,-385.752 418.27,-386.592 417.386,-387.408 416.464,-388.199 415.508,-388.961 414.522,-389.694 413.507,-390.395 412.469,-391.061 411.408,-391.692 410.328,-392.285 409.232,-392.839 408.121,-393.353 406.998,-393.824 405.865,-394.252 404.722,-394.636 403.573,-394.973 402.417,-395.265 401.256,-395.509 400.092,-395.705 398.925,-395.852 397.756,-395.951 396.585,-396 395.415,-396 394.244,-395.951 393.075,-395.852 391.908,-395.705 390.744,-395.509 389.583,-395.265 388.427,-394.973 387.278,-394.636 386.135,-394.252 385.002,-393.824 383.879,-393.353 382.768,-392.839 381.672,-392.285 380.592,-391.692 379.531,-391.061 378.493,-390.395 377.478,-389.694 376.492,-388.961 375.536,-388.199 374.614,-387.408 373.73,-386.592 372.888,-385.752 372.091,-384.891 371.342,-384.011 370.647,-383.114 370.008,-382.203 369.43,-381.281 368.916,-380.35 368.471,-379.413 368.097,-378.471 367.798,-377.529 367.578,-376.587 367.44,-375.65 367.386,-374.719 367.419,-373.797 367.54,-372.886 367.753,-371.989 368.058,-371.109 368.455,-370.248 368.947,-369.408 369.532,-368.592 370.211,-367.801 370.982,-367.039 371.845,-366.306 372.797,-365.605 373.835,-364.939 374.958,-364.308 376.162,-363.715 377.443,-363.161 378.797,-362.647 380.218,-362.176 381.703,-361.748 383.245,-361.364 384.838,-361.027 386.477,-360.735 388.154,-360.491 389.864,-360.295 391.599,-360.148 393.352,-360.049 395.116,-360 396.884,-360 398.648,-360.049"/>
<text text-anchor="middle" x="396" y="-373.8" font-family="Times,serif" font-size="14.00">71</text>
</a>
</g>
<!-- 20&#45;&gt;71 -->
<g id="edge56" class="edge"><title>20&#45;&gt;71</title>
<path fill="none" stroke="black" d="M396.753,-431.697C396.643,-423.983 396.51,-414.712 396.387,-406.112"/>
<polygon fill="black" stroke="black" points="399.887,-406.053 396.244,-396.104 392.888,-406.153 399.887,-406.053"/>
</g>
<!-- 22 -->
<g id="node61" class="node"><title>22</title>
<a xlink:title="23">
<ellipse fill="none" stroke="black" cx="470" cy="-378" rx="27" ry="18"/>
<text text-anchor="middle" x="470" y="-373.8" font-family="Times,serif" font-size="14.00">22</text>
</a>
</g>
<!-- 21&#45;&gt;22 -->
<g id="edge58" class="edge"><title>21&#45;&gt;22</title>
<path fill="none" stroke="black" d="M469.247,-431.697C469.357,-423.983 469.49,-414.712 469.613,-406.112"/>
<polygon fill="black" stroke="black" points="473.112,-406.153 469.756,-396.104 466.113,-406.053 473.112,-406.153"/>
</g>
<!-- 9 -->
<g id="node28" class="node"><title>9</title>
<a xlink:title="12">
<ellipse fill="none" stroke="black" cx="654" cy="-234" rx="27" ry="18"/>
<text text-anchor="middle" x="654" y="-229.8" font-family="Times,serif" font-size="14.00">9</text>
</a>
</g>
<!-- 10 -->
<g id="node30" class="node"><title>10</title>
<a xlink:title="13">
<ellipse fill="none" stroke="black" cx="654" cy="-162" rx="27" ry="18"/>
<text text-anchor="middle" x="654" y="-157.8" font-family="Times,serif" font-size="14.00">10</text>
</a>
</g>
<!-- 9&#45;&gt;10 -->
<g id="edge26" class="edge"><title>9&#45;&gt;10</title>
<path fill="none" stroke="black" d="M654,-215.697C654,-207.983 654,-198.712 654,-190.112"/>
<polygon fill="black" stroke="black" points="657.5,-190.104 654,-180.104 650.5,-190.104 657.5,-190.104"/>
</g>
<!-- 64 -->
<g id="node32" class="node"><title>64</title>
<a xlink:title="60">
<ellipse fill="none" stroke="black" cx="654" cy="-90" rx="27" ry="18"/>
<text text-anchor="middle" x="654" y="-85.8" font-family="Times,serif" font-size="14.00">64</text>
</a>
</g>
<!-- 10&#45;&gt;64 -->
<g id="edge28" class="edge"><title>10&#45;&gt;64</title>
<path fill="none" stroke="black" d="M654,-143.697C654,-135.983 654,-126.712 654,-118.112"/>
<polygon fill="black" stroke="black" points="657.5,-118.104 654,-108.104 650.5,-118.104 657.5,-118.104"/>
</g>
<!-- 65 -->
<g id="node123" class="node"><title>65</title>
<a xlink:title="61">
<polygon fill="lightgrey" stroke="black" stroke-width="2" points="656.648,-0.0493367 658.401,-0.147875 660.136,-0.295345 661.846,-0.491342 663.523,-0.735329 665.162,-1.02664 666.755,-1.36447 668.297,-1.7479 669.782,-2.17587 671.203,-2.64722 672.557,-3.16064 673.838,-3.71474 675.042,-4.308 676.165,-4.93879 677.203,-5.60537 678.155,-6.30593 679.018,-7.03854 679.789,-7.80119 680.468,-8.5918 681.053,-9.4082 681.545,-10.2481 681.942,-11.1093 682.247,-11.9894 682.46,-12.886 682.581,-13.7965 682.614,-14.7186 682.56,-15.6497 682.422,-16.5873 682.202,-17.5287 681.903,-18.4713 681.529,-19.4127 681.084,-20.3503 680.57,-21.2814 679.992,-22.2035 679.353,-23.114 678.658,-24.0106 677.909,-24.8907 677.112,-25.7519 676.27,-26.5918 675.386,-27.4082 674.464,-28.1988 673.508,-28.9615 672.522,-29.6941 671.507,-30.3946 670.469,-31.0612 669.408,-31.692 668.328,-32.2853 667.232,-32.8394 666.121,-33.3528 664.998,-33.8241 663.865,-34.2521 662.722,-34.6355 661.573,-34.9734 660.417,-35.2647 659.256,-35.5087 658.092,-35.7047 656.925,-35.8521 655.756,-35.9507 654.585,-36 653.415,-36 652.244,-35.9507 651.075,-35.8521 649.908,-35.7047 648.744,-35.5087 647.583,-35.2647 646.427,-34.9734 645.278,-34.6355 644.135,-34.2521 643.002,-33.8241 641.879,-33.3528 640.768,-32.8394 639.672,-32.2853 638.592,-31.692 637.531,-31.0612 636.493,-30.3946 635.478,-29.6941 634.492,-28.9615 633.536,-28.1988 632.614,-27.4082 631.73,-26.5918 630.888,-25.7519 630.091,-24.8907 629.342,-24.0106 628.647,-23.114 628.008,-22.2035 627.43,-21.2814 626.916,-20.3503 626.471,-19.4127 626.097,-18.4713 625.798,-17.5287 625.578,-16.5873 625.44,-15.6497 625.386,-14.7186 625.419,-13.7965 625.54,-12.886 625.753,-11.9894 626.058,-11.1093 626.455,-10.2481 626.947,-9.4082 627.532,-8.5918 628.211,-7.80119 628.982,-7.03854 629.845,-6.30593 630.797,-5.60537 631.835,-4.93879 632.958,-4.308 634.162,-3.71474 635.443,-3.16064 636.797,-2.64722 638.218,-2.17587 639.703,-1.7479 641.245,-1.36447 642.838,-1.02664 644.477,-0.735329 646.154,-0.491342 647.864,-0.295345 649.599,-0.147875 651.352,-0.0493367 653.116,-1.81188e-13 654.884,-1.84741e-13 656.648,-0.0493367"/>
<text text-anchor="middle" x="654" y="-13.8" font-family="Times,serif" font-size="14.00">65</text>
</a>
</g>
<!-- 64&#45;&gt;65 -->
<g id="edge120" class="edge"><title>64&#45;&gt;65</title>
<path fill="none" stroke="black" d="M654,-71.6966C654,-63.9827 654,-54.7125 654,-46.1124"/>
<polygon fill="black" stroke="black" points="657.5,-46.1043 654,-36.1043 650.5,-46.1044 657.5,-46.1043"/>
</g>
<!-- 12&#45;&gt;8 -->
<g id="edge32" class="edge"><title>12&#45;&gt;8</title>
<path fill="none" stroke="black" d="M433,-575.697C433,-567.983 433,-558.712 433,-550.112"/>
<polygon fill="black" stroke="black" points="436.5,-550.104 433,-540.104 429.5,-550.104 436.5,-550.104"/>
</g>
<!-- 14 -->
<g id="node37" class="node"><title>14</title>
<a xlink:title="16">
<ellipse fill="none" stroke="black" cx="653" cy="-522" rx="27" ry="18"/>
<text text-anchor="middle" x="653" y="-517.8" font-family="Times,serif" font-size="14.00">14</text>
</a>
</g>
<!-- 12&#45;&gt;14 -->
<g id="edge34" class="edge"><title>12&#45;&gt;14</title>
<path fill="none" stroke="black" d="M456.963,-585.376C496.306,-572.857 574.689,-547.917 619.506,-533.657"/>
<polygon fill="black" stroke="black" points="620.599,-536.982 629.067,-530.615 618.476,-530.312 620.599,-536.982"/>
</g>
<!-- 14&#45;&gt;6 -->
<g id="edge36" class="edge"><title>14&#45;&gt;6</title>
<path fill="none" stroke="black" d="M653,-503.697C653,-495.983 653,-486.712 653,-478.112"/>
<polygon fill="black" stroke="black" points="656.5,-478.104 653,-468.104 649.5,-478.104 656.5,-478.104"/>
</g>
<!-- 16 -->
<g id="node40" class="node"><title>16</title>
<a xlink:title="18">
<ellipse fill="none" stroke="black" cx="782" cy="-450" rx="27" ry="18"/>
<text text-anchor="middle" x="782" y="-445.8" font-family="Times,serif" font-size="14.00">16</text>
</a>
</g>
<!-- 14&#45;&gt;16 -->
<g id="edge38" class="edge"><title>14&#45;&gt;16</title>
<path fill="none" stroke="black" d="M673.44,-509.908C694.765,-498.337 728.396,-480.087 752.576,-466.966"/>
<polygon fill="black" stroke="black" points="754.535,-469.886 761.655,-462.04 751.197,-463.733 754.535,-469.886"/>
</g>
<!-- 48 -->
<g id="node46" class="node"><title>48</title>
<a xlink:title="46">
<ellipse fill="none" stroke="black" cx="839" cy="-378" rx="27" ry="18"/>
<text text-anchor="middle" x="839" y="-373.8" font-family="Times,serif" font-size="14.00">48</text>
</a>
</g>
<!-- 16&#45;&gt;48 -->
<g id="edge44" class="edge"><title>16&#45;&gt;48</title>
<path fill="none" stroke="black" d="M794.368,-433.811C801.912,-424.546 811.705,-412.52 820.195,-402.094"/>
<polygon fill="black" stroke="black" points="823.056,-404.124 826.656,-394.159 817.628,-399.704 823.056,-404.124"/>
</g>
<!-- 27 -->
<g id="node74" class="node"><title>27</title>
<a xlink:title="28">
<ellipse fill="none" stroke="black" cx="29" cy="-450" rx="27" ry="18"/>
<text text-anchor="middle" x="29" y="-445.8" font-family="Times,serif" font-size="14.00">27</text>
</a>
</g>
<!-- 26&#45;&gt;27 -->
<g id="edge70" class="edge"><title>26&#45;&gt;27</title>
<path fill="none" stroke="black" d="M29.7528,-503.697C29.6426,-495.983 29.5102,-486.712 29.3873,-478.112"/>
<polygon fill="black" stroke="black" points="32.8869,-478.053 29.2443,-468.104 25.8876,-478.153 32.8869,-478.053"/>
</g>
<!-- 59 -->
<g id="node78" class="node"><title>59</title>
<a xlink:title="55">
<ellipse fill="none" stroke="black" cx="102" cy="-450" rx="27" ry="18"/>
<text text-anchor="middle" x="102" y="-445.8" font-family="Times,serif" font-size="14.00">59</text>
</a>
</g>
<!-- 28&#45;&gt;59 -->
<g id="edge74" class="edge"><title>28&#45;&gt;59</title>
<path fill="none" stroke="black" d="M102,-503.697C102,-495.983 102,-486.712 102,-478.112"/>
<polygon fill="black" stroke="black" points="105.5,-478.104 102,-468.104 98.5001,-478.104 105.5,-478.104"/>
</g>
<!-- 18 -->
<g id="node51" class="node"><title>18</title>
<a xlink:title="20">
<ellipse fill="none" stroke="black" cx="803" cy="-306" rx="27" ry="18"/>
<text text-anchor="middle" x="803" y="-301.8" font-family="Times,serif" font-size="14.00">18</text>
</a>
</g>
<!-- 48&#45;&gt;18 -->
<g id="edge102" class="edge"><title>48&#45;&gt;18</title>
<path fill="none" stroke="black" d="M830.65,-360.765C826.288,-352.283 820.853,-341.714 815.959,-332.197"/>
<polygon fill="black" stroke="black" points="818.99,-330.439 811.304,-323.147 812.765,-333.641 818.99,-330.439"/>
</g>
<!-- 39 -->
<g id="node93" class="node"><title>39</title>
<a xlink:title="38">
<ellipse fill="none" stroke="black" cx="876" cy="-306" rx="27" ry="18"/>
<text text-anchor="middle" x="876" y="-301.8" font-family="Times,serif" font-size="14.00">39</text>
</a>
</g>
<!-- 48&#45;&gt;39 -->
<g id="edge104" class="edge"><title>48&#45;&gt;39</title>
<path fill="none" stroke="black" d="M847.582,-360.765C852.065,-352.283 857.651,-341.714 862.681,-332.197"/>
<polygon fill="black" stroke="black" points="865.886,-333.624 867.465,-323.147 859.698,-330.353 865.886,-333.624"/>
</g>
<!-- 70 -->
<g id="node107" class="node"><title>70</title>
<a xlink:title="65">
<ellipse fill="none" stroke="black" cx="951" cy="-306" rx="27" ry="18"/>
<text text-anchor="middle" x="951" y="-301.8" font-family="Times,serif" font-size="14.00">70</text>
</a>
</g>
<!-- 48&#45;&gt;70 -->
<g id="edge106" class="edge"><title>48&#45;&gt;70</title>
<path fill="none" stroke="black" d="M857.999,-365.125C875.94,-353.913 903.051,-336.968 923.38,-324.263"/>
<polygon fill="black" stroke="black" points="925.283,-327.201 931.908,-318.933 921.573,-321.265 925.283,-327.201"/>
</g>
<!-- 61 -->
<g id="node81" class="node"><title>61</title>
<a xlink:title="57">
<ellipse fill="none" stroke="black" cx="174" cy="-450" rx="27" ry="18"/>
<text text-anchor="middle" x="174" y="-445.8" font-family="Times,serif" font-size="14.00">61</text>
</a>
</g>
<!-- 31&#45;&gt;61 -->
<g id="edge76" class="edge"><title>31&#45;&gt;61</title>
<path fill="none" stroke="black" d="M174.753,-503.697C174.643,-495.983 174.51,-486.712 174.387,-478.112"/>
<polygon fill="black" stroke="black" points="177.887,-478.053 174.244,-468.104 170.888,-478.153 177.887,-478.053"/>
</g>
<!-- 24 -->
<g id="node68" class="node"><title>24</title>
<a xlink:title="25">
<polygon fill="lightgrey" stroke="black" stroke-width="2" points="250.648,-432.049 252.401,-432.148 254.136,-432.295 255.846,-432.491 257.523,-432.735 259.162,-433.027 260.755,-433.364 262.297,-433.748 263.782,-434.176 265.203,-434.647 266.557,-435.161 267.838,-435.715 269.042,-436.308 270.165,-436.939 271.203,-437.605 272.155,-438.306 273.018,-439.039 273.789,-439.801 274.468,-440.592 275.053,-441.408 275.545,-442.248 275.942,-443.109 276.247,-443.989 276.46,-444.886 276.581,-445.797 276.614,-446.719 276.56,-447.65 276.422,-448.587 276.202,-449.529 275.903,-450.471 275.529,-451.413 275.084,-452.35 274.57,-453.281 273.992,-454.203 273.353,-455.114 272.658,-456.011 271.909,-456.891 271.112,-457.752 270.27,-458.592 269.386,-459.408 268.464,-460.199 267.508,-460.961 266.522,-461.694 265.507,-462.395 264.469,-463.061 263.408,-463.692 262.328,-464.285 261.232,-464.839 260.121,-465.353 258.998,-465.824 257.865,-466.252 256.722,-466.636 255.573,-466.973 254.417,-467.265 253.256,-467.509 252.092,-467.705 250.925,-467.852 249.756,-467.951 248.585,-468 247.415,-468 246.244,-467.951 245.075,-467.852 243.908,-467.705 242.744,-467.509 241.583,-467.265 240.427,-466.973 239.278,-466.636 238.135,-466.252 237.002,-465.824 235.879,-465.353 234.768,-464.839 233.672,-464.285 232.592,-463.692 231.531,-463.061 230.493,-462.395 229.478,-461.694 228.492,-460.961 227.536,-460.199 226.614,-459.408 225.73,-458.592 224.888,-457.752 224.091,-456.891 223.342,-456.011 222.647,-455.114 222.008,-454.203 221.43,-453.281 220.916,-452.35 220.471,-451.413 220.097,-450.471 219.798,-449.529 219.578,-448.587 219.44,-447.65 219.386,-446.719 219.419,-445.797 219.54,-444.886 219.753,-443.989 220.058,-443.109 220.455,-442.248 220.947,-441.408 221.532,-440.592 222.211,-439.801 222.982,-439.039 223.845,-438.306 224.797,-437.605 225.835,-436.939 226.958,-436.308 228.162,-435.715 229.443,-435.161 230.797,-434.647 232.218,-434.176 233.703,-433.748 235.245,-433.364 236.838,-433.027 238.477,-432.735 240.154,-432.491 241.864,-432.295 243.599,-432.148 245.352,-432.049 247.116,-432 248.884,-432 250.648,-432.049"/>
<text text-anchor="middle" x="248" y="-445.8" font-family="Times,serif" font-size="14.00">24</text>
</a>
</g>
<!-- 45&#45;&gt;24 -->
<g id="edge98" class="edge"><title>45&#45;&gt;24</title>
<path fill="none" stroke="black" d="M248,-503.697C248,-495.983 248,-486.712 248,-478.112"/>
<polygon fill="black" stroke="black" points="251.5,-478.104 248,-468.104 244.5,-478.104 251.5,-478.104"/>
</g>
<!-- 29 -->
<g id="node79" class="node"><title>29</title>
<a xlink:title="30">
<polygon fill="lightgrey" stroke="black" stroke-width="2" points="325.648,-432.049 327.401,-432.148 329.136,-432.295 330.846,-432.491 332.523,-432.735 334.162,-433.027 335.755,-433.364 337.297,-433.748 338.782,-434.176 340.203,-434.647 341.557,-435.161 342.838,-435.715 344.042,-436.308 345.165,-436.939 346.203,-437.605 347.155,-438.306 348.018,-439.039 348.789,-439.801 349.468,-440.592 350.053,-441.408 350.545,-442.248 350.942,-443.109 351.247,-443.989 351.46,-444.886 351.581,-445.797 351.614,-446.719 351.56,-447.65 351.422,-448.587 351.202,-449.529 350.903,-450.471 350.529,-451.413 350.084,-452.35 349.57,-453.281 348.992,-454.203 348.353,-455.114 347.658,-456.011 346.909,-456.891 346.112,-457.752 345.27,-458.592 344.386,-459.408 343.464,-460.199 342.508,-460.961 341.522,-461.694 340.507,-462.395 339.469,-463.061 338.408,-463.692 337.328,-464.285 336.232,-464.839 335.121,-465.353 333.998,-465.824 332.865,-466.252 331.722,-466.636 330.573,-466.973 329.417,-467.265 328.256,-467.509 327.092,-467.705 325.925,-467.852 324.756,-467.951 323.585,-468 322.415,-468 321.244,-467.951 320.075,-467.852 318.908,-467.705 317.744,-467.509 316.583,-467.265 315.427,-466.973 314.278,-466.636 313.135,-466.252 312.002,-465.824 310.879,-465.353 309.768,-464.839 308.672,-464.285 307.592,-463.692 306.531,-463.061 305.493,-462.395 304.478,-461.694 303.492,-460.961 302.536,-460.199 301.614,-459.408 300.73,-458.592 299.888,-457.752 299.091,-456.891 298.342,-456.011 297.647,-455.114 297.008,-454.203 296.43,-453.281 295.916,-452.35 295.471,-451.413 295.097,-450.471 294.798,-449.529 294.578,-448.587 294.44,-447.65 294.386,-446.719 294.419,-445.797 294.54,-444.886 294.753,-443.989 295.058,-443.109 295.455,-442.248 295.947,-441.408 296.532,-440.592 297.211,-439.801 297.982,-439.039 298.845,-438.306 299.797,-437.605 300.835,-436.939 301.958,-436.308 303.162,-435.715 304.443,-435.161 305.797,-434.647 307.218,-434.176 308.703,-433.748 310.245,-433.364 311.838,-433.027 313.477,-432.735 315.154,-432.491 316.864,-432.295 318.599,-432.148 320.352,-432.049 322.116,-432 323.884,-432 325.648,-432.049"/>
<text text-anchor="middle" x="323" y="-445.8" font-family="Times,serif" font-size="14.00">29</text>
</a>
</g>
<!-- 45&#45;&gt;29 -->
<g id="edge100" class="edge"><title>45&#45;&gt;29</title>
<path fill="none" stroke="black" d="M263.177,-506.834C274.062,-496.675 288.892,-482.834 301.063,-471.475"/>
<polygon fill="black" stroke="black" points="303.686,-473.814 308.609,-464.432 298.91,-468.696 303.686,-473.814"/>
</g>
<!-- 50 -->
<g id="node53" class="node"><title>50</title>
<a xlink:title="48">
<polygon fill="lightgrey" stroke="black" stroke-width="2" points="730.648,-216.049 732.401,-216.148 734.136,-216.295 735.846,-216.491 737.523,-216.735 739.162,-217.027 740.755,-217.364 742.297,-217.748 743.782,-218.176 745.203,-218.647 746.557,-219.161 747.838,-219.715 749.042,-220.308 750.165,-220.939 751.203,-221.605 752.155,-222.306 753.018,-223.039 753.789,-223.801 754.468,-224.592 755.053,-225.408 755.545,-226.248 755.942,-227.109 756.247,-227.989 756.46,-228.886 756.581,-229.797 756.614,-230.719 756.56,-231.65 756.422,-232.587 756.202,-233.529 755.903,-234.471 755.529,-235.413 755.084,-236.35 754.57,-237.281 753.992,-238.203 753.353,-239.114 752.658,-240.011 751.909,-240.891 751.112,-241.752 750.27,-242.592 749.386,-243.408 748.464,-244.199 747.508,-244.961 746.522,-245.694 745.507,-246.395 744.469,-247.061 743.408,-247.692 742.328,-248.285 741.232,-248.839 740.121,-249.353 738.998,-249.824 737.865,-250.252 736.722,-250.636 735.573,-250.973 734.417,-251.265 733.256,-251.509 732.092,-251.705 730.925,-251.852 729.756,-251.951 728.585,-252 727.415,-252 726.244,-251.951 725.075,-251.852 723.908,-251.705 722.744,-251.509 721.583,-251.265 720.427,-250.973 719.278,-250.636 718.135,-250.252 717.002,-249.824 715.879,-249.353 714.768,-248.839 713.672,-248.285 712.592,-247.692 711.531,-247.061 710.493,-246.395 709.478,-245.694 708.492,-244.961 707.536,-244.199 706.614,-243.408 705.73,-242.592 704.888,-241.752 704.091,-240.891 703.342,-240.011 702.647,-239.114 702.008,-238.203 701.43,-237.281 700.916,-236.35 700.471,-235.413 700.097,-234.471 699.798,-233.529 699.578,-232.587 699.44,-231.65 699.386,-230.719 699.419,-229.797 699.54,-228.886 699.753,-227.989 700.058,-227.109 700.455,-226.248 700.947,-225.408 701.532,-224.592 702.211,-223.801 702.982,-223.039 703.845,-222.306 704.797,-221.605 705.835,-220.939 706.958,-220.308 708.162,-219.715 709.443,-219.161 710.797,-218.647 712.218,-218.176 713.703,-217.748 715.245,-217.364 716.838,-217.027 718.477,-216.735 720.154,-216.491 721.864,-216.295 723.599,-216.148 725.352,-216.049 727.116,-216 728.884,-216 730.648,-216.049"/>
<text text-anchor="middle" x="728" y="-229.8" font-family="Times,serif" font-size="14.00">50</text>
</a>
</g>
<!-- 18&#45;&gt;50 -->
<g id="edge50" class="edge"><title>18&#45;&gt;50</title>
<path fill="none" stroke="black" d="M787.823,-290.834C776.938,-280.675 762.108,-266.834 749.937,-255.475"/>
<polygon fill="black" stroke="black" points="752.09,-252.696 742.391,-248.432 747.314,-257.814 752.09,-252.696"/>
</g>
<!-- 69 -->
<g id="node55" class="node"><title>69</title>
<a xlink:title="64">
<polygon fill="lightgrey" stroke="black" stroke-width="2" points="805.648,-216.049 807.401,-216.148 809.136,-216.295 810.846,-216.491 812.523,-216.735 814.162,-217.027 815.755,-217.364 817.297,-217.748 818.782,-218.176 820.203,-218.647 821.557,-219.161 822.838,-219.715 824.042,-220.308 825.165,-220.939 826.203,-221.605 827.155,-222.306 828.018,-223.039 828.789,-223.801 829.468,-224.592 830.053,-225.408 830.545,-226.248 830.942,-227.109 831.247,-227.989 831.46,-228.886 831.581,-229.797 831.614,-230.719 831.56,-231.65 831.422,-232.587 831.202,-233.529 830.903,-234.471 830.529,-235.413 830.084,-236.35 829.57,-237.281 828.992,-238.203 828.353,-239.114 827.658,-240.011 826.909,-240.891 826.112,-241.752 825.27,-242.592 824.386,-243.408 823.464,-244.199 822.508,-244.961 821.522,-245.694 820.507,-246.395 819.469,-247.061 818.408,-247.692 817.328,-248.285 816.232,-248.839 815.121,-249.353 813.998,-249.824 812.865,-250.252 811.722,-250.636 810.573,-250.973 809.417,-251.265 808.256,-251.509 807.092,-251.705 805.925,-251.852 804.756,-251.951 803.585,-252 802.415,-252 801.244,-251.951 800.075,-251.852 798.908,-251.705 797.744,-251.509 796.583,-251.265 795.427,-250.973 794.278,-250.636 793.135,-250.252 792.002,-249.824 790.879,-249.353 789.768,-248.839 788.672,-248.285 787.592,-247.692 786.531,-247.061 785.493,-246.395 784.478,-245.694 783.492,-244.961 782.536,-244.199 781.614,-243.408 780.73,-242.592 779.888,-241.752 779.091,-240.891 778.342,-240.011 777.647,-239.114 777.008,-238.203 776.43,-237.281 775.916,-236.35 775.471,-235.413 775.097,-234.471 774.798,-233.529 774.578,-232.587 774.44,-231.65 774.386,-230.719 774.419,-229.797 774.54,-228.886 774.753,-227.989 775.058,-227.109 775.455,-226.248 775.947,-225.408 776.532,-224.592 777.211,-223.801 777.982,-223.039 778.845,-222.306 779.797,-221.605 780.835,-220.939 781.958,-220.308 783.162,-219.715 784.443,-219.161 785.797,-218.647 787.218,-218.176 788.703,-217.748 790.245,-217.364 791.838,-217.027 793.477,-216.735 795.154,-216.491 796.864,-216.295 798.599,-216.148 800.352,-216.049 802.116,-216 803.884,-216 805.648,-216.049"/>
<text text-anchor="middle" x="803" y="-229.8" font-family="Times,serif" font-size="14.00">69</text>
</a>
</g>
<!-- 18&#45;&gt;69 -->
<g id="edge52" class="edge"><title>18&#45;&gt;69</title>
<path fill="none" stroke="black" d="M803,-287.697C803,-279.983 803,-270.712 803,-262.112"/>
<polygon fill="black" stroke="black" points="806.5,-262.104 803,-252.104 799.5,-262.104 806.5,-262.104"/>
</g>
<!-- 34 -->
<g id="node83" class="node"><title>34</title>
<a xlink:title="33">
<ellipse fill="none" stroke="black" cx="322" cy="-306" rx="27" ry="18"/>
<text text-anchor="middle" x="322" y="-301.8" font-family="Times,serif" font-size="14.00">34</text>
</a>
</g>
<!-- 33&#45;&gt;34 -->
<g id="edge78" class="edge"><title>33&#45;&gt;34</title>
<path fill="none" stroke="black" d="M322,-359.697C322,-351.983 322,-342.712 322,-334.112"/>
<polygon fill="black" stroke="black" points="325.5,-334.104 322,-324.104 318.5,-334.104 325.5,-334.104"/>
</g>
<!-- 25 -->
<g id="node63" class="node"><title>25</title>
<a xlink:title="26">
<ellipse fill="none" stroke="black" cx="470" cy="-306" rx="27" ry="18"/>
<text text-anchor="middle" x="470" y="-301.8" font-family="Times,serif" font-size="14.00">25</text>
</a>
</g>
<!-- 22&#45;&gt;25 -->
<g id="edge60" class="edge"><title>22&#45;&gt;25</title>
<path fill="none" stroke="black" d="M470,-359.697C470,-351.983 470,-342.712 470,-334.112"/>
<polygon fill="black" stroke="black" points="473.5,-334.104 470,-324.104 466.5,-334.104 473.5,-334.104"/>
</g>
<!-- 35 -->
<g id="node70" class="node"><title>35</title>
<a xlink:title="34">
<ellipse fill="none" stroke="black" cx="396" cy="-234" rx="27" ry="18"/>
<text text-anchor="middle" x="396" y="-229.8" font-family="Times,serif" font-size="14.00">35</text>
</a>
</g>
<!-- 25&#45;&gt;35 -->
<g id="edge66" class="edge"><title>25&#45;&gt;35</title>
<path fill="none" stroke="black" d="M455.025,-290.834C444.493,-280.872 430.218,-267.369 418.345,-256.137"/>
<polygon fill="black" stroke="black" points="420.623,-253.474 410.953,-249.144 415.812,-258.559 420.623,-253.474"/>
</g>
<!-- 67 -->
<g id="node72" class="node"><title>67</title>
<a xlink:title="62">
<polygon fill="lightgrey" stroke="black" stroke-width="2" points="472.648,-216.049 474.401,-216.148 476.136,-216.295 477.846,-216.491 479.523,-216.735 481.162,-217.027 482.755,-217.364 484.297,-217.748 485.782,-218.176 487.203,-218.647 488.557,-219.161 489.838,-219.715 491.042,-220.308 492.165,-220.939 493.203,-221.605 494.155,-222.306 495.018,-223.039 495.789,-223.801 496.468,-224.592 497.053,-225.408 497.545,-226.248 497.942,-227.109 498.247,-227.989 498.46,-228.886 498.581,-229.797 498.614,-230.719 498.56,-231.65 498.422,-232.587 498.202,-233.529 497.903,-234.471 497.529,-235.413 497.084,-236.35 496.57,-237.281 495.992,-238.203 495.353,-239.114 494.658,-240.011 493.909,-240.891 493.112,-241.752 492.27,-242.592 491.386,-243.408 490.464,-244.199 489.508,-244.961 488.522,-245.694 487.507,-246.395 486.469,-247.061 485.408,-247.692 484.328,-248.285 483.232,-248.839 482.121,-249.353 480.998,-249.824 479.865,-250.252 478.722,-250.636 477.573,-250.973 476.417,-251.265 475.256,-251.509 474.092,-251.705 472.925,-251.852 471.756,-251.951 470.585,-252 469.415,-252 468.244,-251.951 467.075,-251.852 465.908,-251.705 464.744,-251.509 463.583,-251.265 462.427,-250.973 461.278,-250.636 460.135,-250.252 459.002,-249.824 457.879,-249.353 456.768,-248.839 455.672,-248.285 454.592,-247.692 453.531,-247.061 452.493,-246.395 451.478,-245.694 450.492,-244.961 449.536,-244.199 448.614,-243.408 447.73,-242.592 446.888,-241.752 446.091,-240.891 445.342,-240.011 444.647,-239.114 444.008,-238.203 443.43,-237.281 442.916,-236.35 442.471,-235.413 442.097,-234.471 441.798,-233.529 441.578,-232.587 441.44,-231.65 441.386,-230.719 441.419,-229.797 441.54,-228.886 441.753,-227.989 442.058,-227.109 442.455,-226.248 442.947,-225.408 443.532,-224.592 444.211,-223.801 444.982,-223.039 445.845,-222.306 446.797,-221.605 447.835,-220.939 448.958,-220.308 450.162,-219.715 451.443,-219.161 452.797,-218.647 454.218,-218.176 455.703,-217.748 457.245,-217.364 458.838,-217.027 460.477,-216.735 462.154,-216.491 463.864,-216.295 465.599,-216.148 467.352,-216.049 469.116,-216 470.884,-216 472.648,-216.049"/>
<text text-anchor="middle" x="470" y="-229.8" font-family="Times,serif" font-size="14.00">67</text>
</a>
</g>
<!-- 25&#45;&gt;67 -->
<g id="edge68" class="edge"><title>25&#45;&gt;67</title>
<path fill="none" stroke="black" d="M470,-287.697C470,-279.983 470,-270.712 470,-262.112"/>
<polygon fill="black" stroke="black" points="473.5,-262.104 470,-252.104 466.5,-262.104 473.5,-262.104"/>
</g>
<!-- 44 -->
<g id="node101" class="node"><title>44</title>
<a xlink:title="43">
<polygon fill="lightgrey" stroke="black" stroke-width="2" points="547.648,-216.049 549.401,-216.148 551.136,-216.295 552.846,-216.491 554.523,-216.735 556.162,-217.027 557.755,-217.364 559.297,-217.748 560.782,-218.176 562.203,-218.647 563.557,-219.161 564.838,-219.715 566.042,-220.308 567.165,-220.939 568.203,-221.605 569.155,-222.306 570.018,-223.039 570.789,-223.801 571.468,-224.592 572.053,-225.408 572.545,-226.248 572.942,-227.109 573.247,-227.989 573.46,-228.886 573.581,-229.797 573.614,-230.719 573.56,-231.65 573.422,-232.587 573.202,-233.529 572.903,-234.471 572.529,-235.413 572.084,-236.35 571.57,-237.281 570.992,-238.203 570.353,-239.114 569.658,-240.011 568.909,-240.891 568.112,-241.752 567.27,-242.592 566.386,-243.408 565.464,-244.199 564.508,-244.961 563.522,-245.694 562.507,-246.395 561.469,-247.061 560.408,-247.692 559.328,-248.285 558.232,-248.839 557.121,-249.353 555.998,-249.824 554.865,-250.252 553.722,-250.636 552.573,-250.973 551.417,-251.265 550.256,-251.509 549.092,-251.705 547.925,-251.852 546.756,-251.951 545.585,-252 544.415,-252 543.244,-251.951 542.075,-251.852 540.908,-251.705 539.744,-251.509 538.583,-251.265 537.427,-250.973 536.278,-250.636 535.135,-250.252 534.002,-249.824 532.879,-249.353 531.768,-248.839 530.672,-248.285 529.592,-247.692 528.531,-247.061 527.493,-246.395 526.478,-245.694 525.492,-244.961 524.536,-244.199 523.614,-243.408 522.73,-242.592 521.888,-241.752 521.091,-240.891 520.342,-240.011 519.647,-239.114 519.008,-238.203 518.43,-237.281 517.916,-236.35 517.471,-235.413 517.097,-234.471 516.798,-233.529 516.578,-232.587 516.44,-231.65 516.386,-230.719 516.419,-229.797 516.54,-228.886 516.753,-227.989 517.058,-227.109 517.455,-226.248 517.947,-225.408 518.532,-224.592 519.211,-223.801 519.982,-223.039 520.845,-222.306 521.797,-221.605 522.835,-220.939 523.958,-220.308 525.162,-219.715 526.443,-219.161 527.797,-218.647 529.218,-218.176 530.703,-217.748 532.245,-217.364 533.838,-217.027 535.477,-216.735 537.154,-216.491 538.864,-216.295 540.599,-216.148 542.352,-216.049 544.116,-216 545.884,-216 547.648,-216.049"/>
<text text-anchor="middle" x="545" y="-229.8" font-family="Times,serif" font-size="14.00">44</text>
</a>
</g>
<!-- 43&#45;&gt;44 -->
<g id="edge96" class="edge"><title>43&#45;&gt;44</title>
<path fill="none" stroke="black" d="M543.494,-287.697C543.715,-279.983 543.98,-270.712 544.225,-262.112"/>
<polygon fill="black" stroke="black" points="547.724,-262.2 544.511,-252.104 540.727,-262 547.724,-262.2"/>
</g>
<!-- 36 -->
<g id="node89" class="node"><title>36</title>
<a xlink:title="35">
<polygon fill="lightgrey" stroke="black" stroke-width="2" points="398.648,-144.049 400.401,-144.148 402.136,-144.295 403.846,-144.491 405.523,-144.735 407.162,-145.027 408.755,-145.364 410.297,-145.748 411.782,-146.176 413.203,-146.647 414.557,-147.161 415.838,-147.715 417.042,-148.308 418.165,-148.939 419.203,-149.605 420.155,-150.306 421.018,-151.039 421.789,-151.801 422.468,-152.592 423.053,-153.408 423.545,-154.248 423.942,-155.109 424.247,-155.989 424.46,-156.886 424.581,-157.797 424.614,-158.719 424.56,-159.65 424.422,-160.587 424.202,-161.529 423.903,-162.471 423.529,-163.413 423.084,-164.35 422.57,-165.281 421.992,-166.203 421.353,-167.114 420.658,-168.011 419.909,-168.891 419.112,-169.752 418.27,-170.592 417.386,-171.408 416.464,-172.199 415.508,-172.961 414.522,-173.694 413.507,-174.395 412.469,-175.061 411.408,-175.692 410.328,-176.285 409.232,-176.839 408.121,-177.353 406.998,-177.824 405.865,-178.252 404.722,-178.636 403.573,-178.973 402.417,-179.265 401.256,-179.509 400.092,-179.705 398.925,-179.852 397.756,-179.951 396.585,-180 395.415,-180 394.244,-179.951 393.075,-179.852 391.908,-179.705 390.744,-179.509 389.583,-179.265 388.427,-178.973 387.278,-178.636 386.135,-178.252 385.002,-177.824 383.879,-177.353 382.768,-176.839 381.672,-176.285 380.592,-175.692 379.531,-175.061 378.493,-174.395 377.478,-173.694 376.492,-172.961 375.536,-172.199 374.614,-171.408 373.73,-170.592 372.888,-169.752 372.091,-168.891 371.342,-168.011 370.647,-167.114 370.008,-166.203 369.43,-165.281 368.916,-164.35 368.471,-163.413 368.097,-162.471 367.798,-161.529 367.578,-160.587 367.44,-159.65 367.386,-158.719 367.419,-157.797 367.54,-156.886 367.753,-155.989 368.058,-155.109 368.455,-154.248 368.947,-153.408 369.532,-152.592 370.211,-151.801 370.982,-151.039 371.845,-150.306 372.797,-149.605 373.835,-148.939 374.958,-148.308 376.162,-147.715 377.443,-147.161 378.797,-146.647 380.218,-146.176 381.703,-145.748 383.245,-145.364 384.838,-145.027 386.477,-144.735 388.154,-144.491 389.864,-144.295 391.599,-144.148 393.352,-144.049 395.116,-144 396.884,-144 398.648,-144.049"/>
<text text-anchor="middle" x="396" y="-157.8" font-family="Times,serif" font-size="14.00">36</text>
</a>
</g>
<!-- 35&#45;&gt;36 -->
<g id="edge84" class="edge"><title>35&#45;&gt;36</title>
<path fill="none" stroke="black" d="M396,-215.697C396,-207.983 396,-198.712 396,-190.112"/>
<polygon fill="black" stroke="black" points="399.5,-190.104 396,-180.104 392.5,-190.104 399.5,-190.104"/>
</g>
<!-- 55 -->
<g id="node76" class="node"><title>55</title>
<a xlink:title="53">
<ellipse fill="none" stroke="black" cx="28" cy="-378" rx="27" ry="18"/>
<text text-anchor="middle" x="28" y="-373.8" font-family="Times,serif" font-size="14.00">55</text>
</a>
</g>
<!-- 27&#45;&gt;55 -->
<g id="edge72" class="edge"><title>27&#45;&gt;55</title>
<path fill="none" stroke="black" d="M28.7528,-431.697C28.6426,-423.983 28.5102,-414.712 28.3873,-406.112"/>
<polygon fill="black" stroke="black" points="31.8869,-406.053 28.2443,-396.104 24.8876,-406.153 31.8869,-406.053"/>
</g>
<!-- 57 -->
<g id="node116" class="node"><title>57</title>
<a xlink:title="54">
<ellipse fill="none" stroke="black" cx="28" cy="-306" rx="27" ry="18"/>
<text text-anchor="middle" x="28" y="-301.8" font-family="Times,serif" font-size="14.00">57</text>
</a>
</g>
<!-- 55&#45;&gt;57 -->
<g id="edge112" class="edge"><title>55&#45;&gt;57</title>
<path fill="none" stroke="black" d="M28,-359.697C28,-351.983 28,-342.712 28,-334.112"/>
<polygon fill="black" stroke="black" points="31.5001,-334.104 28,-324.104 24.5001,-334.104 31.5001,-334.104"/>
</g>
<!-- 60 -->
<g id="node119" class="node"><title>60</title>
<a xlink:title="56">
<polygon fill="lightgrey" stroke="black" stroke-width="2" points="104.648,-360.049 106.401,-360.148 108.136,-360.295 109.846,-360.491 111.523,-360.735 113.162,-361.027 114.755,-361.364 116.297,-361.748 117.782,-362.176 119.203,-362.647 120.557,-363.161 121.838,-363.715 123.042,-364.308 124.165,-364.939 125.203,-365.605 126.155,-366.306 127.018,-367.039 127.789,-367.801 128.468,-368.592 129.053,-369.408 129.545,-370.248 129.942,-371.109 130.247,-371.989 130.46,-372.886 130.581,-373.797 130.614,-374.719 130.56,-375.65 130.422,-376.587 130.202,-377.529 129.903,-378.471 129.529,-379.413 129.084,-380.35 128.57,-381.281 127.992,-382.203 127.353,-383.114 126.658,-384.011 125.909,-384.891 125.112,-385.752 124.27,-386.592 123.386,-387.408 122.464,-388.199 121.508,-388.961 120.522,-389.694 119.507,-390.395 118.469,-391.061 117.408,-391.692 116.328,-392.285 115.232,-392.839 114.121,-393.353 112.998,-393.824 111.865,-394.252 110.722,-394.636 109.573,-394.973 108.417,-395.265 107.256,-395.509 106.092,-395.705 104.925,-395.852 103.756,-395.951 102.585,-396 101.415,-396 100.244,-395.951 99.0753,-395.852 97.9081,-395.705 96.7438,-395.509 95.5832,-395.265 94.4275,-394.973 93.2777,-394.636 92.1353,-394.252 91.0018,-393.824 89.8787,-393.353 88.768,-392.839 87.6717,-392.285 86.592,-391.692 85.5314,-391.061 84.4925,-390.395 83.4783,-389.694 82.4917,-388.961 81.5359,-388.199 80.6143,-387.408 79.7305,-386.592 78.888,-385.752 78.0907,-384.891 77.3424,-384.011 76.6469,-383.114 76.0081,-382.203 75.43,-381.281 74.9162,-380.35 74.4707,-379.413 74.0969,-378.471 73.7984,-377.529 73.5784,-376.587 73.44,-375.65 73.3859,-374.719 73.4187,-373.797 73.5404,-372.886 73.7529,-371.989 74.0576,-371.109 74.4554,-370.248 74.9469,-369.408 75.5322,-368.592 76.211,-367.801 76.9823,-367.039 77.8448,-366.306 78.7966,-365.605 79.8355,-364.939 80.9585,-364.308 82.1623,-363.715 83.4431,-363.161 84.7966,-362.647 86.2182,-362.176 87.7027,-361.748 89.2446,-361.364 90.838,-361.027 92.4767,-360.735 94.1543,-360.491 95.8641,-360.295 97.5991,-360.148 99.3522,-360.049 101.116,-360 102.884,-360 104.648,-360.049"/>
<text text-anchor="middle" x="102" y="-373.8" font-family="Times,serif" font-size="14.00">60</text>
</a>
</g>
<!-- 59&#45;&gt;60 -->
<g id="edge116" class="edge"><title>59&#45;&gt;60</title>
<path fill="none" stroke="black" d="M102,-431.697C102,-423.983 102,-414.712 102,-406.112"/>
<polygon fill="black" stroke="black" points="105.5,-406.104 102,-396.104 98.5001,-406.104 105.5,-406.104"/>
</g>
<!-- 62 -->
<g id="node121" class="node"><title>62</title>
<a xlink:title="58">
<polygon fill="lightgrey" stroke="black" stroke-width="2" points="179.648,-360.049 181.401,-360.148 183.136,-360.295 184.846,-360.491 186.523,-360.735 188.162,-361.027 189.755,-361.364 191.297,-361.748 192.782,-362.176 194.203,-362.647 195.557,-363.161 196.838,-363.715 198.042,-364.308 199.165,-364.939 200.203,-365.605 201.155,-366.306 202.018,-367.039 202.789,-367.801 203.468,-368.592 204.053,-369.408 204.545,-370.248 204.942,-371.109 205.247,-371.989 205.46,-372.886 205.581,-373.797 205.614,-374.719 205.56,-375.65 205.422,-376.587 205.202,-377.529 204.903,-378.471 204.529,-379.413 204.084,-380.35 203.57,-381.281 202.992,-382.203 202.353,-383.114 201.658,-384.011 200.909,-384.891 200.112,-385.752 199.27,-386.592 198.386,-387.408 197.464,-388.199 196.508,-388.961 195.522,-389.694 194.507,-390.395 193.469,-391.061 192.408,-391.692 191.328,-392.285 190.232,-392.839 189.121,-393.353 187.998,-393.824 186.865,-394.252 185.722,-394.636 184.573,-394.973 183.417,-395.265 182.256,-395.509 181.092,-395.705 179.925,-395.852 178.756,-395.951 177.585,-396 176.415,-396 175.244,-395.951 174.075,-395.852 172.908,-395.705 171.744,-395.509 170.583,-395.265 169.427,-394.973 168.278,-394.636 167.135,-394.252 166.002,-393.824 164.879,-393.353 163.768,-392.839 162.672,-392.285 161.592,-391.692 160.531,-391.061 159.493,-390.395 158.478,-389.694 157.492,-388.961 156.536,-388.199 155.614,-387.408 154.73,-386.592 153.888,-385.752 153.091,-384.891 152.342,-384.011 151.647,-383.114 151.008,-382.203 150.43,-381.281 149.916,-380.35 149.471,-379.413 149.097,-378.471 148.798,-377.529 148.578,-376.587 148.44,-375.65 148.386,-374.719 148.419,-373.797 148.54,-372.886 148.753,-371.989 149.058,-371.109 149.455,-370.248 149.947,-369.408 150.532,-368.592 151.211,-367.801 151.982,-367.039 152.845,-366.306 153.797,-365.605 154.835,-364.939 155.958,-364.308 157.162,-363.715 158.443,-363.161 159.797,-362.647 161.218,-362.176 162.703,-361.748 164.245,-361.364 165.838,-361.027 167.477,-360.735 169.154,-360.491 170.864,-360.295 172.599,-360.148 174.352,-360.049 176.116,-360 177.884,-360 179.648,-360.049"/>
<text text-anchor="middle" x="177" y="-373.8" font-family="Times,serif" font-size="14.00">62</text>
</a>
</g>
<!-- 61&#45;&gt;62 -->
<g id="edge118" class="edge"><title>61&#45;&gt;62</title>
<path fill="none" stroke="black" d="M174.742,-431.697C175.072,-423.983 175.469,-414.712 175.838,-406.112"/>
<polygon fill="black" stroke="black" points="179.335,-406.245 176.267,-396.104 172.342,-405.945 179.335,-406.245"/>
</g>
<!-- 63 -->
<g id="node85" class="node"><title>63</title>
<a xlink:title="59">
<polygon fill="lightgrey" stroke="black" stroke-width="2" points="249.648,-216.049 251.401,-216.148 253.136,-216.295 254.846,-216.491 256.523,-216.735 258.162,-217.027 259.755,-217.364 261.297,-217.748 262.782,-218.176 264.203,-218.647 265.557,-219.161 266.838,-219.715 268.042,-220.308 269.165,-220.939 270.203,-221.605 271.155,-222.306 272.018,-223.039 272.789,-223.801 273.468,-224.592 274.053,-225.408 274.545,-226.248 274.942,-227.109 275.247,-227.989 275.46,-228.886 275.581,-229.797 275.614,-230.719 275.56,-231.65 275.422,-232.587 275.202,-233.529 274.903,-234.471 274.529,-235.413 274.084,-236.35 273.57,-237.281 272.992,-238.203 272.353,-239.114 271.658,-240.011 270.909,-240.891 270.112,-241.752 269.27,-242.592 268.386,-243.408 267.464,-244.199 266.508,-244.961 265.522,-245.694 264.507,-246.395 263.469,-247.061 262.408,-247.692 261.328,-248.285 260.232,-248.839 259.121,-249.353 257.998,-249.824 256.865,-250.252 255.722,-250.636 254.573,-250.973 253.417,-251.265 252.256,-251.509 251.092,-251.705 249.925,-251.852 248.756,-251.951 247.585,-252 246.415,-252 245.244,-251.951 244.075,-251.852 242.908,-251.705 241.744,-251.509 240.583,-251.265 239.427,-250.973 238.278,-250.636 237.135,-250.252 236.002,-249.824 234.879,-249.353 233.768,-248.839 232.672,-248.285 231.592,-247.692 230.531,-247.061 229.493,-246.395 228.478,-245.694 227.492,-244.961 226.536,-244.199 225.614,-243.408 224.73,-242.592 223.888,-241.752 223.091,-240.891 222.342,-240.011 221.647,-239.114 221.008,-238.203 220.43,-237.281 219.916,-236.35 219.471,-235.413 219.097,-234.471 218.798,-233.529 218.578,-232.587 218.44,-231.65 218.386,-230.719 218.419,-229.797 218.54,-228.886 218.753,-227.989 219.058,-227.109 219.455,-226.248 219.947,-225.408 220.532,-224.592 221.211,-223.801 221.982,-223.039 222.845,-222.306 223.797,-221.605 224.835,-220.939 225.958,-220.308 227.162,-219.715 228.443,-219.161 229.797,-218.647 231.218,-218.176 232.703,-217.748 234.245,-217.364 235.838,-217.027 237.477,-216.735 239.154,-216.491 240.864,-216.295 242.599,-216.148 244.352,-216.049 246.116,-216 247.884,-216 249.648,-216.049"/>
<text text-anchor="middle" x="247" y="-229.8" font-family="Times,serif" font-size="14.00">63</text>
</a>
</g>
<!-- 34&#45;&gt;63 -->
<g id="edge80" class="edge"><title>34&#45;&gt;63</title>
<path fill="none" stroke="black" d="M306.823,-290.834C295.938,-280.675 281.108,-266.834 268.937,-255.475"/>
<polygon fill="black" stroke="black" points="271.09,-252.696 261.391,-248.432 266.314,-257.814 271.09,-252.696"/>
</g>
<!-- 68 -->
<g id="node87" class="node"><title>68</title>
<a xlink:title="63">
<polygon fill="lightgrey" stroke="black" stroke-width="2" points="324.648,-216.049 326.401,-216.148 328.136,-216.295 329.846,-216.491 331.523,-216.735 333.162,-217.027 334.755,-217.364 336.297,-217.748 337.782,-218.176 339.203,-218.647 340.557,-219.161 341.838,-219.715 343.042,-220.308 344.165,-220.939 345.203,-221.605 346.155,-222.306 347.018,-223.039 347.789,-223.801 348.468,-224.592 349.053,-225.408 349.545,-226.248 349.942,-227.109 350.247,-227.989 350.46,-228.886 350.581,-229.797 350.614,-230.719 350.56,-231.65 350.422,-232.587 350.202,-233.529 349.903,-234.471 349.529,-235.413 349.084,-236.35 348.57,-237.281 347.992,-238.203 347.353,-239.114 346.658,-240.011 345.909,-240.891 345.112,-241.752 344.27,-242.592 343.386,-243.408 342.464,-244.199 341.508,-244.961 340.522,-245.694 339.507,-246.395 338.469,-247.061 337.408,-247.692 336.328,-248.285 335.232,-248.839 334.121,-249.353 332.998,-249.824 331.865,-250.252 330.722,-250.636 329.573,-250.973 328.417,-251.265 327.256,-251.509 326.092,-251.705 324.925,-251.852 323.756,-251.951 322.585,-252 321.415,-252 320.244,-251.951 319.075,-251.852 317.908,-251.705 316.744,-251.509 315.583,-251.265 314.427,-250.973 313.278,-250.636 312.135,-250.252 311.002,-249.824 309.879,-249.353 308.768,-248.839 307.672,-248.285 306.592,-247.692 305.531,-247.061 304.493,-246.395 303.478,-245.694 302.492,-244.961 301.536,-244.199 300.614,-243.408 299.73,-242.592 298.888,-241.752 298.091,-240.891 297.342,-240.011 296.647,-239.114 296.008,-238.203 295.43,-237.281 294.916,-236.35 294.471,-235.413 294.097,-234.471 293.798,-233.529 293.578,-232.587 293.44,-231.65 293.386,-230.719 293.419,-229.797 293.54,-228.886 293.753,-227.989 294.058,-227.109 294.455,-226.248 294.947,-225.408 295.532,-224.592 296.211,-223.801 296.982,-223.039 297.845,-222.306 298.797,-221.605 299.835,-220.939 300.958,-220.308 302.162,-219.715 303.443,-219.161 304.797,-218.647 306.218,-218.176 307.703,-217.748 309.245,-217.364 310.838,-217.027 312.477,-216.735 314.154,-216.491 315.864,-216.295 317.599,-216.148 319.352,-216.049 321.116,-216 322.884,-216 324.648,-216.049"/>
<text text-anchor="middle" x="322" y="-229.8" font-family="Times,serif" font-size="14.00">68</text>
</a>
</g>
<!-- 34&#45;&gt;68 -->
<g id="edge82" class="edge"><title>34&#45;&gt;68</title>
<path fill="none" stroke="black" d="M322,-287.697C322,-279.983 322,-270.712 322,-262.112"/>
<polygon fill="black" stroke="black" points="325.5,-262.104 322,-252.104 318.5,-262.104 325.5,-262.104"/>
</g>
<!-- 38&#45;&gt;9 -->
<g id="edge88" class="edge"><title>38&#45;&gt;9</title>
<path fill="none" stroke="black" d="M682.418,-288.765C677.935,-280.283 672.349,-269.714 667.319,-260.197"/>
<polygon fill="black" stroke="black" points="670.302,-258.353 662.535,-251.147 664.114,-261.624 670.302,-258.353"/>
</g>
<!-- 40 -->
<g id="node95" class="node"><title>40</title>
<a xlink:title="39">
<ellipse fill="none" stroke="black" cx="877" cy="-234" rx="27" ry="18"/>
<text text-anchor="middle" x="877" y="-229.8" font-family="Times,serif" font-size="14.00">40</text>
</a>
</g>
<!-- 39&#45;&gt;40 -->
<g id="edge90" class="edge"><title>39&#45;&gt;40</title>
<path fill="none" stroke="black" d="M876.247,-287.697C876.357,-279.983 876.49,-270.712 876.613,-262.112"/>
<polygon fill="black" stroke="black" points="880.112,-262.153 876.756,-252.104 873.113,-262.053 880.112,-262.153"/>
</g>
<!-- 41 -->
<g id="node97" class="node"><title>41</title>
<a xlink:title="40">
<ellipse fill="none" stroke="black" cx="877" cy="-162" rx="27" ry="18"/>
<text text-anchor="middle" x="877" y="-157.8" font-family="Times,serif" font-size="14.00">41</text>
</a>
</g>
<!-- 40&#45;&gt;41 -->
<g id="edge92" class="edge"><title>40&#45;&gt;41</title>
<path fill="none" stroke="black" d="M877,-215.697C877,-207.983 877,-198.712 877,-190.112"/>
<polygon fill="black" stroke="black" points="880.5,-190.104 877,-180.104 873.5,-190.104 880.5,-190.104"/>
</g>
<!-- 42 -->
<g id="node99" class="node"><title>42</title>
<a xlink:title="41">
<polygon fill="lightgrey" stroke="black" stroke-width="2" points="879.648,-72.0493 881.401,-72.1479 883.136,-72.2953 884.846,-72.4913 886.523,-72.7353 888.162,-73.0266 889.755,-73.3645 891.297,-73.7479 892.782,-74.1759 894.203,-74.6472 895.557,-75.1606 896.838,-75.7147 898.042,-76.308 899.165,-76.9388 900.203,-77.6054 901.155,-78.3059 902.018,-79.0385 902.789,-79.8012 903.468,-80.5918 904.053,-81.4082 904.545,-82.2481 904.942,-83.1093 905.247,-83.9894 905.46,-84.886 905.581,-85.7965 905.614,-86.7186 905.56,-87.6497 905.422,-88.5873 905.202,-89.5287 904.903,-90.4713 904.529,-91.4127 904.084,-92.3503 903.57,-93.2814 902.992,-94.2035 902.353,-95.114 901.658,-96.0106 900.909,-96.8907 900.112,-97.7519 899.27,-98.5918 898.386,-99.4082 897.464,-100.199 896.508,-100.961 895.522,-101.694 894.507,-102.395 893.469,-103.061 892.408,-103.692 891.328,-104.285 890.232,-104.839 889.121,-105.353 887.998,-105.824 886.865,-106.252 885.722,-106.636 884.573,-106.973 883.417,-107.265 882.256,-107.509 881.092,-107.705 879.925,-107.852 878.756,-107.951 877.585,-108 876.415,-108 875.244,-107.951 874.075,-107.852 872.908,-107.705 871.744,-107.509 870.583,-107.265 869.427,-106.973 868.278,-106.636 867.135,-106.252 866.002,-105.824 864.879,-105.353 863.768,-104.839 862.672,-104.285 861.592,-103.692 860.531,-103.061 859.493,-102.395 858.478,-101.694 857.492,-100.961 856.536,-100.199 855.614,-99.4082 854.73,-98.5918 853.888,-97.7519 853.091,-96.8907 852.342,-96.0106 851.647,-95.114 851.008,-94.2035 850.43,-93.2814 849.916,-92.3503 849.471,-91.4127 849.097,-90.4713 848.798,-89.5287 848.578,-88.5873 848.44,-87.6497 848.386,-86.7186 848.419,-85.7965 848.54,-84.886 848.753,-83.9894 849.058,-83.1093 849.455,-82.2481 849.947,-81.4082 850.532,-80.5918 851.211,-79.8012 851.982,-79.0385 852.845,-78.3059 853.797,-77.6054 854.835,-76.9388 855.958,-76.308 857.162,-75.7147 858.443,-75.1606 859.797,-74.6472 861.218,-74.1759 862.703,-73.7479 864.245,-73.3645 865.838,-73.0266 867.477,-72.7353 869.154,-72.4913 870.864,-72.2953 872.599,-72.1479 874.352,-72.0493 876.116,-72 877.884,-72 879.648,-72.0493"/>
<text text-anchor="middle" x="877" y="-85.8" font-family="Times,serif" font-size="14.00">42</text>
</a>
</g>
<!-- 41&#45;&gt;42 -->
<g id="edge94" class="edge"><title>41&#45;&gt;42</title>
<path fill="none" stroke="black" d="M877,-143.697C877,-135.983 877,-126.712 877,-118.112"/>
<polygon fill="black" stroke="black" points="880.5,-118.104 877,-108.104 873.5,-118.104 880.5,-118.104"/>
</g>
<!-- 49 -->
<g id="node108" class="node"><title>49</title>
<a xlink:title="47">
<polygon fill="lightgrey" stroke="black" stroke-width="2" points="953.648,-216.049 955.401,-216.148 957.136,-216.295 958.846,-216.491 960.523,-216.735 962.162,-217.027 963.755,-217.364 965.297,-217.748 966.782,-218.176 968.203,-218.647 969.557,-219.161 970.838,-219.715 972.042,-220.308 973.165,-220.939 974.203,-221.605 975.155,-222.306 976.018,-223.039 976.789,-223.801 977.468,-224.592 978.053,-225.408 978.545,-226.248 978.942,-227.109 979.247,-227.989 979.46,-228.886 979.581,-229.797 979.614,-230.719 979.56,-231.65 979.422,-232.587 979.202,-233.529 978.903,-234.471 978.529,-235.413 978.084,-236.35 977.57,-237.281 976.992,-238.203 976.353,-239.114 975.658,-240.011 974.909,-240.891 974.112,-241.752 973.27,-242.592 972.386,-243.408 971.464,-244.199 970.508,-244.961 969.522,-245.694 968.507,-246.395 967.469,-247.061 966.408,-247.692 965.328,-248.285 964.232,-248.839 963.121,-249.353 961.998,-249.824 960.865,-250.252 959.722,-250.636 958.573,-250.973 957.417,-251.265 956.256,-251.509 955.092,-251.705 953.925,-251.852 952.756,-251.951 951.585,-252 950.415,-252 949.244,-251.951 948.075,-251.852 946.908,-251.705 945.744,-251.509 944.583,-251.265 943.427,-250.973 942.278,-250.636 941.135,-250.252 940.002,-249.824 938.879,-249.353 937.768,-248.839 936.672,-248.285 935.592,-247.692 934.531,-247.061 933.493,-246.395 932.478,-245.694 931.492,-244.961 930.536,-244.199 929.614,-243.408 928.73,-242.592 927.888,-241.752 927.091,-240.891 926.342,-240.011 925.647,-239.114 925.008,-238.203 924.43,-237.281 923.916,-236.35 923.471,-235.413 923.097,-234.471 922.798,-233.529 922.578,-232.587 922.44,-231.65 922.386,-230.719 922.419,-229.797 922.54,-228.886 922.753,-227.989 923.058,-227.109 923.455,-226.248 923.947,-225.408 924.532,-224.592 925.211,-223.801 925.982,-223.039 926.845,-222.306 927.797,-221.605 928.835,-220.939 929.958,-220.308 931.162,-219.715 932.443,-219.161 933.797,-218.647 935.218,-218.176 936.703,-217.748 938.245,-217.364 939.838,-217.027 941.477,-216.735 943.154,-216.491 944.864,-216.295 946.599,-216.148 948.352,-216.049 950.116,-216 951.884,-216 953.648,-216.049"/>
<text text-anchor="middle" x="951" y="-229.8" font-family="Times,serif" font-size="14.00">49</text>
</a>
</g>
<!-- 70&#45;&gt;49 -->
<g id="edge122" class="edge"><title>70&#45;&gt;49</title>
<path fill="none" stroke="black" d="M951,-287.697C951,-279.983 951,-270.712 951,-262.112"/>
<polygon fill="black" stroke="black" points="954.5,-262.104 951,-252.104 947.5,-262.104 954.5,-262.104"/>
</g>
<!-- 52 -->
<g id="node110" class="node"><title>52</title>
<a xlink:title="50">
<ellipse fill="none" stroke="black" cx="1025" cy="-234" rx="27" ry="18"/>
<text text-anchor="middle" x="1025" y="-229.8" font-family="Times,serif" font-size="14.00">52</text>
</a>
</g>
<!-- 70&#45;&gt;52 -->
<g id="edge124" class="edge"><title>70&#45;&gt;52</title>
<path fill="none" stroke="black" d="M965.975,-290.834C976.507,-280.872 990.782,-267.369 1002.66,-256.137"/>
<polygon fill="black" stroke="black" points="1005.19,-258.559 1010.05,-249.144 1000.38,-253.474 1005.19,-258.559"/>
</g>
<!-- 51 -->
<g id="node109" class="node"><title>51</title>
<a xlink:title="49">
<polygon fill="lightgrey" stroke="black" stroke-width="2" points="30.6478,-216.049 32.4009,-216.148 34.1359,-216.295 35.8457,-216.491 37.5233,-216.735 39.162,-217.027 40.7554,-217.364 42.2973,-217.748 43.7818,-218.176 45.2034,-218.647 46.5569,-219.161 47.8377,-219.715 49.0415,-220.308 50.1645,-220.939 51.2034,-221.605 52.1552,-222.306 53.0177,-223.039 53.789,-223.801 54.4678,-224.592 55.0531,-225.408 55.5446,-226.248 55.9424,-227.109 56.2471,-227.989 56.4596,-228.886 56.5813,-229.797 56.6141,-230.719 56.56,-231.65 56.4216,-232.587 56.2016,-233.529 55.9031,-234.471 55.5293,-235.413 55.0838,-236.35 54.57,-237.281 53.9919,-238.203 53.3531,-239.114 52.6576,-240.011 51.9093,-240.891 51.112,-241.752 50.2695,-242.592 49.3857,-243.408 48.4641,-244.199 47.5083,-244.961 46.5217,-245.694 45.5075,-246.395 44.4686,-247.061 43.408,-247.692 42.3283,-248.285 41.232,-248.839 40.1213,-249.353 38.9982,-249.824 37.8647,-250.252 36.7223,-250.636 35.5725,-250.973 34.4168,-251.265 33.2562,-251.509 32.0919,-251.705 30.9247,-251.852 29.7556,-251.951 28.5853,-252 27.4147,-252 26.2444,-251.951 25.0753,-251.852 23.9081,-251.705 22.7438,-251.509 21.5832,-251.265 20.4275,-250.973 19.2777,-250.636 18.1353,-250.252 17.0018,-249.824 15.8787,-249.353 14.768,-248.839 13.6717,-248.285 12.592,-247.692 11.5314,-247.061 10.4925,-246.395 9.47828,-245.694 8.49165,-244.961 7.53586,-244.199 6.61429,-243.408 5.73046,-242.592 4.88802,-241.752 4.09072,-240.891 3.34238,-240.011 2.64689,-239.114 2.00813,-238.203 1.42997,-237.281 0.916243,-236.35 0.470687,-235.413 0.0969219,-234.471 -0.201589,-233.529 -0.421575,-232.587 -0.559994,-231.65 -0.614068,-230.719 -0.581317,-229.797 -0.459591,-228.886 -0.247098,-227.989 0.0575627,-227.109 0.455378,-226.248 0.946899,-225.408 1.53222,-224.592 2.21096,-223.801 2.98226,-223.039 3.84477,-222.306 4.79662,-221.605 5.83547,-220.939 6.95846,-220.308 8.16227,-219.715 9.44309,-219.161 10.7966,-218.647 12.2182,-218.176 13.7027,-217.748 15.2446,-217.364 16.838,-217.027 18.4767,-216.735 20.1543,-216.491 21.8641,-216.295 23.5991,-216.148 25.3522,-216.049 27.1162,-216 28.8838,-216 30.6478,-216.049"/>
<text text-anchor="middle" x="28" y="-229.8" font-family="Times,serif" font-size="14.00">51</text>
</a>
</g>
<!-- 53 -->
<g id="node112" class="node"><title>53</title>
<a xlink:title="51">
<ellipse fill="none" stroke="black" cx="1025" cy="-162" rx="27" ry="18"/>
<text text-anchor="middle" x="1025" y="-157.8" font-family="Times,serif" font-size="14.00">53</text>
</a>
</g>
<!-- 52&#45;&gt;53 -->
<g id="edge108" class="edge"><title>52&#45;&gt;53</title>
<path fill="none" stroke="black" d="M1025,-215.697C1025,-207.983 1025,-198.712 1025,-190.112"/>
<polygon fill="black" stroke="black" points="1028.5,-190.104 1025,-180.104 1021.5,-190.104 1028.5,-190.104"/>
</g>
<!-- 54 -->
<g id="node114" class="node"><title>54</title>
<a xlink:title="52">
<polygon fill="lightgrey" stroke="black" stroke-width="2" points="1027.65,-72.0493 1029.4,-72.1479 1031.14,-72.2953 1032.85,-72.4913 1034.52,-72.7353 1036.16,-73.0266 1037.76,-73.3645 1039.3,-73.7479 1040.78,-74.1759 1042.2,-74.6472 1043.56,-75.1606 1044.84,-75.7147 1046.04,-76.308 1047.16,-76.9388 1048.2,-77.6054 1049.16,-78.3059 1050.02,-79.0385 1050.79,-79.8012 1051.47,-80.5918 1052.05,-81.4082 1052.54,-82.2481 1052.94,-83.1093 1053.25,-83.9894 1053.46,-84.886 1053.58,-85.7965 1053.61,-86.7186 1053.56,-87.6497 1053.42,-88.5873 1053.2,-89.5287 1052.9,-90.4713 1052.53,-91.4127 1052.08,-92.3503 1051.57,-93.2814 1050.99,-94.2035 1050.35,-95.114 1049.66,-96.0106 1048.91,-96.8907 1048.11,-97.7519 1047.27,-98.5918 1046.39,-99.4082 1045.46,-100.199 1044.51,-100.961 1043.52,-101.694 1042.51,-102.395 1041.47,-103.061 1040.41,-103.692 1039.33,-104.285 1038.23,-104.839 1037.12,-105.353 1036,-105.824 1034.86,-106.252 1033.72,-106.636 1032.57,-106.973 1031.42,-107.265 1030.26,-107.509 1029.09,-107.705 1027.92,-107.852 1026.76,-107.951 1025.59,-108 1024.41,-108 1023.24,-107.951 1022.08,-107.852 1020.91,-107.705 1019.74,-107.509 1018.58,-107.265 1017.43,-106.973 1016.28,-106.636 1015.14,-106.252 1014,-105.824 1012.88,-105.353 1011.77,-104.839 1010.67,-104.285 1009.59,-103.692 1008.53,-103.061 1007.49,-102.395 1006.48,-101.694 1005.49,-100.961 1004.54,-100.199 1003.61,-99.4082 1002.73,-98.5918 1001.89,-97.7519 1001.09,-96.8907 1000.34,-96.0106 999.647,-95.114 999.008,-94.2035 998.43,-93.2814 997.916,-92.3503 997.471,-91.4127 997.097,-90.4713 996.798,-89.5287 996.578,-88.5873 996.44,-87.6497 996.386,-86.7186 996.419,-85.7965 996.54,-84.886 996.753,-83.9894 997.058,-83.1093 997.455,-82.2481 997.947,-81.4082 998.532,-80.5918 999.211,-79.8012 999.982,-79.0385 1000.84,-78.3059 1001.8,-77.6054 1002.84,-76.9388 1003.96,-76.308 1005.16,-75.7147 1006.44,-75.1606 1007.8,-74.6472 1009.22,-74.1759 1010.7,-73.7479 1012.24,-73.3645 1013.84,-73.0266 1015.48,-72.7353 1017.15,-72.4913 1018.86,-72.2953 1020.6,-72.1479 1022.35,-72.0493 1024.12,-72 1025.88,-72 1027.65,-72.0493"/>
<text text-anchor="middle" x="1025" y="-85.8" font-family="Times,serif" font-size="14.00">54</text>
</a>
</g>
<!-- 53&#45;&gt;54 -->
<g id="edge110" class="edge"><title>53&#45;&gt;54</title>
<path fill="none" stroke="black" d="M1025,-143.697C1025,-135.983 1025,-126.712 1025,-118.112"/>
<polygon fill="black" stroke="black" points="1028.5,-118.104 1025,-108.104 1021.5,-118.104 1028.5,-118.104"/>
</g>
<!-- 57&#45;&gt;51 -->
<g id="edge114" class="edge"><title>57&#45;&gt;51</title>
<path fill="none" stroke="black" d="M28,-287.697C28,-279.983 28,-270.712 28,-262.112"/>
<polygon fill="black" stroke="black" points="31.5001,-262.104 28,-252.104 24.5001,-262.104 31.5001,-262.104"/>
</g>
</g>
</svg>
