<svg xmlns="http://www.w3.org/2000/svg" xmlns:xlink="http://www.w3.org/1999/xlink" width="100%" viewBox="0.00 0.00 1164.64 1126.66">
<g id="graph0" class="graph" transform="scale(1 1) rotate(0) translate(4 1122.6612)">
<title>The Haunted House (2007 reissue) -- ISBN 9781933390512 -- github.com/morbus/gamebook-choicemaps -- v20210204</title>
<polygon fill="#ffffff" stroke="transparent" points="-4,4 -4,-1122.6612 1160.6425,-1122.6612 1160.6425,4 -4,4"></polygon>
<text text-anchor="middle" x="578.3213" y="-1102.0612" font-family="Times,serif" font-size="14.00" fill="#000000">The Haunted House (2007 reissue) -- ISBN 9781933390512 -- github.com/morbus/gamebook-choicemaps -- v20210204</text>
<!-- Start -->
<g id="node1" class="node">
<title>Start</title>
<g id="a_node1"><a xlink:title="4">
<ellipse fill="#c8c8c8" stroke="#000000" stroke-width="2" cx="272.3213" cy="-1050.9306" rx="38.8678" ry="38.8678"></ellipse>
<ellipse fill="none" stroke="#000000" stroke-width="2" cx="272.3213" cy="-1050.9306" rx="42.8613" ry="42.8613"></ellipse>
<text text-anchor="middle" x="272.3213" y="-1046.7306" font-family="Times,serif" font-size="14.00" fill="#000000">☐ Start</text>
</a>
</g>
</g>
<!-- 1 -->
<g id="node2" class="node">
<title>1</title>
<g id="a_node2"><a xlink:title="5">
<ellipse fill="none" stroke="#000000" cx="272.3213" cy="-954" rx="27" ry="18"></ellipse>
<text text-anchor="middle" x="272.3213" y="-949.8" font-family="Times,serif" font-size="14.00" fill="#000000">☐ 1</text>
</a>
</g>
</g>
<!-- Start&#45;&gt;1 -->
<g id="edge1" class="edge">
<title>Start-&gt;1</title>
<path fill="none" stroke="#000000" d="M272.3213,-1007.8509C272.3213,-999.2301 272.3213,-990.3791 272.3213,-982.4073"></path>
<polygon fill="#000000" stroke="#000000" points="275.8214,-982.1856 272.3213,-972.1857 268.8214,-982.1857 275.8214,-982.1856"></polygon>
</g>
<!-- 2 -->
<g id="node3" class="node">
<title>2</title>
<g id="a_node3"><a xlink:title="6">
<ellipse fill="none" stroke="#000000" cx="272.3213" cy="-882" rx="27" ry="18"></ellipse>
<text text-anchor="middle" x="272.3213" y="-877.8" font-family="Times,serif" font-size="14.00" fill="#000000">☐ 2</text>
</a>
</g>
</g>
<!-- 1&#45;&gt;2 -->
<g id="edge2" class="edge">
<title>1-&gt;2</title>
<path fill="none" stroke="#000000" d="M272.3213,-935.8314C272.3213,-928.131 272.3213,-918.9743 272.3213,-910.4166"></path>
<polygon fill="#000000" stroke="#000000" points="275.8214,-910.4132 272.3213,-900.4133 268.8214,-910.4133 275.8214,-910.4132"></polygon>
</g>
<!-- 3 -->
<g id="node4" class="node">
<title>3</title>
<g id="a_node4"><a xlink:title="7">
<ellipse fill="none" stroke="#000000" cx="272.3213" cy="-810" rx="27" ry="18"></ellipse>
<text text-anchor="middle" x="272.3213" y="-805.8" font-family="Times,serif" font-size="14.00" fill="#000000">☐ 3</text>
</a>
</g>
</g>
<!-- 2&#45;&gt;3 -->
<g id="edge3" class="edge">
<title>2-&gt;3</title>
<path fill="none" stroke="#000000" d="M272.3213,-863.8314C272.3213,-856.131 272.3213,-846.9743 272.3213,-838.4166"></path>
<polygon fill="#000000" stroke="#000000" points="275.8214,-838.4132 272.3213,-828.4133 268.8214,-838.4133 275.8214,-838.4132"></polygon>
</g>
<!-- 4 -->
<g id="node5" class="node">
<title>4</title>
<g id="a_node5"><a xlink:title="8">
<ellipse fill="none" stroke="#000000" cx="272.3213" cy="-738" rx="27" ry="18"></ellipse>
<text text-anchor="middle" x="272.3213" y="-733.8" font-family="Times,serif" font-size="14.00" fill="#000000">☐ 4</text>
</a>
</g>
</g>
<!-- 3&#45;&gt;4 -->
<g id="edge4" class="edge">
<title>3-&gt;4</title>
<path fill="none" stroke="#000000" d="M272.3213,-791.8314C272.3213,-784.131 272.3213,-774.9743 272.3213,-766.4166"></path>
<polygon fill="#000000" stroke="#000000" points="275.8214,-766.4132 272.3213,-756.4133 268.8214,-766.4133 275.8214,-766.4132"></polygon>
</g>
<!-- 7 -->
<g id="node6" class="node">
<title>7</title>
<g id="a_node6"><a xlink:title="10">
<ellipse fill="none" stroke="#000000" cx="235.3213" cy="-666" rx="27" ry="18"></ellipse>
<text text-anchor="middle" x="235.3213" y="-661.8" font-family="Times,serif" font-size="14.00" fill="#000000">☐ 7</text>
</a>
</g>
</g>
<!-- 4&#45;&gt;7 -->
<g id="edge5" class="edge">
<title>4-&gt;7</title>
<path fill="none" stroke="#000000" d="M263.5528,-720.937C259.1933,-712.4537 253.826,-702.0092 248.946,-692.513"></path>
<polygon fill="#000000" stroke="#000000" points="251.9676,-690.7352 244.2838,-683.4407 245.7416,-693.9348 251.9676,-690.7352"></polygon>
</g>
<!-- 11 -->
<g id="node7" class="node">
<title>11</title>
<g id="a_node7"><a xlink:title="14">
<ellipse fill="none" stroke="#000000" cx="394.3213" cy="-666" rx="30.2015" ry="18"></ellipse>
<text text-anchor="middle" x="394.3213" y="-661.8" font-family="Times,serif" font-size="14.00" fill="#000000">☐ 11</text>
</a>
</g>
</g>
<!-- 4&#45;&gt;11 -->
<g id="edge6" class="edge">
<title>4-&gt;11</title>
<path fill="none" stroke="#000000" d="M292.7413,-725.9488C312.177,-714.4786 341.6715,-697.072 363.8799,-683.9654"></path>
<polygon fill="#000000" stroke="#000000" points="365.7659,-686.9164 372.5991,-678.8196 362.2081,-680.888 365.7659,-686.9164"></polygon>
</g>
<!-- 15 -->
<g id="node11" class="node">
<title>15</title>
<g id="a_node11"><a xlink:title="17">
<ellipse fill="none" stroke="#000000" cx="113.3213" cy="-594" rx="30.2015" ry="18"></ellipse>
<text text-anchor="middle" x="113.3213" y="-589.8" font-family="Times,serif" font-size="14.00" fill="#000000">☐ 15</text>
</a>
</g>
</g>
<!-- 7&#45;&gt;15 -->
<g id="edge9" class="edge">
<title>7-&gt;15</title>
<path fill="none" stroke="#000000" d="M214.9012,-653.9488C195.4655,-642.4786 165.9711,-625.072 143.7626,-611.9654"></path>
<polygon fill="#000000" stroke="#000000" points="145.4344,-608.888 135.0434,-606.8196 141.8766,-614.9164 145.4344,-608.888"></polygon>
</g>
<!-- 17 -->
<g id="node12" class="node">
<title>17</title>
<g id="a_node12"><a xlink:title="19">
<ellipse fill="none" stroke="#000000" cx="235.3213" cy="-594" rx="30.2015" ry="18"></ellipse>
<text text-anchor="middle" x="235.3213" y="-589.8" font-family="Times,serif" font-size="14.00" fill="#000000">☐ 17</text>
</a>
</g>
</g>
<!-- 7&#45;&gt;17 -->
<g id="edge10" class="edge">
<title>7-&gt;17</title>
<path fill="none" stroke="#000000" d="M235.3213,-647.8314C235.3213,-640.131 235.3213,-630.9743 235.3213,-622.4166"></path>
<polygon fill="#000000" stroke="#000000" points="238.8214,-622.4132 235.3213,-612.4133 231.8214,-622.4133 238.8214,-622.4132"></polygon>
</g>
<!-- 12 -->
<g id="node19" class="node">
<title>12</title>
<g id="a_node19"><a xlink:title="15">
<ellipse fill="none" stroke="#000000" cx="479.3213" cy="-594" rx="30.2015" ry="18"></ellipse>
<text text-anchor="middle" x="479.3213" y="-589.8" font-family="Times,serif" font-size="14.00" fill="#000000">☐ 12</text>
</a>
</g>
</g>
<!-- 11&#45;&gt;12 -->
<g id="edge15" class="edge">
<title>11-&gt;12</title>
<path fill="none" stroke="#000000" d="M411.9333,-651.0816C424.0141,-640.8484 440.2373,-627.1064 453.7385,-615.6701"></path>
<polygon fill="#000000" stroke="#000000" points="456.3635,-618.0335 461.7318,-608.8993 451.8391,-612.6921 456.3635,-618.0335"></polygon>
</g>
<!-- 6 -->
<g id="node8" class="node">
<title>6</title>
<g id="a_node8"><a xlink:title="9">
<ellipse fill="none" stroke="#000000" cx="721.3213" cy="-450" rx="27" ry="18"></ellipse>
<text text-anchor="middle" x="721.3213" y="-445.8" font-family="Times,serif" font-size="14.00" fill="#000000">☐ 6</text>
</a>
</g>
</g>
<!-- 23 -->
<g id="node9" class="node">
<title>23</title>
<g id="a_node9"><a xlink:title="24">
<ellipse fill="none" stroke="#000000" cx="681.3213" cy="-378" rx="30.2015" ry="18"></ellipse>
<text text-anchor="middle" x="681.3213" y="-373.8" font-family="Times,serif" font-size="14.00" fill="#000000">☐ 23</text>
</a>
</g>
</g>
<!-- 6&#45;&gt;23 -->
<g id="edge7" class="edge">
<title>6-&gt;23</title>
<path fill="none" stroke="#000000" d="M711.8418,-432.937C707.0798,-424.3654 701.2053,-413.7914 695.886,-404.2165"></path>
<polygon fill="#000000" stroke="#000000" points="698.9266,-402.4825 691.0105,-395.4407 692.8074,-405.882 698.9266,-402.4825"></polygon>
</g>
<!-- 37 -->
<g id="node10" class="node">
<title>37</title>
<g id="a_node10"><a xlink:title="36">
<ellipse fill="none" stroke="#000000" cx="761.3213" cy="-378" rx="30.2015" ry="18"></ellipse>
<text text-anchor="middle" x="761.3213" y="-373.8" font-family="Times,serif" font-size="14.00" fill="#000000">☐ 37</text>
</a>
</g>
</g>
<!-- 6&#45;&gt;37 -->
<g id="edge8" class="edge">
<title>6-&gt;37</title>
<path fill="none" stroke="#000000" d="M730.8007,-432.937C735.5627,-424.3654 741.4372,-413.7914 746.7565,-404.2165"></path>
<polygon fill="#000000" stroke="#000000" points="749.8351,-405.882 751.632,-395.4407 743.716,-402.4825 749.8351,-405.882"></polygon>
</g>
<!-- 43 -->
<g id="node34" class="node">
<title>43</title>
<g id="a_node34"><a xlink:title="42">
<ellipse fill="none" stroke="#000000" cx="600.3213" cy="-306" rx="30.2015" ry="18"></ellipse>
<text text-anchor="middle" x="600.3213" y="-301.8" font-family="Times,serif" font-size="14.00" fill="#000000">☐ 43</text>
</a>
</g>
</g>
<!-- 23&#45;&gt;43 -->
<g id="edge31" class="edge">
<title>23-&gt;43</title>
<path fill="none" stroke="#000000" d="M664.1432,-362.7307C652.6829,-352.5437 637.4432,-338.9973 624.7298,-327.6965"></path>
<polygon fill="#000000" stroke="#000000" points="626.9962,-325.0282 617.1968,-321.0004 622.3456,-330.2601 626.9962,-325.0282"></polygon>
</g>
<!-- 47 -->
<g id="node35" class="node">
<title>47</title>
<g id="a_node35"><a xlink:title="45">
<polygon fill="#c8c8c8" stroke="#000000" stroke-width="2" points="684.2957,-288.0493 686.265,-288.1479 688.214,-288.2953 690.1346,-288.4913 692.0192,-288.7353 693.8601,-289.0266 695.65,-289.3645 697.3821,-289.7479 699.0497,-290.1759 700.6466,-290.6472 702.1671,-291.1606 703.6059,-291.7147 704.9582,-292.308 706.2197,-292.9388 707.3867,-293.6054 708.4559,-294.3059 709.4248,-295.0385 710.2913,-295.8012 711.0537,-296.5918 711.7112,-297.4082 712.2634,-298.2481 712.7103,-299.1093 713.0525,-299.9894 713.2912,-300.886 713.428,-301.7965 713.4648,-302.7186 713.404,-303.6497 713.2485,-304.5873 713.0014,-305.5287 712.6661,-306.4713 712.2462,-307.4127 711.7457,-308.3503 711.1686,-309.2814 710.5191,-310.2035 709.8016,-311.114 709.0203,-312.0106 708.1797,-312.8907 707.284,-313.7519 706.3377,-314.5918 705.3448,-315.4082 704.3096,-316.1988 703.2359,-316.9615 702.1276,-317.6941 700.9882,-318.3946 699.8212,-319.0612 698.6298,-319.692 697.4169,-320.2853 696.1854,-320.8394 694.9377,-321.3528 693.6761,-321.8241 692.4027,-322.2521 691.1194,-322.6355 689.8278,-322.9734 688.5295,-323.2647 687.2258,-323.5087 685.9178,-323.7047 684.6067,-323.8521 683.2934,-323.9507 681.9788,-324 680.6637,-324 679.3491,-323.9507 678.0358,-323.8521 676.7247,-323.7047 675.4167,-323.5087 674.113,-323.2647 672.8147,-322.9734 671.5231,-322.6355 670.2398,-322.2521 668.9664,-321.8241 667.7049,-321.3528 666.4571,-320.8394 665.2256,-320.2853 664.0127,-319.692 662.8213,-319.0612 661.6543,-318.3946 660.515,-317.6941 659.4066,-316.9615 658.333,-316.1988 657.2977,-315.4082 656.3049,-314.5918 655.3585,-313.7519 654.4629,-312.8907 653.6222,-312.0106 652.8409,-311.114 652.1234,-310.2035 651.4739,-309.2814 650.8968,-308.3503 650.3963,-307.4127 649.9764,-306.4713 649.6411,-305.5287 649.394,-304.5873 649.2385,-303.6497 649.1778,-302.7186 649.2146,-301.7965 649.3513,-300.886 649.59,-299.9894 649.9322,-299.1093 650.3791,-298.2481 650.9313,-297.4082 651.5888,-296.5918 652.3512,-295.8012 653.2177,-295.0385 654.1866,-294.3059 655.2558,-293.6054 656.4228,-292.9388 657.6843,-292.308 659.0366,-291.7147 660.4754,-291.1606 661.9959,-290.6472 663.5929,-290.1759 665.2604,-289.7479 666.9925,-289.3645 668.7825,-289.0266 670.6233,-288.7353 672.5079,-288.4913 674.4285,-288.2953 676.3775,-288.1479 678.3468,-288.0493 680.3284,-288 682.3141,-288 684.2957,-288.0493"></polygon>
<text text-anchor="middle" x="681.3213" y="-301.8" font-family="Times,serif" font-size="14.00" fill="#000000">☐ 47</text>
</a>
</g>
</g>
<!-- 23&#45;&gt;47 -->
<g id="edge32" class="edge">
<title>23-&gt;47</title>
<path fill="none" stroke="#000000" d="M681.3213,-359.8314C681.3213,-352.131 681.3213,-342.9743 681.3213,-334.4166"></path>
<polygon fill="#000000" stroke="#000000" points="684.8214,-334.4132 681.3213,-324.4133 677.8214,-334.4133 684.8214,-334.4132"></polygon>
</g>
<!-- 38 -->
<g id="node48" class="node">
<title>38</title>
<g id="a_node48"><a xlink:title="37">
<ellipse fill="none" stroke="#000000" cx="762.3213" cy="-306" rx="30.2015" ry="18"></ellipse>
<text text-anchor="middle" x="762.3213" y="-301.8" font-family="Times,serif" font-size="14.00" fill="#000000">☐ 38</text>
</a>
</g>
</g>
<!-- 37&#45;&gt;38 -->
<g id="edge43" class="edge">
<title>37-&gt;38</title>
<path fill="none" stroke="#000000" d="M761.5736,-359.8314C761.6805,-352.131 761.8077,-342.9743 761.9266,-334.4166"></path>
<polygon fill="#000000" stroke="#000000" points="765.4262,-334.4609 762.0655,-324.4133 758.4269,-334.3637 765.4262,-334.4609"></polygon>
</g>
<!-- 26 -->
<g id="node22" class="node">
<title>26</title>
<g id="a_node22"><a xlink:title="27">
<ellipse fill="none" stroke="#000000" cx="34.3213" cy="-522" rx="30.2015" ry="18"></ellipse>
<text text-anchor="middle" x="34.3213" y="-517.8" font-family="Times,serif" font-size="14.00" fill="#000000">☐ 26</text>
</a>
</g>
</g>
<!-- 15&#45;&gt;26 -->
<g id="edge20" class="edge">
<title>15-&gt;26</title>
<path fill="none" stroke="#000000" d="M96.5674,-578.7307C85.5698,-568.7075 71.0037,-555.4321 58.7272,-544.2434"></path>
<polygon fill="#000000" stroke="#000000" points="60.7996,-541.3966 51.051,-537.2473 56.0843,-546.5702 60.7996,-541.3966"></polygon>
</g>
<!-- 28 -->
<g id="node23" class="node">
<title>28</title>
<g id="a_node23"><a xlink:title="29">
<ellipse fill="none" stroke="#000000" cx="113.3213" cy="-522" rx="30.2015" ry="18"></ellipse>
<text text-anchor="middle" x="113.3213" y="-517.8" font-family="Times,serif" font-size="14.00" fill="#000000">☐ 28</text>
</a>
</g>
</g>
<!-- 15&#45;&gt;28 -->
<g id="edge21" class="edge">
<title>15-&gt;28</title>
<path fill="none" stroke="#000000" d="M113.3213,-575.8314C113.3213,-568.131 113.3213,-558.9743 113.3213,-550.4166"></path>
<polygon fill="#000000" stroke="#000000" points="116.8214,-550.4132 113.3213,-540.4133 109.8214,-550.4133 116.8214,-550.4132"></polygon>
</g>
<!-- 31 -->
<g id="node25" class="node">
<title>31</title>
<g id="a_node25"><a xlink:title="31">
<ellipse fill="none" stroke="#000000" cx="195.3213" cy="-522" rx="30.2015" ry="18"></ellipse>
<text text-anchor="middle" x="195.3213" y="-517.8" font-family="Times,serif" font-size="14.00" fill="#000000">☐ 31</text>
</a>
</g>
</g>
<!-- 17&#45;&gt;31 -->
<g id="edge23" class="edge">
<title>17-&gt;31</title>
<path fill="none" stroke="#000000" d="M225.6384,-576.5708C220.9216,-568.0807 215.1506,-557.6929 209.9143,-548.2674"></path>
<polygon fill="#000000" stroke="#000000" points="212.831,-546.3105 204.915,-539.2687 206.7119,-549.71 212.831,-546.3105"></polygon>
</g>
<!-- 45 -->
<g id="node26" class="node">
<title>45</title>
<g id="a_node26"><a xlink:title="44">
<ellipse fill="none" stroke="#000000" cx="275.3213" cy="-522" rx="30.2015" ry="18"></ellipse>
<text text-anchor="middle" x="275.3213" y="-517.8" font-family="Times,serif" font-size="14.00" fill="#000000">☐ 45</text>
</a>
</g>
</g>
<!-- 17&#45;&gt;45 -->
<g id="edge24" class="edge">
<title>17-&gt;45</title>
<path fill="none" stroke="#000000" d="M245.0041,-576.5708C249.7209,-568.0807 255.4919,-557.6929 260.7283,-548.2674"></path>
<polygon fill="#000000" stroke="#000000" points="263.9306,-549.71 265.7275,-539.2687 257.8115,-546.3105 263.9306,-549.71"></polygon>
</g>
<!-- 8 -->
<g id="node13" class="node">
<title>8</title>
<g id="a_node13"><a xlink:title="11">
<ellipse fill="none" stroke="#000000" cx="479.3213" cy="-522" rx="27" ry="18"></ellipse>
<text text-anchor="middle" x="479.3213" y="-517.8" font-family="Times,serif" font-size="14.00" fill="#000000">☐ 8</text>
</a>
</g>
</g>
<!-- 20 -->
<g id="node14" class="node">
<title>20</title>
<g id="a_node14"><a xlink:title="21">
<ellipse fill="none" stroke="#000000" cx="439.3213" cy="-450" rx="30.2015" ry="18"></ellipse>
<text text-anchor="middle" x="439.3213" y="-445.8" font-family="Times,serif" font-size="14.00" fill="#000000">☐ 20</text>
</a>
</g>
</g>
<!-- 8&#45;&gt;20 -->
<g id="edge11" class="edge">
<title>8-&gt;20</title>
<path fill="none" stroke="#000000" d="M469.8418,-504.937C465.0798,-496.3654 459.2053,-485.7914 453.886,-476.2165"></path>
<polygon fill="#000000" stroke="#000000" points="456.9266,-474.4825 449.0105,-467.4407 450.8074,-477.882 456.9266,-474.4825"></polygon>
</g>
<!-- 21 -->
<g id="node15" class="node">
<title>21</title>
<g id="a_node15"><a xlink:title="22">
<ellipse fill="none" stroke="#000000" cx="519.3213" cy="-450" rx="30.2015" ry="18"></ellipse>
<text text-anchor="middle" x="519.3213" y="-445.8" font-family="Times,serif" font-size="14.00" fill="#000000">☐ 21</text>
</a>
</g>
</g>
<!-- 8&#45;&gt;21 -->
<g id="edge12" class="edge">
<title>8-&gt;21</title>
<path fill="none" stroke="#000000" d="M488.8007,-504.937C493.5627,-496.3654 499.4372,-485.7914 504.7565,-476.2165"></path>
<polygon fill="#000000" stroke="#000000" points="507.8351,-477.882 509.632,-467.4407 501.716,-474.4825 507.8351,-477.882"></polygon>
</g>
<!-- 33 -->
<g id="node30" class="node">
<title>33</title>
<g id="a_node30"><a xlink:title="32">
<ellipse fill="none" stroke="#000000" cx="357.3213" cy="-378" rx="30.2015" ry="18"></ellipse>
<text text-anchor="middle" x="357.3213" y="-373.8" font-family="Times,serif" font-size="14.00" fill="#000000">☐ 33</text>
</a>
</g>
</g>
<!-- 20&#45;&gt;33 -->
<g id="edge27" class="edge">
<title>20-&gt;33</title>
<path fill="none" stroke="#000000" d="M422.3308,-435.0816C410.7541,-424.9167 395.2343,-411.2895 382.2619,-399.8991"></path>
<polygon fill="#000000" stroke="#000000" points="384.3958,-397.115 374.5721,-393.147 379.7772,-402.3751 384.3958,-397.115"></polygon>
</g>
<!-- 71 -->
<g id="node31" class="node">
<title>71</title>
<g id="a_node31"><a xlink:title="66">
<polygon fill="#c8c8c8" stroke="#000000" stroke-width="2" points="441.2957,-360.0493 443.265,-360.1479 445.214,-360.2953 447.1346,-360.4913 449.0192,-360.7353 450.8601,-361.0266 452.65,-361.3645 454.3821,-361.7479 456.0497,-362.1759 457.6466,-362.6472 459.1671,-363.1606 460.6059,-363.7147 461.9582,-364.308 463.2197,-364.9388 464.3867,-365.6054 465.4559,-366.3059 466.4248,-367.0385 467.2913,-367.8012 468.0537,-368.5918 468.7112,-369.4082 469.2634,-370.2481 469.7103,-371.1093 470.0525,-371.9894 470.2912,-372.886 470.428,-373.7965 470.4648,-374.7186 470.404,-375.6497 470.2485,-376.5873 470.0014,-377.5287 469.6661,-378.4713 469.2462,-379.4127 468.7457,-380.3503 468.1686,-381.2814 467.5191,-382.2035 466.8016,-383.114 466.0203,-384.0106 465.1797,-384.8907 464.284,-385.7519 463.3377,-386.5918 462.3448,-387.4082 461.3096,-388.1988 460.2359,-388.9615 459.1276,-389.6941 457.9882,-390.3946 456.8212,-391.0612 455.6298,-391.692 454.4169,-392.2853 453.1854,-392.8394 451.9377,-393.3528 450.6761,-393.8241 449.4027,-394.2521 448.1194,-394.6355 446.8278,-394.9734 445.5295,-395.2647 444.2258,-395.5087 442.9178,-395.7047 441.6067,-395.8521 440.2934,-395.9507 438.9788,-396 437.6637,-396 436.3491,-395.9507 435.0358,-395.8521 433.7247,-395.7047 432.4167,-395.5087 431.113,-395.2647 429.8147,-394.9734 428.5231,-394.6355 427.2398,-394.2521 425.9664,-393.8241 424.7049,-393.3528 423.4571,-392.8394 422.2256,-392.2853 421.0127,-391.692 419.8213,-391.0612 418.6543,-390.3946 417.515,-389.6941 416.4066,-388.9615 415.333,-388.1988 414.2977,-387.4082 413.3049,-386.5918 412.3585,-385.7519 411.4629,-384.8907 410.6222,-384.0106 409.8409,-383.114 409.1234,-382.2035 408.4739,-381.2814 407.8968,-380.3503 407.3963,-379.4127 406.9764,-378.4713 406.6411,-377.5287 406.394,-376.5873 406.2385,-375.6497 406.1778,-374.7186 406.2146,-373.7965 406.3513,-372.886 406.59,-371.9894 406.9322,-371.1093 407.3791,-370.2481 407.9313,-369.4082 408.5888,-368.5918 409.3512,-367.8012 410.2177,-367.0385 411.1866,-366.3059 412.2558,-365.6054 413.4228,-364.9388 414.6843,-364.308 416.0366,-363.7147 417.4754,-363.1606 418.9959,-362.6472 420.5929,-362.1759 422.2604,-361.7479 423.9925,-361.3645 425.7825,-361.0266 427.6233,-360.7353 429.5079,-360.4913 431.4285,-360.2953 433.3775,-360.1479 435.3468,-360.0493 437.3284,-360 439.3141,-360 441.2957,-360.0493"></polygon>
<text text-anchor="middle" x="438.3213" y="-373.8" font-family="Times,serif" font-size="14.00" fill="#000000">☐ 71</text>
</a>
</g>
</g>
<!-- 20&#45;&gt;71 -->
<g id="edge28" class="edge">
<title>20-&gt;71</title>
<path fill="none" stroke="#000000" d="M439.0689,-431.8314C438.962,-424.131 438.8348,-414.9743 438.7159,-406.4166"></path>
<polygon fill="#000000" stroke="#000000" points="442.2156,-406.3637 438.577,-396.4133 435.2163,-406.4609 442.2156,-406.3637"></polygon>
</g>
<!-- 22 -->
<g id="node32" class="node">
<title>22</title>
<g id="a_node32"><a xlink:title="23">
<ellipse fill="none" stroke="#000000" cx="519.3213" cy="-378" rx="30.2015" ry="18"></ellipse>
<text text-anchor="middle" x="519.3213" y="-373.8" font-family="Times,serif" font-size="14.00" fill="#000000">☐ 22</text>
</a>
</g>
</g>
<!-- 21&#45;&gt;22 -->
<g id="edge29" class="edge">
<title>21-&gt;22</title>
<path fill="none" stroke="#000000" d="M519.3213,-431.8314C519.3213,-424.131 519.3213,-414.9743 519.3213,-406.4166"></path>
<polygon fill="#000000" stroke="#000000" points="522.8214,-406.4132 519.3213,-396.4133 515.8214,-406.4133 522.8214,-406.4132"></polygon>
</g>
<!-- 9 -->
<g id="node16" class="node">
<title>9</title>
<g id="a_node16"><a xlink:title="12">
<ellipse fill="none" stroke="#000000" cx="721.3213" cy="-234" rx="27" ry="18"></ellipse>
<text text-anchor="middle" x="721.3213" y="-229.8" font-family="Times,serif" font-size="14.00" fill="#000000">☐ 9</text>
</a>
</g>
</g>
<!-- 10 -->
<g id="node17" class="node">
<title>10</title>
<g id="a_node17"><a xlink:title="13">
<ellipse fill="none" stroke="#000000" cx="721.3213" cy="-162" rx="30.2015" ry="18"></ellipse>
<text text-anchor="middle" x="721.3213" y="-157.8" font-family="Times,serif" font-size="14.00" fill="#000000">☐ 10</text>
</a>
</g>
</g>
<!-- 9&#45;&gt;10 -->
<g id="edge13" class="edge">
<title>9-&gt;10</title>
<path fill="none" stroke="#000000" d="M721.3213,-215.8314C721.3213,-208.131 721.3213,-198.9743 721.3213,-190.4166"></path>
<polygon fill="#000000" stroke="#000000" points="724.8214,-190.4132 721.3213,-180.4133 717.8214,-190.4133 724.8214,-190.4132"></polygon>
</g>
<!-- 64 -->
<g id="node18" class="node">
<title>64</title>
<g id="a_node18"><a xlink:title="60">
<ellipse fill="none" stroke="#000000" cx="721.3213" cy="-90" rx="30.2015" ry="18"></ellipse>
<text text-anchor="middle" x="721.3213" y="-85.8" font-family="Times,serif" font-size="14.00" fill="#000000">☐ 64</text>
</a>
</g>
</g>
<!-- 10&#45;&gt;64 -->
<g id="edge14" class="edge">
<title>10-&gt;64</title>
<path fill="none" stroke="#000000" d="M721.3213,-143.8314C721.3213,-136.131 721.3213,-126.9743 721.3213,-118.4166"></path>
<polygon fill="#000000" stroke="#000000" points="724.8214,-118.4132 721.3213,-108.4133 717.8214,-118.4133 724.8214,-118.4132"></polygon>
</g>
<!-- 65 -->
<g id="node63" class="node">
<title>65</title>
<g id="a_node63"><a xlink:title="61">
<polygon fill="#c8c8c8" stroke="#000000" stroke-width="2" points="724.2957,-.0493 726.265,-.1479 728.214,-.2953 730.1346,-.4913 732.0192,-.7353 733.8601,-1.0266 735.65,-1.3645 737.3821,-1.7479 739.0497,-2.1759 740.6466,-2.6472 742.1671,-3.1606 743.6059,-3.7147 744.9582,-4.308 746.2197,-4.9388 747.3867,-5.6054 748.4559,-6.3059 749.4248,-7.0385 750.2913,-7.8012 751.0537,-8.5918 751.7112,-9.4082 752.2634,-10.2481 752.7103,-11.1093 753.0525,-11.9894 753.2912,-12.886 753.428,-13.7965 753.4648,-14.7186 753.404,-15.6497 753.2485,-16.5873 753.0014,-17.5287 752.6661,-18.4713 752.2462,-19.4127 751.7457,-20.3503 751.1686,-21.2814 750.5191,-22.2035 749.8016,-23.114 749.0203,-24.0106 748.1797,-24.8907 747.284,-25.7519 746.3377,-26.5918 745.3448,-27.4082 744.3096,-28.1988 743.2359,-28.9615 742.1276,-29.6941 740.9882,-30.3946 739.8212,-31.0612 738.6298,-31.692 737.4169,-32.2853 736.1854,-32.8394 734.9377,-33.3528 733.6761,-33.8241 732.4027,-34.2521 731.1194,-34.6355 729.8278,-34.9734 728.5295,-35.2647 727.2258,-35.5087 725.9178,-35.7047 724.6067,-35.8521 723.2934,-35.9507 721.9788,-36 720.6637,-36 719.3491,-35.9507 718.0358,-35.8521 716.7247,-35.7047 715.4167,-35.5087 714.113,-35.2647 712.8147,-34.9734 711.5231,-34.6355 710.2398,-34.2521 708.9664,-33.8241 707.7049,-33.3528 706.4571,-32.8394 705.2256,-32.2853 704.0127,-31.692 702.8213,-31.0612 701.6543,-30.3946 700.515,-29.6941 699.4066,-28.9615 698.333,-28.1988 697.2977,-27.4082 696.3049,-26.5918 695.3585,-25.7519 694.4629,-24.8907 693.6222,-24.0106 692.8409,-23.114 692.1234,-22.2035 691.4739,-21.2814 690.8968,-20.3503 690.3963,-19.4127 689.9764,-18.4713 689.6411,-17.5287 689.394,-16.5873 689.2385,-15.6497 689.1778,-14.7186 689.2146,-13.7965 689.3513,-12.886 689.59,-11.9894 689.9322,-11.1093 690.3791,-10.2481 690.9313,-9.4082 691.5888,-8.5918 692.3512,-7.8012 693.2177,-7.0385 694.1866,-6.3059 695.2558,-5.6054 696.4228,-4.9388 697.6843,-4.308 699.0366,-3.7147 700.4754,-3.1606 701.9959,-2.6472 703.5929,-2.1759 705.2604,-1.7479 706.9925,-1.3645 708.7825,-1.0266 710.6233,-.7353 712.5079,-.4913 714.4285,-.2953 716.3775,-.1479 718.3468,-.0493 720.3284,0 722.3141,0 724.2957,-.0493"></polygon>
<text text-anchor="middle" x="721.3213" y="-13.8" font-family="Times,serif" font-size="14.00" fill="#000000">☐ 65</text>
</a>
</g>
</g>
<!-- 64&#45;&gt;65 -->
<g id="edge60" class="edge">
<title>64-&gt;65</title>
<path fill="none" stroke="#000000" d="M721.3213,-71.8314C721.3213,-64.131 721.3213,-54.9743 721.3213,-46.4166"></path>
<polygon fill="#000000" stroke="#000000" points="724.8214,-46.4132 721.3213,-36.4133 717.8214,-46.4133 724.8214,-46.4132"></polygon>
</g>
<!-- 12&#45;&gt;8 -->
<g id="edge16" class="edge">
<title>12-&gt;8</title>
<path fill="none" stroke="#000000" d="M479.3213,-575.8314C479.3213,-568.131 479.3213,-558.9743 479.3213,-550.4166"></path>
<polygon fill="#000000" stroke="#000000" points="482.8214,-550.4132 479.3213,-540.4133 475.8214,-550.4133 482.8214,-550.4132"></polygon>
</g>
<!-- 14 -->
<g id="node20" class="node">
<title>14</title>
<g id="a_node20"><a xlink:title="16">
<ellipse fill="none" stroke="#000000" cx="721.3213" cy="-522" rx="30.2015" ry="18"></ellipse>
<text text-anchor="middle" x="721.3213" y="-517.8" font-family="Times,serif" font-size="14.00" fill="#000000">☐ 14</text>
</a>
</g>
</g>
<!-- 12&#45;&gt;14 -->
<g id="edge17" class="edge">
<title>12-&gt;14</title>
<path fill="none" stroke="#000000" d="M506.6113,-585.8806C550.1183,-572.9364 635.2729,-547.6012 684.2556,-533.0278"></path>
<polygon fill="#000000" stroke="#000000" points="685.5443,-536.2961 694.1309,-530.0897 683.548,-529.5867 685.5443,-536.2961"></polygon>
</g>
<!-- 14&#45;&gt;6 -->
<g id="edge18" class="edge">
<title>14-&gt;6</title>
<path fill="none" stroke="#000000" d="M721.3213,-503.8314C721.3213,-496.131 721.3213,-486.9743 721.3213,-478.4166"></path>
<polygon fill="#000000" stroke="#000000" points="724.8214,-478.4132 721.3213,-468.4133 717.8214,-478.4133 724.8214,-478.4132"></polygon>
</g>
<!-- 16 -->
<g id="node21" class="node">
<title>16</title>
<g id="a_node21"><a xlink:title="18">
<ellipse fill="none" stroke="#000000" cx="879.3213" cy="-450" rx="30.2015" ry="18"></ellipse>
<text text-anchor="middle" x="879.3213" y="-445.8" font-family="Times,serif" font-size="14.00" fill="#000000">☐ 16</text>
</a>
</g>
</g>
<!-- 14&#45;&gt;16 -->
<g id="edge19" class="edge">
<title>14-&gt;16</title>
<path fill="none" stroke="#000000" d="M745.6625,-510.9078C772.5322,-498.6634 815.9485,-478.8787 845.9722,-465.197"></path>
<polygon fill="#000000" stroke="#000000" points="847.5633,-468.3183 855.2116,-460.9867 844.6605,-461.9485 847.5633,-468.3183"></polygon>
</g>
<!-- 48 -->
<g id="node24" class="node">
<title>48</title>
<g id="a_node24"><a xlink:title="46">
<ellipse fill="none" stroke="#000000" cx="921.3213" cy="-378" rx="30.2015" ry="18"></ellipse>
<text text-anchor="middle" x="921.3213" y="-373.8" font-family="Times,serif" font-size="14.00" fill="#000000">☐ 48</text>
</a>
</g>
</g>
<!-- 16&#45;&gt;48 -->
<g id="edge22" class="edge">
<title>16-&gt;48</title>
<path fill="none" stroke="#000000" d="M889.2747,-432.937C894.2748,-424.3654 900.443,-413.7914 906.0283,-404.2165"></path>
<polygon fill="#000000" stroke="#000000" points="909.132,-405.842 911.1475,-395.4407 903.0855,-402.3149 909.132,-405.842"></polygon>
</g>
<!-- 27 -->
<g id="node39" class="node">
<title>27</title>
<g id="a_node39"><a xlink:title="28">
<ellipse fill="none" stroke="#000000" cx="33.3213" cy="-450" rx="30.2015" ry="18"></ellipse>
<text text-anchor="middle" x="33.3213" y="-445.8" font-family="Times,serif" font-size="14.00" fill="#000000">☐ 27</text>
</a>
</g>
</g>
<!-- 26&#45;&gt;27 -->
<g id="edge35" class="edge">
<title>26-&gt;27</title>
<path fill="none" stroke="#000000" d="M34.0689,-503.8314C33.962,-496.131 33.8348,-486.9743 33.7159,-478.4166"></path>
<polygon fill="#000000" stroke="#000000" points="37.2156,-478.3637 33.577,-468.4133 30.2163,-478.4609 37.2156,-478.3637"></polygon>
</g>
<!-- 59 -->
<g id="node41" class="node">
<title>59</title>
<g id="a_node41"><a xlink:title="55">
<ellipse fill="none" stroke="#000000" cx="113.3213" cy="-450" rx="30.2015" ry="18"></ellipse>
<text text-anchor="middle" x="113.3213" y="-445.8" font-family="Times,serif" font-size="14.00" fill="#000000">☐ 59</text>
</a>
</g>
</g>
<!-- 28&#45;&gt;59 -->
<g id="edge37" class="edge">
<title>28-&gt;59</title>
<path fill="none" stroke="#000000" d="M113.3213,-503.8314C113.3213,-496.131 113.3213,-486.9743 113.3213,-478.4166"></path>
<polygon fill="#000000" stroke="#000000" points="116.8214,-478.4132 113.3213,-468.4133 109.8214,-478.4133 116.8214,-478.4132"></polygon>
</g>
<!-- 18 -->
<g id="node27" class="node">
<title>18</title>
<g id="a_node27"><a xlink:title="20">
<ellipse fill="none" stroke="#000000" cx="881.3213" cy="-306" rx="30.2015" ry="18"></ellipse>
<text text-anchor="middle" x="881.3213" y="-301.8" font-family="Times,serif" font-size="14.00" fill="#000000">☐ 18</text>
</a>
</g>
</g>
<!-- 48&#45;&gt;18 -->
<g id="edge51" class="edge">
<title>48-&gt;18</title>
<path fill="none" stroke="#000000" d="M911.6384,-360.5708C906.9216,-352.0807 901.1506,-341.6929 895.9143,-332.2674"></path>
<polygon fill="#000000" stroke="#000000" points="898.831,-330.3105 890.915,-323.2687 892.7119,-333.71 898.831,-330.3105"></polygon>
</g>
<!-- 39 -->
<g id="node49" class="node">
<title>39</title>
<g id="a_node49"><a xlink:title="38">
<ellipse fill="none" stroke="#000000" cx="961.3213" cy="-306" rx="30.2015" ry="18"></ellipse>
<text text-anchor="middle" x="961.3213" y="-301.8" font-family="Times,serif" font-size="14.00" fill="#000000">☐ 39</text>
</a>
</g>
</g>
<!-- 48&#45;&gt;39 -->
<g id="edge52" class="edge">
<title>48-&gt;39</title>
<path fill="none" stroke="#000000" d="M931.0041,-360.5708C935.7209,-352.0807 941.4919,-341.6929 946.7283,-332.2674"></path>
<polygon fill="#000000" stroke="#000000" points="949.9306,-333.71 951.7275,-323.2687 943.8115,-330.3105 949.9306,-333.71"></polygon>
</g>
<!-- 70 -->
<g id="node54" class="node">
<title>70</title>
<g id="a_node54"><a xlink:title="65">
<ellipse fill="none" stroke="#000000" cx="1043.3213" cy="-306" rx="30.2015" ry="18"></ellipse>
<text text-anchor="middle" x="1043.3213" y="-301.8" font-family="Times,serif" font-size="14.00" fill="#000000">☐ 70</text>
</a>
</g>
</g>
<!-- 48&#45;&gt;70 -->
<g id="edge53" class="edge">
<title>48-&gt;70</title>
<path fill="none" stroke="#000000" d="M942.8516,-365.2936C962.2446,-353.8485 990.965,-336.8988 1012.7375,-324.0494"></path>
<polygon fill="#000000" stroke="#000000" points="1014.7626,-326.9184 1021.5958,-318.8216 1011.2048,-320.8899 1014.7626,-326.9184"></polygon>
</g>
<!-- 61 -->
<g id="node43" class="node">
<title>61</title>
<g id="a_node43"><a xlink:title="57">
<ellipse fill="none" stroke="#000000" cx="194.3213" cy="-450" rx="30.2015" ry="18"></ellipse>
<text text-anchor="middle" x="194.3213" y="-445.8" font-family="Times,serif" font-size="14.00" fill="#000000">☐ 61</text>
</a>
</g>
</g>
<!-- 31&#45;&gt;61 -->
<g id="edge38" class="edge">
<title>31-&gt;61</title>
<path fill="none" stroke="#000000" d="M195.0689,-503.8314C194.962,-496.131 194.8348,-486.9743 194.7159,-478.4166"></path>
<polygon fill="#000000" stroke="#000000" points="198.2156,-478.3637 194.577,-468.4133 191.2163,-478.4609 198.2156,-478.3637"></polygon>
</g>
<!-- 24 -->
<g id="node36" class="node">
<title>24</title>
<g id="a_node36"><a xlink:title="25">
<polygon fill="#c8c8c8" stroke="#000000" stroke-width="2" points="278.2957,-432.0493 280.265,-432.1479 282.214,-432.2953 284.1346,-432.4913 286.0192,-432.7353 287.8601,-433.0266 289.65,-433.3645 291.3821,-433.7479 293.0497,-434.1759 294.6466,-434.6472 296.1671,-435.1606 297.6059,-435.7147 298.9582,-436.308 300.2197,-436.9388 301.3867,-437.6054 302.4559,-438.3059 303.4248,-439.0385 304.2913,-439.8012 305.0537,-440.5918 305.7112,-441.4082 306.2634,-442.2481 306.7103,-443.1093 307.0525,-443.9894 307.2912,-444.886 307.428,-445.7965 307.4648,-446.7186 307.404,-447.6497 307.2485,-448.5873 307.0014,-449.5287 306.6661,-450.4713 306.2462,-451.4127 305.7457,-452.3503 305.1686,-453.2814 304.5191,-454.2035 303.8016,-455.114 303.0203,-456.0106 302.1797,-456.8907 301.284,-457.7519 300.3377,-458.5918 299.3448,-459.4082 298.3096,-460.1988 297.2359,-460.9615 296.1276,-461.6941 294.9882,-462.3946 293.8212,-463.0612 292.6298,-463.692 291.4169,-464.2853 290.1854,-464.8394 288.9377,-465.3528 287.6761,-465.8241 286.4027,-466.2521 285.1194,-466.6355 283.8278,-466.9734 282.5295,-467.2647 281.2258,-467.5087 279.9178,-467.7047 278.6067,-467.8521 277.2934,-467.9507 275.9788,-468 274.6637,-468 273.3491,-467.9507 272.0358,-467.8521 270.7247,-467.7047 269.4167,-467.5087 268.113,-467.2647 266.8147,-466.9734 265.5231,-466.6355 264.2398,-466.2521 262.9664,-465.8241 261.7049,-465.3528 260.4571,-464.8394 259.2256,-464.2853 258.0127,-463.692 256.8213,-463.0612 255.6543,-462.3946 254.515,-461.6941 253.4066,-460.9615 252.333,-460.1988 251.2977,-459.4082 250.3049,-458.5918 249.3585,-457.7519 248.4629,-456.8907 247.6222,-456.0106 246.8409,-455.114 246.1234,-454.2035 245.4739,-453.2814 244.8968,-452.3503 244.3963,-451.4127 243.9764,-450.4713 243.6411,-449.5287 243.394,-448.5873 243.2385,-447.6497 243.1778,-446.7186 243.2146,-445.7965 243.3513,-444.886 243.59,-443.9894 243.9322,-443.1093 244.3791,-442.2481 244.9313,-441.4082 245.5888,-440.5918 246.3512,-439.8012 247.2177,-439.0385 248.1866,-438.3059 249.2558,-437.6054 250.4228,-436.9388 251.6843,-436.308 253.0366,-435.7147 254.4754,-435.1606 255.9959,-434.6472 257.5929,-434.1759 259.2604,-433.7479 260.9925,-433.3645 262.7825,-433.0266 264.6233,-432.7353 266.5079,-432.4913 268.4285,-432.2953 270.3775,-432.1479 272.3468,-432.0493 274.3284,-432 276.3141,-432 278.2957,-432.0493"></polygon>
<text text-anchor="middle" x="275.3213" y="-445.8" font-family="Times,serif" font-size="14.00" fill="#000000">☐ 24</text>
</a>
</g>
</g>
<!-- 45&#45;&gt;24 -->
<g id="edge49" class="edge">
<title>45-&gt;24</title>
<path fill="none" stroke="#000000" d="M275.3213,-503.8314C275.3213,-496.131 275.3213,-486.9743 275.3213,-478.4166"></path>
<polygon fill="#000000" stroke="#000000" points="278.8214,-478.4132 275.3213,-468.4133 271.8214,-478.4133 278.8214,-478.4132"></polygon>
</g>
<!-- 29 -->
<g id="node42" class="node">
<title>29</title>
<g id="a_node42"><a xlink:title="30">
<polygon fill="#c8c8c8" stroke="#000000" stroke-width="2" points="361.2957,-432.0493 363.265,-432.1479 365.214,-432.2953 367.1346,-432.4913 369.0192,-432.7353 370.8601,-433.0266 372.65,-433.3645 374.3821,-433.7479 376.0497,-434.1759 377.6466,-434.6472 379.1671,-435.1606 380.6059,-435.7147 381.9582,-436.308 383.2197,-436.9388 384.3867,-437.6054 385.4559,-438.3059 386.4248,-439.0385 387.2913,-439.8012 388.0537,-440.5918 388.7112,-441.4082 389.2634,-442.2481 389.7103,-443.1093 390.0525,-443.9894 390.2912,-444.886 390.428,-445.7965 390.4648,-446.7186 390.404,-447.6497 390.2485,-448.5873 390.0014,-449.5287 389.6661,-450.4713 389.2462,-451.4127 388.7457,-452.3503 388.1686,-453.2814 387.5191,-454.2035 386.8016,-455.114 386.0203,-456.0106 385.1797,-456.8907 384.284,-457.7519 383.3377,-458.5918 382.3448,-459.4082 381.3096,-460.1988 380.2359,-460.9615 379.1276,-461.6941 377.9882,-462.3946 376.8212,-463.0612 375.6298,-463.692 374.4169,-464.2853 373.1854,-464.8394 371.9377,-465.3528 370.6761,-465.8241 369.4027,-466.2521 368.1194,-466.6355 366.8278,-466.9734 365.5295,-467.2647 364.2258,-467.5087 362.9178,-467.7047 361.6067,-467.8521 360.2934,-467.9507 358.9788,-468 357.6637,-468 356.3491,-467.9507 355.0358,-467.8521 353.7247,-467.7047 352.4167,-467.5087 351.113,-467.2647 349.8147,-466.9734 348.5231,-466.6355 347.2398,-466.2521 345.9664,-465.8241 344.7049,-465.3528 343.4571,-464.8394 342.2256,-464.2853 341.0127,-463.692 339.8213,-463.0612 338.6543,-462.3946 337.515,-461.6941 336.4066,-460.9615 335.333,-460.1988 334.2977,-459.4082 333.3049,-458.5918 332.3585,-457.7519 331.4629,-456.8907 330.6222,-456.0106 329.8409,-455.114 329.1234,-454.2035 328.4739,-453.2814 327.8968,-452.3503 327.3963,-451.4127 326.9764,-450.4713 326.6411,-449.5287 326.394,-448.5873 326.2385,-447.6497 326.1778,-446.7186 326.2146,-445.7965 326.3513,-444.886 326.59,-443.9894 326.9322,-443.1093 327.3791,-442.2481 327.9313,-441.4082 328.5888,-440.5918 329.3512,-439.8012 330.2177,-439.0385 331.1866,-438.3059 332.2558,-437.6054 333.4228,-436.9388 334.6843,-436.308 336.0366,-435.7147 337.4754,-435.1606 338.9959,-434.6472 340.5929,-434.1759 342.2604,-433.7479 343.9925,-433.3645 345.7825,-433.0266 347.6233,-432.7353 349.5079,-432.4913 351.4285,-432.2953 353.3775,-432.1479 355.3468,-432.0493 357.3284,-432 359.3141,-432 361.2957,-432.0493"></polygon>
<text text-anchor="middle" x="358.3213" y="-445.8" font-family="Times,serif" font-size="14.00" fill="#000000">☐ 29</text>
</a>
</g>
</g>
<!-- 45&#45;&gt;29 -->
<g id="edge50" class="edge">
<title>45-&gt;29</title>
<path fill="none" stroke="#000000" d="M292.5189,-507.0816C304.4727,-496.712 320.5801,-482.7393 333.8663,-471.2139"></path>
<polygon fill="#000000" stroke="#000000" points="336.4516,-473.6047 341.712,-464.408 331.8646,-468.317 336.4516,-473.6047"></polygon>
</g>
<!-- 50 -->
<g id="node28" class="node">
<title>50</title>
<g id="a_node28"><a xlink:title="48">
<polygon fill="#c8c8c8" stroke="#000000" stroke-width="2" points="801.2957,-216.0493 803.265,-216.1479 805.214,-216.2953 807.1346,-216.4913 809.0192,-216.7353 810.8601,-217.0266 812.65,-217.3645 814.3821,-217.7479 816.0497,-218.1759 817.6466,-218.6472 819.1671,-219.1606 820.6059,-219.7147 821.9582,-220.308 823.2197,-220.9388 824.3867,-221.6054 825.4559,-222.3059 826.4248,-223.0385 827.2913,-223.8012 828.0537,-224.5918 828.7112,-225.4082 829.2634,-226.2481 829.7103,-227.1093 830.0525,-227.9894 830.2912,-228.886 830.428,-229.7965 830.4648,-230.7186 830.404,-231.6497 830.2485,-232.5873 830.0014,-233.5287 829.6661,-234.4713 829.2462,-235.4127 828.7457,-236.3503 828.1686,-237.2814 827.5191,-238.2035 826.8016,-239.114 826.0203,-240.0106 825.1797,-240.8907 824.284,-241.7519 823.3377,-242.5918 822.3448,-243.4082 821.3096,-244.1988 820.2359,-244.9615 819.1276,-245.6941 817.9882,-246.3946 816.8212,-247.0612 815.6298,-247.692 814.4169,-248.2853 813.1854,-248.8394 811.9377,-249.3528 810.6761,-249.8241 809.4027,-250.2521 808.1194,-250.6355 806.8278,-250.9734 805.5295,-251.2647 804.2258,-251.5087 802.9178,-251.7047 801.6067,-251.8521 800.2934,-251.9507 798.9788,-252 797.6637,-252 796.3491,-251.9507 795.0358,-251.8521 793.7247,-251.7047 792.4167,-251.5087 791.113,-251.2647 789.8147,-250.9734 788.5231,-250.6355 787.2398,-250.2521 785.9664,-249.8241 784.7049,-249.3528 783.4571,-248.8394 782.2256,-248.2853 781.0127,-247.692 779.8213,-247.0612 778.6543,-246.3946 777.515,-245.6941 776.4066,-244.9615 775.333,-244.1988 774.2977,-243.4082 773.3049,-242.5918 772.3585,-241.7519 771.4629,-240.8907 770.6222,-240.0106 769.8409,-239.114 769.1234,-238.2035 768.4739,-237.2814 767.8968,-236.3503 767.3963,-235.4127 766.9764,-234.4713 766.6411,-233.5287 766.394,-232.5873 766.2385,-231.6497 766.1778,-230.7186 766.2146,-229.7965 766.3513,-228.886 766.59,-227.9894 766.9322,-227.1093 767.3791,-226.2481 767.9313,-225.4082 768.5888,-224.5918 769.3512,-223.8012 770.2177,-223.0385 771.1866,-222.3059 772.2558,-221.6054 773.4228,-220.9388 774.6843,-220.308 776.0366,-219.7147 777.4754,-219.1606 778.9959,-218.6472 780.5929,-218.1759 782.2604,-217.7479 783.9925,-217.3645 785.7825,-217.0266 787.6233,-216.7353 789.5079,-216.4913 791.4285,-216.2953 793.3775,-216.1479 795.3468,-216.0493 797.3284,-216 799.3141,-216 801.2957,-216.0493"></polygon>
<text text-anchor="middle" x="798.3213" y="-229.8" font-family="Times,serif" font-size="14.00" fill="#000000">☐ 50</text>
</a>
</g>
</g>
<!-- 18&#45;&gt;50 -->
<g id="edge25" class="edge">
<title>18-&gt;50</title>
<path fill="none" stroke="#000000" d="M864.1236,-291.0816C852.1698,-280.712 836.0624,-266.7393 822.7762,-255.2139"></path>
<polygon fill="#000000" stroke="#000000" points="824.7779,-252.317 814.9305,-248.408 820.1909,-257.6047 824.7779,-252.317"></polygon>
</g>
<!-- 69 -->
<g id="node29" class="node">
<title>69</title>
<g id="a_node29"><a xlink:title="64">
<polygon fill="#c8c8c8" stroke="#000000" stroke-width="2" points="884.2957,-216.0493 886.265,-216.1479 888.214,-216.2953 890.1346,-216.4913 892.0192,-216.7353 893.8601,-217.0266 895.65,-217.3645 897.3821,-217.7479 899.0497,-218.1759 900.6466,-218.6472 902.1671,-219.1606 903.6059,-219.7147 904.9582,-220.308 906.2197,-220.9388 907.3867,-221.6054 908.4559,-222.3059 909.4248,-223.0385 910.2913,-223.8012 911.0537,-224.5918 911.7112,-225.4082 912.2634,-226.2481 912.7103,-227.1093 913.0525,-227.9894 913.2912,-228.886 913.428,-229.7965 913.4648,-230.7186 913.404,-231.6497 913.2485,-232.5873 913.0014,-233.5287 912.6661,-234.4713 912.2462,-235.4127 911.7457,-236.3503 911.1686,-237.2814 910.5191,-238.2035 909.8016,-239.114 909.0203,-240.0106 908.1797,-240.8907 907.284,-241.7519 906.3377,-242.5918 905.3448,-243.4082 904.3096,-244.1988 903.2359,-244.9615 902.1276,-245.6941 900.9882,-246.3946 899.8212,-247.0612 898.6298,-247.692 897.4169,-248.2853 896.1854,-248.8394 894.9377,-249.3528 893.6761,-249.8241 892.4027,-250.2521 891.1194,-250.6355 889.8278,-250.9734 888.5295,-251.2647 887.2258,-251.5087 885.9178,-251.7047 884.6067,-251.8521 883.2934,-251.9507 881.9788,-252 880.6637,-252 879.3491,-251.9507 878.0358,-251.8521 876.7247,-251.7047 875.4167,-251.5087 874.113,-251.2647 872.8147,-250.9734 871.5231,-250.6355 870.2398,-250.2521 868.9664,-249.8241 867.7049,-249.3528 866.4571,-248.8394 865.2256,-248.2853 864.0127,-247.692 862.8213,-247.0612 861.6543,-246.3946 860.515,-245.6941 859.4066,-244.9615 858.333,-244.1988 857.2977,-243.4082 856.3049,-242.5918 855.3585,-241.7519 854.4629,-240.8907 853.6222,-240.0106 852.8409,-239.114 852.1234,-238.2035 851.4739,-237.2814 850.8968,-236.3503 850.3963,-235.4127 849.9764,-234.4713 849.6411,-233.5287 849.394,-232.5873 849.2385,-231.6497 849.1778,-230.7186 849.2146,-229.7965 849.3513,-228.886 849.59,-227.9894 849.9322,-227.1093 850.3791,-226.2481 850.9313,-225.4082 851.5888,-224.5918 852.3512,-223.8012 853.2177,-223.0385 854.1866,-222.3059 855.2558,-221.6054 856.4228,-220.9388 857.6843,-220.308 859.0366,-219.7147 860.4754,-219.1606 861.9959,-218.6472 863.5929,-218.1759 865.2604,-217.7479 866.9925,-217.3645 868.7825,-217.0266 870.6233,-216.7353 872.5079,-216.4913 874.4285,-216.2953 876.3775,-216.1479 878.3468,-216.0493 880.3284,-216 882.3141,-216 884.2957,-216.0493"></polygon>
<text text-anchor="middle" x="881.3213" y="-229.8" font-family="Times,serif" font-size="14.00" fill="#000000">☐ 69</text>
</a>
</g>
</g>
<!-- 18&#45;&gt;69 -->
<g id="edge26" class="edge">
<title>18-&gt;69</title>
<path fill="none" stroke="#000000" d="M881.3213,-287.8314C881.3213,-280.131 881.3213,-270.9743 881.3213,-262.4166"></path>
<polygon fill="#000000" stroke="#000000" points="884.8214,-262.4132 881.3213,-252.4133 877.8214,-262.4133 884.8214,-262.4132"></polygon>
</g>
<!-- 34 -->
<g id="node44" class="node">
<title>34</title>
<g id="a_node44"><a xlink:title="33">
<ellipse fill="none" stroke="#000000" cx="357.3213" cy="-306" rx="30.2015" ry="18"></ellipse>
<text text-anchor="middle" x="357.3213" y="-301.8" font-family="Times,serif" font-size="14.00" fill="#000000">☐ 34</text>
</a>
</g>
</g>
<!-- 33&#45;&gt;34 -->
<g id="edge39" class="edge">
<title>33-&gt;34</title>
<path fill="none" stroke="#000000" d="M357.3213,-359.8314C357.3213,-352.131 357.3213,-342.9743 357.3213,-334.4166"></path>
<polygon fill="#000000" stroke="#000000" points="360.8214,-334.4132 357.3213,-324.4133 353.8214,-334.4133 360.8214,-334.4132"></polygon>
</g>
<!-- 25 -->
<g id="node33" class="node">
<title>25</title>
<g id="a_node33"><a xlink:title="26">
<ellipse fill="none" stroke="#000000" cx="519.3213" cy="-306" rx="30.2015" ry="18"></ellipse>
<text text-anchor="middle" x="519.3213" y="-301.8" font-family="Times,serif" font-size="14.00" fill="#000000">☐ 25</text>
</a>
</g>
</g>
<!-- 22&#45;&gt;25 -->
<g id="edge30" class="edge">
<title>22-&gt;25</title>
<path fill="none" stroke="#000000" d="M519.3213,-359.8314C519.3213,-352.131 519.3213,-342.9743 519.3213,-334.4166"></path>
<polygon fill="#000000" stroke="#000000" points="522.8214,-334.4132 519.3213,-324.4133 515.8214,-334.4133 522.8214,-334.4132"></polygon>
</g>
<!-- 35 -->
<g id="node37" class="node">
<title>35</title>
<g id="a_node37"><a xlink:title="34">
<ellipse fill="none" stroke="#000000" cx="438.3213" cy="-234" rx="30.2015" ry="18"></ellipse>
<text text-anchor="middle" x="438.3213" y="-229.8" font-family="Times,serif" font-size="14.00" fill="#000000">☐ 35</text>
</a>
</g>
</g>
<!-- 25&#45;&gt;35 -->
<g id="edge33" class="edge">
<title>25-&gt;35</title>
<path fill="none" stroke="#000000" d="M502.1432,-290.7307C490.6829,-280.5437 475.4432,-266.9973 462.7298,-255.6965"></path>
<polygon fill="#000000" stroke="#000000" points="464.9962,-253.0282 455.1968,-249.0004 460.3456,-258.2601 464.9962,-253.0282"></polygon>
</g>
<!-- 67 -->
<g id="node38" class="node">
<title>67</title>
<g id="a_node38"><a xlink:title="62">
<polygon fill="#c8c8c8" stroke="#000000" stroke-width="2" points="522.2957,-216.0493 524.265,-216.1479 526.214,-216.2953 528.1346,-216.4913 530.0192,-216.7353 531.8601,-217.0266 533.65,-217.3645 535.3821,-217.7479 537.0497,-218.1759 538.6466,-218.6472 540.1671,-219.1606 541.6059,-219.7147 542.9582,-220.308 544.2197,-220.9388 545.3867,-221.6054 546.4559,-222.3059 547.4248,-223.0385 548.2913,-223.8012 549.0537,-224.5918 549.7112,-225.4082 550.2634,-226.2481 550.7103,-227.1093 551.0525,-227.9894 551.2912,-228.886 551.428,-229.7965 551.4648,-230.7186 551.404,-231.6497 551.2485,-232.5873 551.0014,-233.5287 550.6661,-234.4713 550.2462,-235.4127 549.7457,-236.3503 549.1686,-237.2814 548.5191,-238.2035 547.8016,-239.114 547.0203,-240.0106 546.1797,-240.8907 545.284,-241.7519 544.3377,-242.5918 543.3448,-243.4082 542.3096,-244.1988 541.2359,-244.9615 540.1276,-245.6941 538.9882,-246.3946 537.8212,-247.0612 536.6298,-247.692 535.4169,-248.2853 534.1854,-248.8394 532.9377,-249.3528 531.6761,-249.8241 530.4027,-250.2521 529.1194,-250.6355 527.8278,-250.9734 526.5295,-251.2647 525.2258,-251.5087 523.9178,-251.7047 522.6067,-251.8521 521.2934,-251.9507 519.9788,-252 518.6637,-252 517.3491,-251.9507 516.0358,-251.8521 514.7247,-251.7047 513.4167,-251.5087 512.113,-251.2647 510.8147,-250.9734 509.5231,-250.6355 508.2398,-250.2521 506.9664,-249.8241 505.7049,-249.3528 504.4571,-248.8394 503.2256,-248.2853 502.0127,-247.692 500.8213,-247.0612 499.6543,-246.3946 498.515,-245.6941 497.4066,-244.9615 496.333,-244.1988 495.2977,-243.4082 494.3049,-242.5918 493.3585,-241.7519 492.4629,-240.8907 491.6222,-240.0106 490.8409,-239.114 490.1234,-238.2035 489.4739,-237.2814 488.8968,-236.3503 488.3963,-235.4127 487.9764,-234.4713 487.6411,-233.5287 487.394,-232.5873 487.2385,-231.6497 487.1778,-230.7186 487.2146,-229.7965 487.3513,-228.886 487.59,-227.9894 487.9322,-227.1093 488.3791,-226.2481 488.9313,-225.4082 489.5888,-224.5918 490.3512,-223.8012 491.2177,-223.0385 492.1866,-222.3059 493.2558,-221.6054 494.4228,-220.9388 495.6843,-220.308 497.0366,-219.7147 498.4754,-219.1606 499.9959,-218.6472 501.5929,-218.1759 503.2604,-217.7479 504.9925,-217.3645 506.7825,-217.0266 508.6233,-216.7353 510.5079,-216.4913 512.4285,-216.2953 514.3775,-216.1479 516.3468,-216.0493 518.3284,-216 520.3141,-216 522.2957,-216.0493"></polygon>
<text text-anchor="middle" x="519.3213" y="-229.8" font-family="Times,serif" font-size="14.00" fill="#000000">☐ 67</text>
</a>
</g>
</g>
<!-- 25&#45;&gt;67 -->
<g id="edge34" class="edge">
<title>25-&gt;67</title>
<path fill="none" stroke="#000000" d="M519.3213,-287.8314C519.3213,-280.131 519.3213,-270.9743 519.3213,-262.4166"></path>
<polygon fill="#000000" stroke="#000000" points="522.8214,-262.4132 519.3213,-252.4133 515.8214,-262.4133 522.8214,-262.4132"></polygon>
</g>
<!-- 44 -->
<g id="node53" class="node">
<title>44</title>
<g id="a_node53"><a xlink:title="43">
<polygon fill="#c8c8c8" stroke="#000000" stroke-width="2" points="605.2957,-216.0493 607.265,-216.1479 609.214,-216.2953 611.1346,-216.4913 613.0192,-216.7353 614.8601,-217.0266 616.65,-217.3645 618.3821,-217.7479 620.0497,-218.1759 621.6466,-218.6472 623.1671,-219.1606 624.6059,-219.7147 625.9582,-220.308 627.2197,-220.9388 628.3867,-221.6054 629.4559,-222.3059 630.4248,-223.0385 631.2913,-223.8012 632.0537,-224.5918 632.7112,-225.4082 633.2634,-226.2481 633.7103,-227.1093 634.0525,-227.9894 634.2912,-228.886 634.428,-229.7965 634.4648,-230.7186 634.404,-231.6497 634.2485,-232.5873 634.0014,-233.5287 633.6661,-234.4713 633.2462,-235.4127 632.7457,-236.3503 632.1686,-237.2814 631.5191,-238.2035 630.8016,-239.114 630.0203,-240.0106 629.1797,-240.8907 628.284,-241.7519 627.3377,-242.5918 626.3448,-243.4082 625.3096,-244.1988 624.2359,-244.9615 623.1276,-245.6941 621.9882,-246.3946 620.8212,-247.0612 619.6298,-247.692 618.4169,-248.2853 617.1854,-248.8394 615.9377,-249.3528 614.6761,-249.8241 613.4027,-250.2521 612.1194,-250.6355 610.8278,-250.9734 609.5295,-251.2647 608.2258,-251.5087 606.9178,-251.7047 605.6067,-251.8521 604.2934,-251.9507 602.9788,-252 601.6637,-252 600.3491,-251.9507 599.0358,-251.8521 597.7247,-251.7047 596.4167,-251.5087 595.113,-251.2647 593.8147,-250.9734 592.5231,-250.6355 591.2398,-250.2521 589.9664,-249.8241 588.7049,-249.3528 587.4571,-248.8394 586.2256,-248.2853 585.0127,-247.692 583.8213,-247.0612 582.6543,-246.3946 581.515,-245.6941 580.4066,-244.9615 579.333,-244.1988 578.2977,-243.4082 577.3049,-242.5918 576.3585,-241.7519 575.4629,-240.8907 574.6222,-240.0106 573.8409,-239.114 573.1234,-238.2035 572.4739,-237.2814 571.8968,-236.3503 571.3963,-235.4127 570.9764,-234.4713 570.6411,-233.5287 570.394,-232.5873 570.2385,-231.6497 570.1778,-230.7186 570.2146,-229.7965 570.3513,-228.886 570.59,-227.9894 570.9322,-227.1093 571.3791,-226.2481 571.9313,-225.4082 572.5888,-224.5918 573.3512,-223.8012 574.2177,-223.0385 575.1866,-222.3059 576.2558,-221.6054 577.4228,-220.9388 578.6843,-220.308 580.0366,-219.7147 581.4754,-219.1606 582.9959,-218.6472 584.5929,-218.1759 586.2604,-217.7479 587.9925,-217.3645 589.7825,-217.0266 591.6233,-216.7353 593.5079,-216.4913 595.4285,-216.2953 597.3775,-216.1479 599.3468,-216.0493 601.3284,-216 603.3141,-216 605.2957,-216.0493"></polygon>
<text text-anchor="middle" x="602.3213" y="-229.8" font-family="Times,serif" font-size="14.00" fill="#000000">☐ 44</text>
</a>
</g>
</g>
<!-- 43&#45;&gt;44 -->
<g id="edge48" class="edge">
<title>43-&gt;44</title>
<path fill="none" stroke="#000000" d="M600.8259,-287.8314C601.0398,-280.131 601.2942,-270.9743 601.5319,-262.4166"></path>
<polygon fill="#000000" stroke="#000000" points="605.0307,-262.5066 601.8098,-252.4133 598.0334,-262.3122 605.0307,-262.5066"></polygon>
</g>
<!-- 36 -->
<g id="node47" class="node">
<title>36</title>
<g id="a_node47"><a xlink:title="35">
<polygon fill="#c8c8c8" stroke="#000000" stroke-width="2" points="441.2957,-144.0493 443.265,-144.1479 445.214,-144.2953 447.1346,-144.4913 449.0192,-144.7353 450.8601,-145.0266 452.65,-145.3645 454.3821,-145.7479 456.0497,-146.1759 457.6466,-146.6472 459.1671,-147.1606 460.6059,-147.7147 461.9582,-148.308 463.2197,-148.9388 464.3867,-149.6054 465.4559,-150.3059 466.4248,-151.0385 467.2913,-151.8012 468.0537,-152.5918 468.7112,-153.4082 469.2634,-154.2481 469.7103,-155.1093 470.0525,-155.9894 470.2912,-156.886 470.428,-157.7965 470.4648,-158.7186 470.404,-159.6497 470.2485,-160.5873 470.0014,-161.5287 469.6661,-162.4713 469.2462,-163.4127 468.7457,-164.3503 468.1686,-165.2814 467.5191,-166.2035 466.8016,-167.114 466.0203,-168.0106 465.1797,-168.8907 464.284,-169.7519 463.3377,-170.5918 462.3448,-171.4082 461.3096,-172.1988 460.2359,-172.9615 459.1276,-173.6941 457.9882,-174.3946 456.8212,-175.0612 455.6298,-175.692 454.4169,-176.2853 453.1854,-176.8394 451.9377,-177.3528 450.6761,-177.8241 449.4027,-178.2521 448.1194,-178.6355 446.8278,-178.9734 445.5295,-179.2647 444.2258,-179.5087 442.9178,-179.7047 441.6067,-179.8521 440.2934,-179.9507 438.9788,-180 437.6637,-180 436.3491,-179.9507 435.0358,-179.8521 433.7247,-179.7047 432.4167,-179.5087 431.113,-179.2647 429.8147,-178.9734 428.5231,-178.6355 427.2398,-178.2521 425.9664,-177.8241 424.7049,-177.3528 423.4571,-176.8394 422.2256,-176.2853 421.0127,-175.692 419.8213,-175.0612 418.6543,-174.3946 417.515,-173.6941 416.4066,-172.9615 415.333,-172.1988 414.2977,-171.4082 413.3049,-170.5918 412.3585,-169.7519 411.4629,-168.8907 410.6222,-168.0106 409.8409,-167.114 409.1234,-166.2035 408.4739,-165.2814 407.8968,-164.3503 407.3963,-163.4127 406.9764,-162.4713 406.6411,-161.5287 406.394,-160.5873 406.2385,-159.6497 406.1778,-158.7186 406.2146,-157.7965 406.3513,-156.886 406.59,-155.9894 406.9322,-155.1093 407.3791,-154.2481 407.9313,-153.4082 408.5888,-152.5918 409.3512,-151.8012 410.2177,-151.0385 411.1866,-150.3059 412.2558,-149.6054 413.4228,-148.9388 414.6843,-148.308 416.0366,-147.7147 417.4754,-147.1606 418.9959,-146.6472 420.5929,-146.1759 422.2604,-145.7479 423.9925,-145.3645 425.7825,-145.0266 427.6233,-144.7353 429.5079,-144.4913 431.4285,-144.2953 433.3775,-144.1479 435.3468,-144.0493 437.3284,-144 439.3141,-144 441.2957,-144.0493"></polygon>
<text text-anchor="middle" x="438.3213" y="-157.8" font-family="Times,serif" font-size="14.00" fill="#000000">☐ 36</text>
</a>
</g>
</g>
<!-- 35&#45;&gt;36 -->
<g id="edge42" class="edge">
<title>35-&gt;36</title>
<path fill="none" stroke="#000000" d="M438.3213,-215.8314C438.3213,-208.131 438.3213,-198.9743 438.3213,-190.4166"></path>
<polygon fill="#000000" stroke="#000000" points="441.8214,-190.4132 438.3213,-180.4133 434.8214,-190.4133 441.8214,-190.4132"></polygon>
</g>
<!-- 55 -->
<g id="node40" class="node">
<title>55</title>
<g id="a_node40"><a xlink:title="53">
<ellipse fill="none" stroke="#000000" cx="32.3213" cy="-378" rx="30.2015" ry="18"></ellipse>
<text text-anchor="middle" x="32.3213" y="-373.8" font-family="Times,serif" font-size="14.00" fill="#000000">☐ 55</text>
</a>
</g>
</g>
<!-- 27&#45;&gt;55 -->
<g id="edge36" class="edge">
<title>27-&gt;55</title>
<path fill="none" stroke="#000000" d="M33.0689,-431.8314C32.962,-424.131 32.8348,-414.9743 32.7159,-406.4166"></path>
<polygon fill="#000000" stroke="#000000" points="36.2156,-406.3637 32.577,-396.4133 29.2163,-406.4609 36.2156,-406.3637"></polygon>
</g>
<!-- 57 -->
<g id="node60" class="node">
<title>57</title>
<g id="a_node60"><a xlink:title="54">
<ellipse fill="none" stroke="#000000" cx="32.3213" cy="-306" rx="30.2015" ry="18"></ellipse>
<text text-anchor="middle" x="32.3213" y="-301.8" font-family="Times,serif" font-size="14.00" fill="#000000">☐ 57</text>
</a>
</g>
</g>
<!-- 55&#45;&gt;57 -->
<g id="edge56" class="edge">
<title>55-&gt;57</title>
<path fill="none" stroke="#000000" d="M32.3213,-359.8314C32.3213,-352.131 32.3213,-342.9743 32.3213,-334.4166"></path>
<polygon fill="#000000" stroke="#000000" points="35.8214,-334.4132 32.3213,-324.4133 28.8214,-334.4133 35.8214,-334.4132"></polygon>
</g>
<!-- 60 -->
<g id="node61" class="node">
<title>60</title>
<g id="a_node61"><a xlink:title="56">
<polygon fill="#c8c8c8" stroke="#000000" stroke-width="2" points="116.2957,-360.0493 118.265,-360.1479 120.214,-360.2953 122.1346,-360.4913 124.0192,-360.7353 125.8601,-361.0266 127.65,-361.3645 129.3821,-361.7479 131.0497,-362.1759 132.6466,-362.6472 134.1671,-363.1606 135.6059,-363.7147 136.9582,-364.308 138.2197,-364.9388 139.3867,-365.6054 140.4559,-366.3059 141.4248,-367.0385 142.2913,-367.8012 143.0537,-368.5918 143.7112,-369.4082 144.2634,-370.2481 144.7103,-371.1093 145.0525,-371.9894 145.2912,-372.886 145.428,-373.7965 145.4648,-374.7186 145.404,-375.6497 145.2485,-376.5873 145.0014,-377.5287 144.6661,-378.4713 144.2462,-379.4127 143.7457,-380.3503 143.1686,-381.2814 142.5191,-382.2035 141.8016,-383.114 141.0203,-384.0106 140.1797,-384.8907 139.284,-385.7519 138.3377,-386.5918 137.3448,-387.4082 136.3096,-388.1988 135.2359,-388.9615 134.1276,-389.6941 132.9882,-390.3946 131.8212,-391.0612 130.6298,-391.692 129.4169,-392.2853 128.1854,-392.8394 126.9377,-393.3528 125.6761,-393.8241 124.4027,-394.2521 123.1194,-394.6355 121.8278,-394.9734 120.5295,-395.2647 119.2258,-395.5087 117.9178,-395.7047 116.6067,-395.8521 115.2934,-395.9507 113.9788,-396 112.6637,-396 111.3491,-395.9507 110.0358,-395.8521 108.7247,-395.7047 107.4167,-395.5087 106.113,-395.2647 104.8147,-394.9734 103.5231,-394.6355 102.2398,-394.2521 100.9664,-393.8241 99.7049,-393.3528 98.4571,-392.8394 97.2256,-392.2853 96.0127,-391.692 94.8213,-391.0612 93.6543,-390.3946 92.515,-389.6941 91.4066,-388.9615 90.333,-388.1988 89.2977,-387.4082 88.3049,-386.5918 87.3585,-385.7519 86.4629,-384.8907 85.6222,-384.0106 84.8409,-383.114 84.1234,-382.2035 83.4739,-381.2814 82.8968,-380.3503 82.3963,-379.4127 81.9764,-378.4713 81.6411,-377.5287 81.394,-376.5873 81.2385,-375.6497 81.1778,-374.7186 81.2146,-373.7965 81.3513,-372.886 81.59,-371.9894 81.9322,-371.1093 82.3791,-370.2481 82.9313,-369.4082 83.5888,-368.5918 84.3512,-367.8012 85.2177,-367.0385 86.1866,-366.3059 87.2558,-365.6054 88.4228,-364.9388 89.6843,-364.308 91.0366,-363.7147 92.4754,-363.1606 93.9959,-362.6472 95.5929,-362.1759 97.2604,-361.7479 98.9925,-361.3645 100.7825,-361.0266 102.6233,-360.7353 104.5079,-360.4913 106.4285,-360.2953 108.3775,-360.1479 110.3468,-360.0493 112.3284,-360 114.3141,-360 116.2957,-360.0493"></polygon>
<text text-anchor="middle" x="113.3213" y="-373.8" font-family="Times,serif" font-size="14.00" fill="#000000">☐ 60</text>
</a>
</g>
</g>
<!-- 59&#45;&gt;60 -->
<g id="edge58" class="edge">
<title>59-&gt;60</title>
<path fill="none" stroke="#000000" d="M113.3213,-431.8314C113.3213,-424.131 113.3213,-414.9743 113.3213,-406.4166"></path>
<polygon fill="#000000" stroke="#000000" points="116.8214,-406.4132 113.3213,-396.4133 109.8214,-406.4133 116.8214,-406.4132"></polygon>
</g>
<!-- 62 -->
<g id="node62" class="node">
<title>62</title>
<g id="a_node62"><a xlink:title="58">
<polygon fill="#c8c8c8" stroke="#000000" stroke-width="2" points="199.2957,-360.0493 201.265,-360.1479 203.214,-360.2953 205.1346,-360.4913 207.0192,-360.7353 208.8601,-361.0266 210.65,-361.3645 212.3821,-361.7479 214.0497,-362.1759 215.6466,-362.6472 217.1671,-363.1606 218.6059,-363.7147 219.9582,-364.308 221.2197,-364.9388 222.3867,-365.6054 223.4559,-366.3059 224.4248,-367.0385 225.2913,-367.8012 226.0537,-368.5918 226.7112,-369.4082 227.2634,-370.2481 227.7103,-371.1093 228.0525,-371.9894 228.2912,-372.886 228.428,-373.7965 228.4648,-374.7186 228.404,-375.6497 228.2485,-376.5873 228.0014,-377.5287 227.6661,-378.4713 227.2462,-379.4127 226.7457,-380.3503 226.1686,-381.2814 225.5191,-382.2035 224.8016,-383.114 224.0203,-384.0106 223.1797,-384.8907 222.284,-385.7519 221.3377,-386.5918 220.3448,-387.4082 219.3096,-388.1988 218.2359,-388.9615 217.1276,-389.6941 215.9882,-390.3946 214.8212,-391.0612 213.6298,-391.692 212.4169,-392.2853 211.1854,-392.8394 209.9377,-393.3528 208.6761,-393.8241 207.4027,-394.2521 206.1194,-394.6355 204.8278,-394.9734 203.5295,-395.2647 202.2258,-395.5087 200.9178,-395.7047 199.6067,-395.8521 198.2934,-395.9507 196.9788,-396 195.6637,-396 194.3491,-395.9507 193.0358,-395.8521 191.7247,-395.7047 190.4167,-395.5087 189.113,-395.2647 187.8147,-394.9734 186.5231,-394.6355 185.2398,-394.2521 183.9664,-393.8241 182.7049,-393.3528 181.4571,-392.8394 180.2256,-392.2853 179.0127,-391.692 177.8213,-391.0612 176.6543,-390.3946 175.515,-389.6941 174.4066,-388.9615 173.333,-388.1988 172.2977,-387.4082 171.3049,-386.5918 170.3585,-385.7519 169.4629,-384.8907 168.6222,-384.0106 167.8409,-383.114 167.1234,-382.2035 166.4739,-381.2814 165.8968,-380.3503 165.3963,-379.4127 164.9764,-378.4713 164.6411,-377.5287 164.394,-376.5873 164.2385,-375.6497 164.1778,-374.7186 164.2146,-373.7965 164.3513,-372.886 164.59,-371.9894 164.9322,-371.1093 165.3791,-370.2481 165.9313,-369.4082 166.5888,-368.5918 167.3512,-367.8012 168.2177,-367.0385 169.1866,-366.3059 170.2558,-365.6054 171.4228,-364.9388 172.6843,-364.308 174.0366,-363.7147 175.4754,-363.1606 176.9959,-362.6472 178.5929,-362.1759 180.2604,-361.7479 181.9925,-361.3645 183.7825,-361.0266 185.6233,-360.7353 187.5079,-360.4913 189.4285,-360.2953 191.3775,-360.1479 193.3468,-360.0493 195.3284,-360 197.3141,-360 199.2957,-360.0493"></polygon>
<text text-anchor="middle" x="196.3213" y="-373.8" font-family="Times,serif" font-size="14.00" fill="#000000">☐ 62</text>
</a>
</g>
</g>
<!-- 61&#45;&gt;62 -->
<g id="edge59" class="edge">
<title>61-&gt;62</title>
<path fill="none" stroke="#000000" d="M194.8259,-431.8314C195.0398,-424.131 195.2942,-414.9743 195.5319,-406.4166"></path>
<polygon fill="#000000" stroke="#000000" points="199.0307,-406.5066 195.8098,-396.4133 192.0334,-406.3122 199.0307,-406.5066"></polygon>
</g>
<!-- 63 -->
<g id="node45" class="node">
<title>63</title>
<g id="a_node45"><a xlink:title="59">
<polygon fill="#c8c8c8" stroke="#000000" stroke-width="2" points="277.2957,-216.0493 279.265,-216.1479 281.214,-216.2953 283.1346,-216.4913 285.0192,-216.7353 286.8601,-217.0266 288.65,-217.3645 290.3821,-217.7479 292.0497,-218.1759 293.6466,-218.6472 295.1671,-219.1606 296.6059,-219.7147 297.9582,-220.308 299.2197,-220.9388 300.3867,-221.6054 301.4559,-222.3059 302.4248,-223.0385 303.2913,-223.8012 304.0537,-224.5918 304.7112,-225.4082 305.2634,-226.2481 305.7103,-227.1093 306.0525,-227.9894 306.2912,-228.886 306.428,-229.7965 306.4648,-230.7186 306.404,-231.6497 306.2485,-232.5873 306.0014,-233.5287 305.6661,-234.4713 305.2462,-235.4127 304.7457,-236.3503 304.1686,-237.2814 303.5191,-238.2035 302.8016,-239.114 302.0203,-240.0106 301.1797,-240.8907 300.284,-241.7519 299.3377,-242.5918 298.3448,-243.4082 297.3096,-244.1988 296.2359,-244.9615 295.1276,-245.6941 293.9882,-246.3946 292.8212,-247.0612 291.6298,-247.692 290.4169,-248.2853 289.1854,-248.8394 287.9377,-249.3528 286.6761,-249.8241 285.4027,-250.2521 284.1194,-250.6355 282.8278,-250.9734 281.5295,-251.2647 280.2258,-251.5087 278.9178,-251.7047 277.6067,-251.8521 276.2934,-251.9507 274.9788,-252 273.6637,-252 272.3491,-251.9507 271.0358,-251.8521 269.7247,-251.7047 268.4167,-251.5087 267.113,-251.2647 265.8147,-250.9734 264.5231,-250.6355 263.2398,-250.2521 261.9664,-249.8241 260.7049,-249.3528 259.4571,-248.8394 258.2256,-248.2853 257.0127,-247.692 255.8213,-247.0612 254.6543,-246.3946 253.515,-245.6941 252.4066,-244.9615 251.333,-244.1988 250.2977,-243.4082 249.3049,-242.5918 248.3585,-241.7519 247.4629,-240.8907 246.6222,-240.0106 245.8409,-239.114 245.1234,-238.2035 244.4739,-237.2814 243.8968,-236.3503 243.3963,-235.4127 242.9764,-234.4713 242.6411,-233.5287 242.394,-232.5873 242.2385,-231.6497 242.1778,-230.7186 242.2146,-229.7965 242.3513,-228.886 242.59,-227.9894 242.9322,-227.1093 243.3791,-226.2481 243.9313,-225.4082 244.5888,-224.5918 245.3512,-223.8012 246.2177,-223.0385 247.1866,-222.3059 248.2558,-221.6054 249.4228,-220.9388 250.6843,-220.308 252.0366,-219.7147 253.4754,-219.1606 254.9959,-218.6472 256.5929,-218.1759 258.2604,-217.7479 259.9925,-217.3645 261.7825,-217.0266 263.6233,-216.7353 265.5079,-216.4913 267.4285,-216.2953 269.3775,-216.1479 271.3468,-216.0493 273.3284,-216 275.3141,-216 277.2957,-216.0493"></polygon>
<text text-anchor="middle" x="274.3213" y="-229.8" font-family="Times,serif" font-size="14.00" fill="#000000">☐ 63</text>
</a>
</g>
</g>
<!-- 34&#45;&gt;63 -->
<g id="edge40" class="edge">
<title>34-&gt;63</title>
<path fill="none" stroke="#000000" d="M340.1236,-291.0816C328.1698,-280.712 312.0624,-266.7393 298.7762,-255.2139"></path>
<polygon fill="#000000" stroke="#000000" points="300.7779,-252.317 290.9305,-248.408 296.1909,-257.6047 300.7779,-252.317"></polygon>
</g>
<!-- 68 -->
<g id="node46" class="node">
<title>68</title>
<g id="a_node46"><a xlink:title="63">
<polygon fill="#c8c8c8" stroke="#000000" stroke-width="2" points="360.2957,-216.0493 362.265,-216.1479 364.214,-216.2953 366.1346,-216.4913 368.0192,-216.7353 369.8601,-217.0266 371.65,-217.3645 373.3821,-217.7479 375.0497,-218.1759 376.6466,-218.6472 378.1671,-219.1606 379.6059,-219.7147 380.9582,-220.308 382.2197,-220.9388 383.3867,-221.6054 384.4559,-222.3059 385.4248,-223.0385 386.2913,-223.8012 387.0537,-224.5918 387.7112,-225.4082 388.2634,-226.2481 388.7103,-227.1093 389.0525,-227.9894 389.2912,-228.886 389.428,-229.7965 389.4648,-230.7186 389.404,-231.6497 389.2485,-232.5873 389.0014,-233.5287 388.6661,-234.4713 388.2462,-235.4127 387.7457,-236.3503 387.1686,-237.2814 386.5191,-238.2035 385.8016,-239.114 385.0203,-240.0106 384.1797,-240.8907 383.284,-241.7519 382.3377,-242.5918 381.3448,-243.4082 380.3096,-244.1988 379.2359,-244.9615 378.1276,-245.6941 376.9882,-246.3946 375.8212,-247.0612 374.6298,-247.692 373.4169,-248.2853 372.1854,-248.8394 370.9377,-249.3528 369.6761,-249.8241 368.4027,-250.2521 367.1194,-250.6355 365.8278,-250.9734 364.5295,-251.2647 363.2258,-251.5087 361.9178,-251.7047 360.6067,-251.8521 359.2934,-251.9507 357.9788,-252 356.6637,-252 355.3491,-251.9507 354.0358,-251.8521 352.7247,-251.7047 351.4167,-251.5087 350.113,-251.2647 348.8147,-250.9734 347.5231,-250.6355 346.2398,-250.2521 344.9664,-249.8241 343.7049,-249.3528 342.4571,-248.8394 341.2256,-248.2853 340.0127,-247.692 338.8213,-247.0612 337.6543,-246.3946 336.515,-245.6941 335.4066,-244.9615 334.333,-244.1988 333.2977,-243.4082 332.3049,-242.5918 331.3585,-241.7519 330.4629,-240.8907 329.6222,-240.0106 328.8409,-239.114 328.1234,-238.2035 327.4739,-237.2814 326.8968,-236.3503 326.3963,-235.4127 325.9764,-234.4713 325.6411,-233.5287 325.394,-232.5873 325.2385,-231.6497 325.1778,-230.7186 325.2146,-229.7965 325.3513,-228.886 325.59,-227.9894 325.9322,-227.1093 326.3791,-226.2481 326.9313,-225.4082 327.5888,-224.5918 328.3512,-223.8012 329.2177,-223.0385 330.1866,-222.3059 331.2558,-221.6054 332.4228,-220.9388 333.6843,-220.308 335.0366,-219.7147 336.4754,-219.1606 337.9959,-218.6472 339.5929,-218.1759 341.2604,-217.7479 342.9925,-217.3645 344.7825,-217.0266 346.6233,-216.7353 348.5079,-216.4913 350.4285,-216.2953 352.3775,-216.1479 354.3468,-216.0493 356.3284,-216 358.3141,-216 360.2957,-216.0493"></polygon>
<text text-anchor="middle" x="357.3213" y="-229.8" font-family="Times,serif" font-size="14.00" fill="#000000">☐ 68</text>
</a>
</g>
</g>
<!-- 34&#45;&gt;68 -->
<g id="edge41" class="edge">
<title>34-&gt;68</title>
<path fill="none" stroke="#000000" d="M357.3213,-287.8314C357.3213,-280.131 357.3213,-270.9743 357.3213,-262.4166"></path>
<polygon fill="#000000" stroke="#000000" points="360.8214,-262.4132 357.3213,-252.4133 353.8214,-262.4133 360.8214,-262.4132"></polygon>
</g>
<!-- 38&#45;&gt;9 -->
<g id="edge44" class="edge">
<title>38-&gt;9</title>
<path fill="none" stroke="#000000" d="M752.6048,-288.937C747.652,-280.2393 741.5251,-269.4799 736.0099,-259.7948"></path>
<polygon fill="#000000" stroke="#000000" points="738.9578,-257.8984 730.9679,-250.9405 732.8749,-261.3623 738.9578,-257.8984"></polygon>
</g>
<!-- 40 -->
<g id="node50" class="node">
<title>40</title>
<g id="a_node50"><a xlink:title="39">
<ellipse fill="none" stroke="#000000" cx="962.3213" cy="-234" rx="30.2015" ry="18"></ellipse>
<text text-anchor="middle" x="962.3213" y="-229.8" font-family="Times,serif" font-size="14.00" fill="#000000">☐ 40</text>
</a>
</g>
</g>
<!-- 39&#45;&gt;40 -->
<g id="edge45" class="edge">
<title>39-&gt;40</title>
<path fill="none" stroke="#000000" d="M961.5736,-287.8314C961.6805,-280.131 961.8077,-270.9743 961.9266,-262.4166"></path>
<polygon fill="#000000" stroke="#000000" points="965.4262,-262.4609 962.0655,-252.4133 958.4269,-262.3637 965.4262,-262.4609"></polygon>
</g>
<!-- 41 -->
<g id="node51" class="node">
<title>41</title>
<g id="a_node51"><a xlink:title="40">
<ellipse fill="none" stroke="#000000" cx="962.3213" cy="-162" rx="30.2015" ry="18"></ellipse>
<text text-anchor="middle" x="962.3213" y="-157.8" font-family="Times,serif" font-size="14.00" fill="#000000">☐ 41</text>
</a>
</g>
</g>
<!-- 40&#45;&gt;41 -->
<g id="edge46" class="edge">
<title>40-&gt;41</title>
<path fill="none" stroke="#000000" d="M962.3213,-215.8314C962.3213,-208.131 962.3213,-198.9743 962.3213,-190.4166"></path>
<polygon fill="#000000" stroke="#000000" points="965.8214,-190.4132 962.3213,-180.4133 958.8214,-190.4133 965.8214,-190.4132"></polygon>
</g>
<!-- 42 -->
<g id="node52" class="node">
<title>42</title>
<g id="a_node52"><a xlink:title="41">
<polygon fill="#c8c8c8" stroke="#000000" stroke-width="2" points="965.2957,-72.0493 967.265,-72.1479 969.214,-72.2953 971.1346,-72.4913 973.0192,-72.7353 974.8601,-73.0266 976.65,-73.3645 978.3821,-73.7479 980.0497,-74.1759 981.6466,-74.6472 983.1671,-75.1606 984.6059,-75.7147 985.9582,-76.308 987.2197,-76.9388 988.3867,-77.6054 989.4559,-78.3059 990.4248,-79.0385 991.2913,-79.8012 992.0537,-80.5918 992.7112,-81.4082 993.2634,-82.2481 993.7103,-83.1093 994.0525,-83.9894 994.2912,-84.886 994.428,-85.7965 994.4648,-86.7186 994.404,-87.6497 994.2485,-88.5873 994.0014,-89.5287 993.6661,-90.4713 993.2462,-91.4127 992.7457,-92.3503 992.1686,-93.2814 991.5191,-94.2035 990.8016,-95.114 990.0203,-96.0106 989.1797,-96.8907 988.284,-97.7519 987.3377,-98.5918 986.3448,-99.4082 985.3096,-100.1988 984.2359,-100.9615 983.1276,-101.6941 981.9882,-102.3946 980.8212,-103.0612 979.6298,-103.692 978.4169,-104.2853 977.1854,-104.8394 975.9377,-105.3528 974.6761,-105.8241 973.4027,-106.2521 972.1194,-106.6355 970.8278,-106.9734 969.5295,-107.2647 968.2258,-107.5087 966.9178,-107.7047 965.6067,-107.8521 964.2934,-107.9507 962.9788,-108 961.6637,-108 960.3491,-107.9507 959.0358,-107.8521 957.7247,-107.7047 956.4167,-107.5087 955.113,-107.2647 953.8147,-106.9734 952.5231,-106.6355 951.2398,-106.2521 949.9664,-105.8241 948.7049,-105.3528 947.4571,-104.8394 946.2256,-104.2853 945.0127,-103.692 943.8213,-103.0612 942.6543,-102.3946 941.515,-101.6941 940.4066,-100.9615 939.333,-100.1988 938.2977,-99.4082 937.3049,-98.5918 936.3585,-97.7519 935.4629,-96.8907 934.6222,-96.0106 933.8409,-95.114 933.1234,-94.2035 932.4739,-93.2814 931.8968,-92.3503 931.3963,-91.4127 930.9764,-90.4713 930.6411,-89.5287 930.394,-88.5873 930.2385,-87.6497 930.1778,-86.7186 930.2146,-85.7965 930.3513,-84.886 930.59,-83.9894 930.9322,-83.1093 931.3791,-82.2481 931.9313,-81.4082 932.5888,-80.5918 933.3512,-79.8012 934.2177,-79.0385 935.1866,-78.3059 936.2558,-77.6054 937.4228,-76.9388 938.6843,-76.308 940.0366,-75.7147 941.4754,-75.1606 942.9959,-74.6472 944.5929,-74.1759 946.2604,-73.7479 947.9925,-73.3645 949.7825,-73.0266 951.6233,-72.7353 953.5079,-72.4913 955.4285,-72.2953 957.3775,-72.1479 959.3468,-72.0493 961.3284,-72 963.3141,-72 965.2957,-72.0493"></polygon>
<text text-anchor="middle" x="962.3213" y="-85.8" font-family="Times,serif" font-size="14.00" fill="#000000">☐ 42</text>
</a>
</g>
</g>
<!-- 41&#45;&gt;42 -->
<g id="edge47" class="edge">
<title>41-&gt;42</title>
<path fill="none" stroke="#000000" d="M962.3213,-143.8314C962.3213,-136.131 962.3213,-126.9743 962.3213,-118.4166"></path>
<polygon fill="#000000" stroke="#000000" points="965.8214,-118.4132 962.3213,-108.4133 958.8214,-118.4133 965.8214,-118.4132"></polygon>
</g>
<!-- 49 -->
<g id="node55" class="node">
<title>49</title>
<g id="a_node55"><a xlink:title="47">
<polygon fill="#c8c8c8" stroke="#000000" stroke-width="2" points="1046.2957,-216.0493 1048.265,-216.1479 1050.214,-216.2953 1052.1346,-216.4913 1054.0192,-216.7353 1055.8601,-217.0266 1057.65,-217.3645 1059.3821,-217.7479 1061.0497,-218.1759 1062.6466,-218.6472 1064.1671,-219.1606 1065.6059,-219.7147 1066.9582,-220.308 1068.2197,-220.9388 1069.3867,-221.6054 1070.4559,-222.3059 1071.4248,-223.0385 1072.2913,-223.8012 1073.0537,-224.5918 1073.7112,-225.4082 1074.2634,-226.2481 1074.7103,-227.1093 1075.0525,-227.9894 1075.2912,-228.886 1075.428,-229.7965 1075.4648,-230.7186 1075.404,-231.6497 1075.2485,-232.5873 1075.0014,-233.5287 1074.6661,-234.4713 1074.2462,-235.4127 1073.7457,-236.3503 1073.1686,-237.2814 1072.5191,-238.2035 1071.8016,-239.114 1071.0203,-240.0106 1070.1797,-240.8907 1069.284,-241.7519 1068.3377,-242.5918 1067.3448,-243.4082 1066.3096,-244.1988 1065.2359,-244.9615 1064.1276,-245.6941 1062.9882,-246.3946 1061.8212,-247.0612 1060.6298,-247.692 1059.4169,-248.2853 1058.1854,-248.8394 1056.9377,-249.3528 1055.6761,-249.8241 1054.4027,-250.2521 1053.1194,-250.6355 1051.8278,-250.9734 1050.5295,-251.2647 1049.2258,-251.5087 1047.9178,-251.7047 1046.6067,-251.8521 1045.2934,-251.9507 1043.9788,-252 1042.6637,-252 1041.3491,-251.9507 1040.0358,-251.8521 1038.7247,-251.7047 1037.4167,-251.5087 1036.113,-251.2647 1034.8147,-250.9734 1033.5231,-250.6355 1032.2398,-250.2521 1030.9664,-249.8241 1029.7049,-249.3528 1028.4571,-248.8394 1027.2256,-248.2853 1026.0127,-247.692 1024.8213,-247.0612 1023.6543,-246.3946 1022.515,-245.6941 1021.4066,-244.9615 1020.333,-244.1988 1019.2977,-243.4082 1018.3049,-242.5918 1017.3585,-241.7519 1016.4629,-240.8907 1015.6222,-240.0106 1014.8409,-239.114 1014.1234,-238.2035 1013.4739,-237.2814 1012.8968,-236.3503 1012.3963,-235.4127 1011.9764,-234.4713 1011.6411,-233.5287 1011.394,-232.5873 1011.2385,-231.6497 1011.1778,-230.7186 1011.2146,-229.7965 1011.3513,-228.886 1011.59,-227.9894 1011.9322,-227.1093 1012.3791,-226.2481 1012.9313,-225.4082 1013.5888,-224.5918 1014.3512,-223.8012 1015.2177,-223.0385 1016.1866,-222.3059 1017.2558,-221.6054 1018.4228,-220.9388 1019.6843,-220.308 1021.0366,-219.7147 1022.4754,-219.1606 1023.9959,-218.6472 1025.5929,-218.1759 1027.2604,-217.7479 1028.9925,-217.3645 1030.7825,-217.0266 1032.6233,-216.7353 1034.5079,-216.4913 1036.4285,-216.2953 1038.3775,-216.1479 1040.3468,-216.0493 1042.3284,-216 1044.3141,-216 1046.2957,-216.0493"></polygon>
<text text-anchor="middle" x="1043.3213" y="-229.8" font-family="Times,serif" font-size="14.00" fill="#000000">☐ 49</text>
</a>
</g>
</g>
<!-- 70&#45;&gt;49 -->
<g id="edge61" class="edge">
<title>70-&gt;49</title>
<path fill="none" stroke="#000000" d="M1043.3213,-287.8314C1043.3213,-280.131 1043.3213,-270.9743 1043.3213,-262.4166"></path>
<polygon fill="#000000" stroke="#000000" points="1046.8214,-262.4132 1043.3213,-252.4133 1039.8214,-262.4133 1046.8214,-262.4132"></polygon>
</g>
<!-- 52 -->
<g id="node57" class="node">
<title>52</title>
<g id="a_node57"><a xlink:title="50">
<ellipse fill="none" stroke="#000000" cx="1124.3213" cy="-234" rx="30.2015" ry="18"></ellipse>
<text text-anchor="middle" x="1124.3213" y="-229.8" font-family="Times,serif" font-size="14.00" fill="#000000">☐ 52</text>
</a>
</g>
</g>
<!-- 70&#45;&gt;52 -->
<g id="edge62" class="edge">
<title>70-&gt;52</title>
<path fill="none" stroke="#000000" d="M1060.4993,-290.7307C1071.9596,-280.5437 1087.1993,-266.9973 1099.9127,-255.6965"></path>
<polygon fill="#000000" stroke="#000000" points="1102.2969,-258.2601 1107.4458,-249.0004 1097.6464,-253.0282 1102.2969,-258.2601"></polygon>
</g>
<!-- 51 -->
<g id="node56" class="node">
<title>51</title>
<g id="a_node56"><a xlink:title="49">
<polygon fill="#c8c8c8" stroke="#000000" stroke-width="2" points="35.2957,-216.0493 37.265,-216.1479 39.214,-216.2953 41.1346,-216.4913 43.0192,-216.7353 44.8601,-217.0266 46.65,-217.3645 48.3821,-217.7479 50.0497,-218.1759 51.6466,-218.6472 53.1671,-219.1606 54.6059,-219.7147 55.9582,-220.308 57.2197,-220.9388 58.3867,-221.6054 59.4559,-222.3059 60.4248,-223.0385 61.2913,-223.8012 62.0537,-224.5918 62.7112,-225.4082 63.2634,-226.2481 63.7103,-227.1093 64.0525,-227.9894 64.2912,-228.886 64.428,-229.7965 64.4648,-230.7186 64.404,-231.6497 64.2485,-232.5873 64.0014,-233.5287 63.6661,-234.4713 63.2462,-235.4127 62.7457,-236.3503 62.1686,-237.2814 61.5191,-238.2035 60.8016,-239.114 60.0203,-240.0106 59.1797,-240.8907 58.284,-241.7519 57.3377,-242.5918 56.3448,-243.4082 55.3096,-244.1988 54.2359,-244.9615 53.1276,-245.6941 51.9882,-246.3946 50.8212,-247.0612 49.6298,-247.692 48.4169,-248.2853 47.1854,-248.8394 45.9377,-249.3528 44.6761,-249.8241 43.4027,-250.2521 42.1194,-250.6355 40.8278,-250.9734 39.5295,-251.2647 38.2258,-251.5087 36.9178,-251.7047 35.6067,-251.8521 34.2934,-251.9507 32.9788,-252 31.6637,-252 30.3491,-251.9507 29.0358,-251.8521 27.7247,-251.7047 26.4167,-251.5087 25.113,-251.2647 23.8147,-250.9734 22.5231,-250.6355 21.2398,-250.2521 19.9664,-249.8241 18.7049,-249.3528 17.4571,-248.8394 16.2256,-248.2853 15.0127,-247.692 13.8213,-247.0612 12.6543,-246.3946 11.515,-245.6941 10.4066,-244.9615 9.333,-244.1988 8.2977,-243.4082 7.3049,-242.5918 6.3585,-241.7519 5.4629,-240.8907 4.6222,-240.0106 3.8409,-239.114 3.1234,-238.2035 2.4739,-237.2814 1.8968,-236.3503 1.3963,-235.4127 .9764,-234.4713 .6411,-233.5287 .394,-232.5873 .2385,-231.6497 .1778,-230.7186 .2146,-229.7965 .3513,-228.886 .59,-227.9894 .9322,-227.1093 1.3791,-226.2481 1.9313,-225.4082 2.5888,-224.5918 3.3512,-223.8012 4.2177,-223.0385 5.1866,-222.3059 6.2558,-221.6054 7.4228,-220.9388 8.6843,-220.308 10.0366,-219.7147 11.4754,-219.1606 12.9959,-218.6472 14.5929,-218.1759 16.2604,-217.7479 17.9925,-217.3645 19.7825,-217.0266 21.6233,-216.7353 23.5079,-216.4913 25.4285,-216.2953 27.3775,-216.1479 29.3468,-216.0493 31.3284,-216 33.3141,-216 35.2957,-216.0493"></polygon>
<text text-anchor="middle" x="32.3213" y="-229.8" font-family="Times,serif" font-size="14.00" fill="#000000">☐ 51</text>
</a>
</g>
</g>
<!-- 53 -->
<g id="node58" class="node">
<title>53</title>
<g id="a_node58"><a xlink:title="51">
<ellipse fill="none" stroke="#000000" cx="1124.3213" cy="-162" rx="30.2015" ry="18"></ellipse>
<text text-anchor="middle" x="1124.3213" y="-157.8" font-family="Times,serif" font-size="14.00" fill="#000000">☐ 53</text>
</a>
</g>
</g>
<!-- 52&#45;&gt;53 -->
<g id="edge54" class="edge">
<title>52-&gt;53</title>
<path fill="none" stroke="#000000" d="M1124.3213,-215.8314C1124.3213,-208.131 1124.3213,-198.9743 1124.3213,-190.4166"></path>
<polygon fill="#000000" stroke="#000000" points="1127.8214,-190.4132 1124.3213,-180.4133 1120.8214,-190.4133 1127.8214,-190.4132"></polygon>
</g>
<!-- 54 -->
<g id="node59" class="node">
<title>54</title>
<g id="a_node59"><a xlink:title="52">
<polygon fill="#c8c8c8" stroke="#000000" stroke-width="2" points="1127.2957,-72.0493 1129.265,-72.1479 1131.214,-72.2953 1133.1346,-72.4913 1135.0192,-72.7353 1136.8601,-73.0266 1138.65,-73.3645 1140.3821,-73.7479 1142.0497,-74.1759 1143.6466,-74.6472 1145.1671,-75.1606 1146.6059,-75.7147 1147.9582,-76.308 1149.2197,-76.9388 1150.3867,-77.6054 1151.4559,-78.3059 1152.4248,-79.0385 1153.2913,-79.8012 1154.0537,-80.5918 1154.7112,-81.4082 1155.2634,-82.2481 1155.7103,-83.1093 1156.0525,-83.9894 1156.2912,-84.886 1156.428,-85.7965 1156.4648,-86.7186 1156.404,-87.6497 1156.2485,-88.5873 1156.0014,-89.5287 1155.6661,-90.4713 1155.2462,-91.4127 1154.7457,-92.3503 1154.1686,-93.2814 1153.5191,-94.2035 1152.8016,-95.114 1152.0203,-96.0106 1151.1797,-96.8907 1150.284,-97.7519 1149.3377,-98.5918 1148.3448,-99.4082 1147.3096,-100.1988 1146.2359,-100.9615 1145.1276,-101.6941 1143.9882,-102.3946 1142.8212,-103.0612 1141.6298,-103.692 1140.4169,-104.2853 1139.1854,-104.8394 1137.9377,-105.3528 1136.6761,-105.8241 1135.4027,-106.2521 1134.1194,-106.6355 1132.8278,-106.9734 1131.5295,-107.2647 1130.2258,-107.5087 1128.9178,-107.7047 1127.6067,-107.8521 1126.2934,-107.9507 1124.9788,-108 1123.6637,-108 1122.3491,-107.9507 1121.0358,-107.8521 1119.7247,-107.7047 1118.4167,-107.5087 1117.113,-107.2647 1115.8147,-106.9734 1114.5231,-106.6355 1113.2398,-106.2521 1111.9664,-105.8241 1110.7049,-105.3528 1109.4571,-104.8394 1108.2256,-104.2853 1107.0127,-103.692 1105.8213,-103.0612 1104.6543,-102.3946 1103.515,-101.6941 1102.4066,-100.9615 1101.333,-100.1988 1100.2977,-99.4082 1099.3049,-98.5918 1098.3585,-97.7519 1097.4629,-96.8907 1096.6222,-96.0106 1095.8409,-95.114 1095.1234,-94.2035 1094.4739,-93.2814 1093.8968,-92.3503 1093.3963,-91.4127 1092.9764,-90.4713 1092.6411,-89.5287 1092.394,-88.5873 1092.2385,-87.6497 1092.1778,-86.7186 1092.2146,-85.7965 1092.3513,-84.886 1092.59,-83.9894 1092.9322,-83.1093 1093.3791,-82.2481 1093.9313,-81.4082 1094.5888,-80.5918 1095.3512,-79.8012 1096.2177,-79.0385 1097.1866,-78.3059 1098.2558,-77.6054 1099.4228,-76.9388 1100.6843,-76.308 1102.0366,-75.7147 1103.4754,-75.1606 1104.9959,-74.6472 1106.5929,-74.1759 1108.2604,-73.7479 1109.9925,-73.3645 1111.7825,-73.0266 1113.6233,-72.7353 1115.5079,-72.4913 1117.4285,-72.2953 1119.3775,-72.1479 1121.3468,-72.0493 1123.3284,-72 1125.3141,-72 1127.2957,-72.0493"></polygon>
<text text-anchor="middle" x="1124.3213" y="-85.8" font-family="Times,serif" font-size="14.00" fill="#000000">☐ 54</text>
</a>
</g>
</g>
<!-- 53&#45;&gt;54 -->
<g id="edge55" class="edge">
<title>53-&gt;54</title>
<path fill="none" stroke="#000000" d="M1124.3213,-143.8314C1124.3213,-136.131 1124.3213,-126.9743 1124.3213,-118.4166"></path>
<polygon fill="#000000" stroke="#000000" points="1127.8214,-118.4132 1124.3213,-108.4133 1120.8214,-118.4133 1127.8214,-118.4132"></polygon>
</g>
<!-- 57&#45;&gt;51 -->
<g id="edge57" class="edge">
<title>57-&gt;51</title>
<path fill="none" stroke="#000000" d="M32.3213,-287.8314C32.3213,-280.131 32.3213,-270.9743 32.3213,-262.4166"></path>
<polygon fill="#000000" stroke="#000000" points="35.8214,-262.4132 32.3213,-252.4133 28.8214,-262.4133 35.8214,-262.4132"></polygon>
</g>
</g>
</svg>